<svg width="154" height="155" viewBox="0 0 154 155" fill="none" xmlns="http://www.w3.org/2000/svg">
<circle cx="77" cy="77.4683" r="77" fill="#FFF5F5"/>
<circle cx="77.0001" cy="77.4682" r="59.8889" fill="#FFDDDD"/>
<path fill-rule="evenodd" clip-rule="evenodd" d="M93.3475 63.7944V68.3485C98.4629 69.9452 102.19 74.5759 102.19 80.1069V94.7695C102.19 101.617 96.5133 107.168 89.5147 107.168H64.3783C57.3767 107.168 51.7 101.617 51.7 94.7695V80.1069C51.7 74.5759 55.4302 69.9452 60.5426 68.3485V63.7944C60.5727 54.9402 67.9063 47.7683 76.8997 47.7683C86.0139 47.7683 93.3475 54.9402 93.3475 63.7944ZM76.9603 52.9332C83.0867 52.9332 88.0663 57.803 88.0663 63.7943V67.7079H65.8242V63.7353C65.8543 57.7735 70.8339 52.9332 76.9603 52.9332ZM79.5857 90.6995C79.5857 92.1457 78.4087 93.2967 76.9299 93.2967C75.4813 93.2967 74.3043 92.1457 74.3043 90.6995V84.1474C74.3043 82.7307 75.4813 81.5796 76.9299 81.5796C78.4087 81.5796 79.5857 82.7307 79.5857 84.1474V90.6995Z" fill="#D80369"/>
</svg>
