<svg width="190" height="80" viewBox="0 0 190 80" fill="none" xmlns="http://www.w3.org/2000/svg">
<g filter="url(#filter0_d_67_37691)">
<rect x="22.4" y="17.2683" width="145.2" height="35.2" rx="11.1403" fill="white"/>
<path d="M72.465 34.6953V28.4567H74.7733C75.2724 28.4567 75.6853 28.5399 76.0121 28.7063C76.3389 28.8726 76.5825 29.1014 76.7429 29.3925C76.9034 29.6836 76.9836 30.0104 76.9836 30.3729C76.9836 30.7175 76.9063 31.0353 76.7518 31.3265C76.5974 31.6117 76.3567 31.8434 76.0299 32.0216C75.7032 32.1939 75.2843 32.2801 74.7733 32.2801H73.6058V34.6953H72.465ZM73.6058 31.3532H74.702C75.1001 31.3532 75.3853 31.2671 75.5576 31.0948C75.7358 30.9165 75.825 30.6759 75.825 30.3729C75.825 30.0639 75.7358 29.8233 75.5576 29.651C75.3853 29.4727 75.1001 29.3836 74.702 29.3836H73.6058V31.3532ZM78.4668 29.5886C78.2588 29.5886 78.0865 29.5262 77.9498 29.4014C77.8191 29.2767 77.7538 29.1192 77.7538 28.9291C77.7538 28.7389 77.8191 28.5845 77.9498 28.4656C78.0865 28.3409 78.2588 28.2785 78.4668 28.2785C78.6747 28.2785 78.844 28.3409 78.9748 28.4656C79.1114 28.5845 79.1797 28.7389 79.1797 28.9291C79.1797 29.1192 79.1114 29.2767 78.9748 29.4014C78.844 29.5262 78.6747 29.5886 78.4668 29.5886ZM77.8964 34.6953V30.2748H79.0371V34.6953H77.8964ZM80.2278 34.6953V30.2748H81.2349L81.324 31.0235C81.4607 30.762 81.6568 30.5541 81.9123 30.3996C82.1737 30.2451 82.4797 30.1679 82.8302 30.1679C83.3768 30.1679 83.8017 30.3402 84.1047 30.6848C84.4077 31.0294 84.5592 31.5344 84.5592 32.1999V34.6953H83.4184V32.3068C83.4184 31.9266 83.3412 31.6354 83.1867 31.4334C83.0322 31.2314 82.7916 31.1304 82.4648 31.1304C82.144 31.1304 81.8796 31.2433 81.6716 31.4691C81.4696 31.6948 81.3686 32.0097 81.3686 32.4138V34.6953H80.2278ZM89.9304 34.8023C89.4729 34.8023 89.0689 34.725 88.7184 34.5705C88.3678 34.4101 88.0915 34.1843 87.8895 33.8932C87.6875 33.5961 87.5835 33.2367 87.5776 32.8148H88.7808C88.7926 33.106 88.8966 33.3525 89.0927 33.5545C89.2947 33.7506 89.571 33.8486 89.9215 33.8486C90.2245 33.8486 90.4652 33.7773 90.6434 33.6348C90.8217 33.4862 90.9108 33.2901 90.9108 33.0465C90.9108 32.7911 90.8306 32.592 90.6702 32.4494C90.5157 32.3068 90.3077 32.191 90.0463 32.1018C89.7849 32.0127 89.5056 31.9177 89.2085 31.8167C88.7273 31.6503 88.3589 31.4364 88.1034 31.175C87.8539 30.9135 87.7291 30.566 87.7291 30.1322C87.7232 29.7639 87.8093 29.449 87.9876 29.1875C88.1718 28.9202 88.4213 28.7152 88.7362 28.5726C89.0511 28.424 89.4135 28.3498 89.8235 28.3498C90.2394 28.3498 90.6048 28.424 90.9197 28.5726C91.2405 28.7211 91.4901 28.9291 91.6683 29.1964C91.8525 29.4638 91.9506 29.7817 91.9624 30.1501H90.7415C90.7355 29.9302 90.6494 29.7371 90.483 29.5708C90.3226 29.3985 90.0968 29.3123 89.8057 29.3123C89.5561 29.3064 89.3452 29.3687 89.1729 29.4995C89.0065 29.6242 88.9234 29.8084 88.9234 30.052C88.9234 30.26 88.9887 30.4263 89.1194 30.5511C89.2501 30.6699 89.4284 30.7709 89.6542 30.8541C89.8799 30.9373 90.1384 31.0264 90.4295 31.1215C90.7385 31.2284 91.0207 31.3532 91.2762 31.4958C91.5317 31.6384 91.7367 31.8285 91.8911 32.0662C92.0456 32.2979 92.1229 32.598 92.1229 32.9663C92.1229 33.2931 92.0397 33.5961 91.8733 33.8754C91.707 34.1546 91.4604 34.3804 91.1336 34.5527C90.8068 34.7191 90.4058 34.8023 89.9304 34.8023ZM95.2393 34.8023C94.7937 34.8023 94.3986 34.7072 94.054 34.5171C93.7094 34.3269 93.439 34.0596 93.2429 33.715C93.0469 33.3704 92.9488 32.9723 92.9488 32.5207C92.9488 32.0632 93.0439 31.6562 93.234 31.2997C93.4301 30.9432 93.6975 30.667 94.0361 30.4709C94.3807 30.2689 94.7848 30.1679 95.2482 30.1679C95.6819 30.1679 96.0652 30.2629 96.3979 30.4531C96.7306 30.6432 96.9891 30.9046 97.1733 31.2374C97.3634 31.5641 97.4585 31.9295 97.4585 32.3336C97.4585 32.3989 97.4555 32.4672 97.4495 32.5385C97.4495 32.6098 97.4466 32.6841 97.4406 32.7614H94.0807C94.1045 33.106 94.2233 33.3763 94.4372 33.5724C94.657 33.7684 94.9214 33.8665 95.2304 33.8665C95.4621 33.8665 95.6552 33.816 95.8097 33.715C95.9701 33.608 96.0889 33.4714 96.1662 33.305H97.3248C97.2416 33.5842 97.102 33.8397 96.9059 34.0715C96.7158 34.2972 96.4781 34.4755 96.1929 34.6062C95.9137 34.7369 95.5958 34.8023 95.2393 34.8023ZM95.2482 31.0948C94.969 31.0948 94.7224 31.175 94.5085 31.3354C94.2946 31.4899 94.1579 31.7275 94.0985 32.0484H96.2999C96.282 31.7572 96.1751 31.5255 95.979 31.3532C95.7829 31.1809 95.5393 31.0948 95.2482 31.0948ZM100.584 34.8023C100.132 34.8023 99.734 34.7042 99.3893 34.5082C99.0447 34.3121 98.7714 34.0388 98.5694 33.6882C98.3733 33.3377 98.2753 32.9366 98.2753 32.4851C98.2753 32.0335 98.3733 31.6325 98.5694 31.2819C98.7714 30.9314 99.0447 30.6581 99.3893 30.462C99.734 30.2659 100.132 30.1679 100.584 30.1679C101.148 30.1679 101.623 30.3164 102.01 30.6135C102.396 30.9046 102.642 31.3087 102.749 31.8256H101.546C101.487 31.6117 101.368 31.4453 101.19 31.3265C101.017 31.2017 100.812 31.1393 100.575 31.1393C100.26 31.1393 99.9924 31.2581 99.7726 31.4958C99.5527 31.7335 99.4428 32.0632 99.4428 32.4851C99.4428 32.9069 99.5527 33.2367 99.7726 33.4743C99.9924 33.712 100.26 33.8308 100.575 33.8308C100.812 33.8308 101.017 33.7714 101.19 33.6526C101.368 33.5337 101.487 33.3644 101.546 33.1446H102.749C102.642 33.6437 102.396 34.0447 102.01 34.3477C101.623 34.6508 101.148 34.8023 100.584 34.8023ZM105.419 34.8023C104.867 34.8023 104.439 34.63 104.136 34.2853C103.839 33.9407 103.69 33.4357 103.69 32.7703V30.2748H104.822V32.6633C104.822 33.0436 104.9 33.3347 105.054 33.5367C105.209 33.7387 105.452 33.8397 105.785 33.8397C106.1 33.8397 106.358 33.7268 106.56 33.5011C106.768 33.2753 106.872 32.9604 106.872 32.5564V30.2748H108.013V34.6953H107.006L106.917 33.9467C106.78 34.2081 106.581 34.4161 106.32 34.5705C106.064 34.725 105.764 34.8023 105.419 34.8023ZM109.184 34.6953V30.2748H110.2L110.307 31.1037C110.467 30.8185 110.684 30.5927 110.958 30.4263C111.237 30.254 111.564 30.1679 111.938 30.1679V31.371H111.617C111.368 31.371 111.145 31.4097 110.949 31.4869C110.753 31.5641 110.598 31.6978 110.485 31.8879C110.378 32.0781 110.325 32.3425 110.325 32.6811V34.6953H109.184ZM114.787 34.8023C114.341 34.8023 113.946 34.7072 113.602 34.5171C113.257 34.3269 112.987 34.0596 112.791 33.715C112.595 33.3704 112.497 32.9723 112.497 32.5207C112.497 32.0632 112.592 31.6562 112.782 31.2997C112.978 30.9432 113.245 30.667 113.584 30.4709C113.929 30.2689 114.333 30.1679 114.796 30.1679C115.23 30.1679 115.613 30.2629 115.946 30.4531C116.278 30.6432 116.537 30.9046 116.721 31.2374C116.911 31.5641 117.006 31.9295 117.006 32.3336C117.006 32.3989 117.003 32.4672 116.997 32.5385C116.997 32.6098 116.994 32.6841 116.988 32.7614H113.629C113.652 33.106 113.771 33.3763 113.985 33.5724C114.205 33.7684 114.469 33.8665 114.778 33.8665C115.01 33.8665 115.203 33.816 115.357 33.715C115.518 33.608 115.637 33.4714 115.714 33.305H116.873C116.789 33.5842 116.65 33.8397 116.454 34.0715C116.264 34.2972 116.026 34.4755 115.741 34.6062C115.461 34.7369 115.144 34.8023 114.787 34.8023ZM114.796 31.0948C114.517 31.0948 114.27 31.175 114.056 31.3354C113.842 31.4899 113.706 31.7275 113.646 32.0484H115.848C115.83 31.7572 115.723 31.5255 115.527 31.3532C115.331 31.1809 115.087 31.0948 114.796 31.0948ZM119.998 34.8023C119.582 34.8023 119.21 34.7013 118.884 34.4992C118.557 34.2972 118.298 34.021 118.108 33.6704C117.918 33.3199 117.823 32.9218 117.823 32.4762C117.823 32.0305 117.918 31.6354 118.108 31.2908C118.298 30.9403 118.557 30.667 118.884 30.4709C119.21 30.2689 119.582 30.1679 119.998 30.1679C120.33 30.1679 120.622 30.2303 120.871 30.355C121.121 30.4798 121.323 30.6551 121.477 30.8809V28.2785H122.618V34.6953H121.602L121.477 34.0625C121.335 34.2586 121.144 34.4309 120.907 34.5795C120.675 34.728 120.372 34.8023 119.998 34.8023ZM120.238 33.8041C120.607 33.8041 120.907 33.6823 121.138 33.4387C121.376 33.1891 121.495 32.8713 121.495 32.4851C121.495 32.0989 121.376 31.784 121.138 31.5404C120.907 31.2908 120.607 31.1661 120.238 31.1661C119.876 31.1661 119.576 31.2879 119.338 31.5315C119.101 31.7751 118.982 32.09 118.982 32.4762C118.982 32.8624 119.101 33.1802 119.338 33.4298C119.576 33.6793 119.876 33.8041 120.238 33.8041ZM127.187 31.4869L127.356 30.2303L126.358 31.0145L125.93 30.257L127.097 29.7936L125.939 29.348L126.34 28.6261L127.365 29.4014L127.187 28.127H128.015L127.837 29.4014L128.853 28.6261L129.245 29.339L128.087 29.8025L129.254 30.2659L128.835 31.0056L127.837 30.2303L128.006 31.4869H127.187ZM131.695 31.4869L131.864 30.2303L130.866 31.0145L130.438 30.257L131.606 29.7936L130.447 29.348L130.848 28.6261L131.873 29.4014L131.695 28.127H132.524L132.346 29.4014L133.362 28.6261L133.754 29.339L132.595 29.8025L133.763 30.2659L133.344 31.0056L132.346 30.2303L132.515 31.4869H131.695ZM136.203 31.4869L136.373 30.2303L135.374 31.0145L134.947 30.257L136.114 29.7936L134.956 29.348L135.357 28.6261L136.382 29.4014L136.203 28.127H137.032L136.854 29.4014L137.87 28.6261L138.262 29.339L137.103 29.8025L138.271 30.2659L137.852 31.0056L136.854 30.2303L137.023 31.4869H136.203ZM140.712 31.4869L140.881 30.2303L139.883 31.0145L139.455 30.257L140.623 29.7936L139.464 29.348L139.865 28.6261L140.89 29.4014L140.712 28.127H141.54L141.362 29.4014L142.378 28.6261L142.77 29.339L141.612 29.8025L142.779 30.2659L142.36 31.0056L141.362 30.2303L141.532 31.4869H140.712Z" fill="#262626"/>
<path d="M73.2731 43.5784V39.8293H72.0313V39.4193H75.014V39.8293H73.7722V43.5784H73.2731ZM76.479 43.5843L75.3382 39.4193H75.8729L76.7701 42.9902L77.792 39.4193H78.3446L79.3368 42.9902L80.2459 39.4193H80.7806L79.6161 43.5784H79.0457L78.0535 40.1442L77.0375 43.5784L76.479 43.5843ZM81.3676 43.5784V39.4193H81.8667V43.5784H81.3676ZM84.5369 43.6497C84.1488 43.6497 83.8081 43.5605 83.515 43.3823C83.2219 43.2001 82.9941 42.9486 82.8317 42.6277C82.6693 42.3029 82.5881 41.9286 82.5881 41.5048C82.5881 41.081 82.6693 40.7066 82.8317 40.3818C82.9981 40.057 83.2318 39.8035 83.5328 39.6213C83.8378 39.4391 84.1963 39.348 84.6082 39.348C85.0756 39.348 85.4638 39.4609 85.7728 39.6867C86.0857 39.9125 86.2877 40.2234 86.3788 40.6195H85.8025C85.747 40.37 85.6143 40.1719 85.4044 40.0253C85.1984 39.8788 84.933 39.8055 84.6082 39.8055C84.3032 39.8055 84.0379 39.8748 83.8121 40.0135C83.5863 40.1481 83.41 40.3422 83.2833 40.5957C83.1605 40.8492 83.0991 41.1523 83.0991 41.5048C83.0991 41.8573 83.1605 42.1603 83.2833 42.4138C83.4061 42.6673 83.5764 42.8634 83.7943 43.002C84.0121 43.1367 84.2656 43.2041 84.5548 43.2041C84.9984 43.2041 85.3331 43.0753 85.5589 42.8179C85.7847 42.5564 85.9134 42.1999 85.9451 41.7484H84.7449V41.3562H86.456V43.5784H85.9986L85.957 42.8951C85.8064 43.1367 85.6223 43.3229 85.4044 43.4536C85.1865 43.5843 84.8974 43.6497 84.5369 43.6497ZM89.9169 43.6497C89.5644 43.6497 89.2712 43.5605 89.0375 43.3823C88.8038 43.2041 88.6672 42.9624 88.6276 42.6574H89.1385C89.1702 42.8119 89.2514 42.9466 89.3821 43.0615C89.5168 43.1724 89.697 43.2278 89.9228 43.2278C90.1328 43.2278 90.2872 43.1842 90.3863 43.0971C90.4853 43.006 90.5348 42.8991 90.5348 42.7763C90.5348 42.598 90.4694 42.4792 90.3387 42.4198C90.212 42.3604 90.0318 42.3069 89.7981 42.2594C89.6396 42.2277 89.4812 42.1821 89.3227 42.1227C89.1643 42.0633 89.0316 41.9801 88.9247 41.8732C88.8177 41.7622 88.7642 41.6177 88.7642 41.4394C88.7642 41.182 88.8593 40.972 89.0494 40.8096C89.2435 40.6433 89.5049 40.5601 89.8337 40.5601C90.1466 40.5601 90.4021 40.6393 90.6002 40.7977C90.8022 40.9522 90.919 41.174 90.9507 41.4632H90.4576C90.4378 41.3127 90.3724 41.1958 90.2615 41.1126C90.1545 41.0255 90.01 40.9819 89.8278 40.9819C89.6495 40.9819 89.5109 41.0196 89.4119 41.0948C89.3168 41.1701 89.2693 41.2691 89.2693 41.3919C89.2693 41.5107 89.3307 41.6038 89.4534 41.6711C89.5802 41.7385 89.7505 41.7959 89.9644 41.8434C90.1466 41.8831 90.3189 41.9326 90.4813 41.992C90.6477 42.0474 90.7824 42.1326 90.8854 42.2475C90.9923 42.3584 91.0458 42.5208 91.0458 42.7347C91.0497 43.0001 90.9487 43.2199 90.7428 43.3942C90.5407 43.5645 90.2655 43.6497 89.9169 43.6497ZM93.0837 43.6497C92.8025 43.6497 92.5529 43.5863 92.3351 43.4595C92.1172 43.3288 91.9449 43.1486 91.8182 42.9189C91.6954 42.6891 91.634 42.4178 91.634 42.1049C91.634 41.7959 91.6954 41.5266 91.8182 41.2968C91.941 41.0631 92.1113 40.8829 92.3291 40.7562C92.551 40.6254 92.8064 40.5601 93.0956 40.5601C93.3808 40.5601 93.6264 40.6254 93.8323 40.7562C94.0423 40.8829 94.2027 41.0512 94.3136 41.2612C94.4245 41.4711 94.48 41.6969 94.48 41.9385C94.48 41.9821 94.478 42.0257 94.474 42.0692C94.474 42.1128 94.474 42.1623 94.474 42.2178H92.1271C92.139 42.4435 92.1905 42.6317 92.2816 42.7822C92.3767 42.9288 92.4935 43.0397 92.6322 43.1149C92.7748 43.1902 92.9253 43.2278 93.0837 43.2278C93.2897 43.2278 93.462 43.1803 93.6006 43.0852C93.7393 42.9902 93.8403 42.8614 93.9036 42.699H94.3968C94.3176 42.9723 94.1651 43.2001 93.9393 43.3823C93.7175 43.5605 93.4323 43.6497 93.0837 43.6497ZM93.0837 40.9819C92.846 40.9819 92.6341 41.0552 92.448 41.2018C92.2658 41.3444 92.1608 41.5543 92.1331 41.8316H93.9868C93.9749 41.5662 93.8838 41.3582 93.7135 41.2077C93.5432 41.0572 93.3333 40.9819 93.0837 40.9819ZM96.4961 43.6497C96.2149 43.6497 95.9614 43.5863 95.7356 43.4595C95.5138 43.3288 95.3375 43.1486 95.2068 42.9189C95.0801 42.6852 95.0167 42.4138 95.0167 42.1049C95.0167 41.7959 95.0801 41.5266 95.2068 41.2968C95.3375 41.0631 95.5138 40.8829 95.7356 40.7562C95.9614 40.6254 96.2149 40.5601 96.4961 40.5601C96.8447 40.5601 97.1378 40.6512 97.3755 40.8334C97.6171 41.0156 97.7696 41.2592 97.833 41.5642H97.322C97.2824 41.382 97.1853 41.2414 97.0309 41.1423C96.8764 41.0394 96.6962 40.9879 96.4902 40.9879C96.3238 40.9879 96.1674 41.0295 96.0208 41.1126C95.8743 41.1958 95.7554 41.3206 95.6643 41.487C95.5732 41.6533 95.5277 41.8593 95.5277 42.1049C95.5277 42.3505 95.5732 42.5564 95.6643 42.7228C95.7554 42.8892 95.8743 43.0159 96.0208 43.103C96.1674 43.1862 96.3238 43.2278 96.4902 43.2278C96.6962 43.2278 96.8764 43.1783 97.0309 43.0793C97.1853 42.9763 97.2824 42.8317 97.322 42.6456H97.833C97.7736 42.9426 97.623 43.1842 97.3814 43.3704C97.1398 43.5566 96.8447 43.6497 96.4961 43.6497ZM99.6054 43.6497C99.2568 43.6497 98.9796 43.5447 98.7736 43.3348C98.5676 43.1209 98.4646 42.7941 98.4646 42.3544V40.6314H98.9637V42.3009C98.9637 42.9149 99.2152 43.2219 99.7183 43.2219C99.9758 43.2219 100.188 43.1308 100.354 42.9486C100.524 42.7624 100.61 42.499 100.61 42.1583V40.6314H101.109V43.5784H100.657L100.621 43.0496C100.53 43.2357 100.394 43.3823 100.211 43.4892C100.033 43.5962 99.8312 43.6497 99.6054 43.6497ZM101.93 43.5784V40.6314H102.382L102.423 41.1958C102.514 41.0017 102.653 40.8473 102.839 40.7324C103.025 40.6175 103.255 40.5601 103.528 40.5601V41.0829H103.392C103.217 41.0829 103.057 41.1146 102.91 41.178C102.764 41.2374 102.647 41.3404 102.56 41.487C102.473 41.6335 102.429 41.8355 102.429 42.093V43.5784H101.93ZM105.303 43.6497C105.022 43.6497 104.772 43.5863 104.555 43.4595C104.337 43.3288 104.164 43.1486 104.038 42.9189C103.915 42.6891 103.854 42.4178 103.854 42.1049C103.854 41.7959 103.915 41.5266 104.038 41.2968C104.161 41.0631 104.331 40.8829 104.549 40.7562C104.771 40.6254 105.026 40.5601 105.315 40.5601C105.6 40.5601 105.846 40.6254 106.052 40.7562C106.262 40.8829 106.422 41.0512 106.533 41.2612C106.644 41.4711 106.7 41.6969 106.7 41.9385C106.7 41.9821 106.698 42.0257 106.694 42.0692C106.694 42.1128 106.694 42.1623 106.694 42.2178H104.347C104.359 42.4435 104.41 42.6317 104.501 42.7822C104.596 42.9288 104.713 43.0397 104.852 43.1149C104.994 43.1902 105.145 43.2278 105.303 43.2278C105.509 43.2278 105.682 43.1803 105.82 43.0852C105.959 42.9902 106.06 42.8614 106.123 42.699H106.616C106.537 42.9723 106.385 43.2001 106.159 43.3823C105.937 43.5605 105.652 43.6497 105.303 43.6497ZM105.303 40.9819C105.066 40.9819 104.854 41.0552 104.668 41.2018C104.485 41.3444 104.38 41.5543 104.353 41.8316H106.206C106.194 41.5662 106.103 41.3582 105.933 41.2077C105.763 41.0572 105.553 40.9819 105.303 40.9819ZM108.933 44.8855V40.6314H109.385L109.433 41.1186C109.528 40.976 109.662 40.8473 109.837 40.7324C110.015 40.6175 110.241 40.5601 110.514 40.5601C110.807 40.5601 111.062 40.6274 111.28 40.7621C111.498 40.8968 111.667 41.081 111.785 41.3147C111.908 41.5484 111.97 41.8137 111.97 42.1108C111.97 42.4079 111.908 42.6733 111.785 42.907C111.667 43.1367 111.496 43.3189 111.274 43.4536C111.057 43.5843 110.801 43.6497 110.508 43.6497C110.266 43.6497 110.05 43.6002 109.86 43.5011C109.674 43.4021 109.532 43.2635 109.433 43.0852V44.8855H108.933ZM110.454 43.2159C110.653 43.2159 110.827 43.1704 110.977 43.0793C111.128 42.9842 111.247 42.8535 111.334 42.6871C111.421 42.5208 111.465 42.3267 111.465 42.1049C111.465 41.8831 111.421 41.689 111.334 41.5226C111.247 41.3562 111.128 41.2275 110.977 41.1364C110.827 41.0413 110.653 40.9938 110.454 40.9938C110.256 40.9938 110.082 41.0413 109.932 41.1364C109.781 41.2275 109.662 41.3562 109.575 41.5226C109.488 41.689 109.444 41.8831 109.444 42.1049C109.444 42.3267 109.488 42.5208 109.575 42.6871C109.662 42.8535 109.781 42.9842 109.932 43.0793C110.082 43.1704 110.256 43.2159 110.454 43.2159ZM112.967 39.9778C112.868 39.9778 112.785 39.9461 112.718 39.8827C112.654 39.8154 112.623 39.7322 112.623 39.6332C112.623 39.5381 112.654 39.4589 112.718 39.3955C112.785 39.3322 112.868 39.3005 112.967 39.3005C113.062 39.3005 113.144 39.3322 113.211 39.3955C113.278 39.4589 113.312 39.5381 113.312 39.6332C113.312 39.7322 113.278 39.8154 113.211 39.8827C113.144 39.9461 113.062 39.9778 112.967 39.9778ZM112.718 43.5784V40.6314H113.217V43.5784H112.718ZM114.086 43.5784V40.6314H114.537L114.567 41.1602C114.662 40.974 114.799 40.8274 114.977 40.7205C115.155 40.6136 115.357 40.5601 115.583 40.5601C115.932 40.5601 116.209 40.667 116.415 40.8809C116.625 41.0909 116.73 41.4157 116.73 41.8553V43.5784H116.231V41.9088C116.231 41.2948 115.977 40.9879 115.47 40.9879C115.217 40.9879 115.005 41.081 114.834 41.2671C114.668 41.4493 114.585 41.7108 114.585 42.0514V43.5784H114.086Z" fill="#B4B4B4"/>
<path fill-rule="evenodd" clip-rule="evenodd" d="M53.3883 42.4971C53.4796 42.5449 53.5818 42.5691 53.684 42.5683C53.7861 42.5675 53.8874 42.5424 53.9796 42.4939L56.9231 40.9204C57.7578 40.4754 58.4115 39.9779 58.9215 39.3987C60.0303 38.1366 60.6357 36.5259 60.6249 34.865L60.5901 29.3865C60.5867 28.7555 60.1723 28.1924 59.5593 27.9877L54.0835 26.1505C53.7537 26.0389 53.3924 26.0413 53.0685 26.1562L47.6134 28.0589C47.0038 28.2717 46.5968 28.8388 46.6001 29.4706L46.635 34.9451C46.6458 36.6084 47.272 38.2119 48.3991 39.461C48.9141 40.0321 49.5735 40.5224 50.4174 40.96L53.3883 42.4971ZM52.6091 36.0583C52.7321 36.1764 52.8915 36.2346 53.051 36.233C53.2105 36.2322 53.3691 36.1723 53.4904 36.0526L56.7071 32.8813C56.9488 32.6427 56.9463 32.2592 56.7021 32.0238C56.4571 31.7884 56.0626 31.79 55.8209 32.0286L53.0419 34.7679L51.904 33.6741C51.659 33.4387 51.2653 33.4412 51.0228 33.6798C50.7811 33.9185 50.7836 34.3019 51.0286 34.5373L52.6091 36.0583Z" fill="#D80369"/>
</g>
<defs>
<filter id="filter0_d_67_37691" x="0.400024" y="0.768311" width="189.2" height="79.2" filterUnits="userSpaceOnUse" color-interpolation-filters="sRGB">
<feFlood flood-opacity="0" result="BackgroundImageFix"/>
<feColorMatrix in="SourceAlpha" type="matrix" values="0 0 0 0 0 0 0 0 0 0 0 0 0 0 0 0 0 0 127 0" result="hardAlpha"/>
<feOffset dy="5.5"/>
<feGaussianBlur stdDeviation="11"/>
<feComposite in2="hardAlpha" operator="out"/>
<feColorMatrix type="matrix" values="0 0 0 0 0 0 0 0 0 0 0 0 0 0 0 0 0 0 0.15 0"/>
<feBlend mode="normal" in2="BackgroundImageFix" result="effect1_dropShadow_67_37691"/>
<feBlend mode="normal" in="SourceGraphic" in2="effect1_dropShadow_67_37691" result="shape"/>
</filter>
</defs>
</svg>
