<svg width="190" height="102" viewBox="0 0 190 102" fill="none" xmlns="http://www.w3.org/2000/svg">
<g opacity="0.2">
<g filter="url(#filter0_d_67_37681)">
<rect x="26.6066" y="15.2206" width="145.2" height="35.2" rx="11.1403" transform="rotate(10.0906 26.6066 15.2206)" fill="white"/>
<path d="M72.8438 41.1496L73.9368 35.0075L76.2094 35.412C76.7008 35.4994 77.0928 35.6536 77.3853 35.8747C77.6779 36.0957 77.8777 36.3636 77.9846 36.6784C78.0915 36.9931 78.1133 37.3289 78.0498 37.6857C77.9894 38.025 77.8576 38.3244 77.6545 38.584C77.4525 38.8377 77.175 39.0237 76.822 39.1419C76.4701 39.2543 76.0426 39.2657 75.5395 39.1762L74.3901 38.9716L73.9669 41.3495L72.8438 41.1496ZM74.5525 38.0591L75.6317 38.2511C76.0237 38.3209 76.3195 38.286 76.5194 38.1466C76.7261 38.0023 76.856 37.781 76.9091 37.4827C76.9632 37.1785 76.9176 36.926 76.7723 36.7251C76.6339 36.5195 76.3688 36.3817 75.9768 36.312L74.8976 36.1199L74.5525 38.0591ZM79.6474 37.1734C79.4427 37.137 79.284 37.0454 79.1713 36.8986C79.0645 36.7528 79.0277 36.5864 79.061 36.3992C79.0943 36.212 79.1857 36.0714 79.3352 35.9773C79.4917 35.8784 79.6722 35.8471 79.877 35.8836C80.0817 35.92 80.2375 36.0111 80.3443 36.1568C80.458 36.2978 80.4982 36.4618 80.4649 36.649C80.4316 36.8362 80.3368 36.9793 80.1804 37.0782C80.0298 37.1781 79.8522 37.2098 79.6474 37.1734ZM78.1911 42.1012L78.9656 37.7491L80.0887 37.949L79.3143 42.3011L78.1911 42.1012ZM80.4865 42.5097L81.261 38.1576L82.2525 38.334L82.2091 39.0867C82.3895 38.8533 82.6189 38.6829 82.8975 38.5756C83.182 38.4693 83.4968 38.4468 83.8419 38.5083C84.3801 38.604 84.7681 38.8481 85.0061 39.2405C85.244 39.6328 85.3047 40.1566 85.1881 40.8117L84.7509 43.2686L83.6278 43.0687L84.0462 40.7172C84.1129 40.3428 84.0878 40.0426 83.9711 39.8167C83.8544 39.5907 83.6352 39.4491 83.3135 39.3919C82.9976 39.3357 82.7175 39.4005 82.4732 39.5863C82.2348 39.7732 82.0802 40.0655 82.0094 40.4633L81.6097 42.7096L80.4865 42.5097ZM90.0203 44.3149C89.5699 44.2348 89.1857 44.088 88.8676 43.8744C88.5506 43.6551 88.3181 43.3844 88.1702 43.0624C88.0234 42.7345 87.984 42.3624 88.0521 41.946L89.2366 42.1568C89.1973 42.4455 89.2565 42.7065 89.4141 42.9397C89.5787 43.1682 89.8335 43.3131 90.1786 43.3745C90.4769 43.4276 90.7263 43.3996 90.9268 43.2904C91.1283 43.1754 91.2504 42.998 91.2931 42.7581C91.3379 42.5066 91.2938 42.2966 91.1608 42.1281C91.0337 41.9606 90.8493 41.8101 90.6075 41.6766C90.3657 41.543 90.1075 41.4005 89.8327 41.249C89.388 41.0009 89.0628 40.7258 88.8571 40.4237C88.6572 40.1226 88.5953 39.7585 88.6712 39.3315C88.7299 38.9678 88.8699 38.6728 89.0912 38.4467C89.3194 38.2157 89.601 38.0576 89.936 37.9724C90.2721 37.8813 90.6419 37.8717 91.0455 37.9435C91.455 38.0164 91.8017 38.1535 92.0857 38.355C92.3756 38.5574 92.5849 38.8059 92.7135 39.1003C92.848 39.3958 92.8888 39.726 92.836 40.0907L91.6339 39.8768C91.6665 39.6593 91.6156 39.4541 91.4809 39.2612C91.3532 39.0634 91.146 38.9391 90.8593 38.888C90.6147 38.8385 90.3961 38.8629 90.2036 38.9614C90.0179 39.0551 89.9038 39.2219 89.8611 39.4617C89.8246 39.6665 89.8598 39.8417 89.9667 39.9875C90.0745 40.1273 90.2323 40.258 90.44 40.3795C90.6478 40.5009 90.8866 40.634 91.1566 40.7786C91.442 40.938 91.698 41.1103 91.9246 41.2954C92.1511 41.4806 92.3196 41.7037 92.4301 41.9647C92.5416 42.2199 92.565 42.5289 92.5005 42.8915C92.4432 43.2133 92.3082 43.497 92.0955 43.7428C91.8828 43.9886 91.6005 44.1677 91.2486 44.2801C90.8977 44.3866 90.4883 44.3982 90.0203 44.3149ZM95.2471 45.2451C94.8083 45.167 94.436 45.0042 94.13 44.7566C93.8241 44.5091 93.6047 44.1985 93.4721 43.8248C93.3394 43.4512 93.3127 43.0421 93.3918 42.5975C93.4719 42.1471 93.6368 41.7631 93.8865 41.4454C94.142 41.1288 94.4536 40.9036 94.8214 40.7699C95.1961 40.6314 95.6115 40.6028 96.0678 40.684C96.4948 40.7599 96.8555 40.9207 97.1497 41.1662C97.444 41.4116 97.6526 41.7143 97.7757 42.0742C97.9056 42.4292 97.9352 42.8056 97.8644 43.2034C97.853 43.2677 97.8381 43.3345 97.8197 43.4036C97.8072 43.4738 97.7913 43.5464 97.7719 43.6214L94.464 43.0328C94.427 43.3762 94.4966 43.6632 94.6728 43.8937C94.8549 44.1252 95.0981 44.2681 95.4022 44.3222C95.6304 44.3628 95.8293 44.3469 95.9991 44.2745C96.1758 44.1974 96.3167 44.0836 96.4219 43.9334L97.5626 44.1364C97.4318 44.3967 97.2495 44.6238 97.0159 44.8176C96.7892 45.0066 96.524 45.1404 96.2203 45.2191C95.9224 45.2989 95.598 45.3075 95.2471 45.2451ZM95.9054 41.5965C95.6305 41.5476 95.3737 41.5833 95.135 41.7038C94.8973 41.8184 94.7211 42.0285 94.6064 42.3339L96.7737 42.7196C96.8072 42.4299 96.7425 42.183 96.5796 41.979C96.4168 41.775 96.192 41.6475 95.9054 41.5965ZM100.509 46.1814C100.064 46.1023 99.6894 45.9361 99.3844 45.6826C99.0795 45.4292 98.8583 45.1123 98.7209 44.7317C98.5892 44.3523 98.563 43.9402 98.6421 43.4957C98.7212 43.0511 98.888 42.6734 99.1424 42.3626C99.4028 42.0529 99.7197 41.8317 100.093 41.6991C100.467 41.5664 100.876 41.5396 101.321 41.6187C101.876 41.7176 102.318 41.9472 102.646 42.3073C102.976 42.6616 103.148 43.1026 103.162 43.6302L101.978 43.4194C101.957 43.1984 101.869 43.0138 101.714 42.8656C101.567 42.7126 101.376 42.6152 101.142 42.5736C100.832 42.5184 100.548 42.5886 100.29 42.784C100.031 42.9795 99.8655 43.2849 99.7915 43.7002C99.7176 44.1155 99.7681 44.4595 99.9429 44.732C100.118 45.0045 100.36 45.1683 100.67 45.2235C100.904 45.2651 101.116 45.2425 101.307 45.1557C101.503 45.07 101.65 44.9241 101.747 44.718L102.931 44.9288C102.739 45.4015 102.426 45.7531 101.992 45.9838C101.559 46.2144 101.064 46.2803 100.509 46.1814ZM105.27 47.0287C104.726 46.9319 104.335 46.6873 104.097 46.2949C103.865 45.9036 103.807 45.3804 103.924 44.7252L104.361 42.2684L105.475 42.4667L105.057 44.8182C104.99 45.1926 105.015 45.4928 105.132 45.7187C105.248 45.9447 105.471 46.0868 105.798 46.1451C106.108 46.2003 106.382 46.1344 106.621 45.9475C106.865 45.7617 107.023 45.4698 107.093 45.0721L107.493 42.8258L108.616 43.0257L107.842 47.3778L106.85 47.2014L106.894 46.4487C106.713 46.6821 106.481 46.852 106.197 46.9583C105.918 47.0656 105.609 47.0891 105.27 47.0287ZM108.995 47.583L109.769 43.2309L110.77 43.4089L110.73 44.2436C110.938 43.991 111.191 43.8067 111.489 43.6908C111.794 43.5701 112.131 43.5425 112.499 43.6081L112.289 44.7926L111.973 44.7364C111.727 44.6927 111.501 44.6917 111.294 44.7334C111.088 44.7751 110.912 44.8796 110.768 45.047C110.629 45.2155 110.53 45.4664 110.471 45.7998L110.118 47.7828L108.995 47.583ZM114.492 48.67C114.054 48.5919 113.681 48.4291 113.375 48.1815C113.069 47.9339 112.85 47.6233 112.718 47.2497C112.585 46.8761 112.558 46.467 112.637 46.0224C112.717 45.572 112.882 45.188 113.132 44.8703C113.387 44.5537 113.699 44.3285 114.067 44.1948C114.441 44.0563 114.857 44.0276 115.313 44.1088C115.74 44.1848 116.101 44.3456 116.395 44.591C116.689 44.8365 116.898 45.1392 117.021 45.499C117.151 45.8541 117.181 46.2305 117.11 46.6283C117.098 46.6926 117.084 46.7594 117.065 46.8285C117.053 46.8987 117.037 46.9713 117.017 47.0463L113.709 46.4576C113.672 46.8011 113.742 47.088 113.918 47.3186C114.1 47.5501 114.343 47.693 114.648 47.7471C114.876 47.7877 115.075 47.7718 115.245 47.6994C115.421 47.6222 115.562 47.5085 115.667 47.3583L116.808 47.5612C116.677 47.8216 116.495 48.0487 116.261 48.2425C116.035 48.4314 115.769 48.5653 115.466 48.644C115.168 48.7238 114.843 48.7324 114.492 48.67ZM115.151 45.0214C114.876 44.9724 114.619 45.0082 114.38 45.1287C114.143 45.2433 113.967 45.4533 113.852 45.7588L116.019 46.1445C116.053 45.8547 115.988 45.6079 115.825 45.4039C115.662 45.1999 115.437 45.0724 115.151 45.0214ZM119.623 49.5829C119.213 49.51 118.865 49.3455 118.579 49.0894C118.292 48.8332 118.086 48.5159 117.961 48.1375C117.835 47.7591 117.811 47.3505 117.889 46.9118C117.967 46.473 118.13 46.1007 118.378 45.7947C118.626 45.4829 118.928 45.2591 119.285 45.1233C119.642 44.9817 120.025 44.9473 120.434 45.0202C120.762 45.0785 121.038 45.1909 121.262 45.3575C121.485 45.524 121.654 45.732 121.766 45.9814L122.222 43.4192L123.345 43.6191L122.221 49.9367L121.221 49.7587L121.209 49.1138C121.034 49.2819 120.817 49.4182 120.557 49.5228C120.302 49.6284 119.991 49.6485 119.623 49.5829ZM120.034 48.6423C120.397 48.7069 120.714 48.6395 120.985 48.4403C121.262 48.2362 121.435 47.9441 121.503 47.5639C121.57 47.1836 121.508 46.8528 121.317 46.5713C121.133 46.285 120.859 46.1096 120.496 46.0451C120.14 45.9816 119.823 46.0489 119.546 46.2471C119.27 46.4453 119.097 46.7345 119.03 47.1148C118.962 47.495 119.023 47.8288 119.214 48.1161C119.404 48.4034 119.677 48.5788 120.034 48.6423ZM127.281 47.5783L127.668 46.3708L126.548 46.9681L126.259 46.1473L127.49 45.8956L126.427 45.2539L126.949 44.6134L127.822 45.5564L127.87 44.2704L128.686 44.4156L128.287 45.6391L129.423 45.0537L129.684 45.8244L128.462 46.0777L129.531 46.7385L128.989 47.3934L128.142 46.4551L128.088 47.722L127.281 47.5783ZM131.72 48.3682L132.107 47.1607L130.986 47.758L130.698 46.9372L131.929 46.6855L130.866 46.0438L131.387 45.4033L132.261 46.3462L132.308 45.0603L133.124 45.2055L132.726 46.429L133.862 45.8436L134.123 46.6143L132.901 46.8676L133.969 47.5284L133.427 48.1833L132.58 47.245L132.527 48.5119L131.72 48.3682ZM136.158 49.1581L136.545 47.9506L135.425 48.5479L135.137 47.7271L136.367 47.4754L135.305 46.8336L135.826 46.1932L136.699 47.1361L136.747 45.8502L137.563 45.9954L137.164 47.2189L138.3 46.6335L138.561 47.4042L137.34 47.6575L138.408 48.3183L137.866 48.9732L137.019 48.0349L136.966 49.3018L136.158 49.1581ZM140.597 49.948L140.984 48.7405L139.864 49.3377L139.575 48.517L140.806 48.2652L139.743 47.6235L140.265 46.9831L141.138 47.926L141.186 46.64L142.002 46.7853L141.603 48.0088L142.739 47.4234L143 48.1941L141.778 48.4473L142.846 49.1082L142.304 49.7631L141.458 48.8248L141.404 50.0917L140.597 49.948Z" fill="#262626"/>
<path d="M72.0832 50.0367L72.74 46.3456L71.5175 46.128L71.5893 45.7244L74.5258 46.247L74.454 46.6506L73.2314 46.433L72.5746 50.1241L72.0832 50.0367ZM75.2384 50.6042L74.845 46.3038L75.3715 46.3975L75.6292 50.0703L77.2609 46.7337L77.8049 46.8305L78.1562 50.52L79.6768 47.1636L80.2033 47.2573L78.3281 51.148L77.7665 51.0481L77.3913 47.4932L75.7893 50.6962L75.2384 50.6042ZM80.0525 51.4549L80.7812 47.3602L81.2726 47.4476L80.5439 51.5423L80.0525 51.4549ZM83.1603 52.0804C82.7781 52.0124 82.4584 51.8649 82.201 51.6381C81.9444 51.4074 81.7642 51.1198 81.6605 50.7755C81.5575 50.4272 81.5432 50.0445 81.6174 49.6272C81.6917 49.21 81.8372 48.8557 82.054 48.5643C82.2747 48.2737 82.5492 48.0651 82.8775 47.9384C83.2097 47.8125 83.5786 47.7856 83.9842 47.8578C84.4444 47.9396 84.8067 48.1188 85.0714 48.3952C85.3399 48.6723 85.4843 49.0138 85.5046 49.4198L84.9372 49.3188C84.9263 49.0634 84.8304 48.8452 84.6494 48.6641C84.4723 48.4837 84.2238 48.3651 83.904 48.3082C83.6037 48.2547 83.3303 48.2765 83.0837 48.3734C82.8379 48.4665 82.6303 48.6267 82.4611 48.854C82.2958 49.0821 82.1823 49.3697 82.1205 49.7168C82.0587 50.0638 82.0661 50.3729 82.1426 50.644C82.2191 50.9151 82.3524 51.138 82.5426 51.3126C82.7335 51.4834 82.9713 51.5941 83.2559 51.6448C83.6927 51.7225 84.0448 51.6544 84.3122 51.4405C84.5803 51.2227 84.7695 50.8942 84.8798 50.4552L83.6982 50.2449L83.7669 49.8589L85.4516 50.1587L85.0622 52.3464L84.6118 52.2663L84.6906 51.5863C84.5001 51.7978 84.2861 51.9488 84.0487 52.0393C83.8113 52.1298 83.5152 52.1435 83.1603 52.0804ZM88.457 53.023C88.11 52.9612 87.837 52.8221 87.6381 52.6057C87.4393 52.3892 87.3471 52.1274 87.3615 51.8202L87.8646 51.9097C87.8687 52.0674 87.9251 52.2142 88.0336 52.3502C88.1468 52.483 88.3145 52.5691 88.5368 52.6087C88.7435 52.6455 88.9032 52.6296 89.016 52.5612C89.1294 52.4889 89.1969 52.3922 89.2184 52.2713C89.2497 52.0959 89.2061 51.9674 89.0878 51.886C88.9735 51.8053 88.8054 51.7211 88.5836 51.6333C88.4332 51.5744 88.2852 51.5018 88.1396 51.4155C87.994 51.3293 87.878 51.2241 87.7914 51.1001C87.7056 50.9722 87.6782 50.8205 87.7095 50.645C87.7546 50.3915 87.885 50.2015 88.1006 50.0749C88.3208 49.9451 88.5928 49.909 88.9165 49.9666C89.2245 50.0214 89.4622 50.1442 89.6294 50.3349C89.8012 50.5224 89.8774 50.7612 89.858 51.0514L89.3724 50.965C89.3793 50.8134 89.3354 50.6869 89.2408 50.5856C89.1508 50.481 89.0161 50.4128 88.8367 50.3809C88.6612 50.3497 88.5181 50.3624 88.4075 50.4192C88.3007 50.4766 88.2365 50.5658 88.215 50.6867C88.1942 50.8036 88.2383 50.906 88.3474 50.9939C88.4604 51.0824 88.618 51.1687 88.8203 51.253C88.9927 51.3239 89.1537 51.4029 89.3032 51.4898C89.4573 51.5736 89.5749 51.681 89.6562 51.8121C89.7421 51.9401 89.7663 52.1093 89.7288 52.3199C89.6862 52.5819 89.5482 52.7806 89.3149 52.9161C89.0862 53.0484 88.8002 53.084 88.457 53.023ZM91.5749 53.5778C91.298 53.5285 91.0634 53.4224 90.8711 53.2595C90.6796 53.0926 90.5415 52.885 90.457 52.6366C90.3763 52.3889 90.3634 52.111 90.4182 51.8029C90.4724 51.4987 90.58 51.2443 90.7411 51.0396C90.903 50.8311 91.1023 50.6835 91.3389 50.5969C91.5802 50.507 91.8432 50.4874 92.1279 50.5381C92.4087 50.5881 92.639 50.6954 92.8189 50.8602C93.0034 51.0218 93.1318 51.2156 93.2042 51.4418C93.2766 51.6679 93.2917 51.8999 93.2493 52.1378C93.2417 52.1807 93.2321 52.2232 93.2206 52.2654C93.213 52.3083 93.2043 52.3571 93.1946 52.4117L90.884 52.0005C90.8561 52.2248 90.8738 52.4191 90.9372 52.5832C91.0051 52.7442 91.1007 52.8739 91.224 52.9722C91.3512 53.0713 91.4928 53.1347 91.6488 53.1625C91.8516 53.1986 92.0295 53.182 92.1827 53.1127C92.3358 53.0434 92.4578 52.9343 92.5487 52.7855L93.0342 52.8719C92.9083 53.1271 92.7183 53.3247 92.4641 53.4645C92.2145 53.6011 91.9181 53.6389 91.5749 53.5778ZM92.0423 50.9513C91.8083 50.9097 91.5868 50.9447 91.3779 51.0564C91.1735 51.1649 91.0334 51.3532 90.9575 51.6213L92.7826 51.9461C92.8174 51.6827 92.7641 51.462 92.6228 51.284C92.4815 51.1059 92.288 50.9951 92.0423 50.9513ZM94.9345 54.1757C94.6576 54.1264 94.4192 54.0196 94.2191 53.8553C94.0236 53.6877 93.8816 53.4794 93.7932 53.2303C93.7094 52.978 93.6945 52.6998 93.7486 52.3956C93.8028 52.0914 93.9123 51.8373 94.0774 51.6334C94.247 51.4262 94.4521 51.2796 94.6927 51.1937C94.9379 51.1046 95.199 51.0846 95.4758 51.1339C95.819 51.195 96.0916 51.336 96.2937 51.557C96.4997 51.7788 96.6071 52.0453 96.6161 52.3567L96.113 52.2672C96.1059 52.0808 96.035 51.9254 95.9003 51.8008C95.7662 51.6724 95.5978 51.5901 95.395 51.554C95.2312 51.5249 95.0699 51.5384 94.9111 51.5946C94.7522 51.6508 94.6133 51.7529 94.4945 51.9007C94.3757 52.0485 94.2947 52.2433 94.2517 52.4851C94.2087 52.7269 94.2174 52.9377 94.278 53.1174C94.3385 53.2972 94.4333 53.4428 94.5623 53.5542C94.692 53.6618 94.8388 53.7302 95.0026 53.7593C95.2054 53.7954 95.3915 53.7782 95.5609 53.7078C95.7311 53.6335 95.8519 53.5082 95.9235 53.3318L96.4266 53.4213C96.3161 53.7034 96.1255 53.9149 95.855 54.0559C95.5845 54.1968 95.2777 54.2368 94.9345 54.1757ZM97.9957 54.7205C97.6525 54.6594 97.3979 54.5075 97.2319 54.2647C97.0666 54.018 97.0225 53.6782 97.0995 53.2454L97.4014 51.549L97.8928 51.6364L97.6002 53.2802C97.4927 53.8846 97.6865 54.2309 98.1818 54.3191C98.4353 54.3642 98.6599 54.3116 98.8556 54.1614C99.0559 54.0079 99.1859 53.7635 99.2456 53.4281L99.5131 51.9248L100.004 52.0122L99.4881 54.9136L99.0436 54.8345L99.1011 54.3076C98.9788 54.475 98.8186 54.5953 98.6205 54.6687C98.4262 54.7428 98.218 54.76 97.9957 54.7205ZM100.297 55.0576L100.813 52.1562L101.258 52.2353L101.2 52.7983C101.324 52.6231 101.487 52.4953 101.691 52.4149C101.894 52.3344 102.13 52.3181 102.399 52.366L102.308 52.8807L102.173 52.8568C102.002 52.8263 101.838 52.8294 101.683 52.8661C101.528 52.8989 101.395 52.9798 101.283 53.1088C101.172 53.2379 101.094 53.4291 101.049 53.6826L100.788 55.145L100.297 55.0576ZM103.605 55.7187C103.329 55.6695 103.094 55.5634 102.902 55.4004C102.71 55.2335 102.572 55.0259 102.487 54.7775C102.407 54.5298 102.394 54.2519 102.449 53.9438C102.503 53.6397 102.611 53.3852 102.772 53.1806C102.934 52.972 103.133 52.8244 103.369 52.7378C103.611 52.648 103.874 52.6284 104.158 52.679C104.439 52.729 104.67 52.8364 104.849 53.0012C105.034 53.1627 105.162 53.3566 105.235 53.5827C105.307 53.8088 105.322 54.0408 105.28 54.2787C105.272 54.3216 105.263 54.3641 105.251 54.4063C105.243 54.4492 105.235 54.498 105.225 54.5526L102.915 54.1414C102.887 54.3658 102.904 54.56 102.968 54.7242C103.036 54.8851 103.131 55.0148 103.255 55.1132C103.382 55.2122 103.523 55.2757 103.679 55.3034C103.882 55.3395 104.06 55.3229 104.213 55.2536C104.366 55.1843 104.488 55.0753 104.579 54.9265L105.065 55.0129C104.939 55.2681 104.749 55.4656 104.495 55.6054C104.245 55.742 103.949 55.7798 103.605 55.7187ZM104.073 53.0923C103.839 53.0506 103.617 53.0857 103.408 53.1973C103.204 53.3058 103.064 53.4941 102.988 53.7622L104.813 54.087C104.848 53.8236 104.795 53.6029 104.653 53.4249C104.512 53.2469 104.319 53.136 104.073 53.0923ZM106.963 57.5715L107.708 53.3832L108.153 53.4623L108.114 53.9503C108.233 53.8265 108.388 53.7234 108.58 53.6408C108.775 53.559 109.008 53.542 109.277 53.5899C109.565 53.6412 109.805 53.7523 109.996 53.9231C110.187 54.0938 110.32 54.3046 110.396 54.5556C110.476 54.8071 110.49 55.0792 110.438 55.3717C110.386 55.6641 110.279 55.9147 110.117 56.1232C109.96 56.3286 109.761 56.4782 109.519 56.5719C109.281 56.6624 109.018 56.682 108.73 56.6306C108.492 56.5883 108.288 56.5017 108.118 56.3709C107.952 56.2408 107.836 56.0793 107.77 55.8865L107.454 57.6589L106.963 57.5715ZM108.753 56.1942C108.948 56.2289 109.127 56.2146 109.292 56.1513C109.456 56.0841 109.596 55.9762 109.711 55.8277C109.826 55.6792 109.903 55.4957 109.942 55.2773C109.981 55.0589 109.972 54.8602 109.915 54.6812C109.859 54.5021 109.764 54.3546 109.632 54.2385C109.501 54.1185 109.337 54.0412 109.142 54.0065C108.947 53.9718 108.767 53.9881 108.603 54.0553C108.438 54.1186 108.299 54.2245 108.184 54.373C108.069 54.5216 107.992 54.705 107.953 54.9234C107.914 55.1418 107.923 55.3405 107.98 55.5196C108.036 55.6986 108.131 55.8481 108.262 55.9681C108.394 56.0842 108.558 56.1595 108.753 56.1942ZM111.794 53.4465C111.697 53.4291 111.62 53.3833 111.565 53.3092C111.515 53.2318 111.498 53.1443 111.515 53.0468C111.532 52.9532 111.577 52.8808 111.651 52.8295C111.728 52.7789 111.815 52.7623 111.913 52.7796C112.007 52.7963 112.081 52.8417 112.136 52.9159C112.191 52.9901 112.211 53.074 112.194 53.1676C112.177 53.2651 112.129 53.3411 112.051 53.3956C111.973 53.4462 111.888 53.4631 111.794 53.4465ZM110.918 56.9476L111.434 54.0462L111.925 54.1336L111.409 57.0351L110.918 56.9476ZM112.265 57.1873L112.781 54.2859L113.226 54.365L113.162 54.8908C113.288 54.7242 113.449 54.6039 113.643 54.5298C113.837 54.4557 114.045 54.4385 114.268 54.478C114.611 54.5391 114.865 54.693 115.03 54.9397C115.2 55.1831 115.247 55.5213 115.17 55.9542L114.868 57.6505L114.376 57.5631L114.669 55.9194C114.776 55.3149 114.581 54.9683 114.081 54.8794C113.832 54.835 113.607 54.8895 113.407 55.043C113.211 55.1932 113.083 55.436 113.024 55.7714L112.756 57.2747L112.265 57.1873Z" fill="#B4B4B4"/>
<path fill-rule="evenodd" clip-rule="evenodd" d="M52.6952 45.4884C52.7768 45.5514 52.8731 45.5932 52.9738 45.6103C53.0746 45.6274 53.1787 45.6204 53.278 45.5888L56.4516 44.5553C57.3514 44.2635 58.0821 43.8882 58.6857 43.4073C59.9984 42.359 60.8768 40.8793 61.1571 39.2422L62.0826 33.8423C62.1899 33.2205 61.8805 32.5935 61.3129 32.2846L56.2437 29.5164C55.9386 29.3487 55.5825 29.2878 55.2434 29.3441L49.5393 30.2617C48.9018 30.3644 48.4018 30.8514 48.2944 31.474L47.3695 36.87C47.0888 38.5094 47.4244 40.1978 48.3152 41.625C48.7221 42.2776 49.2855 42.8758 50.0396 43.4545L52.6952 45.4884ZM53.056 39.0126C53.1564 39.1504 53.3032 39.2357 53.4604 39.262C53.6176 39.2892 53.7843 39.258 53.9246 39.1614L57.6472 36.6028C57.927 36.4101 57.9917 36.0322 57.7926 35.7576C57.5926 35.4829 57.2039 35.4154 56.9241 35.608L53.7081 37.818L52.7795 36.5418C52.5795 36.2671 52.1915 36.2005 51.9109 36.393C51.6312 36.5856 51.5664 36.9636 51.7664 37.2383L53.056 39.0126Z" fill="#D80369"/>
</g>
</g>
<defs>
<filter id="filter0_d_67_37681" x="0.217041" y="0.498169" width="189.566" height="100.54" filterUnits="userSpaceOnUse" color-interpolation-filters="sRGB">
<feFlood flood-opacity="0" result="BackgroundImageFix"/>
<feColorMatrix in="SourceAlpha" type="matrix" values="0 0 0 0 0 0 0 0 0 0 0 0 0 0 0 0 0 0 127 0" result="hardAlpha"/>
<feOffset dy="5.5"/>
<feGaussianBlur stdDeviation="11"/>
<feComposite in2="hardAlpha" operator="out"/>
<feColorMatrix type="matrix" values="0 0 0 0 0 0 0 0 0 0 0 0 0 0 0 0 0 0 0.2 0"/>
<feBlend mode="normal" in2="BackgroundImageFix" result="effect1_dropShadow_67_37681"/>
<feBlend mode="normal" in="SourceGraphic" in2="effect1_dropShadow_67_37681" result="shape"/>
</filter>
</defs>
</svg>
