<svg width="290" height="171" viewBox="0 0 290 171" fill="none" xmlns="http://www.w3.org/2000/svg">
<g filter="url(#filter0_d_71_38306)">
<rect x="44.7832" y="22.094" width="222.75" height="54" rx="17.0903" transform="rotate(15 44.7832 22.094)" fill="white"/>
<path d="M111.559 84.2268C111.107 84.1057 110.736 83.9181 110.445 83.6641C110.155 83.4101 109.958 83.112 109.855 82.7698C109.751 82.4276 109.751 82.0628 109.855 81.6754L110.63 81.883C110.566 82.1236 110.562 82.3616 110.618 82.5969C110.676 82.8264 110.794 83.031 110.973 83.2109C111.158 83.3865 111.41 83.5167 111.727 83.6017C112.143 83.7133 112.493 83.7 112.775 83.5618C113.058 83.4236 113.239 83.2048 113.319 82.9055C113.385 82.6589 113.385 82.4482 113.319 82.2731C113.254 82.0922 113.143 81.9304 112.986 81.7877C112.835 81.6466 112.652 81.5094 112.436 81.3761C112.226 81.2443 112.007 81.1006 111.778 80.9449C111.346 80.6532 111.049 80.3563 110.884 80.0543C110.721 79.7465 110.693 79.3959 110.798 79.0027C110.88 78.6724 111.034 78.4023 111.26 78.1924C111.488 77.9766 111.765 77.8368 112.09 77.773C112.423 77.7049 112.789 77.7243 113.188 77.8313C113.581 77.9366 113.902 78.1012 114.15 78.325C114.404 78.5504 114.576 78.8134 114.665 79.1142C114.76 79.4165 114.767 79.7327 114.685 80.063L113.91 79.8554C113.955 79.6852 113.956 79.5061 113.912 79.3182C113.87 79.1244 113.772 78.9503 113.618 78.7958C113.47 78.643 113.262 78.5304 112.992 78.4581C112.659 78.3626 112.36 78.3738 112.095 78.4917C111.837 78.6111 111.666 78.8264 111.583 79.1375C111.512 79.4016 111.531 79.6238 111.64 79.8039C111.755 79.9857 111.935 80.1597 112.18 80.326C112.426 80.4864 112.71 80.6724 113.03 80.8842C113.295 81.0685 113.527 81.2625 113.724 81.4663C113.921 81.6701 114.054 81.9008 114.123 82.1584C114.198 82.4176 114.19 82.7204 114.097 83.0667C114.018 83.3602 113.867 83.6185 113.644 83.8417C113.422 84.0591 113.134 84.2083 112.778 84.2893C112.429 84.3718 112.023 84.351 111.559 84.2268ZM116.605 85.5788C116.188 85.4671 115.844 85.2742 115.571 84.9998C115.3 84.7196 115.116 84.3842 115.02 83.9934C114.929 83.6042 114.946 83.1778 115.07 82.7141C115.193 82.2563 115.391 81.8815 115.664 81.5898C115.939 81.2923 116.263 81.0929 116.636 80.9915C117.016 80.8859 117.421 80.8905 117.849 81.0053C118.272 81.1186 118.61 81.3129 118.863 81.5884C119.124 81.8596 119.295 82.1727 119.376 82.5278C119.457 82.883 119.449 83.2395 119.353 83.5976C119.336 83.6621 119.316 83.7259 119.293 83.7889C119.275 83.8535 119.256 83.9268 119.234 84.009L115.756 83.0772C115.684 83.4165 115.686 83.7157 115.761 83.9749C115.843 84.2298 115.973 84.4406 116.148 84.6071C116.33 84.7753 116.538 84.8908 116.772 84.9537C117.078 85.0355 117.352 85.0335 117.595 84.9477C117.838 84.8618 118.039 84.7112 118.197 84.4957L118.928 84.6915C118.702 85.065 118.386 85.342 117.979 85.5223C117.579 85.6984 117.121 85.7172 116.605 85.5788ZM117.664 81.6257C117.312 81.5313 116.969 81.5558 116.635 81.699C116.308 81.838 116.069 82.1074 115.918 82.5073L118.665 83.2433C118.753 82.8453 118.7 82.501 118.508 82.2103C118.315 81.9197 118.034 81.7248 117.664 81.6257ZM121.662 86.9337C121.245 86.8221 120.894 86.6275 120.61 86.35C120.333 86.0683 120.144 85.7312 120.041 85.3389C119.946 84.9423 119.96 84.515 120.083 84.0572C120.205 83.5994 120.406 83.2254 120.685 82.9353C120.972 82.6409 121.304 82.4438 121.683 82.3441C122.07 82.24 122.472 82.2439 122.888 82.3555C123.405 82.4939 123.803 82.7453 124.083 83.1097C124.368 83.4756 124.498 83.8971 124.471 84.3742L123.713 84.1713C123.727 83.8856 123.639 83.6387 123.449 83.4306C123.261 83.2167 123.015 83.0688 122.71 82.9871C122.463 82.921 122.215 82.9205 121.965 82.9856C121.714 83.0507 121.489 83.1884 121.288 83.3987C121.087 83.6091 120.937 83.8962 120.84 84.2601C120.742 84.624 120.728 84.9473 120.797 85.23C120.866 85.5127 120.992 85.7477 121.174 85.935C121.358 86.1165 121.574 86.2402 121.82 86.3063C122.125 86.388 122.412 86.3862 122.68 86.3008C122.95 86.2096 123.151 86.0339 123.284 85.7737L124.041 85.9766C123.835 86.3932 123.516 86.6915 123.084 86.8714C122.652 87.0514 122.178 87.0721 121.662 86.9337ZM126.269 88.1683C125.752 88.0299 125.383 87.7642 125.161 87.3714C124.941 86.9726 124.918 86.4475 125.093 85.796L125.777 83.2428L126.516 83.4409L125.854 85.9149C125.61 86.8247 125.861 87.3794 126.606 87.5792C126.988 87.6814 127.338 87.6306 127.657 87.4266C127.983 87.2184 128.214 86.8619 128.349 86.3571L128.955 84.0944L129.695 84.2926L128.525 88.6595L127.856 88.4802L128.013 87.6824C127.804 87.9221 127.543 88.085 127.231 88.1712C126.924 88.2589 126.603 88.2579 126.269 88.1683ZM129.742 88.9856L130.912 84.6187L131.581 84.798L131.419 85.6509C131.631 85.3995 131.898 85.2256 132.219 85.1294C132.541 85.0331 132.904 85.0392 133.309 85.1477L133.101 85.9225L132.899 85.8682C132.64 85.799 132.39 85.7823 132.148 85.818C131.907 85.8478 131.693 85.954 131.506 86.1366C131.318 86.3192 131.174 86.6012 131.071 86.9827L130.482 89.1838L129.742 88.9856ZM134.712 90.4306C134.295 90.319 133.951 90.126 133.678 89.8516C133.407 89.5714 133.224 89.236 133.127 88.8452C133.036 88.456 133.053 88.0296 133.177 87.5659C133.3 87.1081 133.498 86.7333 133.771 86.4416C134.046 86.1441 134.37 85.9447 134.743 85.8433C135.123 85.7377 135.528 85.7423 135.956 85.8571C136.379 85.9704 136.717 86.1647 136.97 86.4402C137.231 86.7114 137.402 87.0245 137.483 87.3796C137.564 87.7348 137.556 88.0913 137.461 88.4494C137.443 88.5139 137.423 88.5777 137.4 88.6407C137.383 88.7053 137.363 88.7786 137.341 88.8608L133.863 87.929C133.791 88.2683 133.793 88.5675 133.868 88.8267C133.951 89.0816 134.08 89.2924 134.255 89.4589C134.437 89.6271 134.645 89.7426 134.88 89.8055C135.185 89.8873 135.459 89.8853 135.702 89.7995C135.945 89.7136 136.146 89.563 136.305 89.3475L137.035 89.5433C136.809 89.9168 136.493 90.1938 136.086 90.3741C135.687 90.5502 135.229 90.569 134.712 90.4306ZM135.771 86.4775C135.419 86.3831 135.076 86.4076 134.742 86.5508C134.415 86.6898 134.177 86.9592 134.025 87.3591L136.772 88.0951C136.86 87.6971 136.808 87.3528 136.615 87.0621C136.422 86.7715 136.141 86.5766 135.771 86.4775ZM139.601 93.7033L141.29 87.3994L141.959 87.5787L141.836 88.3195C142.033 88.146 142.284 88.0087 142.588 87.9077C142.898 87.8082 143.255 87.8128 143.66 87.9213C144.094 88.0377 144.446 88.2389 144.716 88.525C144.985 88.811 145.161 89.1508 145.245 89.5443C145.334 89.9393 145.319 90.357 145.201 90.7972C145.083 91.2374 144.887 91.6063 144.612 91.9038C144.345 92.1971 144.02 92.3994 143.638 92.5109C143.263 92.6181 142.859 92.6135 142.425 92.4971C142.066 92.4012 141.766 92.2421 141.524 92.0199C141.287 91.7992 141.131 91.5372 141.055 91.2337L140.34 93.9014L139.601 93.7033ZM142.517 91.8332C142.811 91.9118 143.087 91.9135 143.347 91.8383C143.607 91.7572 143.835 91.6107 144.03 91.3988C144.226 91.1868 144.367 90.9165 144.455 90.5879C144.543 90.2592 144.556 89.9543 144.493 89.6731C144.43 89.392 144.305 89.1541 144.118 88.9593C143.933 88.7587 143.693 88.619 143.4 88.5404C143.106 88.4618 142.829 88.463 142.568 88.5441C142.309 88.6193 142.082 88.7629 141.887 88.9748C141.692 89.1868 141.55 89.4571 141.462 89.7858C141.374 90.1145 141.361 90.4194 141.424 90.7005C141.487 90.9816 141.612 91.2225 141.797 91.4231C141.984 91.6179 142.224 91.7546 142.517 91.8332ZM147.527 88.0326C147.38 87.9933 147.269 87.9133 147.195 87.7927C147.128 87.6677 147.114 87.5319 147.153 87.3851C147.191 87.2443 147.269 87.1395 147.388 87.0707C147.513 87.0035 147.649 86.9896 147.796 87.0289C147.937 87.0667 148.044 87.1459 148.119 87.2665C148.194 87.3872 148.212 87.5179 148.174 87.6588C148.135 87.8055 148.052 87.9154 147.925 87.9885C147.801 88.0556 147.668 88.0704 147.527 88.0326ZM145.727 93.2689L146.897 88.902L147.637 89.1002L146.467 93.4671L145.727 93.2689ZM147.755 93.8121L148.925 89.4452L149.594 89.6245L149.428 90.4199C149.643 90.1817 149.903 90.0188 150.21 89.9311C150.517 89.8434 150.837 89.8444 151.172 89.934C151.688 90.0724 152.057 90.341 152.277 90.7397C152.505 91.1342 152.531 91.6572 152.357 92.3087L151.673 94.8619L150.933 94.6637L151.596 92.1897C151.84 91.28 151.586 90.7244 150.835 90.5231C150.459 90.4225 150.108 90.4763 149.782 90.6845C149.463 90.8884 149.236 91.2428 149.1 91.7476L148.494 94.0103L147.755 93.8121Z" fill="#B4B4B4"/>
</g>
<path fill-rule="evenodd" clip-rule="evenodd" d="M93.0425 56.064L92.5859 57.7681C94.34 58.8785 95.2704 60.985 94.7158 63.0546L93.2457 68.5413C92.5591 71.1036 89.8783 72.6118 87.2594 71.91L77.8535 69.3897C75.2335 68.6877 73.6659 66.0411 74.3525 63.4789L75.8226 57.9922C76.3772 55.9226 78.2373 54.5638 80.3104 54.4789L80.767 52.7748C81.6661 49.4646 85.1294 47.5162 88.4947 48.4179C91.9052 49.3317 93.9303 52.7508 93.0425 56.064ZM87.9994 50.3566C90.2919 50.9709 91.667 53.2924 91.0663 55.5344L90.6739 56.9988L82.3509 54.7687L82.7492 53.2821C83.3583 51.0543 85.707 49.7423 87.9994 50.3566ZM85.1954 64.752C85.0504 65.2931 84.4945 65.6059 83.9412 65.4576C83.3991 65.3123 83.0741 64.7636 83.2191 64.2224L83.876 61.7707C84.0181 61.2405 84.5739 60.9278 85.116 61.0731C85.6693 61.2214 85.9944 61.7701 85.8523 62.3002L85.1954 64.752Z" fill="#D80369"/>
<path d="M117.862 71.2843L120.002 65.7703L114.542 67.9101L113.665 64.6934L119.509 63.8991L114.863 60.3764L117.094 58.0756L120.869 62.6897L121.744 56.7954L124.835 57.6236L122.646 63.1659L128.183 61.0468L128.937 64.1062L123.131 64.9108L127.806 68.4825L125.487 70.8013L121.818 66.2569L120.914 72.1021L117.862 71.2843ZM155.895 81.4753L158.035 75.9613L152.575 78.1011L151.698 74.8844L157.543 74.0901L152.896 70.5674L155.128 68.2666L158.902 72.8807L159.778 66.9864L162.868 67.8146L160.679 73.3569L166.217 71.2378L166.97 74.2972L161.164 75.1018L165.839 78.6735L163.52 80.9923L159.851 76.4479L158.948 82.2931L155.895 81.4753ZM174.912 86.5708L177.052 81.0568L171.592 83.1966L170.715 79.9799L176.559 79.1856L171.913 75.6629L174.144 73.3621L177.919 77.9762L178.794 72.0819L181.885 72.9101L179.696 78.4524L185.233 76.3333L185.987 79.3927L180.181 80.1973L184.856 83.769L182.537 86.0878L178.868 81.5434L177.964 87.3886L174.912 86.5708ZM193.929 91.6663L196.069 86.1523L190.609 88.2921L189.731 85.0754L195.576 84.2811L190.93 80.7584L193.161 78.4576L196.935 83.0717L197.811 77.1774L200.902 78.0056L198.713 83.5479L204.25 81.4288L205.004 84.4882L199.198 85.2928L203.873 88.8645L201.553 91.1833L197.885 86.6389L196.981 92.4841L193.929 91.6663Z" fill="#3E3E3E"/>
<path d="M136.879 76.3798L139.019 70.8658L133.559 73.0056L132.681 69.7889L138.526 68.9946L133.88 65.4719L136.111 63.1711L139.885 67.7852L140.761 61.8909L143.852 62.7191L141.663 68.2614L147.2 66.1423L147.954 69.2017L142.148 70.0063L146.823 73.578L144.503 75.8968L140.835 71.3524L139.931 77.1976L136.879 76.3798Z" fill="#D80369"/>
<defs>
<filter id="filter0_d_71_38306" x="0.893646" y="0.618202" width="288.963" height="169.639" filterUnits="userSpaceOnUse" color-interpolation-filters="sRGB">
<feFlood flood-opacity="0" result="BackgroundImageFix"/>
<feColorMatrix in="SourceAlpha" type="matrix" values="0 0 0 0 0 0 0 0 0 0 0 0 0 0 0 0 0 0 127 0" result="hardAlpha"/>
<feOffset dy="8.43751"/>
<feGaussianBlur stdDeviation="16.875"/>
<feComposite in2="hardAlpha" operator="out"/>
<feColorMatrix type="matrix" values="0 0 0 0 0 0 0 0 0 0 0 0 0 0 0 0 0 0 0.1 0"/>
<feBlend mode="normal" in2="BackgroundImageFix" result="effect1_dropShadow_71_38306"/>
<feBlend mode="normal" in="SourceGraphic" in2="effect1_dropShadow_71_38306" result="shape"/>
</filter>
</defs>
</svg>
