<svg width="291" height="123" viewBox="0 0 291 123" fill="none" xmlns="http://www.w3.org/2000/svg">
<g filter="url(#filter0_d_71_38318)">
<rect x="34" y="26" width="222.75" height="54" rx="17.0903" fill="white"/>
<path d="M110.804 52.3937V42.8231H112.554V52.3937H110.804ZM114.368 52.3937V45.6122H115.913L116.05 46.7607C116.26 46.3597 116.56 46.0406 116.952 45.8037C117.353 45.5667 117.823 45.4482 118.361 45.4482C119.199 45.4482 119.851 45.7125 120.316 46.2412C120.781 46.7698 121.013 47.5446 121.013 48.5654V52.3937H119.263V48.7295C119.263 48.1462 119.144 47.6995 118.907 47.3896C118.671 47.0797 118.301 46.9248 117.8 46.9248C117.308 46.9248 116.902 47.098 116.583 47.4443C116.273 47.7907 116.118 48.2738 116.118 48.8936V52.3937H114.368ZM125.489 52.5577C124.888 52.5577 124.359 52.462 123.903 52.2706C123.448 52.0701 123.083 51.7967 122.81 51.4503C122.536 51.1039 122.372 50.7029 122.317 50.2471H124.081C124.136 50.5115 124.282 50.7393 124.519 50.9307C124.765 51.113 125.079 51.2042 125.462 51.2042C125.845 51.2042 126.123 51.1267 126.296 50.9718C126.478 50.8168 126.569 50.6391 126.569 50.4385C126.569 50.1469 126.442 49.9509 126.187 49.8506C125.931 49.7413 125.576 49.6364 125.12 49.5362C124.828 49.4724 124.532 49.3949 124.231 49.3038C123.931 49.2126 123.653 49.0987 123.397 48.9619C123.151 48.8161 122.951 48.6338 122.796 48.4151C122.641 48.1872 122.563 47.9092 122.563 47.581C122.563 46.9795 122.8 46.4736 123.274 46.0634C123.757 45.6533 124.432 45.4482 125.298 45.4482C126.1 45.4482 126.738 45.635 127.212 46.0087C127.695 46.3824 127.982 46.8974 128.073 47.5537H126.419C126.319 47.0524 125.94 46.8017 125.284 46.8017C124.956 46.8017 124.701 46.8655 124.519 46.9931C124.345 47.1207 124.259 47.2803 124.259 47.4717C124.259 47.6722 124.391 47.8317 124.655 47.9502C124.92 48.0687 125.271 48.1781 125.708 48.2783C126.182 48.3877 126.615 48.5108 127.007 48.6475C127.408 48.7751 127.727 48.9711 127.964 49.2354C128.201 49.4906 128.319 49.8598 128.319 50.3428C128.329 50.7621 128.219 51.1404 127.991 51.4776C127.763 51.8149 127.435 52.0792 127.007 52.2706C126.579 52.462 126.073 52.5577 125.489 52.5577ZM132.678 52.3937C131.967 52.3937 131.397 52.2205 130.969 51.8741C130.54 51.5278 130.326 50.9125 130.326 50.0284V47.0752H129.164V45.6122H130.326L130.531 43.7938H132.076V45.6122H133.908V47.0752H132.076V50.0421C132.076 50.3702 132.144 50.5981 132.281 50.7257C132.427 50.8442 132.673 50.9034 133.019 50.9034H133.867V52.3937H132.678ZM137.749 52.5577C137.165 52.5577 136.687 52.4666 136.313 52.2843C135.939 52.0929 135.661 51.8422 135.479 51.5323C135.297 51.2224 135.206 50.8806 135.206 50.5069C135.206 49.878 135.452 49.3676 135.944 48.9756C136.436 48.5837 137.174 48.3877 138.159 48.3877H139.882V48.2236C139.882 47.7588 139.749 47.417 139.485 47.1982C139.221 46.9795 138.893 46.8701 138.501 46.8701C138.145 46.8701 137.835 46.9567 137.571 47.1299C137.307 47.2939 137.143 47.54 137.079 47.8682H135.37C135.415 47.376 135.579 46.9476 135.862 46.583C136.154 46.2184 136.527 45.9404 136.983 45.749C137.439 45.5484 137.949 45.4482 138.514 45.4482C139.481 45.4482 140.242 45.6897 140.798 46.1728C141.354 46.6559 141.632 47.3395 141.632 48.2236V52.3937H140.141L139.977 51.2999C139.777 51.6645 139.494 51.9653 139.13 52.2023C138.774 52.4393 138.314 52.5577 137.749 52.5577ZM138.145 51.1905C138.647 51.1905 139.034 51.0265 139.307 50.6983C139.59 50.3702 139.768 49.9646 139.841 49.4815H138.35C137.885 49.4815 137.553 49.5681 137.352 49.7413C137.152 49.9053 137.051 50.1104 137.051 50.3565C137.051 50.6208 137.152 50.8259 137.352 50.9718C137.553 51.1176 137.817 51.1905 138.145 51.1905ZM143.302 52.3937V45.6122H144.847L144.983 46.7607C145.193 46.3597 145.494 46.0406 145.886 45.8037C146.287 45.5667 146.756 45.4482 147.294 45.4482C148.133 45.4482 148.784 45.7125 149.249 46.2412C149.714 46.7698 149.946 47.5446 149.946 48.5654V52.3937H148.196V48.7295C148.196 48.1462 148.078 47.6995 147.841 47.3896C147.604 47.0797 147.235 46.9248 146.733 46.9248C146.241 46.9248 145.836 47.098 145.517 47.4443C145.207 47.7907 145.052 48.2738 145.052 48.8936V52.3937H143.302ZM154.641 52.3937C153.93 52.3937 153.361 52.2205 152.932 51.8741C152.504 51.5278 152.29 50.9125 152.29 50.0284V47.0752H151.128V45.6122H152.29L152.495 43.7938H154.04V45.6122H155.872V47.0752H154.04V50.0421C154.04 50.3702 154.108 50.5981 154.245 50.7257C154.391 50.8442 154.637 50.9034 154.983 50.9034H155.831V52.3937H154.641ZM160.673 52.3937V42.8231H164.214C164.98 42.8231 165.614 42.9507 166.115 43.2059C166.616 43.4611 166.99 43.8121 167.236 44.2587C167.482 44.7053 167.605 45.2066 167.605 45.7626C167.605 46.2913 167.487 46.7789 167.25 47.2256C167.013 47.6631 166.644 48.0186 166.142 48.292C165.641 48.5563 164.998 48.6885 164.214 48.6885H162.423V52.3937H160.673ZM162.423 47.2666H164.105C164.716 47.2666 165.153 47.1344 165.418 46.8701C165.691 46.5966 165.828 46.2275 165.828 45.7626C165.828 45.2887 165.691 44.9195 165.418 44.6552C165.153 44.3817 164.716 44.245 164.105 44.245H162.423V47.2666ZM169.88 44.5595C169.561 44.5595 169.297 44.4638 169.088 44.2724C168.887 44.081 168.787 43.8394 168.787 43.5477C168.787 43.2561 168.887 43.0191 169.088 42.8368C169.297 42.6454 169.561 42.5497 169.88 42.5497C170.2 42.5497 170.459 42.6454 170.66 42.8368C170.869 43.0191 170.974 43.2561 170.974 43.5477C170.974 43.8394 170.869 44.081 170.66 44.2724C170.459 44.4638 170.2 44.5595 169.88 44.5595ZM169.005 52.3937V45.6122H170.756V52.3937H169.005ZM172.582 52.3937V45.6122H174.127L174.264 46.7607C174.473 46.3597 174.774 46.0406 175.166 45.8037C175.567 45.5667 176.037 45.4482 176.574 45.4482C177.413 45.4482 178.065 45.7125 178.53 46.2412C178.994 46.7698 179.227 47.5446 179.227 48.5654V52.3937H177.477V48.7295C177.477 48.1462 177.358 47.6995 177.121 47.3896C176.884 47.0797 176.515 46.9248 176.014 46.9248C175.522 46.9248 175.116 47.098 174.797 47.4443C174.487 47.7907 174.332 48.2738 174.332 48.8936V52.3937H172.582ZM186.127 47.4717L186.387 45.5439L184.855 46.747L184.199 45.5849L185.99 44.8739L184.213 44.1903L184.828 43.0829L186.4 44.2724L186.127 42.3172H187.398L187.125 44.2724L188.684 43.0829L189.285 44.1767L187.508 44.8876L189.299 45.5986L188.656 46.7334L187.125 45.5439L187.385 47.4717H186.127ZM193.043 47.4717L193.303 45.5439L191.772 46.747L191.115 45.5849L192.906 44.8739L191.129 44.1903L191.744 43.0829L193.317 44.2724L193.043 42.3172H194.315L194.041 44.2724L195.6 43.0829L196.201 44.1767L194.424 44.8876L196.215 45.5986L195.573 46.7334L194.041 45.5439L194.301 47.4717H193.043ZM199.959 47.4717L200.219 45.5439L198.688 46.747L198.032 45.5849L199.823 44.8739L198.045 44.1903L198.661 43.0829L200.233 44.2724L199.959 42.3172H201.231L200.957 44.2724L202.516 43.0829L203.118 44.1767L201.34 44.8876L203.131 45.5986L202.489 46.7334L200.957 45.5439L201.217 47.4717H199.959ZM206.876 47.4717L207.135 45.5439L205.604 46.747L204.948 45.5849L206.739 44.8739L204.962 44.1903L205.577 43.0829L207.149 44.2724L206.876 42.3172H208.147L207.874 44.2724L209.432 43.0829L210.034 44.1767L208.257 44.8876L210.048 45.5986L209.405 46.7334L207.874 45.5439L208.134 47.4717H206.876Z" fill="#262626"/>
<path d="M112.582 65.7328C112.114 65.7328 111.707 65.6477 111.36 65.4776C111.014 65.3074 110.746 65.0704 110.558 64.7666C110.37 64.4628 110.276 64.1104 110.276 63.7093H111.078C111.078 63.9584 111.135 64.1893 111.251 64.402C111.366 64.6086 111.533 64.7757 111.752 64.9033C111.977 65.0249 112.253 65.0856 112.582 65.0856C113.013 65.0856 113.347 64.9823 113.584 64.7757C113.821 64.5691 113.94 64.3109 113.94 64.001C113.94 63.7458 113.885 63.5422 113.776 63.3903C113.666 63.2323 113.517 63.1047 113.329 63.0075C113.147 62.9102 112.934 62.8252 112.691 62.7522C112.454 62.6793 112.205 62.5973 111.944 62.5061C111.451 62.336 111.087 62.1264 110.85 61.8772C110.613 61.622 110.494 61.2908 110.494 60.8837C110.488 60.5434 110.567 60.2426 110.731 59.9813C110.895 59.714 111.126 59.5074 111.424 59.3615C111.728 59.2096 112.086 59.1337 112.5 59.1337C112.907 59.1337 113.259 59.2096 113.557 59.3615C113.861 59.5134 114.095 59.7231 114.259 59.9905C114.429 60.2578 114.517 60.5616 114.523 60.9019H113.721C113.721 60.7257 113.675 60.5525 113.584 60.3824C113.493 60.2062 113.353 60.0634 113.165 59.954C112.983 59.8446 112.752 59.7899 112.472 59.7899C112.126 59.7838 111.84 59.872 111.615 60.0543C111.397 60.2366 111.287 60.4887 111.287 60.8108C111.287 61.0842 111.363 61.2939 111.515 61.4397C111.673 61.5855 111.892 61.7071 112.171 61.8043C112.451 61.8954 112.773 62.0018 113.138 62.1233C113.441 62.2327 113.715 62.3603 113.958 62.5061C114.201 62.652 114.389 62.8404 114.523 63.0713C114.663 63.3022 114.733 63.5969 114.733 63.9554C114.733 64.2592 114.654 64.5479 114.496 64.8213C114.338 65.0887 114.098 65.3074 113.776 65.4776C113.46 65.6477 113.062 65.7328 112.582 65.7328ZM117.806 65.7328C117.374 65.7328 116.991 65.6356 116.657 65.4411C116.323 65.2406 116.059 64.9641 115.864 64.6117C115.676 64.2592 115.582 63.843 115.582 63.3629C115.582 62.889 115.676 62.4758 115.864 62.1233C116.052 61.7648 116.314 61.4883 116.648 61.2939C116.988 61.0933 117.38 60.9931 117.824 60.9931C118.261 60.9931 118.638 61.0933 118.954 61.2939C119.276 61.4883 119.522 61.7466 119.692 62.0686C119.862 62.3907 119.948 62.7371 119.948 63.1077C119.948 63.1746 119.944 63.2414 119.938 63.3082C119.938 63.3751 119.938 63.451 119.938 63.5361H116.338C116.356 63.8825 116.435 64.1711 116.575 64.402C116.721 64.6269 116.9 64.797 117.113 64.9125C117.332 65.0279 117.562 65.0856 117.806 65.0856C118.122 65.0856 118.386 65.0127 118.599 64.8669C118.811 64.721 118.966 64.5236 119.063 64.2744H119.82C119.698 64.6937 119.464 65.0431 119.118 65.3226C118.778 65.5961 118.34 65.7328 117.806 65.7328ZM117.806 61.6402C117.441 61.6402 117.116 61.7527 116.83 61.9775C116.551 62.1962 116.39 62.5183 116.347 62.9437H119.191C119.173 62.5365 119.033 62.2175 118.772 61.9866C118.51 61.7557 118.188 61.6402 117.806 61.6402ZM123.041 65.7328C122.609 65.7328 122.22 65.6356 121.874 65.4411C121.534 65.2406 121.263 64.9641 121.063 64.6117C120.868 64.2532 120.771 63.8369 120.771 63.3629C120.771 62.889 120.868 62.4758 121.063 62.1233C121.263 61.7648 121.534 61.4883 121.874 61.2939C122.22 61.0933 122.609 60.9931 123.041 60.9931C123.575 60.9931 124.025 61.1328 124.39 61.4124C124.76 61.6919 124.994 62.0656 125.091 62.5335H124.307C124.247 62.254 124.098 62.0382 123.861 61.8863C123.624 61.7283 123.347 61.6493 123.031 61.6493C122.776 61.6493 122.536 61.7132 122.311 61.8408C122.087 61.9684 121.904 62.1598 121.764 62.415C121.625 62.6702 121.555 62.9862 121.555 63.3629C121.555 63.7397 121.625 64.0557 121.764 64.3109C121.904 64.5661 122.087 64.7605 122.311 64.8942C122.536 65.0218 122.776 65.0856 123.031 65.0856C123.347 65.0856 123.624 65.0097 123.861 64.8578C124.098 64.6998 124.247 64.478 124.307 64.1924H125.091C125 64.6481 124.769 65.0188 124.399 65.3044C124.028 65.59 123.575 65.7328 123.041 65.7328ZM127.81 65.7328C127.276 65.7328 126.85 65.5718 126.534 65.2497C126.218 64.9216 126.06 64.4203 126.06 63.7458V61.1025H126.826V63.6637C126.826 64.6056 127.212 65.0765 127.984 65.0765C128.379 65.0765 128.704 64.9368 128.959 64.6572C129.22 64.3716 129.351 63.9676 129.351 63.445V61.1025H130.116V65.6234H129.424L129.369 64.8122C129.229 65.0978 129.02 65.3226 128.74 65.4867C128.467 65.6508 128.157 65.7328 127.81 65.7328ZM131.377 65.6234V61.1025H132.069L132.133 61.9684C132.273 61.6706 132.486 61.4336 132.771 61.2574C133.057 61.0812 133.409 60.9931 133.829 60.9931V61.7952H133.619C133.352 61.7952 133.106 61.8438 132.881 61.941C132.656 62.0322 132.477 62.1902 132.343 62.415C132.209 62.6398 132.142 62.9497 132.142 63.3447V65.6234H131.377ZM136.551 65.7328C136.12 65.7328 135.737 65.6356 135.403 65.4411C135.069 65.2406 134.804 64.9641 134.61 64.6117C134.422 64.2592 134.327 63.843 134.327 63.3629C134.327 62.889 134.422 62.4758 134.61 62.1233C134.798 61.7648 135.06 61.4883 135.394 61.2939C135.734 61.0933 136.126 60.9931 136.57 60.9931C137.007 60.9931 137.384 61.0933 137.7 61.2939C138.022 61.4883 138.268 61.7466 138.438 62.0686C138.608 62.3907 138.693 62.7371 138.693 63.1077C138.693 63.1746 138.69 63.2414 138.684 63.3082C138.684 63.3751 138.684 63.451 138.684 63.5361H135.084C135.102 63.8825 135.181 64.1711 135.321 64.402C135.467 64.6269 135.646 64.797 135.859 64.9125C136.078 65.0279 136.308 65.0856 136.551 65.0856C136.867 65.0856 137.132 65.0127 137.344 64.8669C137.557 64.721 137.712 64.5236 137.809 64.2744H138.566C138.444 64.6937 138.21 65.0431 137.864 65.3226C137.524 65.5961 137.086 65.7328 136.551 65.7328ZM136.551 61.6402C136.187 61.6402 135.862 61.7527 135.576 61.9775C135.297 62.1962 135.136 62.5183 135.093 62.9437H137.937C137.919 62.5365 137.779 62.2175 137.518 61.9866C137.256 61.7557 136.934 61.6402 136.551 61.6402ZM142.12 67.6287V61.1025H142.813L142.886 61.8499C143.032 61.6311 143.239 61.4336 143.506 61.2574C143.779 61.0812 144.126 60.9931 144.545 60.9931C144.995 60.9931 145.387 61.0964 145.721 61.303C146.055 61.5096 146.313 61.7921 146.496 62.1507C146.684 62.5092 146.778 62.9163 146.778 63.3721C146.778 63.8278 146.684 64.2349 146.496 64.5934C146.313 64.9459 146.052 65.2254 145.712 65.432C145.378 65.6325 144.986 65.7328 144.536 65.7328C144.165 65.7328 143.834 65.6568 143.542 65.5049C143.257 65.353 143.038 65.1403 142.886 64.8669V67.6287H142.12ZM144.454 65.0674C144.758 65.0674 145.025 64.9975 145.256 64.8578C145.487 64.7119 145.669 64.5114 145.803 64.2562C145.937 64.001 146.003 63.7032 146.003 63.3629C146.003 63.0226 145.937 62.7249 145.803 62.4697C145.669 62.2145 145.487 62.017 145.256 61.8772C145.025 61.7314 144.758 61.6585 144.454 61.6585C144.15 61.6585 143.883 61.7314 143.652 61.8772C143.421 62.017 143.239 62.2145 143.105 62.4697C142.971 62.7249 142.904 63.0226 142.904 63.3629C142.904 63.7032 142.971 64.001 143.105 64.2562C143.239 64.5114 143.421 64.7119 143.652 64.8578C143.883 64.9975 144.15 65.0674 144.454 65.0674ZM148.309 60.0998C148.157 60.0998 148.029 60.0512 147.926 59.954C147.829 59.8507 147.78 59.7231 147.78 59.5712C147.78 59.4253 147.829 59.3038 147.926 59.2066C148.029 59.1094 148.157 59.0607 148.309 59.0607C148.455 59.0607 148.579 59.1094 148.683 59.2066C148.786 59.3038 148.837 59.4253 148.837 59.5712C148.837 59.7231 148.786 59.8507 148.683 59.954C148.579 60.0512 148.455 60.0998 148.309 60.0998ZM147.926 65.6234V61.1025H148.692V65.6234H147.926ZM150.025 65.6234V61.1025H150.717L150.763 61.9137C150.909 61.6281 151.119 61.4032 151.392 61.2392C151.665 61.0751 151.975 60.9931 152.322 60.9931C152.856 60.9931 153.282 61.1571 153.598 61.4853C153.92 61.8073 154.081 62.3056 154.081 62.9801V65.6234H153.315V63.0621C153.315 62.1203 152.926 61.6493 152.149 61.6493C151.76 61.6493 151.435 61.7921 151.173 62.0777C150.918 62.3573 150.79 62.7583 150.79 63.2809V65.6234H150.025Z" fill="#B4B4B4"/>
</g>
<path fill-rule="evenodd" clip-rule="evenodd" d="M89.407 46.3221V48.0863C91.3887 48.7048 92.8326 50.4988 92.8326 52.6414V58.3217C92.8326 60.9743 90.6334 63.125 87.9222 63.125H78.1844C75.472 63.125 73.2729 60.9743 73.2729 58.3217V52.6414C73.2729 50.4988 74.7179 48.7048 76.6985 48.0863V46.3221C76.7102 42.892 79.5512 40.1136 83.0352 40.1136C86.566 40.1136 89.407 42.892 89.407 46.3221ZM83.0585 42.1144C85.4319 42.1144 87.361 44.001 87.361 46.322V47.8381H78.7444V46.2991C78.7561 43.9895 80.6852 42.1144 83.0585 42.1144ZM84.0758 56.745C84.0758 57.3053 83.6199 57.7512 83.047 57.7512C82.4858 57.7512 82.0298 57.3053 82.0298 56.745V54.2068C82.0298 53.6579 82.4858 53.212 83.047 53.212C83.6199 53.212 84.0758 53.6579 84.0758 54.2068V56.745Z" fill="#D80369"/>
<defs>
<filter id="filter0_d_71_38318" x="0.249969" y="0.687477" width="290.25" height="121.5" filterUnits="userSpaceOnUse" color-interpolation-filters="sRGB">
<feFlood flood-opacity="0" result="BackgroundImageFix"/>
<feColorMatrix in="SourceAlpha" type="matrix" values="0 0 0 0 0 0 0 0 0 0 0 0 0 0 0 0 0 0 127 0" result="hardAlpha"/>
<feOffset dy="8.43751"/>
<feGaussianBlur stdDeviation="16.875"/>
<feComposite in2="hardAlpha" operator="out"/>
<feColorMatrix type="matrix" values="0 0 0 0 0 0 0 0 0 0 0 0 0 0 0 0 0 0 0.15 0"/>
<feBlend mode="normal" in2="BackgroundImageFix" result="effect1_dropShadow_71_38318"/>
<feBlend mode="normal" in="SourceGraphic" in2="effect1_dropShadow_71_38318" result="shape"/>
</filter>
</defs>
</svg>
