<svg width="233" height="84" viewBox="0 0 233 84" fill="none" xmlns="http://www.w3.org/2000/svg">
<g filter="url(#filter0_d_71_39540)">
<rect x="19" y="10" width="194.89" height="44.9746" rx="14.0546" fill="white"/>
<path d="M92.6646 31.5047C91.8701 31.5047 91.188 31.336 90.6183 30.9987C90.0486 30.6539 89.6101 30.1779 89.3028 29.5708C88.9954 28.9561 88.8418 28.2478 88.8418 27.4457C88.8418 26.6437 88.9954 25.9353 89.3028 25.3207C89.6101 24.706 90.0486 24.2263 90.6183 23.8815C91.188 23.5367 91.8701 23.3643 92.6646 23.3643C93.6091 23.3643 94.3812 23.6004 94.9808 24.0726C95.588 24.5374 95.9665 25.1932 96.1164 26.0403H94.5311C94.4336 25.613 94.2237 25.2794 93.9014 25.0396C93.5866 24.7922 93.1668 24.6685 92.6421 24.6685C91.915 24.6685 91.3454 24.9159 90.9331 25.4106C90.5208 25.9053 90.3147 26.5837 90.3147 27.4457C90.3147 28.3077 90.5208 28.9861 90.9331 29.4808C91.3454 29.968 91.915 30.2117 92.6421 30.2117C93.1668 30.2117 93.5866 30.0992 93.9014 29.8743C94.2237 29.642 94.4336 29.3234 94.5311 28.9186H96.1164C95.9665 29.7282 95.588 30.3616 94.9808 30.8188C94.3812 31.2761 93.6091 31.5047 92.6646 31.5047ZM99.2793 31.5047C98.7996 31.5047 98.4061 31.4297 98.0987 31.2798C97.7914 31.1224 97.5628 30.9163 97.4129 30.6614C97.263 30.4065 97.188 30.1255 97.188 29.8181C97.188 29.3009 97.3904 28.8812 97.7952 28.5588C98.1999 28.2365 98.8071 28.0754 99.6166 28.0754H101.033V27.9404C101.033 27.5582 100.925 27.2771 100.707 27.0972C100.49 26.9173 100.22 26.8273 99.8977 26.8273C99.6054 26.8273 99.3505 26.8985 99.1332 27.0409C98.9158 27.1759 98.7809 27.3783 98.7284 27.6481H97.3229C97.3604 27.2433 97.4953 26.891 97.7277 26.5912C97.9676 26.2914 98.2749 26.0627 98.6497 25.9053C99.0245 25.7404 99.4442 25.658 99.909 25.658C100.704 25.658 101.329 25.8566 101.787 26.2539C102.244 26.6512 102.473 27.2133 102.473 27.9404V31.3698H101.247L101.112 30.4703C100.947 30.7701 100.715 31.0174 100.415 31.2123C100.123 31.4072 99.7441 31.5047 99.2793 31.5047ZM99.6054 30.3803C100.018 30.3803 100.336 30.2454 100.561 29.9755C100.793 29.7057 100.94 29.3721 101 28.9749H99.774C99.3918 28.9749 99.1182 29.0461 98.9533 29.1885C98.7883 29.3234 98.7059 29.4921 98.7059 29.6944C98.7059 29.9118 98.7883 30.0805 98.9533 30.2004C99.1182 30.3203 99.3355 30.3803 99.6054 30.3803ZM106.151 31.5047C105.656 31.5047 105.221 31.426 104.847 31.2686C104.472 31.1037 104.172 30.8788 103.947 30.5939C103.722 30.3091 103.587 29.9793 103.542 29.6045H104.993C105.038 29.8219 105.158 30.0093 105.353 30.1667C105.555 30.3166 105.814 30.3916 106.128 30.3916C106.443 30.3916 106.672 30.3278 106.814 30.2004C106.964 30.073 107.039 29.9268 107.039 29.7619C107.039 29.522 106.934 29.3609 106.724 29.2784C106.514 29.1885 106.222 29.1023 105.847 29.0198C105.607 28.9674 105.364 28.9036 105.116 28.8287C104.869 28.7537 104.64 28.66 104.431 28.5476C104.228 28.4277 104.063 28.2777 103.936 28.0978C103.808 27.9105 103.745 27.6818 103.745 27.412C103.745 26.9173 103.94 26.5012 104.329 26.1639C104.727 25.8266 105.281 25.658 105.993 25.658C106.653 25.658 107.178 25.8116 107.568 26.119C107.965 26.4263 108.201 26.8498 108.276 27.3895H106.915C106.833 26.9772 106.522 26.7711 105.982 26.7711C105.712 26.7711 105.502 26.8236 105.353 26.9285C105.21 27.0334 105.139 27.1646 105.139 27.322C105.139 27.4869 105.248 27.6181 105.465 27.7156C105.682 27.813 105.971 27.903 106.331 27.9854C106.721 28.0754 107.077 28.1766 107.399 28.289C107.729 28.3939 107.991 28.5551 108.186 28.7725C108.381 28.9823 108.478 29.2859 108.478 29.6832C108.486 30.028 108.396 30.3391 108.208 30.6164C108.021 30.8938 107.751 31.1111 107.399 31.2686C107.047 31.426 106.631 31.5047 106.151 31.5047ZM109.753 31.3698V23.2743H111.192V26.6474C111.38 26.3401 111.631 26.1002 111.946 25.9278C112.268 25.7479 112.635 25.658 113.048 25.658C113.737 25.658 114.269 25.8753 114.644 26.3101C115.027 26.7449 115.218 27.382 115.218 28.2215V31.3698H113.79V28.3565C113.79 27.8767 113.692 27.5094 113.497 27.2546C113.31 26.9997 113.01 26.8723 112.598 26.8723C112.193 26.8723 111.856 27.0147 111.586 27.2995C111.324 27.5844 111.192 27.9817 111.192 28.4914V31.3698H109.753ZM119.273 31.3698V23.2743H120.712V31.3698H119.273ZM124.859 31.5047C124.319 31.5047 123.832 31.381 123.397 31.1336C122.97 30.8863 122.629 30.5452 122.374 30.1105C122.127 29.6682 122.003 29.1585 122.003 28.5813C122.003 28.0041 122.13 27.4982 122.385 27.0634C122.64 26.6212 122.981 26.2764 123.408 26.029C123.843 25.7817 124.33 25.658 124.87 25.658C125.402 25.658 125.882 25.7817 126.309 26.029C126.744 26.2764 127.085 26.6212 127.332 27.0634C127.587 27.4982 127.715 28.0041 127.715 28.5813C127.715 29.1585 127.587 29.6682 127.332 30.1105C127.085 30.5452 126.744 30.8863 126.309 31.1336C125.874 31.381 125.391 31.5047 124.859 31.5047ZM124.859 30.2566C125.234 30.2566 125.56 30.118 125.837 29.8406C126.114 29.5558 126.253 29.136 126.253 28.5813C126.253 28.0266 126.114 27.6106 125.837 27.3333C125.56 27.0484 125.237 26.906 124.87 26.906C124.488 26.906 124.158 27.0484 123.881 27.3333C123.611 27.6106 123.476 28.0266 123.476 28.5813C123.476 29.136 123.611 29.5558 123.881 29.8406C124.158 30.118 124.484 30.2566 124.859 30.2566ZM129.894 31.3698L128.264 25.7929H129.692L130.659 29.8069L131.783 25.7929H133.38L134.504 29.8069L135.482 25.7929H136.91L135.269 31.3698H133.773L132.582 27.1984L131.39 31.3698H129.894ZM141.273 24.9271C141.011 24.9271 140.794 24.8484 140.621 24.691C140.456 24.5336 140.374 24.335 140.374 24.0951C140.374 23.8552 140.456 23.6603 140.621 23.5104C140.794 23.353 141.011 23.2743 141.273 23.2743C141.536 23.2743 141.749 23.353 141.914 23.5104C142.087 23.6603 142.173 23.8552 142.173 24.0951C142.173 24.335 142.087 24.5336 141.914 24.691C141.749 24.8484 141.536 24.9271 141.273 24.9271ZM140.554 31.3698V25.7929H141.993V31.3698H140.554ZM143.495 31.3698V25.7929H144.766L144.878 26.7374C145.051 26.4075 145.298 26.1452 145.62 25.9503C145.95 25.7554 146.336 25.658 146.778 25.658C147.468 25.658 148.004 25.8753 148.386 26.3101C148.768 26.7449 148.96 27.382 148.96 28.2215V31.3698H147.52V28.3565C147.52 27.8767 147.423 27.5094 147.228 27.2546C147.033 26.9997 146.73 26.8723 146.317 26.8723C145.913 26.8723 145.579 27.0147 145.317 27.2995C145.062 27.5844 144.934 27.9817 144.934 28.4914V31.3698H143.495ZM152.543 31.3698L155.421 23.4992H157.04L159.919 31.3698H158.389L157.76 29.5483H154.69L154.049 31.3698H152.543ZM155.084 28.4239H157.366L156.219 25.152L155.084 28.4239ZM161.931 31.3698V24.6573H159.637V23.4992H165.675V24.6573H163.37V31.3698H161.931ZM166.741 31.3698V23.4992H168.45L170.957 28.4914L173.431 23.4992H175.14V31.3698H173.701V25.9391L171.508 30.2454H170.373L168.18 25.9391V31.3698H166.741Z" fill="#262626"/>
<path d="M89.4078 42.3613V37.8188L88.5608 38.0062V37.5715L89.6177 37.1142H90.045V42.3613H89.4078ZM93.0988 42.3613V38.6434H93.6685L93.706 39.3105C93.8259 39.0756 93.9983 38.8907 94.2232 38.7558C94.448 38.6209 94.7029 38.5534 94.9877 38.5534C95.4275 38.5534 95.7773 38.6883 96.0371 38.9582C96.302 39.223 96.4344 39.6328 96.4344 40.1875V42.3613H95.8048V40.255C95.8048 39.4804 95.485 39.0931 94.8453 39.0931C94.5255 39.0931 94.2581 39.2105 94.0433 39.4454C93.8334 39.6753 93.7284 40.0051 93.7284 40.4349V42.3613H93.0988ZM99.0599 42.4512C98.7051 42.4512 98.3903 42.3713 98.1155 42.2114C97.8406 42.0464 97.6232 41.8191 97.4633 41.5292C97.3084 41.2394 97.231 40.8971 97.231 40.5023C97.231 40.1125 97.3084 39.7727 97.4633 39.4829C97.6182 39.1881 97.8331 38.9607 98.108 38.8008C98.3878 38.6359 98.7101 38.5534 99.0749 38.5534C99.4347 38.5534 99.7445 38.6359 100.004 38.8008C100.269 38.9607 100.472 39.1731 100.612 39.4379C100.751 39.7028 100.821 39.9876 100.821 40.2924C100.821 40.3474 100.819 40.4024 100.814 40.4573C100.814 40.5123 100.814 40.5748 100.814 40.6447H97.8531C97.8681 40.9296 97.9331 41.1669 98.048 41.3568C98.1679 41.5417 98.3153 41.6817 98.4902 41.7766C98.6701 41.8715 98.86 41.919 99.0599 41.919C99.3198 41.919 99.5372 41.8591 99.7121 41.7391C99.887 41.6192 100.014 41.4568 100.094 41.2519H100.716C100.617 41.5967 100.424 41.884 100.139 42.1139C99.8595 42.3388 99.4997 42.4512 99.0599 42.4512ZM99.0599 39.0856C98.7601 39.0856 98.4927 39.1781 98.2579 39.363C98.028 39.5429 97.8956 39.8077 97.8606 40.1575H100.199C100.184 39.8227 100.069 39.5603 99.8545 39.3705C99.6396 39.1806 99.3748 39.0856 99.0599 39.0856ZM102.259 42.3613L101.172 38.6434H101.802L102.589 41.5592L103.458 38.6434H104.171L105.048 41.5592L105.827 38.6434H106.464L105.377 42.3613H104.733L103.818 39.2955L102.904 42.3613H102.259ZM109.144 42.3613V38.6434H109.714L109.759 39.1831C109.879 38.9832 110.039 38.8283 110.239 38.7183C110.439 38.6084 110.664 38.5534 110.913 38.5534C111.208 38.5534 111.461 38.6134 111.671 38.7333C111.885 38.8532 112.05 39.0356 112.165 39.2805C112.295 39.0556 112.473 38.8782 112.697 38.7483C112.927 38.6184 113.175 38.5534 113.44 38.5534C113.884 38.5534 114.239 38.6883 114.504 38.9582C114.769 39.223 114.901 39.6328 114.901 40.1875V42.3613H114.279V40.255C114.279 39.8702 114.202 39.5803 114.047 39.3854C113.892 39.1906 113.669 39.0931 113.38 39.0931C113.08 39.0931 112.83 39.2105 112.63 39.4454C112.435 39.6753 112.338 40.0051 112.338 40.4349V42.3613H111.708V40.255C111.708 39.8702 111.631 39.5803 111.476 39.3854C111.321 39.1906 111.098 39.0931 110.808 39.0931C110.514 39.0931 110.266 39.2105 110.066 39.4454C109.872 39.6753 109.774 40.0051 109.774 40.4349V42.3613H109.144ZM117.521 42.4512C117.166 42.4512 116.852 42.3713 116.577 42.2114C116.302 42.0464 116.085 41.8191 115.925 41.5292C115.77 41.2394 115.692 40.8971 115.692 40.5023C115.692 40.1125 115.77 39.7727 115.925 39.4829C116.08 39.1881 116.294 38.9607 116.569 38.8008C116.849 38.6359 117.171 38.5534 117.536 38.5534C117.896 38.5534 118.206 38.6359 118.466 38.8008C118.731 38.9607 118.933 39.1731 119.073 39.4379C119.213 39.7028 119.283 39.9876 119.283 40.2924C119.283 40.3474 119.28 40.4024 119.275 40.4573C119.275 40.5123 119.275 40.5748 119.275 40.6447H116.314C116.329 40.9296 116.394 41.1669 116.509 41.3568C116.629 41.5417 116.777 41.6817 116.952 41.7766C117.131 41.8715 117.321 41.919 117.521 41.919C117.781 41.919 117.998 41.8591 118.173 41.7391C118.348 41.6192 118.476 41.4568 118.556 41.2519H119.178C119.078 41.5967 118.885 41.884 118.601 42.1139C118.321 42.3388 117.961 42.4512 117.521 42.4512ZM117.521 39.0856C117.221 39.0856 116.954 39.1781 116.719 39.363C116.489 39.5429 116.357 39.8077 116.322 40.1575H118.661C118.646 39.8227 118.531 39.5603 118.316 39.3705C118.101 39.1806 117.836 39.0856 117.521 39.0856ZM121.541 42.4512C121.097 42.4512 120.727 42.3388 120.432 42.1139C120.137 41.889 119.965 41.5842 119.915 41.1994H120.56C120.599 41.3943 120.702 41.5642 120.867 41.7091C121.037 41.8491 121.264 41.919 121.549 41.919C121.814 41.919 122.009 41.864 122.134 41.7541C122.259 41.6392 122.321 41.5043 122.321 41.3493C122.321 41.1245 122.239 40.9745 122.074 40.8996C121.914 40.8246 121.686 40.7572 121.392 40.6972C121.192 40.6572 120.992 40.5998 120.792 40.5248C120.592 40.4498 120.425 40.3449 120.29 40.21C120.155 40.0701 120.087 39.8877 120.087 39.6628C120.087 39.338 120.207 39.0731 120.447 38.8682C120.692 38.6584 121.022 38.5534 121.437 38.5534C121.831 38.5534 122.154 38.6534 122.403 38.8532C122.658 39.0481 122.806 39.328 122.846 39.6928H122.224C122.199 39.5029 122.116 39.3555 121.976 39.2505C121.841 39.1406 121.659 39.0856 121.429 39.0856C121.204 39.0856 121.029 39.1331 120.904 39.228C120.784 39.323 120.724 39.4479 120.724 39.6028C120.724 39.7527 120.802 39.8702 120.957 39.9551C121.117 40.0401 121.332 40.1125 121.601 40.1725C121.831 40.2225 122.049 40.2849 122.254 40.3599C122.463 40.4299 122.633 40.5373 122.763 40.6822C122.898 40.8221 122.966 41.027 122.966 41.2969C122.971 41.6317 122.843 41.909 122.583 42.1289C122.329 42.3438 121.981 42.4512 121.541 42.4512ZM125.289 42.4512C124.845 42.4512 124.475 42.3388 124.18 42.1139C123.885 41.889 123.713 41.5842 123.663 41.1994H124.307C124.347 41.3943 124.45 41.5642 124.615 41.7091C124.785 41.8491 125.012 41.919 125.297 41.919C125.562 41.919 125.757 41.864 125.881 41.7541C126.006 41.6392 126.069 41.5043 126.069 41.3493C126.069 41.1245 125.986 40.9745 125.822 40.8996C125.662 40.8246 125.434 40.7572 125.139 40.6972C124.94 40.6572 124.74 40.5998 124.54 40.5248C124.34 40.4498 124.172 40.3449 124.038 40.21C123.903 40.0701 123.835 39.8877 123.835 39.6628C123.835 39.338 123.955 39.0731 124.195 38.8682C124.44 38.6584 124.77 38.5534 125.184 38.5534C125.579 38.5534 125.901 38.6534 126.151 38.8532C126.406 39.0481 126.554 39.328 126.594 39.6928H125.971C125.946 39.5029 125.864 39.3555 125.724 39.2505C125.589 39.1406 125.407 39.0856 125.177 39.0856C124.952 39.0856 124.777 39.1331 124.652 39.228C124.532 39.323 124.472 39.4479 124.472 39.6028C124.472 39.7527 124.55 39.8702 124.705 39.9551C124.865 40.0401 125.079 40.1125 125.349 40.1725C125.579 40.2225 125.797 40.2849 126.001 40.3599C126.211 40.4299 126.381 40.5373 126.511 40.6822C126.646 40.8221 126.714 41.027 126.714 41.2969C126.719 41.6317 126.591 41.909 126.331 42.1289C126.076 42.3438 125.729 42.4512 125.289 42.4512ZM128.85 42.4512C128.54 42.4512 128.283 42.3987 128.078 42.2938C127.873 42.1889 127.72 42.0489 127.621 41.874C127.521 41.6991 127.471 41.5092 127.471 41.3044C127.471 40.9246 127.616 40.6322 127.905 40.4274C128.195 40.2225 128.59 40.12 129.09 40.12H130.094V40.0751C130.094 39.7502 130.009 39.5054 129.839 39.3405C129.669 39.1706 129.442 39.0856 129.157 39.0856C128.912 39.0856 128.7 39.1481 128.52 39.273C128.345 39.3929 128.235 39.5703 128.19 39.8052H127.546C127.571 39.5354 127.66 39.308 127.815 39.1231C127.975 38.9382 128.173 38.7983 128.408 38.7033C128.642 38.6034 128.892 38.5534 129.157 38.5534C129.677 38.5534 130.067 38.6933 130.326 38.9732C130.591 39.248 130.724 39.6153 130.724 40.0751V42.3613H130.162L130.124 41.6941C130.019 41.904 129.864 42.0839 129.659 42.2338C129.459 42.3788 129.19 42.4512 128.85 42.4512ZM128.947 41.919C129.187 41.919 129.392 41.8566 129.562 41.7316C129.737 41.6067 129.869 41.4443 129.959 41.2444C130.049 41.0445 130.094 40.8346 130.094 40.6148V40.6073H129.142C128.772 40.6073 128.51 40.6722 128.355 40.8021C128.205 40.9271 128.13 41.0845 128.13 41.2744C128.13 41.4693 128.2 41.6267 128.34 41.7466C128.485 41.8615 128.687 41.919 128.947 41.919ZM133.138 41.1919C132.928 41.1919 132.735 41.1644 132.56 41.1095L132.186 41.4618C132.241 41.5018 132.308 41.5367 132.388 41.5667C132.473 41.5917 132.593 41.6167 132.748 41.6417C132.903 41.6617 133.12 41.6841 133.4 41.7091C133.9 41.7441 134.257 41.8591 134.472 42.0539C134.687 42.2488 134.794 42.5037 134.794 42.8185C134.794 43.0334 134.734 43.2383 134.614 43.4332C134.499 43.6281 134.319 43.788 134.074 43.9129C133.835 44.0378 133.525 44.1003 133.145 44.1003C132.81 44.1003 132.513 44.0553 132.253 43.9654C131.993 43.8804 131.791 43.748 131.646 43.5681C131.501 43.3932 131.428 43.1708 131.428 42.901C131.428 42.761 131.466 42.6086 131.541 42.4437C131.616 42.2838 131.756 42.1314 131.961 41.9865C131.851 41.9415 131.756 41.894 131.676 41.8441C131.601 41.7891 131.531 41.7291 131.466 41.6642V41.4918L132.103 40.8621C131.808 40.6123 131.661 40.2824 131.661 39.8727C131.661 39.6278 131.718 39.4054 131.833 39.2055C131.948 39.0057 132.116 38.8482 132.335 38.7333C132.555 38.6134 132.823 38.5534 133.138 38.5534C133.352 38.5534 133.547 38.5834 133.722 38.6434H135.094V39.1156L134.397 39.1456C134.542 39.3555 134.614 39.5978 134.614 39.8727C134.614 40.1175 134.554 40.3399 134.434 40.5398C134.319 40.7397 134.152 40.8996 133.932 41.0195C133.717 41.1345 133.452 41.1919 133.138 41.1919ZM133.138 40.6747C133.402 40.6747 133.612 40.6073 133.767 40.4723C133.927 40.3324 134.007 40.1325 134.007 39.8727C134.007 39.6178 133.927 39.4229 133.767 39.288C133.612 39.1481 133.402 39.0781 133.138 39.0781C132.868 39.0781 132.653 39.1481 132.493 39.288C132.338 39.4229 132.261 39.6178 132.261 39.8727C132.261 40.1325 132.338 40.3324 132.493 40.4723C132.653 40.6073 132.868 40.6747 133.138 40.6747ZM132.043 42.841C132.043 43.0909 132.148 43.2758 132.358 43.3957C132.568 43.5206 132.83 43.5831 133.145 43.5831C133.455 43.5831 133.702 43.5156 133.887 43.3807C134.077 43.2458 134.172 43.0659 134.172 42.841C134.172 42.6811 134.107 42.5412 133.977 42.4212C133.847 42.3063 133.607 42.2388 133.257 42.2188C132.983 42.1989 132.745 42.1739 132.545 42.1439C132.34 42.2538 132.206 42.3713 132.141 42.4962C132.076 42.6261 132.043 42.7411 132.043 42.841ZM137.329 42.4512C136.975 42.4512 136.66 42.3713 136.385 42.2114C136.11 42.0464 135.893 41.8191 135.733 41.5292C135.578 41.2394 135.5 40.8971 135.5 40.5023C135.5 40.1125 135.578 39.7727 135.733 39.4829C135.888 39.1881 136.103 38.9607 136.377 38.8008C136.657 38.6359 136.98 38.5534 137.344 38.5534C137.704 38.5534 138.014 38.6359 138.274 38.8008C138.539 38.9607 138.741 39.1731 138.881 39.4379C139.021 39.7028 139.091 39.9876 139.091 40.2924C139.091 40.3474 139.088 40.4024 139.083 40.4573C139.083 40.5123 139.083 40.5748 139.083 40.6447H136.123C136.138 40.9296 136.202 41.1669 136.317 41.3568C136.437 41.5417 136.585 41.6817 136.76 41.7766C136.94 41.8715 137.129 41.919 137.329 41.919C137.589 41.919 137.807 41.8591 137.981 41.7391C138.156 41.6192 138.284 41.4568 138.364 41.2519H138.986C138.886 41.5967 138.694 41.884 138.409 42.1139C138.129 42.3388 137.769 42.4512 137.329 42.4512ZM137.329 39.0856C137.03 39.0856 136.762 39.1781 136.527 39.363C136.297 39.5429 136.165 39.8077 136.13 40.1575H138.469C138.454 39.8227 138.339 39.5603 138.124 39.3705C137.909 39.1806 137.644 39.0856 137.329 39.0856Z" fill="#B4B4B4"/>
<path fill-rule="evenodd" clip-rule="evenodd" d="M67.1286 22.7698L75.5346 37.3587C75.7196 37.7941 75.8005 38.1482 75.8237 38.5161C75.8699 39.3755 75.5693 40.2109 74.9796 40.8538C74.3899 41.4943 73.5921 41.8725 72.7249 41.9183H55.7971C55.4387 41.8966 55.0803 41.8152 54.7449 41.6892C53.0684 41.0131 52.259 39.1108 52.9412 37.4618L61.405 22.7595C61.6941 22.2426 62.1335 21.7969 62.6769 21.5104C64.2494 20.6383 66.2498 21.2113 67.1286 22.7698ZM65.267 32.3843C65.267 32.9344 64.8161 33.3939 64.2611 33.3939C63.7061 33.3939 63.2436 32.9344 63.2436 32.3843V29.1425C63.2436 28.5913 63.7061 28.1455 64.2611 28.1455C64.8161 28.1455 65.267 28.5913 65.267 29.1425V32.3843ZM64.2611 37.3128C63.7061 37.3128 63.2436 36.8533 63.2436 36.3044C63.2436 35.7532 63.7061 35.2948 64.2611 35.2948C64.8161 35.2948 65.267 35.7429 65.267 36.2918C65.267 36.8533 64.8161 37.3128 64.2611 37.3128Z" fill="#D80310"/>
</g>
<defs>
<filter id="filter0_d_71_39540" x="0.260571" y="0.630285" width="232.369" height="82.4535" filterUnits="userSpaceOnUse" color-interpolation-filters="sRGB">
<feFlood flood-opacity="0" result="BackgroundImageFix"/>
<feColorMatrix in="SourceAlpha" type="matrix" values="0 0 0 0 0 0 0 0 0 0 0 0 0 0 0 0 0 0 127 0" result="hardAlpha"/>
<feOffset dy="9.36971"/>
<feGaussianBlur stdDeviation="9.36971"/>
<feComposite in2="hardAlpha" operator="out"/>
<feColorMatrix type="matrix" values="0 0 0 0 0 0 0 0 0 0 0 0 0 0 0 0 0 0 0.1 0"/>
<feBlend mode="normal" in2="BackgroundImageFix" result="effect1_dropShadow_71_39540"/>
<feBlend mode="normal" in="SourceGraphic" in2="effect1_dropShadow_71_39540" result="shape"/>
</filter>
</defs>
</svg>
