<svg width="233" height="87" viewBox="0 0 233 87" fill="none" xmlns="http://www.w3.org/2000/svg">
<g opacity="0.4">
<g filter="url(#filter0_d_71_39551)">
<rect x="37.8901" y="27.1224" width="157.11" height="36.2561" rx="11.33" fill="white"/>
<path d="M97.2744 44.7846C96.6339 44.7846 96.084 44.6487 95.6248 44.3767C95.1655 44.0988 94.812 43.7151 94.5643 43.2256C94.3165 42.7301 94.1927 42.1591 94.1927 41.5125C94.1927 40.8659 94.3165 40.2949 94.5643 39.7994C94.812 39.3039 95.1655 38.9172 95.6248 38.6392C96.084 38.3612 96.6339 38.2222 97.2744 38.2222C98.0358 38.2222 98.6582 38.4126 99.1416 38.7933C99.6311 39.1679 99.9362 39.6967 100.057 40.3795H98.7791C98.7005 40.0351 98.5313 39.7662 98.2715 39.5728C98.0177 39.3734 97.6793 39.2737 97.2563 39.2737C96.6702 39.2737 96.2109 39.4731 95.8786 39.8719C95.5462 40.2707 95.3801 40.8176 95.3801 41.5125C95.3801 42.2074 95.5462 42.7543 95.8786 43.1531C96.2109 43.5459 96.6702 43.7422 97.2563 43.7422C97.6793 43.7422 98.0177 43.6516 98.2715 43.4703C98.5313 43.283 98.7005 43.0262 98.7791 42.6999H100.057C99.9362 43.3525 99.6311 43.8631 99.1416 44.2317C98.6582 44.6003 98.0358 44.7846 97.2744 44.7846ZM102.607 44.7846C102.22 44.7846 101.903 44.7242 101.655 44.6033C101.407 44.4764 101.223 44.3103 101.102 44.1048C100.981 43.8994 100.921 43.6728 100.921 43.425C100.921 43.0081 101.084 42.6697 101.41 42.4098C101.737 42.15 102.226 42.0201 102.879 42.0201H104.021V41.9113C104.021 41.6031 103.933 41.3765 103.758 41.2315C103.583 41.0865 103.365 41.014 103.105 41.014C102.87 41.014 102.664 41.0714 102.489 41.1862C102.314 41.295 102.205 41.4581 102.163 41.6756H101.03C101.06 41.3493 101.169 41.0653 101.356 40.8236C101.549 40.5819 101.797 40.3976 102.099 40.2707C102.401 40.1378 102.74 40.0713 103.114 40.0713C103.755 40.0713 104.26 40.2314 104.628 40.5517C104.997 40.872 105.181 41.3252 105.181 41.9113V44.6758H104.193L104.084 43.9507C103.951 44.1924 103.764 44.3918 103.522 44.5489C103.287 44.7061 102.982 44.7846 102.607 44.7846ZM102.87 43.8782C103.202 43.8782 103.459 43.7694 103.64 43.5519C103.827 43.3344 103.945 43.0655 103.994 42.7452H103.006C102.697 42.7452 102.477 42.8026 102.344 42.9174C102.211 43.0262 102.145 43.1621 102.145 43.3253C102.145 43.5005 102.211 43.6365 102.344 43.7332C102.477 43.8299 102.652 43.8782 102.87 43.8782ZM108.146 44.7846C107.748 44.7846 107.397 44.7212 107.095 44.5943C106.793 44.4613 106.551 44.28 106.37 44.0504C106.188 43.8208 106.08 43.5549 106.043 43.2528H107.213C107.249 43.428 107.346 43.5791 107.503 43.706C107.666 43.8268 107.874 43.8873 108.128 43.8873C108.382 43.8873 108.566 43.8359 108.681 43.7332C108.802 43.6305 108.862 43.5126 108.862 43.3797C108.862 43.1863 108.778 43.0564 108.609 42.9899C108.439 42.9174 108.204 42.8479 107.902 42.7815C107.708 42.7392 107.512 42.6878 107.312 42.6274C107.113 42.5669 106.929 42.4914 106.76 42.4008C106.596 42.3041 106.463 42.1832 106.361 42.0382C106.258 41.8871 106.207 41.7028 106.207 41.4853C106.207 41.0865 106.364 40.7511 106.678 40.4792C106.998 40.2073 107.445 40.0713 108.019 40.0713C108.551 40.0713 108.974 40.1952 109.288 40.4429C109.609 40.6907 109.799 41.0321 109.859 41.4672H108.763C108.696 41.1348 108.445 40.9687 108.01 40.9687C107.793 40.9687 107.624 41.011 107.503 41.0955C107.388 41.1801 107.331 41.2859 107.331 41.4128C107.331 41.5457 107.418 41.6515 107.593 41.73C107.769 41.8086 108.001 41.8811 108.291 41.9476C108.606 42.0201 108.893 42.1017 109.152 42.1923C109.418 42.2769 109.63 42.4068 109.787 42.582C109.944 42.7512 110.023 42.996 110.023 43.3162C110.029 43.5942 109.956 43.845 109.805 44.0686C109.654 44.2921 109.436 44.4674 109.152 44.5943C108.868 44.7212 108.533 44.7846 108.146 44.7846ZM111.05 44.6758V38.1497H112.211V40.8689C112.362 40.6212 112.564 40.4278 112.818 40.2888C113.078 40.1438 113.374 40.0713 113.706 40.0713C114.262 40.0713 114.691 40.2465 114.993 40.597C115.301 40.9475 115.455 41.4611 115.455 42.1379V44.6758H114.304V42.2467C114.304 41.8599 114.226 41.5639 114.069 41.3584C113.918 41.153 113.676 41.0502 113.344 41.0502C113.017 41.0502 112.745 41.165 112.528 41.3947C112.316 41.6243 112.211 41.9445 112.211 42.3554V44.6758H111.05ZM118.725 44.6758V38.1497H119.885V44.6758H118.725ZM123.228 44.7846C122.793 44.7846 122.4 44.6849 122.049 44.4855C121.705 44.2861 121.43 44.0111 121.224 43.6607C121.025 43.3042 120.925 42.8932 120.925 42.428C120.925 41.9627 121.028 41.5548 121.234 41.2043C121.439 40.8478 121.714 40.5698 122.058 40.3704C122.409 40.171 122.802 40.0713 123.237 40.0713C123.666 40.0713 124.052 40.171 124.397 40.3704C124.747 40.5698 125.022 40.8478 125.222 41.2043C125.427 41.5548 125.53 41.9627 125.53 42.428C125.53 42.8932 125.427 43.3042 125.222 43.6607C125.022 44.0111 124.747 44.2861 124.397 44.4855C124.046 44.6849 123.657 44.7846 123.228 44.7846ZM123.228 43.7785C123.53 43.7785 123.793 43.6667 124.016 43.4431C124.24 43.2135 124.352 42.8751 124.352 42.428C124.352 41.9808 124.24 41.6454 124.016 41.4219C123.793 41.1922 123.533 41.0774 123.237 41.0774C122.929 41.0774 122.663 41.1922 122.439 41.4219C122.222 41.6454 122.113 41.9808 122.113 42.428C122.113 42.8751 122.222 43.2135 122.439 43.4431C122.663 43.6667 122.925 43.7785 123.228 43.7785ZM127.287 44.6758L125.973 40.1801H127.124L127.903 43.4159L128.81 40.1801H130.097L131.003 43.4159L131.792 40.1801H132.943L131.62 44.6758H130.414L129.453 41.3131L128.493 44.6758H127.287ZM136.46 39.4821C136.249 39.4821 136.074 39.4187 135.935 39.2918C135.802 39.1649 135.735 39.0048 135.735 38.8114C135.735 38.618 135.802 38.4609 135.935 38.3401C136.074 38.2132 136.249 38.1497 136.46 38.1497C136.672 38.1497 136.844 38.2132 136.977 38.3401C137.116 38.4609 137.185 38.618 137.185 38.8114C137.185 39.0048 137.116 39.1649 136.977 39.2918C136.844 39.4187 136.672 39.4821 136.46 39.4821ZM135.88 44.6758V40.1801H137.04V44.6758H135.88ZM138.251 44.6758V40.1801H139.276L139.366 40.9415C139.505 40.6756 139.705 40.4641 139.964 40.307C140.23 40.1499 140.542 40.0713 140.898 40.0713C141.454 40.0713 141.886 40.2465 142.194 40.597C142.502 40.9475 142.656 41.4611 142.656 42.1379V44.6758H141.496V42.2467C141.496 41.8599 141.418 41.5639 141.261 41.3584C141.103 41.153 140.859 41.0502 140.526 41.0502C140.2 41.0502 139.931 41.165 139.72 41.3947C139.514 41.6243 139.412 41.9445 139.412 42.3554V44.6758H138.251ZM145.545 44.6758L147.865 38.331H149.171L151.491 44.6758H150.258L149.751 43.2075H147.276L146.76 44.6758H145.545ZM147.593 42.3011H149.433L148.509 39.6634L147.593 42.3011ZM153.113 44.6758V39.2646H151.264V38.331H156.131V39.2646H154.273V44.6758H153.113ZM156.991 44.6758V38.331H158.369L160.39 42.3554L162.384 38.331H163.762V44.6758H162.601V40.2979L160.834 43.7694H159.918L158.151 40.2979V44.6758H156.991Z" fill="#262626"/>
<path d="M94.649 53.7612V50.0993L93.9662 50.2504V49.8999L94.8182 49.5313H95.1626V53.7612H94.649ZM97.6245 53.7612V50.764H98.0837L98.1139 51.3018C98.2106 51.1125 98.3496 50.9634 98.5309 50.8546C98.7122 50.7459 98.9176 50.6915 99.1472 50.6915C99.5017 50.6915 99.7837 50.8003 99.9932 51.0178C100.207 51.2313 100.313 51.5616 100.313 52.0088V53.7612H99.8059V52.0632C99.8059 51.4388 99.5481 51.1266 99.0324 51.1266C98.7746 51.1266 98.5591 51.2212 98.3859 51.4106C98.2167 51.5959 98.1321 51.8618 98.1321 52.2082V53.7612H97.6245ZM102.43 53.8337C102.144 53.8337 101.89 53.7692 101.669 53.6403C101.447 53.5074 101.272 53.3241 101.143 53.0904C101.018 52.8568 100.956 52.5808 100.956 52.2626C100.956 51.9484 101.018 51.6744 101.143 51.4408C101.268 51.2031 101.441 51.0198 101.663 50.8909C101.888 50.758 102.148 50.6915 102.442 50.6915C102.732 50.6915 102.982 50.758 103.191 50.8909C103.405 51.0198 103.568 51.191 103.681 51.4045C103.794 51.618 103.85 51.8477 103.85 52.0934C103.85 52.1377 103.848 52.182 103.844 52.2263C103.844 52.2706 103.844 52.321 103.844 52.3774H101.457C101.469 52.607 101.522 52.7984 101.614 52.9514C101.711 53.1005 101.83 53.2133 101.971 53.2898C102.116 53.3664 102.269 53.4047 102.43 53.4047C102.639 53.4047 102.815 53.3563 102.956 53.2596C103.097 53.1629 103.199 53.032 103.264 52.8669H103.765C103.685 53.1448 103.53 53.3765 103.3 53.5618C103.075 53.743 102.785 53.8337 102.43 53.8337ZM102.43 51.1205C102.188 51.1205 101.973 51.195 101.783 51.3441C101.598 51.4891 101.491 51.7026 101.463 51.9846H103.349C103.336 51.7147 103.244 51.5032 103.071 51.3501C102.897 51.1971 102.684 51.1205 102.43 51.1205ZM105.009 53.7612L104.133 50.764H104.64L105.275 53.1146L105.976 50.764H106.55L107.257 53.1146L107.885 50.764H108.399L107.523 53.7612H107.003L106.266 51.2897L105.529 53.7612H105.009ZM110.56 53.7612V50.764H111.019L111.055 51.1991C111.152 51.0379 111.281 50.913 111.442 50.8244C111.603 50.7358 111.784 50.6915 111.986 50.6915C112.223 50.6915 112.427 50.7398 112.596 50.8365C112.769 50.9332 112.902 51.0802 112.995 51.2776C113.1 51.0963 113.243 50.9533 113.424 50.8486C113.609 50.7439 113.809 50.6915 114.022 50.6915C114.381 50.6915 114.667 50.8003 114.88 51.0178C115.094 51.2313 115.2 51.5616 115.2 52.0088V53.7612H114.699V52.0632C114.699 51.753 114.636 51.5193 114.512 51.3622C114.387 51.2051 114.207 51.1266 113.974 51.1266C113.732 51.1266 113.531 51.2212 113.369 51.4106C113.212 51.5959 113.134 51.8618 113.134 52.2082V53.7612H112.626V52.0632C112.626 51.753 112.564 51.5193 112.439 51.3622C112.314 51.2051 112.135 51.1266 111.901 51.1266C111.663 51.1266 111.464 51.2212 111.303 51.4106C111.146 51.5959 111.067 51.8618 111.067 52.2082V53.7612H110.56ZM117.313 53.8337C117.026 53.8337 116.773 53.7692 116.551 53.6403C116.33 53.5074 116.154 53.3241 116.025 53.0904C115.901 52.8568 115.838 52.5808 115.838 52.2626C115.838 51.9484 115.901 51.6744 116.025 51.4408C116.15 51.2031 116.324 51.0198 116.545 50.8909C116.771 50.758 117.031 50.6915 117.325 50.6915C117.615 50.6915 117.864 50.758 118.074 50.8909C118.287 51.0198 118.451 51.191 118.563 51.4045C118.676 51.618 118.733 51.8477 118.733 52.0934C118.733 52.1377 118.731 52.182 118.726 52.2263C118.726 52.2706 118.726 52.321 118.726 52.3774H116.34C116.352 52.607 116.404 52.7984 116.497 52.9514C116.593 53.1005 116.712 53.2133 116.853 53.2898C116.998 53.3664 117.151 53.4047 117.313 53.4047C117.522 53.4047 117.697 53.3563 117.838 53.2596C117.979 53.1629 118.082 53.032 118.146 52.8669H118.648C118.567 53.1448 118.412 53.3765 118.183 53.5618C117.957 53.743 117.667 53.8337 117.313 53.8337ZM117.313 51.1205C117.071 51.1205 116.855 51.195 116.666 51.3441C116.481 51.4891 116.374 51.7026 116.346 51.9846H118.231C118.219 51.7147 118.126 51.5032 117.953 51.3501C117.78 51.1971 117.566 51.1205 117.313 51.1205ZM120.553 53.8337C120.195 53.8337 119.897 53.743 119.659 53.5618C119.421 53.3805 119.282 53.1347 119.242 52.8246H119.762C119.794 52.9817 119.877 53.1186 120.01 53.2355C120.147 53.3483 120.33 53.4047 120.559 53.4047C120.773 53.4047 120.93 53.3603 121.031 53.2717C121.132 53.1791 121.182 53.0703 121.182 52.9454C121.182 52.7641 121.115 52.6433 120.982 52.5828C120.854 52.5224 120.67 52.468 120.433 52.4197C120.271 52.3875 120.11 52.3411 119.949 52.2807C119.788 52.2203 119.653 52.1357 119.544 52.0269C119.436 51.9141 119.381 51.7671 119.381 51.5858C119.381 51.324 119.478 51.1104 119.671 50.9453C119.869 50.7761 120.134 50.6915 120.469 50.6915C120.787 50.6915 121.047 50.7721 121.248 50.9332C121.454 51.0903 121.573 51.3159 121.605 51.61H121.103C121.083 51.4569 121.017 51.3381 120.904 51.2535C120.795 51.1648 120.648 51.1205 120.463 51.1205C120.281 51.1205 120.141 51.1588 120.04 51.2353C119.943 51.3119 119.895 51.4126 119.895 51.5375C119.895 51.6583 119.957 51.753 120.082 51.8215C120.211 51.8899 120.384 51.9484 120.602 51.9967C120.787 52.037 120.962 52.0873 121.127 52.1478C121.297 52.2042 121.434 52.2908 121.538 52.4076C121.647 52.5204 121.702 52.6856 121.702 52.9031C121.706 53.173 121.603 53.3966 121.393 53.5738C121.188 53.7471 120.908 53.8337 120.553 53.8337ZM123.575 53.8337C123.216 53.8337 122.918 53.743 122.68 53.5618C122.443 53.3805 122.304 53.1347 122.263 52.8246H122.783C122.815 52.9817 122.898 53.1186 123.031 53.2355C123.168 53.3483 123.351 53.4047 123.581 53.4047C123.794 53.4047 123.951 53.3603 124.052 53.2717C124.153 53.1791 124.203 53.0703 124.203 52.9454C124.203 52.7641 124.137 52.6433 124.004 52.5828C123.875 52.5224 123.692 52.468 123.454 52.4197C123.293 52.3875 123.132 52.3411 122.97 52.2807C122.809 52.2203 122.674 52.1357 122.566 52.0269C122.457 51.9141 122.402 51.7671 122.402 51.5858C122.402 51.324 122.499 51.1104 122.693 50.9453C122.89 50.7761 123.156 50.6915 123.49 50.6915C123.808 50.6915 124.068 50.7721 124.27 50.9332C124.475 51.0903 124.594 51.3159 124.626 51.61H124.125C124.105 51.4569 124.038 51.3381 123.925 51.2535C123.816 51.1648 123.669 51.1205 123.484 51.1205C123.303 51.1205 123.162 51.1588 123.061 51.2353C122.964 51.3119 122.916 51.4126 122.916 51.5375C122.916 51.6583 122.979 51.753 123.103 51.8215C123.232 51.8899 123.406 51.9484 123.623 51.9967C123.808 52.037 123.984 52.0873 124.149 52.1478C124.318 52.2042 124.455 52.2908 124.56 52.4076C124.668 52.5204 124.723 52.6856 124.723 52.9031C124.727 53.173 124.624 53.3966 124.415 53.5738C124.209 53.7471 123.929 53.8337 123.575 53.8337ZM126.445 53.8337C126.195 53.8337 125.988 53.7914 125.823 53.7068C125.657 53.6222 125.535 53.5094 125.454 53.3684C125.373 53.2274 125.333 53.0743 125.333 52.9092C125.333 52.603 125.45 52.3673 125.684 52.2022C125.917 52.037 126.236 51.9544 126.638 51.9544H127.448V51.9181C127.448 51.6563 127.38 51.4589 127.243 51.326C127.106 51.189 126.922 51.1205 126.693 51.1205C126.495 51.1205 126.324 51.1709 126.179 51.2716C126.038 51.3683 125.95 51.5113 125.913 51.7006H125.394C125.414 51.4831 125.486 51.2998 125.611 51.1507C125.74 51.0017 125.899 50.8889 126.089 50.8123C126.278 50.7318 126.479 50.6915 126.693 50.6915C127.112 50.6915 127.426 50.8043 127.635 51.0299C127.849 51.2514 127.956 51.5475 127.956 51.9181V53.7612H127.503L127.472 53.2234C127.388 53.3926 127.263 53.5376 127.098 53.6584C126.937 53.7753 126.719 53.8337 126.445 53.8337ZM126.524 53.4047C126.717 53.4047 126.882 53.3543 127.019 53.2536C127.16 53.1529 127.267 53.0219 127.339 52.8608C127.412 52.6997 127.448 52.5305 127.448 52.3532V52.3472H126.681C126.383 52.3472 126.171 52.3995 126.046 52.5043C125.925 52.605 125.865 52.7319 125.865 52.885C125.865 53.0421 125.921 53.169 126.034 53.2657C126.151 53.3583 126.314 53.4047 126.524 53.4047ZM129.902 52.8185C129.732 52.8185 129.577 52.7964 129.436 52.752L129.134 53.036C129.178 53.0683 129.233 53.0965 129.297 53.1206C129.366 53.1408 129.462 53.1609 129.587 53.1811C129.712 53.1972 129.887 53.2153 130.113 53.2355C130.516 53.2637 130.804 53.3563 130.977 53.5134C131.15 53.6705 131.237 53.876 131.237 54.1298C131.237 54.303 131.189 54.4682 131.092 54.6253C130.999 54.7824 130.854 54.9113 130.657 55.012C130.464 55.1127 130.214 55.1631 129.908 55.1631C129.638 55.1631 129.398 55.1268 129.189 55.0543C128.979 54.9858 128.816 54.8791 128.699 54.734C128.582 54.593 128.524 54.4138 128.524 54.1962C128.524 54.0834 128.554 53.9606 128.614 53.8276C128.675 53.6987 128.788 53.5759 128.953 53.459C128.864 53.4228 128.788 53.3845 128.723 53.3442C128.663 53.2999 128.606 53.2516 128.554 53.1992V53.0602L129.068 52.5526C128.83 52.3512 128.711 52.0853 128.711 51.755C128.711 51.5576 128.757 51.3783 128.85 51.2172C128.943 51.0561 129.078 50.9292 129.255 50.8365C129.432 50.7398 129.648 50.6915 129.902 50.6915C130.075 50.6915 130.232 50.7157 130.373 50.764H131.479V51.1447L130.917 51.1689C131.034 51.3381 131.092 51.5334 131.092 51.755C131.092 51.9524 131.044 52.1317 130.947 52.2928C130.854 52.4539 130.719 52.5828 130.542 52.6795C130.369 52.7722 130.155 52.8185 129.902 52.8185ZM129.902 52.4016C130.115 52.4016 130.284 52.3472 130.409 52.2384C130.538 52.1256 130.603 51.9645 130.603 51.755C130.603 51.5495 130.538 51.3924 130.409 51.2837C130.284 51.1709 130.115 51.1145 129.902 51.1145C129.684 51.1145 129.511 51.1709 129.382 51.2837C129.257 51.3924 129.195 51.5495 129.195 51.755C129.195 51.9645 129.257 52.1256 129.382 52.2384C129.511 52.3472 129.684 52.4016 129.902 52.4016ZM129.019 54.1479C129.019 54.3493 129.104 54.4984 129.273 54.5951C129.442 54.6958 129.654 54.7461 129.908 54.7461C130.157 54.7461 130.357 54.6917 130.506 54.583C130.659 54.4742 130.735 54.3292 130.735 54.1479C130.735 54.019 130.683 53.9062 130.578 53.8095C130.474 53.7169 130.28 53.6625 129.998 53.6464C129.777 53.6302 129.585 53.6101 129.424 53.5859C129.259 53.6746 129.15 53.7692 129.098 53.8699C129.046 53.9747 129.019 54.0673 129.019 54.1479ZM133.281 53.8337C132.995 53.8337 132.741 53.7692 132.519 53.6403C132.298 53.5074 132.123 53.3241 131.994 53.0904C131.869 52.8568 131.806 52.5808 131.806 52.2626C131.806 51.9484 131.869 51.6744 131.994 51.4408C132.119 51.2031 132.292 51.0198 132.513 50.8909C132.739 50.758 132.999 50.6915 133.293 50.6915C133.583 50.6915 133.833 50.758 134.042 50.8909C134.256 51.0198 134.419 51.191 134.532 51.4045C134.644 51.618 134.701 51.8477 134.701 52.0934C134.701 52.1377 134.699 52.182 134.695 52.2263C134.695 52.2706 134.695 52.321 134.695 52.3774H132.308C132.32 52.607 132.372 52.7984 132.465 52.9514C132.562 53.1005 132.681 53.2133 132.822 53.2898C132.967 53.3664 133.12 53.4047 133.281 53.4047C133.49 53.4047 133.666 53.3563 133.807 53.2596C133.947 53.1629 134.05 53.032 134.115 52.8669H134.616C134.536 53.1448 134.381 53.3765 134.151 53.5618C133.925 53.743 133.635 53.8337 133.281 53.8337ZM133.281 51.1205C133.039 51.1205 132.824 51.195 132.634 51.3441C132.449 51.4891 132.342 51.7026 132.314 51.9846H134.199C134.187 51.7147 134.095 51.5032 133.921 51.3501C133.748 51.1971 133.535 51.1205 133.281 51.1205Z" fill="#B4B4B4"/>
<path fill-rule="evenodd" clip-rule="evenodd" d="M76.6887 37.4168L83.4652 49.1775C83.6143 49.5286 83.6795 49.814 83.6982 50.1106C83.7355 50.8034 83.4931 51.4769 83.0177 51.9951C82.5424 52.5115 81.8992 52.8164 81.2001 52.8533H67.5539C67.2649 52.8358 66.976 52.7702 66.7056 52.6686C65.3541 52.1235 64.7016 50.59 65.2515 49.2607L72.0747 37.4084C72.3077 36.9918 72.6619 36.6325 73.1 36.4015C74.3677 35.6985 75.9802 36.1604 76.6887 37.4168ZM75.1879 45.1675C75.1879 45.611 74.8244 45.9814 74.377 45.9814C73.9296 45.9814 73.5567 45.611 73.5567 45.1675V42.5541C73.5567 42.1098 73.9296 41.7504 74.377 41.7504C74.8244 41.7504 75.1879 42.1098 75.1879 42.5541V45.1675ZM74.377 49.1406C73.9296 49.1406 73.5567 48.7702 73.5567 48.3277C73.5567 47.8833 73.9296 47.5138 74.377 47.5138C74.8244 47.5138 75.1879 47.875 75.1879 48.3175C75.1879 48.7702 74.8244 49.1406 74.377 49.1406Z" fill="#D80310"/>
</g>
</g>
<g filter="url(#filter1_d_71_39551)">
<rect x="19" y="9.61536" width="194.89" height="44.9746" rx="14.0546" fill="white"/>
<path d="M92.6646 31.12C91.8701 31.12 91.188 30.9513 90.6183 30.614C90.0486 30.2692 89.6101 29.7932 89.3028 29.1861C88.9954 28.5714 88.8418 27.8631 88.8418 27.061C88.8418 26.259 88.9954 25.5506 89.3028 24.936C89.6101 24.3213 90.0486 23.8416 90.6183 23.4968C91.188 23.152 91.8701 22.9796 92.6646 22.9796C93.6091 22.9796 94.3812 23.2157 94.9808 23.6879C95.588 24.1526 95.9665 24.8085 96.1164 25.6556H94.5311C94.4336 25.2283 94.2237 24.8947 93.9014 24.6549C93.5866 24.4075 93.1668 24.2838 92.6421 24.2838C91.915 24.2838 91.3454 24.5312 90.9331 25.0259C90.5208 25.5206 90.3147 26.199 90.3147 27.061C90.3147 27.923 90.5208 28.6014 90.9331 29.0961C91.3454 29.5833 91.915 29.8269 92.6421 29.8269C93.1668 29.8269 93.5866 29.7145 93.9014 29.4896C94.2237 29.2573 94.4336 28.9387 94.5311 28.5339H96.1164C95.9665 29.3435 95.588 29.9769 94.9808 30.4341C94.3812 30.8913 93.6091 31.12 92.6646 31.12ZM99.2793 31.12C98.7996 31.12 98.4061 31.045 98.0987 30.8951C97.7914 30.7377 97.5628 30.5316 97.4129 30.2767C97.263 30.0218 97.188 29.7407 97.188 29.4334C97.188 28.9162 97.3904 28.4964 97.7952 28.1741C98.1999 27.8518 98.8071 27.6907 99.6166 27.6907H101.033V27.5557C101.033 27.1734 100.925 26.8924 100.707 26.7125C100.49 26.5326 100.22 26.4426 99.8977 26.4426C99.6054 26.4426 99.3505 26.5138 99.1332 26.6562C98.9158 26.7912 98.7809 26.9935 98.7284 27.2634H97.3229C97.3604 26.8586 97.4953 26.5063 97.7277 26.2065C97.9676 25.9067 98.2749 25.678 98.6497 25.5206C99.0245 25.3557 99.4442 25.2733 99.909 25.2733C100.704 25.2733 101.329 25.4719 101.787 25.8692C102.244 26.2665 102.473 26.8286 102.473 27.5557V30.985H101.247L101.112 30.0856C100.947 30.3854 100.715 30.6327 100.415 30.8276C100.123 31.0225 99.7441 31.12 99.2793 31.12ZM99.6054 29.9956C100.018 29.9956 100.336 29.8607 100.561 29.5908C100.793 29.321 100.94 28.9874 101 28.5901H99.774C99.3918 28.5901 99.1182 28.6614 98.9533 28.8038C98.7883 28.9387 98.7059 29.1074 98.7059 29.3097C98.7059 29.5271 98.7883 29.6958 98.9533 29.8157C99.1182 29.9356 99.3355 29.9956 99.6054 29.9956ZM106.151 31.12C105.656 31.12 105.221 31.0413 104.847 30.8839C104.472 30.7189 104.172 30.4941 103.947 30.2092C103.722 29.9244 103.587 29.5946 103.542 29.2198H104.993C105.038 29.4372 105.158 29.6246 105.353 29.782C105.555 29.9319 105.814 30.0068 106.128 30.0068C106.443 30.0068 106.672 29.9431 106.814 29.8157C106.964 29.6883 107.039 29.5421 107.039 29.3772C107.039 29.1373 106.934 28.9762 106.724 28.8937C106.514 28.8038 106.222 28.7176 105.847 28.6351C105.607 28.5827 105.364 28.5189 105.116 28.444C104.869 28.369 104.64 28.2753 104.431 28.1629C104.228 28.043 104.063 27.893 103.936 27.7131C103.808 27.5257 103.745 27.2971 103.745 27.0273C103.745 26.5326 103.94 26.1165 104.329 25.7792C104.727 25.4419 105.281 25.2733 105.993 25.2733C106.653 25.2733 107.178 25.4269 107.568 25.7343C107.965 26.0416 108.201 26.4651 108.276 27.0048H106.915C106.833 26.5925 106.522 26.3864 105.982 26.3864C105.712 26.3864 105.502 26.4389 105.353 26.5438C105.21 26.6487 105.139 26.7799 105.139 26.9373C105.139 27.1022 105.248 27.2334 105.465 27.3309C105.682 27.4283 105.971 27.5183 106.331 27.6007C106.721 27.6907 107.077 27.7918 107.399 27.9043C107.729 28.0092 107.991 28.1704 108.186 28.3878C108.381 28.5976 108.478 28.9012 108.478 29.2985C108.486 29.6433 108.396 29.9544 108.208 30.2317C108.021 30.5091 107.751 30.7264 107.399 30.8839C107.047 31.0413 106.631 31.12 106.151 31.12ZM109.753 30.985V22.8896H111.192V26.2627C111.38 25.9554 111.631 25.7155 111.946 25.5431C112.268 25.3632 112.635 25.2733 113.048 25.2733C113.737 25.2733 114.269 25.4906 114.644 25.9254C115.027 26.3602 115.218 26.9973 115.218 27.8368V30.985H113.79V27.9717C113.79 27.492 113.692 27.1247 113.497 26.8699C113.31 26.615 113.01 26.4876 112.598 26.4876C112.193 26.4876 111.856 26.63 111.586 26.9148C111.324 27.1997 111.192 27.597 111.192 28.1067V30.985H109.753ZM120.903 30.985L118.823 23.1145H120.364L121.78 29.3772L123.444 23.1145H125.03L126.649 29.3772L128.066 23.1145H129.617L127.481 30.985H125.772L124.209 25.1496L122.601 30.985H120.903ZM131.402 24.5424C131.14 24.5424 130.923 24.4637 130.75 24.3063C130.585 24.1489 130.503 23.9503 130.503 23.7104C130.503 23.4705 130.585 23.2756 130.75 23.1257C130.923 22.9683 131.14 22.8896 131.402 22.8896C131.665 22.8896 131.878 22.9683 132.043 23.1257C132.216 23.2756 132.302 23.4705 132.302 23.7104C132.302 23.9503 132.216 24.1489 132.043 24.3063C131.878 24.4637 131.665 24.5424 131.402 24.5424ZM130.683 30.985V25.4082H132.122V30.985H130.683ZM136.109 30.985C135.524 30.985 135.056 30.8426 134.703 30.5578C134.351 30.2729 134.175 29.767 134.175 29.0399V26.6113H133.219V25.4082H134.175L134.344 23.9128H135.614V25.4082H137.121V26.6113H135.614V29.0511C135.614 29.321 135.67 29.5084 135.783 29.6133C135.903 29.7108 136.105 29.7595 136.39 29.7595H137.087V30.985H136.109ZM138.356 30.985V22.8896H139.796V26.2627C139.983 25.9554 140.234 25.7155 140.549 25.5431C140.871 25.3632 141.239 25.2733 141.651 25.2733C142.34 25.2733 142.873 25.4906 143.247 25.9254C143.63 26.3602 143.821 26.9973 143.821 27.8368V30.985H142.393V27.9717C142.393 27.492 142.296 27.1247 142.101 26.8699C141.913 26.615 141.613 26.4876 141.201 26.4876C140.796 26.4876 140.459 26.63 140.189 26.9148C139.927 27.1997 139.796 27.597 139.796 28.1067V30.985H138.356ZM147.761 31.12C147.236 31.12 146.767 30.9925 146.355 30.7377C145.943 30.4828 145.617 30.1343 145.377 29.692C145.137 29.2498 145.017 28.7476 145.017 28.1854C145.017 27.6232 145.137 27.1247 145.377 26.69C145.617 26.2477 145.943 25.9029 146.355 25.6556C146.767 25.4007 147.236 25.2733 147.761 25.2733C148.18 25.2733 148.548 25.352 148.863 25.5094C149.177 25.6668 149.432 25.8879 149.627 26.1728V22.8896H151.066V30.985H149.785L149.627 30.1867C149.447 30.4341 149.207 30.6515 148.908 30.8389C148.615 31.0263 148.233 31.12 147.761 31.12ZM148.064 29.8607C148.529 29.8607 148.908 29.707 149.2 29.3997C149.5 29.0849 149.65 28.6838 149.65 28.1966C149.65 27.7094 149.5 27.3121 149.2 27.0048C148.908 26.69 148.529 26.5326 148.064 26.5326C147.607 26.5326 147.228 26.6862 146.929 26.9935C146.629 27.3009 146.479 27.6981 146.479 28.1854C146.479 28.6726 146.629 29.0736 146.929 29.3884C147.228 29.7033 147.607 29.8607 148.064 29.8607ZM152.532 30.985V25.4082H153.814L153.949 26.4539C154.151 26.0941 154.425 25.8092 154.769 25.5993C155.122 25.382 155.534 25.2733 156.006 25.2733V26.7912H155.601C155.287 26.7912 155.005 26.8399 154.758 26.9373C154.511 27.0348 154.316 27.2034 154.173 27.4433C154.038 27.6832 153.971 28.0167 153.971 28.444V30.985H152.532ZM158.912 31.12C158.433 31.12 158.039 31.045 157.732 30.8951C157.425 30.7377 157.196 30.5316 157.046 30.2767C156.896 30.0218 156.821 29.7407 156.821 29.4334C156.821 28.9162 157.024 28.4964 157.428 28.1741C157.833 27.8518 158.44 27.6907 159.25 27.6907H160.666V27.5557C160.666 27.1734 160.558 26.8924 160.34 26.7125C160.123 26.5326 159.853 26.4426 159.531 26.4426C159.239 26.4426 158.984 26.5138 158.766 26.6562C158.549 26.7912 158.414 26.9935 158.361 27.2634H156.956C156.994 26.8586 157.128 26.5063 157.361 26.2065C157.601 25.9067 157.908 25.678 158.283 25.5206C158.658 25.3557 159.077 25.2733 159.542 25.2733C160.337 25.2733 160.963 25.4719 161.42 25.8692C161.877 26.2665 162.106 26.8286 162.106 27.5557V30.985H160.88L160.745 30.0856C160.58 30.3854 160.348 30.6327 160.048 30.8276C159.756 31.0225 159.377 31.12 158.912 31.12ZM159.239 29.9956C159.651 29.9956 159.969 29.8607 160.194 29.5908C160.427 29.321 160.573 28.9874 160.633 28.5901H159.407C159.025 28.5901 158.751 28.6614 158.586 28.8038C158.421 28.9387 158.339 29.1074 158.339 29.3097C158.339 29.5271 158.421 29.6958 158.586 29.8157C158.751 29.9356 158.969 29.9956 159.239 29.9956ZM164.515 30.985L162.884 25.4082H164.312L165.279 29.4222L166.404 25.4082H168L169.125 29.4222L170.103 25.4082H171.531L169.889 30.985H168.394L167.202 26.8136L166.01 30.985H164.515ZM172.439 30.985V25.4082H173.709L173.822 26.3527C173.994 26.0228 174.242 25.7605 174.564 25.5656C174.894 25.3707 175.28 25.2733 175.722 25.2733C176.412 25.2733 176.948 25.4906 177.33 25.9254C177.712 26.3602 177.903 26.9973 177.903 27.8368V30.985H176.464V27.9717C176.464 27.492 176.367 27.1247 176.172 26.8699C175.977 26.615 175.673 26.4876 175.261 26.4876C174.856 26.4876 174.523 26.63 174.26 26.9148C174.005 27.1997 173.878 27.597 173.878 28.1067V30.985H172.439Z" fill="#262626"/>
<path d="M89.4078 41.9766V37.4342L88.5608 37.6216V37.1868L89.6177 36.7296H90.045V41.9766H89.4078ZM93.0988 41.9766V38.2587H93.6685L93.706 38.9258C93.8259 38.691 93.9983 38.5061 94.2232 38.3712C94.448 38.2362 94.7029 38.1688 94.9877 38.1688C95.4275 38.1688 95.7773 38.3037 96.0371 38.5735C96.302 38.8384 96.4344 39.2482 96.4344 39.8028V41.9766H95.8048V39.8703C95.8048 39.0957 95.485 38.7085 94.8453 38.7085C94.5255 38.7085 94.2581 38.8259 94.0433 39.0608C93.8334 39.2906 93.7284 39.6205 93.7284 40.0502V41.9766H93.0988ZM99.0599 42.0666C98.7051 42.0666 98.3903 41.9866 98.1155 41.8267C97.8406 41.6618 97.6232 41.4344 97.4633 41.1446C97.3084 40.8548 97.231 40.5124 97.231 40.1177C97.231 39.7279 97.3084 39.3881 97.4633 39.0982C97.6182 38.8034 97.8331 38.576 98.108 38.4161C98.3878 38.2512 98.7101 38.1688 99.0749 38.1688C99.4347 38.1688 99.7445 38.2512 100.004 38.4161C100.269 38.576 100.472 38.7884 100.612 39.0533C100.751 39.3181 100.821 39.603 100.821 39.9078C100.821 39.9628 100.819 40.0177 100.814 40.0727C100.814 40.1277 100.814 40.1901 100.814 40.2601H97.8531C97.8681 40.5449 97.9331 40.7823 98.048 40.9722C98.1679 41.1571 98.3153 41.297 98.4902 41.392C98.6701 41.4869 98.86 41.5344 99.0599 41.5344C99.3198 41.5344 99.5372 41.4744 99.7121 41.3545C99.887 41.2345 100.014 41.0721 100.094 40.8672H100.716C100.617 41.2121 100.424 41.4994 100.139 41.7293C99.8595 41.9541 99.4997 42.0666 99.0599 42.0666ZM99.0599 38.701C98.7601 38.701 98.4927 38.7934 98.2579 38.9783C98.028 39.1582 97.8956 39.4231 97.8606 39.7729H100.199C100.184 39.4381 100.069 39.1757 99.8545 38.9858C99.6396 38.7959 99.3748 38.701 99.0599 38.701ZM102.259 41.9766L101.172 38.2587H101.802L102.589 41.1746L103.458 38.2587H104.171L105.048 41.1746L105.827 38.2587H106.464L105.377 41.9766H104.733L103.818 38.9109L102.904 41.9766H102.259ZM109.144 41.9766V38.2587H109.714L109.759 38.7984C109.879 38.5985 110.039 38.4436 110.239 38.3337C110.439 38.2237 110.664 38.1688 110.913 38.1688C111.208 38.1688 111.461 38.2287 111.671 38.3487C111.885 38.4686 112.05 38.651 112.165 38.8959C112.295 38.671 112.473 38.4936 112.697 38.3637C112.927 38.2337 113.175 38.1688 113.44 38.1688C113.884 38.1688 114.239 38.3037 114.504 38.5735C114.769 38.8384 114.901 39.2482 114.901 39.8028V41.9766H114.279V39.8703C114.279 39.4855 114.202 39.1957 114.047 39.0008C113.892 38.8059 113.669 38.7085 113.38 38.7085C113.08 38.7085 112.83 38.8259 112.63 39.0608C112.435 39.2906 112.338 39.6205 112.338 40.0502V41.9766H111.708V39.8703C111.708 39.4855 111.631 39.1957 111.476 39.0008C111.321 38.8059 111.098 38.7085 110.808 38.7085C110.514 38.7085 110.266 38.8259 110.066 39.0608C109.872 39.2906 109.774 39.6205 109.774 40.0502V41.9766H109.144ZM117.521 42.0666C117.166 42.0666 116.852 41.9866 116.577 41.8267C116.302 41.6618 116.085 41.4344 115.925 41.1446C115.77 40.8548 115.692 40.5124 115.692 40.1177C115.692 39.7279 115.77 39.3881 115.925 39.0982C116.08 38.8034 116.294 38.576 116.569 38.4161C116.849 38.2512 117.171 38.1688 117.536 38.1688C117.896 38.1688 118.206 38.2512 118.466 38.4161C118.731 38.576 118.933 38.7884 119.073 39.0533C119.213 39.3181 119.283 39.603 119.283 39.9078C119.283 39.9628 119.28 40.0177 119.275 40.0727C119.275 40.1277 119.275 40.1901 119.275 40.2601H116.314C116.329 40.5449 116.394 40.7823 116.509 40.9722C116.629 41.1571 116.777 41.297 116.952 41.392C117.131 41.4869 117.321 41.5344 117.521 41.5344C117.781 41.5344 117.998 41.4744 118.173 41.3545C118.348 41.2345 118.476 41.0721 118.556 40.8672H119.178C119.078 41.2121 118.885 41.4994 118.601 41.7293C118.321 41.9541 117.961 42.0666 117.521 42.0666ZM117.521 38.701C117.221 38.701 116.954 38.7934 116.719 38.9783C116.489 39.1582 116.357 39.4231 116.322 39.7729H118.661C118.646 39.4381 118.531 39.1757 118.316 38.9858C118.101 38.7959 117.836 38.701 117.521 38.701ZM121.541 42.0666C121.097 42.0666 120.727 41.9541 120.432 41.7293C120.137 41.5044 119.965 41.1996 119.915 40.8148H120.56C120.599 41.0097 120.702 41.1796 120.867 41.3245C121.037 41.4644 121.264 41.5344 121.549 41.5344C121.814 41.5344 122.009 41.4794 122.134 41.3695C122.259 41.2545 122.321 41.1196 122.321 40.9647C122.321 40.7398 122.239 40.5899 122.074 40.5149C121.914 40.44 121.686 40.3725 121.392 40.3126C121.192 40.2726 120.992 40.2151 120.792 40.1402C120.592 40.0652 120.425 39.9603 120.29 39.8253C120.155 39.6854 120.087 39.503 120.087 39.2781C120.087 38.9533 120.207 38.6885 120.447 38.4836C120.692 38.2737 121.022 38.1688 121.437 38.1688C121.831 38.1688 122.154 38.2687 122.403 38.4686C122.658 38.6635 122.806 38.9433 122.846 39.3081H122.224C122.199 39.1182 122.116 38.9708 121.976 38.8659C121.841 38.7559 121.659 38.701 121.429 38.701C121.204 38.701 121.029 38.7484 120.904 38.8434C120.784 38.9383 120.724 39.0633 120.724 39.2182C120.724 39.3681 120.802 39.4855 120.957 39.5705C121.117 39.6554 121.332 39.7279 121.601 39.7879C121.831 39.8378 122.049 39.9003 122.254 39.9753C122.463 40.0452 122.633 40.1527 122.763 40.2976C122.898 40.4375 122.966 40.6424 122.966 40.9122C122.971 41.247 122.843 41.5244 122.583 41.7443C122.329 41.9591 121.981 42.0666 121.541 42.0666ZM125.289 42.0666C124.845 42.0666 124.475 41.9541 124.18 41.7293C123.885 41.5044 123.713 41.1996 123.663 40.8148H124.307C124.347 41.0097 124.45 41.1796 124.615 41.3245C124.785 41.4644 125.012 41.5344 125.297 41.5344C125.562 41.5344 125.757 41.4794 125.881 41.3695C126.006 41.2545 126.069 41.1196 126.069 40.9647C126.069 40.7398 125.986 40.5899 125.822 40.5149C125.662 40.44 125.434 40.3725 125.139 40.3126C124.94 40.2726 124.74 40.2151 124.54 40.1402C124.34 40.0652 124.172 39.9603 124.038 39.8253C123.903 39.6854 123.835 39.503 123.835 39.2781C123.835 38.9533 123.955 38.6885 124.195 38.4836C124.44 38.2737 124.77 38.1688 125.184 38.1688C125.579 38.1688 125.901 38.2687 126.151 38.4686C126.406 38.6635 126.554 38.9433 126.594 39.3081H125.971C125.946 39.1182 125.864 38.9708 125.724 38.8659C125.589 38.7559 125.407 38.701 125.177 38.701C124.952 38.701 124.777 38.7484 124.652 38.8434C124.532 38.9383 124.472 39.0633 124.472 39.2182C124.472 39.3681 124.55 39.4855 124.705 39.5705C124.865 39.6554 125.079 39.7279 125.349 39.7879C125.579 39.8378 125.797 39.9003 126.001 39.9753C126.211 40.0452 126.381 40.1527 126.511 40.2976C126.646 40.4375 126.714 40.6424 126.714 40.9122C126.719 41.247 126.591 41.5244 126.331 41.7443C126.076 41.9591 125.729 42.0666 125.289 42.0666ZM128.85 42.0666C128.54 42.0666 128.283 42.0141 128.078 41.9092C127.873 41.8042 127.72 41.6643 127.621 41.4894C127.521 41.3145 127.471 41.1246 127.471 40.9197C127.471 40.5399 127.616 40.2476 127.905 40.0427C128.195 39.8378 128.59 39.7354 129.09 39.7354H130.094V39.6904C130.094 39.3656 130.009 39.1207 129.839 38.9558C129.669 38.7859 129.442 38.701 129.157 38.701C128.912 38.701 128.7 38.7634 128.52 38.8884C128.345 39.0083 128.235 39.1857 128.19 39.4206H127.546C127.571 39.1507 127.66 38.9233 127.815 38.7384C127.975 38.5536 128.173 38.4136 128.408 38.3187C128.642 38.2187 128.892 38.1688 129.157 38.1688C129.677 38.1688 130.067 38.3087 130.326 38.5885C130.591 38.8634 130.724 39.2307 130.724 39.6904V41.9766H130.162L130.124 41.3095C130.019 41.5194 129.864 41.6993 129.659 41.8492C129.459 41.9941 129.19 42.0666 128.85 42.0666ZM128.947 41.5344C129.187 41.5344 129.392 41.4719 129.562 41.347C129.737 41.222 129.869 41.0596 129.959 40.8598C130.049 40.6599 130.094 40.45 130.094 40.2301V40.2226H129.142C128.772 40.2226 128.51 40.2876 128.355 40.4175C128.205 40.5424 128.13 40.6998 128.13 40.8897C128.13 41.0846 128.2 41.242 128.34 41.362C128.485 41.4769 128.687 41.5344 128.947 41.5344ZM133.138 40.8073C132.928 40.8073 132.735 40.7798 132.56 40.7248L132.186 41.0771C132.241 41.1171 132.308 41.1521 132.388 41.1821C132.473 41.2071 132.593 41.232 132.748 41.257C132.903 41.277 133.12 41.2995 133.4 41.3245C133.9 41.3595 134.257 41.4744 134.472 41.6693C134.687 41.8642 134.794 42.119 134.794 42.4339C134.794 42.6487 134.734 42.8536 134.614 43.0485C134.499 43.2434 134.319 43.4033 134.074 43.5282C133.835 43.6532 133.525 43.7156 133.145 43.7156C132.81 43.7156 132.513 43.6707 132.253 43.5807C131.993 43.4958 131.791 43.3633 131.646 43.1834C131.501 43.0085 131.428 42.7862 131.428 42.5163C131.428 42.3764 131.466 42.224 131.541 42.0591C131.616 41.8992 131.756 41.7468 131.961 41.6018C131.851 41.5569 131.756 41.5094 131.676 41.4594C131.601 41.4044 131.531 41.3445 131.466 41.2795V41.1071L132.103 40.4775C131.808 40.2276 131.661 39.8978 131.661 39.488C131.661 39.2432 131.718 39.0208 131.833 38.8209C131.948 38.621 132.116 38.4636 132.335 38.3487C132.555 38.2287 132.823 38.1688 133.138 38.1688C133.352 38.1688 133.547 38.1988 133.722 38.2587H135.094V38.731L134.397 38.7609C134.542 38.9708 134.614 39.2132 134.614 39.488C134.614 39.7329 134.554 39.9553 134.434 40.1552C134.319 40.355 134.152 40.5149 133.932 40.6349C133.717 40.7498 133.452 40.8073 133.138 40.8073ZM133.138 40.2901C133.402 40.2901 133.612 40.2226 133.767 40.0877C133.927 39.9478 134.007 39.7479 134.007 39.488C134.007 39.2332 133.927 39.0383 133.767 38.9034C133.612 38.7634 133.402 38.6935 133.138 38.6935C132.868 38.6935 132.653 38.7634 132.493 38.9034C132.338 39.0383 132.261 39.2332 132.261 39.488C132.261 39.7479 132.338 39.9478 132.493 40.0877C132.653 40.2226 132.868 40.2901 133.138 40.2901ZM132.043 42.4564C132.043 42.7062 132.148 42.8911 132.358 43.011C132.568 43.136 132.83 43.1984 133.145 43.1984C133.455 43.1984 133.702 43.131 133.887 42.996C134.077 42.8611 134.172 42.6812 134.172 42.4564C134.172 42.2964 134.107 42.1565 133.977 42.0366C133.847 41.9217 133.607 41.8542 133.257 41.8342C132.983 41.8142 132.745 41.7892 132.545 41.7592C132.34 41.8692 132.206 41.9866 132.141 42.1115C132.076 42.2415 132.043 42.3564 132.043 42.4564ZM137.329 42.0666C136.975 42.0666 136.66 41.9866 136.385 41.8267C136.11 41.6618 135.893 41.4344 135.733 41.1446C135.578 40.8548 135.5 40.5124 135.5 40.1177C135.5 39.7279 135.578 39.3881 135.733 39.0982C135.888 38.8034 136.103 38.576 136.377 38.4161C136.657 38.2512 136.98 38.1688 137.344 38.1688C137.704 38.1688 138.014 38.2512 138.274 38.4161C138.539 38.576 138.741 38.7884 138.881 39.0533C139.021 39.3181 139.091 39.603 139.091 39.9078C139.091 39.9628 139.088 40.0177 139.083 40.0727C139.083 40.1277 139.083 40.1901 139.083 40.2601H136.123C136.138 40.5449 136.202 40.7823 136.317 40.9722C136.437 41.1571 136.585 41.297 136.76 41.392C136.94 41.4869 137.129 41.5344 137.329 41.5344C137.589 41.5344 137.807 41.4744 137.981 41.3545C138.156 41.2345 138.284 41.0721 138.364 40.8672H138.986C138.886 41.2121 138.694 41.4994 138.409 41.7293C138.129 41.9541 137.769 42.0666 137.329 42.0666ZM137.329 38.701C137.03 38.701 136.762 38.7934 136.527 38.9783C136.297 39.1582 136.165 39.4231 136.13 39.7729H138.469C138.454 39.4381 138.339 39.1757 138.124 38.9858C137.909 38.7959 137.644 38.701 137.329 38.701Z" fill="#B4B4B4"/>
<path fill-rule="evenodd" clip-rule="evenodd" d="M59.9883 22.1051H69.0121C72.5405 22.1051 74.9031 24.5822 74.9031 28.2667V36.7712C74.9031 40.4453 72.5405 42.9214 69.0121 42.9214H59.9883C56.4599 42.9214 54.0869 40.4453 54.0869 36.7712V28.2667C54.0869 24.5822 56.4599 22.1051 59.9883 22.1051ZM64.4844 29.4543C63.9952 29.4543 63.5893 29.0474 63.5893 28.5488C63.5893 28.0388 63.9952 27.6329 64.5052 27.6329C65.0048 27.6329 65.4107 28.0388 65.4107 28.5488C65.4107 29.0474 65.0048 29.4543 64.4844 29.4543ZM65.4006 36.4485C65.4006 36.9481 64.9946 37.354 64.4846 37.354C63.9851 37.354 63.5791 36.9481 63.5791 36.4485V31.8481C63.5791 31.3475 63.9851 30.9322 64.4846 30.9322C64.9946 30.9322 65.4006 31.3475 65.4006 31.8481V36.4485Z" fill="#FFBE3F"/>
</g>
<defs>
<filter id="filter0_d_71_39551" x="22.7834" y="19.5691" width="187.323" height="66.4696" filterUnits="userSpaceOnUse" color-interpolation-filters="sRGB">
<feFlood flood-opacity="0" result="BackgroundImageFix"/>
<feColorMatrix in="SourceAlpha" type="matrix" values="0 0 0 0 0 0 0 0 0 0 0 0 0 0 0 0 0 0 127 0" result="hardAlpha"/>
<feOffset dy="7.55336"/>
<feGaussianBlur stdDeviation="7.55336"/>
<feComposite in2="hardAlpha" operator="out"/>
<feColorMatrix type="matrix" values="0 0 0 0 0 0 0 0 0 0 0 0 0 0 0 0 0 0 0.1 0"/>
<feBlend mode="normal" in2="BackgroundImageFix" result="effect1_dropShadow_71_39551"/>
<feBlend mode="normal" in="SourceGraphic" in2="effect1_dropShadow_71_39551" result="shape"/>
</filter>
<filter id="filter1_d_71_39551" x="0.260571" y="0.245642" width="232.369" height="82.4535" filterUnits="userSpaceOnUse" color-interpolation-filters="sRGB">
<feFlood flood-opacity="0" result="BackgroundImageFix"/>
<feColorMatrix in="SourceAlpha" type="matrix" values="0 0 0 0 0 0 0 0 0 0 0 0 0 0 0 0 0 0 127 0" result="hardAlpha"/>
<feOffset dy="9.36971"/>
<feGaussianBlur stdDeviation="9.36971"/>
<feComposite in2="hardAlpha" operator="out"/>
<feColorMatrix type="matrix" values="0 0 0 0 0 0 0 0 0 0 0 0 0 0 0 0 0 0 0.1 0"/>
<feBlend mode="normal" in2="BackgroundImageFix" result="effect1_dropShadow_71_39551"/>
<feBlend mode="normal" in="SourceGraphic" in2="effect1_dropShadow_71_39551" result="shape"/>
</filter>
</defs>
</svg>
