<svg width="234" height="84" viewBox="0 0 234 84" fill="none" xmlns="http://www.w3.org/2000/svg">
<g opacity="0.4">
<g filter="url(#filter0_d_71_39573)">
<rect x="37.8901" y="25.0336" width="157.11" height="36.2561" rx="11.33" fill="white"/>
<path d="M97.2744 42.6957C96.6339 42.6957 96.084 42.5598 95.6248 42.2879C95.1655 42.0099 94.812 41.6262 94.5643 41.1367C94.3165 40.6412 94.1927 40.0702 94.1927 39.4236C94.1927 38.7771 94.3165 38.206 94.5643 37.7105C94.812 37.215 95.1655 36.8283 95.6248 36.5503C96.084 36.2724 96.6339 36.1334 97.2744 36.1334C98.0358 36.1334 98.6582 36.3237 99.1416 36.7044C99.6311 37.0791 99.9362 37.6078 100.057 38.2906H98.7791C98.7005 37.9462 98.5313 37.6773 98.2715 37.4839C98.0177 37.2845 97.6793 37.1848 97.2563 37.1848C96.6702 37.1848 96.2109 37.3842 95.8786 37.783C95.5462 38.1819 95.3801 38.7287 95.3801 39.4236C95.3801 40.1185 95.5462 40.6654 95.8786 41.0642C96.2109 41.457 96.6702 41.6534 97.2563 41.6534C97.6793 41.6534 98.0177 41.5627 98.2715 41.3815C98.5313 41.1941 98.7005 40.9373 98.7791 40.611H100.057C99.9362 41.2636 99.6311 41.7742 99.1416 42.1428C98.6582 42.5114 98.0358 42.6957 97.2744 42.6957ZM102.607 42.6957C102.22 42.6957 101.903 42.6353 101.655 42.5145C101.407 42.3876 101.223 42.2214 101.102 42.0159C100.981 41.8105 100.921 41.5839 100.921 41.3361C100.921 40.9192 101.084 40.5808 101.41 40.321C101.737 40.0611 102.226 39.9312 102.879 39.9312H104.021V39.8224C104.021 39.5143 103.933 39.2877 103.758 39.1426C103.583 38.9976 103.365 38.9251 103.105 38.9251C102.87 38.9251 102.664 38.9825 102.489 39.0973C102.314 39.2061 102.205 39.3692 102.163 39.5868H101.03C101.06 39.2605 101.169 38.9765 101.356 38.7348C101.549 38.4931 101.797 38.3087 102.099 38.1819C102.401 38.0489 102.74 37.9824 103.114 37.9824C103.755 37.9824 104.26 38.1426 104.628 38.4628C104.997 38.7831 105.181 39.2363 105.181 39.8224V42.587H104.193L104.084 41.8619C103.951 42.1036 103.764 42.303 103.522 42.4601C103.287 42.6172 102.982 42.6957 102.607 42.6957ZM102.87 41.7893C103.202 41.7893 103.459 41.6806 103.64 41.463C103.827 41.2455 103.945 40.9766 103.994 40.6563H103.006C102.697 40.6563 102.477 40.7137 102.344 40.8286C102.211 40.9373 102.145 41.0733 102.145 41.2364C102.145 41.4117 102.211 41.5476 102.344 41.6443C102.477 41.741 102.652 41.7893 102.87 41.7893ZM108.146 42.6957C107.748 42.6957 107.397 42.6323 107.095 42.5054C106.793 42.3725 106.551 42.1912 106.37 41.9616C106.188 41.7319 106.08 41.4661 106.043 41.1639H107.213C107.249 41.3392 107.346 41.4902 107.503 41.6171C107.666 41.738 107.874 41.7984 108.128 41.7984C108.382 41.7984 108.566 41.747 108.681 41.6443C108.802 41.5416 108.862 41.4238 108.862 41.2908C108.862 41.0975 108.778 40.9675 108.609 40.9011C108.439 40.8286 108.204 40.7591 107.902 40.6926C107.708 40.6503 107.512 40.5989 107.312 40.5385C107.113 40.4781 106.929 40.4025 106.76 40.3119C106.596 40.2152 106.463 40.0944 106.361 39.9493C106.258 39.7983 106.207 39.614 106.207 39.3964C106.207 38.9976 106.364 38.6622 106.678 38.3903C106.998 38.1184 107.445 37.9824 108.019 37.9824C108.551 37.9824 108.974 38.1063 109.288 38.3541C109.609 38.6018 109.799 38.9432 109.859 39.3783H108.763C108.696 39.046 108.445 38.8798 108.01 38.8798C107.793 38.8798 107.624 38.9221 107.503 39.0067C107.388 39.0913 107.331 39.197 107.331 39.3239C107.331 39.4569 107.418 39.5626 107.593 39.6412C107.769 39.7197 108.001 39.7922 108.291 39.8587C108.606 39.9312 108.893 40.0128 109.152 40.1034C109.418 40.188 109.63 40.3179 109.787 40.4932C109.944 40.6624 110.023 40.9071 110.023 41.2274C110.029 41.5053 109.956 41.7561 109.805 41.9797C109.654 42.2033 109.436 42.3785 109.152 42.5054C108.868 42.6323 108.533 42.6957 108.146 42.6957ZM111.05 42.587V36.0609H112.211V38.7801C112.362 38.5323 112.564 38.339 112.818 38.2C113.078 38.055 113.374 37.9824 113.706 37.9824C114.262 37.9824 114.691 38.1577 114.993 38.5082C115.301 38.8586 115.455 39.3723 115.455 40.049V42.587H114.304V40.1578C114.304 39.7711 114.226 39.475 114.069 39.2695C113.918 39.0641 113.676 38.9614 113.344 38.9614C113.017 38.9614 112.745 39.0762 112.528 39.3058C112.316 39.5354 112.211 39.8557 112.211 40.2666V42.587H111.05ZM118.725 42.587V36.0609H119.885V42.587H118.725ZM123.228 42.6957C122.793 42.6957 122.4 42.596 122.049 42.3966C121.705 42.1972 121.43 41.9223 121.224 41.5718C121.025 41.2153 120.925 40.8044 120.925 40.3391C120.925 39.8738 121.028 39.4659 121.234 39.1154C121.439 38.7589 121.714 38.481 122.058 38.2816C122.409 38.0821 122.802 37.9824 123.237 37.9824C123.666 37.9824 124.052 38.0821 124.397 38.2816C124.747 38.481 125.022 38.7589 125.222 39.1154C125.427 39.4659 125.53 39.8738 125.53 40.3391C125.53 40.8044 125.427 41.2153 125.222 41.5718C125.022 41.9223 124.747 42.1972 124.397 42.3966C124.046 42.596 123.657 42.6957 123.228 42.6957ZM123.228 41.6896C123.53 41.6896 123.793 41.5778 124.016 41.3543C124.24 41.1246 124.352 40.7863 124.352 40.3391C124.352 39.8919 124.24 39.5566 124.016 39.333C123.793 39.1034 123.533 38.9886 123.237 38.9886C122.929 38.9886 122.663 39.1034 122.439 39.333C122.222 39.5566 122.113 39.8919 122.113 40.3391C122.113 40.7863 122.222 41.1246 122.439 41.3543C122.663 41.5778 122.925 41.6896 123.228 41.6896ZM127.287 42.587L125.973 38.0912H127.124L127.903 41.3271L128.81 38.0912H130.097L131.003 41.3271L131.792 38.0912H132.943L131.62 42.587H130.414L129.453 39.2242L128.493 42.587H127.287ZM136.46 37.3933C136.249 37.3933 136.074 37.3298 135.935 37.2029C135.802 37.076 135.735 36.9159 135.735 36.7225C135.735 36.5292 135.802 36.3721 135.935 36.2512C136.074 36.1243 136.249 36.0609 136.46 36.0609C136.672 36.0609 136.844 36.1243 136.977 36.2512C137.116 36.3721 137.185 36.5292 137.185 36.7225C137.185 36.9159 137.116 37.076 136.977 37.2029C136.844 37.3298 136.672 37.3933 136.46 37.3933ZM135.88 42.587V38.0912H137.04V42.587H135.88ZM138.251 42.587V38.0912H139.276L139.366 38.8526C139.505 38.5867 139.705 38.3752 139.964 38.2181C140.23 38.061 140.542 37.9824 140.898 37.9824C141.454 37.9824 141.886 38.1577 142.194 38.5082C142.502 38.8586 142.656 39.3723 142.656 40.049V42.587H141.496V40.1578C141.496 39.7711 141.418 39.475 141.261 39.2695C141.103 39.0641 140.859 38.9614 140.526 38.9614C140.2 38.9614 139.931 39.0762 139.72 39.3058C139.514 39.5354 139.412 39.8557 139.412 40.2666V42.587H138.251ZM145.545 42.587L147.865 36.2421H149.171L151.491 42.587H150.258L149.751 41.1186H147.276L146.76 42.587H145.545ZM147.593 40.2122H149.433L148.509 37.5746L147.593 40.2122ZM153.113 42.587V37.1757H151.264V36.2421H156.131V37.1757H154.273V42.587H153.113ZM156.991 42.587V36.2421H158.369L160.39 40.2666L162.384 36.2421H163.762V42.587H162.601V38.209L160.834 41.6806H159.918L158.151 38.209V42.587H156.991Z" fill="#262626"/>
<path d="M94.649 51.6723V48.0104L93.9662 48.1615V47.811L94.8182 47.4424H95.1626V51.6723H94.649ZM97.6245 51.6723V48.6751H98.0837L98.1139 49.2129C98.2106 49.0236 98.3496 48.8745 98.5309 48.7658C98.7122 48.657 98.9176 48.6026 99.1472 48.6026C99.5017 48.6026 99.7837 48.7114 99.9932 48.9289C100.207 49.1424 100.313 49.4728 100.313 49.9199V51.6723H99.8059V49.9743C99.8059 49.3499 99.5481 49.0377 99.0324 49.0377C98.7746 49.0377 98.5591 49.1324 98.3859 49.3217C98.2167 49.507 98.1321 49.7729 98.1321 50.1193V51.6723H97.6245ZM102.43 51.7448C102.144 51.7448 101.89 51.6804 101.669 51.5514C101.447 51.4185 101.272 51.2352 101.143 51.0016C101.018 50.7679 100.956 50.492 100.956 50.1737C100.956 49.8595 101.018 49.5856 101.143 49.3519C101.268 49.1142 101.441 48.9309 101.663 48.802C101.888 48.6691 102.148 48.6026 102.442 48.6026C102.732 48.6026 102.982 48.6691 103.191 48.802C103.405 48.9309 103.568 49.1021 103.681 49.3157C103.794 49.5292 103.85 49.7588 103.85 50.0045C103.85 50.0488 103.848 50.0931 103.844 50.1375C103.844 50.1818 103.844 50.2321 103.844 50.2885H101.457C101.469 50.5181 101.522 50.7095 101.614 50.8626C101.711 51.0116 101.83 51.1244 101.971 51.201C102.116 51.2775 102.269 51.3158 102.43 51.3158C102.639 51.3158 102.815 51.2674 102.956 51.1708C103.097 51.0741 103.199 50.9432 103.264 50.778H103.765C103.685 51.0559 103.53 51.2876 103.3 51.4729C103.075 51.6542 102.785 51.7448 102.43 51.7448ZM102.43 49.0316C102.188 49.0316 101.973 49.1062 101.783 49.2552C101.598 49.4003 101.491 49.6138 101.463 49.8958H103.349C103.336 49.6258 103.244 49.4143 103.071 49.2613C102.897 49.1082 102.684 49.0316 102.43 49.0316ZM105.009 51.6723L104.133 48.6751H104.64L105.275 51.0257L105.976 48.6751H106.55L107.257 51.0257L107.885 48.6751H108.399L107.523 51.6723H107.003L106.266 49.2008L105.529 51.6723H105.009ZM110.56 51.6723V48.6751H111.019L111.055 49.1102C111.152 48.9491 111.281 48.8242 111.442 48.7356C111.603 48.6469 111.784 48.6026 111.986 48.6026C112.223 48.6026 112.427 48.651 112.596 48.7476C112.769 48.8443 112.902 48.9914 112.995 49.1888C113.1 49.0075 113.243 48.8645 113.424 48.7597C113.609 48.655 113.809 48.6026 114.022 48.6026C114.381 48.6026 114.667 48.7114 114.88 48.9289C115.094 49.1424 115.2 49.4728 115.2 49.9199V51.6723H114.699V49.9743C114.699 49.6641 114.636 49.4305 114.512 49.2734C114.387 49.1162 114.207 49.0377 113.974 49.0377C113.732 49.0377 113.531 49.1324 113.369 49.3217C113.212 49.507 113.134 49.7729 113.134 50.1193V51.6723H112.626V49.9743C112.626 49.6641 112.564 49.4305 112.439 49.2734C112.314 49.1162 112.135 49.0377 111.901 49.0377C111.663 49.0377 111.464 49.1324 111.303 49.3217C111.146 49.507 111.067 49.7729 111.067 50.1193V51.6723H110.56ZM117.313 51.7448C117.026 51.7448 116.773 51.6804 116.551 51.5514C116.33 51.4185 116.154 51.2352 116.025 51.0016C115.901 50.7679 115.838 50.492 115.838 50.1737C115.838 49.8595 115.901 49.5856 116.025 49.3519C116.15 49.1142 116.324 48.9309 116.545 48.802C116.771 48.6691 117.031 48.6026 117.325 48.6026C117.615 48.6026 117.864 48.6691 118.074 48.802C118.287 48.9309 118.451 49.1021 118.563 49.3157C118.676 49.5292 118.733 49.7588 118.733 50.0045C118.733 50.0488 118.731 50.0931 118.726 50.1375C118.726 50.1818 118.726 50.2321 118.726 50.2885H116.34C116.352 50.5181 116.404 50.7095 116.497 50.8626C116.593 51.0116 116.712 51.1244 116.853 51.201C116.998 51.2775 117.151 51.3158 117.313 51.3158C117.522 51.3158 117.697 51.2674 117.838 51.1708C117.979 51.0741 118.082 50.9432 118.146 50.778H118.648C118.567 51.0559 118.412 51.2876 118.183 51.4729C117.957 51.6542 117.667 51.7448 117.313 51.7448ZM117.313 49.0316C117.071 49.0316 116.855 49.1062 116.666 49.2552C116.481 49.4003 116.374 49.6138 116.346 49.8958H118.231C118.219 49.6258 118.126 49.4143 117.953 49.2613C117.78 49.1082 117.566 49.0316 117.313 49.0316ZM120.553 51.7448C120.195 51.7448 119.897 51.6542 119.659 51.4729C119.421 51.2916 119.282 51.0459 119.242 50.7357H119.762C119.794 50.8928 119.877 51.0298 120.01 51.1466C120.147 51.2594 120.33 51.3158 120.559 51.3158C120.773 51.3158 120.93 51.2715 121.031 51.1828C121.132 51.0902 121.182 50.9814 121.182 50.8565C121.182 50.6753 121.115 50.5544 120.982 50.494C120.854 50.4336 120.67 50.3792 120.433 50.3308C120.271 50.2986 120.11 50.2523 119.949 50.1918C119.788 50.1314 119.653 50.0468 119.544 49.938C119.436 49.8253 119.381 49.6782 119.381 49.4969C119.381 49.2351 119.478 49.0216 119.671 48.8564C119.869 48.6872 120.134 48.6026 120.469 48.6026C120.787 48.6026 121.047 48.6832 121.248 48.8443C121.454 49.0014 121.573 49.227 121.605 49.5211H121.103C121.083 49.368 121.017 49.2492 120.904 49.1646C120.795 49.076 120.648 49.0316 120.463 49.0316C120.281 49.0316 120.141 49.0699 120.04 49.1465C119.943 49.223 119.895 49.3237 119.895 49.4486C119.895 49.5694 119.957 49.6641 120.082 49.7326C120.211 49.8011 120.384 49.8595 120.602 49.9078C120.787 49.9481 120.962 49.9985 121.127 50.0589C121.297 50.1153 121.434 50.2019 121.538 50.3187C121.647 50.4315 121.702 50.5967 121.702 50.8142C121.706 51.0841 121.603 51.3077 121.393 51.485C121.188 51.6582 120.908 51.7448 120.553 51.7448ZM123.575 51.7448C123.216 51.7448 122.918 51.6542 122.68 51.4729C122.443 51.2916 122.304 51.0459 122.263 50.7357H122.783C122.815 50.8928 122.898 51.0298 123.031 51.1466C123.168 51.2594 123.351 51.3158 123.581 51.3158C123.794 51.3158 123.951 51.2715 124.052 51.1828C124.153 51.0902 124.203 50.9814 124.203 50.8565C124.203 50.6753 124.137 50.5544 124.004 50.494C123.875 50.4336 123.692 50.3792 123.454 50.3308C123.293 50.2986 123.132 50.2523 122.97 50.1918C122.809 50.1314 122.674 50.0468 122.566 49.938C122.457 49.8253 122.402 49.6782 122.402 49.4969C122.402 49.2351 122.499 49.0216 122.693 48.8564C122.89 48.6872 123.156 48.6026 123.49 48.6026C123.808 48.6026 124.068 48.6832 124.27 48.8443C124.475 49.0014 124.594 49.227 124.626 49.5211H124.125C124.105 49.368 124.038 49.2492 123.925 49.1646C123.816 49.076 123.669 49.0316 123.484 49.0316C123.303 49.0316 123.162 49.0699 123.061 49.1465C122.964 49.223 122.916 49.3237 122.916 49.4486C122.916 49.5694 122.979 49.6641 123.103 49.7326C123.232 49.8011 123.406 49.8595 123.623 49.9078C123.808 49.9481 123.984 49.9985 124.149 50.0589C124.318 50.1153 124.455 50.2019 124.56 50.3187C124.668 50.4315 124.723 50.5967 124.723 50.8142C124.727 51.0841 124.624 51.3077 124.415 51.485C124.209 51.6582 123.929 51.7448 123.575 51.7448ZM126.445 51.7448C126.195 51.7448 125.988 51.7025 125.823 51.6179C125.657 51.5333 125.535 51.4205 125.454 51.2795C125.373 51.1385 125.333 50.9854 125.333 50.8203C125.333 50.5141 125.45 50.2785 125.684 50.1133C125.917 49.9481 126.236 49.8655 126.638 49.8655H127.448V49.8293C127.448 49.5674 127.38 49.37 127.243 49.2371C127.106 49.1001 126.922 49.0316 126.693 49.0316C126.495 49.0316 126.324 49.082 126.179 49.1827C126.038 49.2794 125.95 49.4224 125.913 49.6117H125.394C125.414 49.3942 125.486 49.2109 125.611 49.0619C125.74 48.9128 125.899 48.8 126.089 48.7235C126.278 48.6429 126.479 48.6026 126.693 48.6026C127.112 48.6026 127.426 48.7154 127.635 48.941C127.849 49.1626 127.956 49.4587 127.956 49.8293V51.6723H127.503L127.472 51.1345C127.388 51.3037 127.263 51.4487 127.098 51.5696C126.937 51.6864 126.719 51.7448 126.445 51.7448ZM126.524 51.3158C126.717 51.3158 126.882 51.2654 127.019 51.1647C127.16 51.064 127.267 50.9331 127.339 50.7719C127.412 50.6108 127.448 50.4416 127.448 50.2644V50.2583H126.681C126.383 50.2583 126.171 50.3107 126.046 50.4154C125.925 50.5161 125.865 50.643 125.865 50.7961C125.865 50.9532 125.921 51.0801 126.034 51.1768C126.151 51.2695 126.314 51.3158 126.524 51.3158ZM129.902 50.7296C129.732 50.7296 129.577 50.7075 129.436 50.6632L129.134 50.9472C129.178 50.9794 129.233 51.0076 129.297 51.0318C129.366 51.0519 129.462 51.0721 129.587 51.0922C129.712 51.1083 129.887 51.1264 130.113 51.1466C130.516 51.1748 130.804 51.2674 130.977 51.4246C131.15 51.5817 131.237 51.7871 131.237 52.0409C131.237 52.2141 131.189 52.3793 131.092 52.5364C130.999 52.6935 130.854 52.8224 130.657 52.9231C130.464 53.0239 130.214 53.0742 129.908 53.0742C129.638 53.0742 129.398 53.038 129.189 52.9654C128.979 52.897 128.816 52.7902 128.699 52.6452C128.582 52.5042 128.524 52.3249 128.524 52.1074C128.524 51.9946 128.554 51.8717 128.614 51.7388C128.675 51.6099 128.788 51.487 128.953 51.3702C128.864 51.3339 128.788 51.2956 128.723 51.2554C128.663 51.211 128.606 51.1627 128.554 51.1103V50.9714L129.068 50.4638C128.83 50.2623 128.711 49.9965 128.711 49.6661C128.711 49.4687 128.757 49.2895 128.85 49.1283C128.943 48.9672 129.078 48.8403 129.255 48.7476C129.432 48.651 129.648 48.6026 129.902 48.6026C130.075 48.6026 130.232 48.6268 130.373 48.6751H131.479V49.0558L130.917 49.08C131.034 49.2492 131.092 49.4446 131.092 49.6661C131.092 49.8635 131.044 50.0428 130.947 50.2039C130.854 50.3651 130.719 50.494 130.542 50.5907C130.369 50.6833 130.155 50.7296 129.902 50.7296ZM129.902 50.3127C130.115 50.3127 130.284 50.2583 130.409 50.1495C130.538 50.0367 130.603 49.8756 130.603 49.6661C130.603 49.4607 130.538 49.3036 130.409 49.1948C130.284 49.082 130.115 49.0256 129.902 49.0256C129.684 49.0256 129.511 49.082 129.382 49.1948C129.257 49.3036 129.195 49.4607 129.195 49.6661C129.195 49.8756 129.257 50.0367 129.382 50.1495C129.511 50.2583 129.684 50.3127 129.902 50.3127ZM129.019 52.059C129.019 52.2605 129.104 52.4095 129.273 52.5062C129.442 52.6069 129.654 52.6573 129.908 52.6573C130.157 52.6573 130.357 52.6029 130.506 52.4941C130.659 52.3853 130.735 52.2403 130.735 52.059C130.735 51.9301 130.683 51.8173 130.578 51.7206C130.474 51.628 130.28 51.5736 129.998 51.5575C129.777 51.5414 129.585 51.5212 129.424 51.4971C129.259 51.5857 129.15 51.6804 129.098 51.7811C129.046 51.8858 129.019 51.9785 129.019 52.059ZM133.281 51.7448C132.995 51.7448 132.741 51.6804 132.519 51.5514C132.298 51.4185 132.123 51.2352 131.994 51.0016C131.869 50.7679 131.806 50.492 131.806 50.1737C131.806 49.8595 131.869 49.5856 131.994 49.3519C132.119 49.1142 132.292 48.9309 132.513 48.802C132.739 48.6691 132.999 48.6026 133.293 48.6026C133.583 48.6026 133.833 48.6691 134.042 48.802C134.256 48.9309 134.419 49.1021 134.532 49.3157C134.644 49.5292 134.701 49.7588 134.701 50.0045C134.701 50.0488 134.699 50.0931 134.695 50.1375C134.695 50.1818 134.695 50.2321 134.695 50.2885H132.308C132.32 50.5181 132.372 50.7095 132.465 50.8626C132.562 51.0116 132.681 51.1244 132.822 51.201C132.967 51.2775 133.12 51.3158 133.281 51.3158C133.49 51.3158 133.666 51.2674 133.807 51.1708C133.947 51.0741 134.05 50.9432 134.115 50.778H134.616C134.536 51.0559 134.381 51.2876 134.151 51.4729C133.925 51.6542 133.635 51.7448 133.281 51.7448ZM133.281 49.0316C133.039 49.0316 132.824 49.1062 132.634 49.2552C132.449 49.4003 132.342 49.6138 132.314 49.8958H134.199C134.187 49.6258 134.095 49.4143 133.921 49.2613C133.748 49.1082 133.535 49.0316 133.281 49.0316Z" fill="#B4B4B4"/>
<path fill-rule="evenodd" clip-rule="evenodd" d="M76.6887 35.3279L83.4652 47.0887C83.6143 47.4397 83.6795 47.7252 83.6982 48.0217C83.7355 48.7146 83.4931 49.388 83.0177 49.9062C82.5424 50.4226 81.8992 50.7275 81.2001 50.7644H67.5539C67.2649 50.7469 66.976 50.6813 66.7056 50.5797C65.3541 50.0346 64.7016 48.5012 65.2515 47.1718L72.0747 35.3196C72.3077 34.9029 72.6619 34.5436 73.1 34.3126C74.3677 33.6096 75.9802 34.0715 76.6887 35.3279ZM75.1879 43.0787C75.1879 43.5221 74.8244 43.8925 74.377 43.8925C73.9296 43.8925 73.5567 43.5221 73.5567 43.0787V40.4653C73.5567 40.0209 73.9296 39.6616 74.377 39.6616C74.8244 39.6616 75.1879 40.0209 75.1879 40.4653V43.0787ZM74.377 47.0517C73.9296 47.0517 73.5567 46.6813 73.5567 46.2388C73.5567 45.7945 73.9296 45.4249 74.377 45.4249C74.8244 45.4249 75.1879 45.7861 75.1879 46.2286C75.1879 46.6813 74.8244 47.0517 74.377 47.0517Z" fill="#D80310"/>
</g>
</g>
<g filter="url(#filter1_d_71_39573)">
<rect x="19.3931" y="9.37854" width="194.89" height="44.9746" rx="14.0546" fill="white"/>
<path d="M92.1806 30.8832C91.6034 30.8832 91.0937 30.7858 90.6515 30.5909C90.2092 30.3885 89.8607 30.1037 89.6058 29.7364C89.351 29.3616 89.2198 28.9081 89.2123 28.3759H90.7302C90.7452 28.7432 90.8764 29.0542 91.1237 29.3091C91.3786 29.5565 91.7271 29.6801 92.1694 29.6801C92.5517 29.6801 92.8552 29.5902 93.0801 29.4103C93.305 29.2229 93.4174 28.9755 93.4174 28.6682C93.4174 28.3459 93.3162 28.0948 93.1138 27.9149C92.919 27.735 92.6566 27.5888 92.3268 27.4764C91.997 27.3639 91.6447 27.244 91.2699 27.1166C90.6627 26.9067 90.198 26.6369 89.8757 26.307C89.5609 25.9772 89.4034 25.5387 89.4034 24.9915C89.3959 24.5268 89.5046 24.1295 89.7295 23.7997C89.9619 23.4624 90.2767 23.2038 90.674 23.0239C91.0712 22.8365 91.5285 22.7428 92.0457 22.7428C92.5704 22.7428 93.0314 22.8365 93.4287 23.0239C93.8334 23.2113 94.1483 23.4736 94.3731 23.811C94.6055 24.1483 94.7292 24.5493 94.7442 25.014H93.2038C93.1963 24.7367 93.0876 24.4931 92.8777 24.2832C92.6753 24.0658 92.3905 23.9571 92.0232 23.9571C91.7084 23.9496 91.4423 24.0283 91.2249 24.1932C91.015 24.3506 90.9101 24.583 90.9101 24.8903C90.9101 25.1527 90.9925 25.3626 91.1575 25.52C91.3224 25.6699 91.5472 25.7973 91.8321 25.9023C92.1169 26.0072 92.443 26.1197 92.8103 26.2396C93.2 26.3745 93.5561 26.5319 93.8784 26.7118C94.2007 26.8917 94.4593 27.1316 94.6542 27.4314C94.8491 27.7237 94.9466 28.1023 94.9466 28.567C94.9466 28.9793 94.8416 29.3616 94.6317 29.7139C94.4219 30.0662 94.1108 30.351 93.6985 30.5684C93.2863 30.7783 92.7803 30.8832 92.1806 30.8832ZM98.2598 30.8832C97.5627 30.8832 97.023 30.6658 96.6408 30.2311C96.266 29.7963 96.0786 29.1592 96.0786 28.3197V25.1714H97.5065V28.1847C97.5065 28.6645 97.604 29.0318 97.7989 29.2866C97.9937 29.5415 98.3011 29.6689 98.7208 29.6689C99.1181 29.6689 99.4442 29.5265 99.699 29.2416C99.9614 28.9568 100.093 28.5595 100.093 28.0498V25.1714H101.532V30.7483H100.261L100.149 29.8038C99.9764 30.1336 99.7253 30.396 99.3955 30.5909C99.0731 30.7858 98.6946 30.8832 98.2598 30.8832ZM105.741 30.8832C105.172 30.8832 104.669 30.7595 104.235 30.5122C103.8 30.2648 103.455 29.92 103.2 29.4778C102.953 29.0355 102.829 28.5295 102.829 27.9599C102.829 27.3902 102.953 26.8842 103.2 26.442C103.455 25.9997 103.8 25.6549 104.235 25.4076C104.669 25.1602 105.172 25.0365 105.741 25.0365C106.453 25.0365 107.053 25.2239 107.54 25.5987C108.028 25.966 108.339 26.4757 108.474 27.1278H106.956C106.881 26.858 106.731 26.6481 106.506 26.4982C106.289 26.3408 106.03 26.2621 105.73 26.2621C105.333 26.2621 104.996 26.412 104.718 26.7118C104.441 27.0116 104.302 27.4277 104.302 27.9599C104.302 28.4921 104.441 28.9081 104.718 29.2079C104.996 29.5077 105.333 29.6577 105.73 29.6577C106.03 29.6577 106.289 29.5827 106.506 29.4328C106.731 29.2829 106.881 29.0692 106.956 28.7919H108.474C108.339 29.4215 108.028 29.9275 107.54 30.3098C107.053 30.6921 106.453 30.8832 105.741 30.8832ZM112.483 30.8832C111.913 30.8832 111.411 30.7595 110.977 30.5122C110.542 30.2648 110.197 29.92 109.942 29.4778C109.695 29.0355 109.571 28.5295 109.571 27.9599C109.571 27.3902 109.695 26.8842 109.942 26.442C110.197 25.9997 110.542 25.6549 110.977 25.4076C111.411 25.1602 111.913 25.0365 112.483 25.0365C113.195 25.0365 113.795 25.2239 114.282 25.5987C114.769 25.966 115.08 26.4757 115.215 27.1278H113.697C113.623 26.858 113.473 26.6481 113.248 26.4982C113.03 26.3408 112.772 26.2621 112.472 26.2621C112.075 26.2621 111.737 26.412 111.46 26.7118C111.183 27.0116 111.044 27.4277 111.044 27.9599C111.044 28.4921 111.183 28.9081 111.46 29.2079C111.737 29.5077 112.075 29.6577 112.472 29.6577C112.772 29.6577 113.03 29.5827 113.248 29.4328C113.473 29.2829 113.623 29.0692 113.697 28.7919H115.215C115.08 29.4215 114.769 29.9275 114.282 30.3098C113.795 30.6921 113.195 30.8832 112.483 30.8832ZM119.202 30.8832C118.64 30.8832 118.142 30.7633 117.707 30.5234C117.272 30.2836 116.931 29.9462 116.684 29.5115C116.437 29.0767 116.313 28.5745 116.313 28.0048C116.313 27.4277 116.433 26.9142 116.673 26.4645C116.92 26.0147 117.257 25.6662 117.685 25.4188C118.119 25.1639 118.629 25.0365 119.214 25.0365C119.761 25.0365 120.244 25.1564 120.664 25.3963C121.084 25.6362 121.41 25.966 121.642 26.3858C121.882 26.798 122.002 27.259 122.002 27.7687C122.002 27.8512 121.998 27.9374 121.991 28.0273C121.991 28.1173 121.987 28.211 121.98 28.3084H117.741C117.771 28.7432 117.921 29.0842 118.191 29.3316C118.468 29.579 118.801 29.7026 119.191 29.7026C119.484 29.7026 119.727 29.6389 119.922 29.5115C120.124 29.3766 120.274 29.2042 120.372 28.9943H121.833C121.729 29.3466 121.552 29.6689 121.305 29.9612C121.065 30.2461 120.765 30.4709 120.406 30.6359C120.053 30.8008 119.652 30.8832 119.202 30.8832ZM119.214 26.2059C118.861 26.2059 118.55 26.307 118.28 26.5094C118.011 26.7043 117.838 27.0042 117.763 27.4089H120.54C120.518 27.0416 120.383 26.7493 120.136 26.5319C119.888 26.3145 119.581 26.2059 119.214 26.2059ZM125.518 30.8832C125.023 30.8832 124.588 30.8045 124.213 30.6471C123.838 30.4822 123.539 30.2573 123.314 29.9725C123.089 29.6876 122.954 29.3578 122.909 28.983H124.359C124.404 29.2004 124.524 29.3878 124.719 29.5452C124.922 29.6951 125.18 29.7701 125.495 29.7701C125.81 29.7701 126.039 29.7064 126.181 29.579C126.331 29.4515 126.406 29.3054 126.406 29.1404C126.406 28.9006 126.301 28.7394 126.091 28.657C125.881 28.567 125.589 28.4808 125.214 28.3984C124.974 28.3459 124.73 28.2822 124.483 28.2072C124.236 28.1323 124.007 28.0386 123.797 27.9261C123.595 27.8062 123.43 27.6563 123.303 27.4764C123.175 27.289 123.111 27.0604 123.111 26.7905C123.111 26.2958 123.306 25.8798 123.696 25.5425C124.093 25.2052 124.648 25.0365 125.36 25.0365C126.02 25.0365 126.544 25.1902 126.934 25.4975C127.332 25.8048 127.568 26.2283 127.643 26.768H126.282C126.2 26.3558 125.889 26.1496 125.349 26.1496C125.079 26.1496 124.869 26.2021 124.719 26.307C124.577 26.412 124.506 26.5432 124.506 26.7006C124.506 26.8655 124.614 26.9967 124.832 27.0941C125.049 27.1915 125.338 27.2815 125.697 27.3639C126.087 27.4539 126.443 27.5551 126.766 27.6675C127.095 27.7725 127.358 27.9336 127.553 28.151C127.748 28.3609 127.845 28.6645 127.845 29.0617C127.852 29.4065 127.763 29.7176 127.575 29.995C127.388 30.2723 127.118 30.4897 126.766 30.6471C126.413 30.8045 125.997 30.8832 125.518 30.8832ZM131.425 30.8832C130.93 30.8832 130.495 30.8045 130.121 30.6471C129.746 30.4822 129.446 30.2573 129.221 29.9725C128.996 29.6876 128.861 29.3578 128.816 28.983H130.267C130.312 29.2004 130.432 29.3878 130.627 29.5452C130.829 29.6951 131.088 29.7701 131.402 29.7701C131.717 29.7701 131.946 29.7064 132.088 29.579C132.238 29.4515 132.313 29.3054 132.313 29.1404C132.313 28.9006 132.208 28.7394 131.998 28.657C131.788 28.567 131.496 28.4808 131.121 28.3984C130.881 28.3459 130.638 28.2822 130.39 28.2072C130.143 28.1323 129.914 28.0386 129.705 27.9261C129.502 27.8062 129.337 27.6563 129.21 27.4764C129.082 27.289 129.019 27.0604 129.019 26.7905C129.019 26.2958 129.214 25.8798 129.603 25.5425C130.001 25.2052 130.555 25.0365 131.267 25.0365C131.927 25.0365 132.452 25.1902 132.842 25.4975C133.239 25.8048 133.475 26.2283 133.55 26.768H132.189C132.107 26.3558 131.796 26.1496 131.256 26.1496C130.986 26.1496 130.776 26.2021 130.627 26.307C130.484 26.412 130.413 26.5432 130.413 26.7006C130.413 26.8655 130.522 26.9967 130.739 27.0941C130.956 27.1915 131.245 27.2815 131.605 27.3639C131.995 27.4539 132.351 27.5551 132.673 27.6675C133.003 27.7725 133.265 27.9336 133.46 28.151C133.655 28.3609 133.752 28.6645 133.752 29.0617C133.76 29.4065 133.67 29.7176 133.482 29.995C133.295 30.2723 133.025 30.4897 132.673 30.6471C132.321 30.8045 131.905 30.8832 131.425 30.8832Z" fill="#262626"/>
<path d="M90.5129 41.7398V37.01H88.9463V36.4928H92.7091V37.01H91.1425V41.7398H90.5129ZM93.0159 41.7398V38.0219H93.5856L93.6381 38.734C93.753 38.4891 93.9279 38.2943 94.1628 38.1493C94.3977 38.0044 94.6875 37.932 95.0323 37.932V38.5916H94.8599C94.64 38.5916 94.4376 38.6316 94.2527 38.7115C94.0678 38.7865 93.9204 38.9164 93.8105 39.1013C93.7006 39.2862 93.6456 39.541 93.6456 39.8659V41.7398H93.0159ZM96.9758 41.8298C96.666 41.8298 96.4086 41.7773 96.2037 41.6723C95.9989 41.5674 95.8464 41.4275 95.7465 41.2526C95.6466 41.0777 95.5966 40.8878 95.5966 40.6829C95.5966 40.3031 95.7415 40.0108 96.0313 39.8059C96.3212 39.601 96.716 39.4986 97.2157 39.4986H98.2201V39.4536C98.2201 39.1288 98.1352 38.8839 97.9653 38.719C97.7954 38.5491 97.568 38.4642 97.2831 38.4642C97.0383 38.4642 96.8259 38.5266 96.646 38.6515C96.4711 38.7715 96.3612 38.9489 96.3162 39.1837H95.6715C95.6965 38.9139 95.7865 38.6865 95.9414 38.5016C96.1013 38.3167 96.2987 38.1768 96.5336 38.0819C96.7684 37.9819 97.0183 37.932 97.2831 37.932C97.8028 37.932 98.1926 38.0719 98.4525 38.3517C98.7173 38.6266 98.8498 38.9939 98.8498 39.4536V41.7398H98.2876L98.2501 41.0727C98.1452 41.2826 97.9902 41.4625 97.7854 41.6124C97.5855 41.7573 97.3156 41.8298 96.9758 41.8298ZM97.0733 41.2976C97.3131 41.2976 97.518 41.2351 97.6879 41.1102C97.8628 40.9852 97.9952 40.8228 98.0852 40.6229C98.1751 40.423 98.2201 40.2132 98.2201 39.9933V39.9858H97.2681C96.8984 39.9858 96.636 40.0508 96.4811 40.1807C96.3312 40.3056 96.2562 40.463 96.2562 40.6529C96.2562 40.8478 96.3262 41.0052 96.4661 41.1252C96.611 41.2401 96.8134 41.2976 97.0733 41.2976ZM99.7943 41.7398V38.0219H100.364L100.401 38.689C100.521 38.4542 100.694 38.2693 100.919 38.1343C101.144 37.9994 101.398 37.932 101.683 37.932C102.123 37.932 102.473 38.0669 102.733 38.3367C102.998 38.6016 103.13 39.0113 103.13 39.566V41.7398H102.5V39.6335C102.5 38.8589 102.18 38.4717 101.541 38.4717C101.221 38.4717 100.954 38.5891 100.739 38.824C100.529 39.0538 100.424 39.3836 100.424 39.8134V41.7398H99.7943ZM105.508 41.8298C105.063 41.8298 104.694 41.7173 104.399 41.4924C104.104 41.2676 103.931 40.9627 103.882 40.578H104.526C104.566 40.7729 104.669 40.9428 104.833 41.0877C105.003 41.2276 105.231 41.2976 105.516 41.2976C105.78 41.2976 105.975 41.2426 106.1 41.1326C106.225 41.0177 106.288 40.8828 106.288 40.7279C106.288 40.503 106.205 40.3531 106.04 40.2781C105.88 40.2032 105.653 40.1357 105.358 40.0757C105.158 40.0358 104.958 39.9783 104.759 39.9033C104.559 39.8284 104.391 39.7234 104.256 39.5885C104.121 39.4486 104.054 39.2662 104.054 39.0413C104.054 38.7165 104.174 38.4517 104.414 38.2468C104.659 38.0369 104.988 37.932 105.403 37.932C105.798 37.932 106.12 38.0319 106.37 38.2318C106.625 38.4267 106.772 38.7065 106.812 39.0713H106.19C106.165 38.8814 106.083 38.734 105.943 38.6291C105.808 38.5191 105.626 38.4642 105.396 38.4642C105.171 38.4642 104.996 38.5116 104.871 38.6066C104.751 38.7015 104.691 38.8265 104.691 38.9814C104.691 39.1313 104.769 39.2487 104.923 39.3337C105.083 39.4186 105.298 39.4911 105.568 39.551C105.798 39.601 106.015 39.6635 106.22 39.7384C106.43 39.8084 106.6 39.9158 106.73 40.0608C106.865 40.2007 106.932 40.4056 106.932 40.6754C106.937 41.0102 106.81 41.2876 106.55 41.5074C106.295 41.7223 105.948 41.8298 105.508 41.8298ZM109.069 41.8298C108.759 41.8298 108.501 41.7773 108.297 41.6723C108.092 41.5674 107.939 41.4275 107.839 41.2526C107.739 41.0777 107.689 40.8878 107.689 40.6829C107.689 40.3031 107.834 40.0108 108.124 39.8059C108.414 39.601 108.809 39.4986 109.308 39.4986H110.313V39.4536C110.313 39.1288 110.228 38.8839 110.058 38.719C109.888 38.5491 109.661 38.4642 109.376 38.4642C109.131 38.4642 108.919 38.5266 108.739 38.6515C108.564 38.7715 108.454 38.9489 108.409 39.1837H107.764C107.789 38.9139 107.879 38.6865 108.034 38.5016C108.194 38.3167 108.391 38.1768 108.626 38.0819C108.861 37.9819 109.111 37.932 109.376 37.932C109.896 37.932 110.285 38.0719 110.545 38.3517C110.81 38.6266 110.943 38.9939 110.943 39.4536V41.7398H110.38L110.343 41.0727C110.238 41.2826 110.083 41.4625 109.878 41.6124C109.678 41.7573 109.408 41.8298 109.069 41.8298ZM109.166 41.2976C109.406 41.2976 109.611 41.2351 109.781 41.1102C109.956 40.9852 110.088 40.8228 110.178 40.6229C110.268 40.423 110.313 40.2132 110.313 39.9933V39.9858H109.361C108.991 39.9858 108.729 40.0508 108.574 40.1807C108.424 40.3056 108.349 40.463 108.349 40.6529C108.349 40.8478 108.419 41.0052 108.559 41.1252C108.704 41.2401 108.906 41.2976 109.166 41.2976ZM113.596 41.8298C113.241 41.8298 112.922 41.7498 112.637 41.5899C112.357 41.425 112.134 41.1976 111.97 40.9078C111.81 40.6129 111.73 40.2706 111.73 39.8809C111.73 39.4911 111.81 39.1513 111.97 38.8614C112.134 38.5666 112.357 38.3392 112.637 38.1793C112.922 38.0144 113.241 37.932 113.596 37.932C114.036 37.932 114.406 38.0469 114.706 38.2768C115.01 38.5066 115.203 38.814 115.283 39.1987H114.638C114.588 38.9689 114.466 38.7915 114.271 38.6665C114.076 38.5366 113.849 38.4717 113.589 38.4717C113.379 38.4717 113.181 38.5241 112.997 38.6291C112.812 38.734 112.662 38.8914 112.547 39.1013C112.432 39.3112 112.374 39.571 112.374 39.8809C112.374 40.1907 112.432 40.4505 112.547 40.6604C112.662 40.8703 112.812 41.0302 112.997 41.1401C113.181 41.2451 113.379 41.2976 113.589 41.2976C113.849 41.2976 114.076 41.2351 114.271 41.1102C114.466 40.9802 114.588 40.7978 114.638 40.563H115.283C115.208 40.9378 115.018 41.2426 114.713 41.4775C114.408 41.7123 114.036 41.8298 113.596 41.8298ZM117.529 41.7398C117.189 41.7398 116.922 41.6574 116.727 41.4924C116.532 41.3275 116.434 41.0302 116.434 40.6004V38.5541H115.79V38.0219H116.434L116.517 37.1299H117.064V38.0219H118.158V38.5541H117.064V40.6004C117.064 40.8353 117.111 40.9952 117.206 41.0802C117.301 41.1601 117.469 41.2001 117.709 41.2001H118.098V41.7398H117.529ZM119.341 37.1974C119.216 37.1974 119.111 37.1574 119.026 37.0774C118.946 36.9925 118.906 36.8875 118.906 36.7626C118.906 36.6427 118.946 36.5427 119.026 36.4628C119.111 36.3828 119.216 36.3429 119.341 36.3429C119.461 36.3429 119.563 36.3828 119.648 36.4628C119.733 36.5427 119.775 36.6427 119.775 36.7626C119.775 36.8875 119.733 36.9925 119.648 37.0774C119.563 37.1574 119.461 37.1974 119.341 37.1974ZM119.026 41.7398V38.0219H119.655V41.7398H119.026ZM122.446 41.8298C122.096 41.8298 121.781 41.7498 121.501 41.5899C121.221 41.43 120.999 41.2051 120.834 40.9153C120.674 40.6204 120.594 40.2756 120.594 39.8809C120.594 39.4861 120.677 39.1438 120.842 38.8539C121.007 38.5591 121.229 38.3317 121.509 38.1718C121.794 38.0119 122.111 37.932 122.461 37.932C122.811 37.932 123.125 38.0119 123.405 38.1718C123.685 38.3317 123.905 38.5591 124.065 38.8539C124.23 39.1438 124.312 39.4861 124.312 39.8809C124.312 40.2756 124.23 40.6204 124.065 40.9153C123.9 41.2051 123.675 41.43 123.39 41.5899C123.11 41.7498 122.796 41.8298 122.446 41.8298ZM122.446 41.2901C122.661 41.2901 122.861 41.2376 123.045 41.1326C123.23 41.0277 123.38 40.8703 123.495 40.6604C123.61 40.4505 123.668 40.1907 123.668 39.8809C123.668 39.571 123.61 39.3112 123.495 39.1013C123.385 38.8914 123.238 38.734 123.053 38.6291C122.868 38.5241 122.671 38.4717 122.461 38.4717C122.246 38.4717 122.046 38.5241 121.861 38.6291C121.676 38.734 121.526 38.8914 121.411 39.1013C121.296 39.3112 121.239 39.571 121.239 39.8809C121.239 40.1907 121.296 40.4505 121.411 40.6604C121.526 40.8703 121.674 41.0277 121.854 41.1326C122.039 41.2376 122.236 41.2901 122.446 41.2901ZM125.188 41.7398V38.0219H125.757L125.795 38.689C125.915 38.4542 126.087 38.2693 126.312 38.1343C126.537 37.9994 126.792 37.932 127.077 37.932C127.516 37.932 127.866 38.0669 128.126 38.3367C128.391 38.6016 128.523 39.0113 128.523 39.566V41.7398H127.894V39.6335C127.894 38.8589 127.574 38.4717 126.934 38.4717C126.614 38.4717 126.347 38.5891 126.132 38.824C125.922 39.0538 125.817 39.3836 125.817 39.8134V41.7398H125.188ZM132.885 41.8298C132.44 41.8298 132.071 41.7173 131.776 41.4924C131.481 41.2676 131.309 40.9627 131.259 40.578H131.903C131.943 40.7729 132.046 40.9428 132.211 41.0877C132.381 41.2276 132.608 41.2976 132.893 41.2976C133.158 41.2976 133.352 41.2426 133.477 41.1326C133.602 41.0177 133.665 40.8828 133.665 40.7279C133.665 40.503 133.582 40.3531 133.417 40.2781C133.258 40.2032 133.03 40.1357 132.735 40.0757C132.535 40.0358 132.336 39.9783 132.136 39.9033C131.936 39.8284 131.768 39.7234 131.633 39.5885C131.499 39.4486 131.431 39.2662 131.431 39.0413C131.431 38.7165 131.551 38.4517 131.791 38.2468C132.036 38.0369 132.366 37.932 132.78 37.932C133.175 37.932 133.497 38.0319 133.747 38.2318C134.002 38.4267 134.15 38.7065 134.19 39.0713H133.567C133.542 38.8814 133.46 38.734 133.32 38.6291C133.185 38.5191 133.003 38.4642 132.773 38.4642C132.548 38.4642 132.373 38.5116 132.248 38.6066C132.128 38.7015 132.068 38.8265 132.068 38.9814C132.068 39.1313 132.146 39.2487 132.301 39.3337C132.46 39.4186 132.675 39.4911 132.945 39.551C133.175 39.601 133.392 39.6635 133.597 39.7384C133.807 39.8084 133.977 39.9158 134.107 40.0608C134.242 40.2007 134.309 40.4056 134.309 40.6754C134.314 41.0102 134.187 41.2876 133.927 41.5074C133.672 41.7223 133.325 41.8298 132.885 41.8298ZM136.566 41.8298C136.126 41.8298 135.776 41.6973 135.516 41.4325C135.256 41.1626 135.126 40.7504 135.126 40.1957V38.0219H135.756V40.1282C135.756 40.9028 136.073 41.2901 136.708 41.2901C137.033 41.2901 137.3 41.1751 137.51 40.9453C137.725 40.7104 137.832 40.3781 137.832 39.9483V38.0219H138.462V41.7398H137.892L137.847 41.0727C137.733 41.3076 137.56 41.4924 137.33 41.6274C137.105 41.7623 136.851 41.8298 136.566 41.8298ZM141.208 41.8298C140.853 41.8298 140.533 41.7498 140.248 41.5899C139.968 41.425 139.746 41.1976 139.581 40.9078C139.421 40.6129 139.341 40.2706 139.341 39.8809C139.341 39.4911 139.421 39.1513 139.581 38.8614C139.746 38.5666 139.968 38.3392 140.248 38.1793C140.533 38.0144 140.853 37.932 141.208 37.932C141.647 37.932 142.017 38.0469 142.317 38.2768C142.622 38.5066 142.814 38.814 142.894 39.1987H142.249C142.199 38.9689 142.077 38.7915 141.882 38.6665C141.687 38.5366 141.46 38.4717 141.2 38.4717C140.99 38.4717 140.793 38.5241 140.608 38.6291C140.423 38.734 140.273 38.8914 140.158 39.1013C140.043 39.3112 139.986 39.571 139.986 39.8809C139.986 40.1907 140.043 40.4505 140.158 40.6604C140.273 40.8703 140.423 41.0302 140.608 41.1401C140.793 41.2451 140.99 41.2976 141.2 41.2976C141.46 41.2976 141.687 41.2351 141.882 41.1102C142.077 40.9802 142.199 40.7978 142.249 40.563H142.894C142.819 40.9378 142.629 41.2426 142.324 41.4775C142.02 41.7123 141.647 41.8298 141.208 41.8298ZM145.482 41.8298C145.128 41.8298 144.808 41.7498 144.523 41.5899C144.243 41.425 144.021 41.1976 143.856 40.9078C143.696 40.6129 143.616 40.2706 143.616 39.8809C143.616 39.4911 143.696 39.1513 143.856 38.8614C144.021 38.5666 144.243 38.3392 144.523 38.1793C144.808 38.0144 145.128 37.932 145.482 37.932C145.922 37.932 146.292 38.0469 146.592 38.2768C146.897 38.5066 147.089 38.814 147.169 39.1987H146.524C146.474 38.9689 146.352 38.7915 146.157 38.6665C145.962 38.5366 145.735 38.4717 145.475 38.4717C145.265 38.4717 145.068 38.5241 144.883 38.6291C144.698 38.734 144.548 38.8914 144.433 39.1013C144.318 39.3112 144.261 39.571 144.261 39.8809C144.261 40.1907 144.318 40.4505 144.433 40.6604C144.548 40.8703 144.698 41.0302 144.883 41.1401C145.068 41.2451 145.265 41.2976 145.475 41.2976C145.735 41.2976 145.962 41.2351 146.157 41.1102C146.352 40.9802 146.474 40.7978 146.524 40.563H147.169C147.094 40.9378 146.904 41.2426 146.599 41.4775C146.295 41.7123 145.922 41.8298 145.482 41.8298ZM149.72 41.8298C149.365 41.8298 149.05 41.7498 148.775 41.5899C148.501 41.425 148.283 41.1976 148.123 40.9078C147.968 40.6179 147.891 40.2756 147.891 39.8809C147.891 39.4911 147.968 39.1513 148.123 38.8614C148.278 38.5666 148.493 38.3392 148.768 38.1793C149.048 38.0144 149.37 37.932 149.735 37.932C150.095 37.932 150.405 38.0144 150.664 38.1793C150.929 38.3392 151.132 38.5516 151.272 38.8165C151.411 39.0813 151.481 39.3661 151.481 39.671C151.481 39.7259 151.479 39.7809 151.474 39.8359C151.474 39.8908 151.474 39.9533 151.474 40.0233H148.513C148.528 40.3081 148.593 40.5455 148.708 40.7354C148.828 40.9203 148.975 41.0602 149.15 41.1551C149.33 41.2501 149.52 41.2976 149.72 41.2976C149.98 41.2976 150.197 41.2376 150.372 41.1177C150.547 40.9977 150.674 40.8353 150.754 40.6304H151.376C151.277 40.9752 151.084 41.2626 150.799 41.4924C150.519 41.7173 150.16 41.8298 149.72 41.8298ZM149.72 38.4642C149.42 38.4642 149.153 38.5566 148.918 38.7415C148.688 38.9214 148.556 39.1862 148.521 39.5361H150.859C150.844 39.2012 150.729 38.9389 150.514 38.749C150.3 38.5591 150.035 38.4642 149.72 38.4642ZM153.74 41.8298C153.295 41.8298 152.926 41.7173 152.631 41.4924C152.336 41.2676 152.164 40.9627 152.114 40.578H152.758C152.798 40.7729 152.901 40.9428 153.066 41.0877C153.235 41.2276 153.463 41.2976 153.748 41.2976C154.013 41.2976 154.207 41.2426 154.332 41.1326C154.457 41.0177 154.52 40.8828 154.52 40.7279C154.52 40.503 154.437 40.3531 154.272 40.2781C154.112 40.2032 153.885 40.1357 153.59 40.0757C153.39 40.0358 153.19 39.9783 152.991 39.9033C152.791 39.8284 152.623 39.7234 152.488 39.5885C152.353 39.4486 152.286 39.2662 152.286 39.0413C152.286 38.7165 152.406 38.4517 152.646 38.2468C152.891 38.0369 153.22 37.932 153.635 37.932C154.03 37.932 154.352 38.0319 154.602 38.2318C154.857 38.4267 155.004 38.7065 155.044 39.0713H154.422C154.397 38.8814 154.315 38.734 154.175 38.6291C154.04 38.5191 153.858 38.4642 153.628 38.4642C153.403 38.4642 153.228 38.5116 153.103 38.6066C152.983 38.7015 152.923 38.8265 152.923 38.9814C152.923 39.1313 153.001 39.2487 153.156 39.3337C153.315 39.4186 153.53 39.4911 153.8 39.551C154.03 39.601 154.247 39.6635 154.452 39.7384C154.662 39.8084 154.832 39.9158 154.962 40.0608C155.097 40.2007 155.164 40.4056 155.164 40.6754C155.169 41.0102 155.042 41.2876 154.782 41.5074C154.527 41.7223 154.18 41.8298 153.74 41.8298ZM157.488 41.8298C157.043 41.8298 156.674 41.7173 156.379 41.4924C156.084 41.2676 155.911 40.9627 155.861 40.578H156.506C156.546 40.7729 156.649 40.9428 156.813 41.0877C156.983 41.2276 157.211 41.2976 157.496 41.2976C157.76 41.2976 157.955 41.2426 158.08 41.1326C158.205 41.0177 158.268 40.8828 158.268 40.7279C158.268 40.503 158.185 40.3531 158.02 40.2781C157.86 40.2032 157.633 40.1357 157.338 40.0757C157.138 40.0358 156.938 39.9783 156.738 39.9033C156.539 39.8284 156.371 39.7234 156.236 39.5885C156.101 39.4486 156.034 39.2662 156.034 39.0413C156.034 38.7165 156.154 38.4517 156.394 38.2468C156.639 38.0369 156.968 37.932 157.383 37.932C157.778 37.932 158.1 38.0319 158.35 38.2318C158.605 38.4267 158.752 38.7065 158.792 39.0713H158.17C158.145 38.8814 158.063 38.734 157.923 38.6291C157.788 38.5191 157.606 38.4642 157.376 38.4642C157.151 38.4642 156.976 38.5116 156.851 38.6066C156.731 38.7015 156.671 38.8265 156.671 38.9814C156.671 39.1313 156.748 39.2487 156.903 39.3337C157.063 39.4186 157.278 39.4911 157.548 39.551C157.778 39.601 157.995 39.6635 158.2 39.7384C158.41 39.8084 158.58 39.9158 158.71 40.0608C158.845 40.2007 158.912 40.4056 158.912 40.6754C158.917 41.0102 158.79 41.2876 158.53 41.5074C158.275 41.7223 157.928 41.8298 157.488 41.8298ZM160.014 41.7398V38.5541H159.452V38.0219H160.014V37.3773C160.014 37.0175 160.104 36.7551 160.284 36.5902C160.464 36.4253 160.726 36.3429 161.071 36.3429H161.446V36.8825H161.168C160.979 36.8825 160.844 36.9225 160.764 37.0025C160.684 37.0774 160.644 37.2074 160.644 37.3923V38.0219H161.558V38.5541H160.644V41.7398H160.014ZM163.665 41.8298C163.225 41.8298 162.875 41.6973 162.615 41.4325C162.355 41.1626 162.225 40.7504 162.225 40.1957V38.0219H162.855V40.1282C162.855 40.9028 163.172 41.2901 163.807 41.2901C164.132 41.2901 164.399 41.1751 164.609 40.9453C164.824 40.7104 164.931 40.3781 164.931 39.9483V38.0219H165.561V41.7398H164.991L164.946 41.0727C164.831 41.3076 164.659 41.4924 164.429 41.6274C164.204 41.7623 163.949 41.8298 163.665 41.8298ZM166.597 41.7398V36.3429H167.227V41.7398H166.597ZM168.477 41.7773C168.352 41.7773 168.247 41.7373 168.162 41.6574C168.082 41.5724 168.042 41.47 168.042 41.35C168.042 41.2301 168.082 41.1302 168.162 41.0502C168.247 40.9652 168.352 40.9228 168.477 40.9228C168.596 40.9228 168.696 40.9652 168.776 41.0502C168.861 41.1302 168.904 41.2301 168.904 41.35C168.904 41.47 168.861 41.5724 168.776 41.6574C168.696 41.7373 168.596 41.7773 168.477 41.7773ZM169.941 41.7773C169.816 41.7773 169.711 41.7373 169.626 41.6574C169.546 41.5724 169.506 41.47 169.506 41.35C169.506 41.2301 169.546 41.1302 169.626 41.0502C169.711 40.9652 169.816 40.9228 169.941 40.9228C170.06 40.9228 170.16 40.9652 170.24 41.0502C170.325 41.1302 170.368 41.2301 170.368 41.35C170.368 41.47 170.325 41.5724 170.24 41.6574C170.16 41.7373 170.06 41.7773 169.941 41.7773ZM171.405 41.7773C171.28 41.7773 171.175 41.7373 171.09 41.6574C171.01 41.5724 170.97 41.47 170.97 41.35C170.97 41.2301 171.01 41.1302 171.09 41.0502C171.175 40.9652 171.28 40.9228 171.405 40.9228C171.524 40.9228 171.624 40.9652 171.704 41.0502C171.789 41.1302 171.832 41.2301 171.832 41.35C171.832 41.47 171.789 41.5724 171.704 41.6574C171.624 41.7373 171.524 41.7773 171.405 41.7773Z" fill="#B4B4B4"/>
<path fill-rule="evenodd" clip-rule="evenodd" d="M61.52 25.1488C61.3115 25.4305 61.3354 25.8323 61.5989 26.0873C61.8794 26.3678 62.3375 26.3678 62.618 26.0873L64.1046 24.5914V28.4621H65.5444V24.5914L67.031 26.0873L67.1116 26.1569C67.3933 26.3655 67.7951 26.3423 68.0501 26.0873C68.1903 25.9471 68.2651 25.7601 68.2651 25.5731C68.2651 25.3954 68.1903 25.2085 68.0501 25.0682L65.3294 22.3381L65.2446 22.2619C65.1237 22.171 64.9741 22.1231 64.8245 22.1231C64.6282 22.1231 64.4505 22.1979 64.3103 22.3381L61.5896 25.0682L61.52 25.1488ZM59.4306 28.4668C57.2304 28.5707 55.4746 30.4215 55.4746 32.6763V37.3184L55.4791 37.5171C55.5813 39.7562 57.4009 41.5515 59.6352 41.5515H70.0225L70.2178 41.5469C72.4179 41.443 74.1737 39.5919 74.1737 37.3279V32.6953L74.1692 32.4958C74.0665 30.2486 72.2383 28.4622 70.0132 28.4622H65.5441V34.1698L65.5374 34.2701C65.4891 34.6305 65.1841 34.9022 64.8242 34.9022C64.4221 34.9022 64.1042 34.5788 64.1042 34.1698V28.4622H59.6258L59.4306 28.4668Z" fill="#02BC15"/>
</g>
<defs>
<filter id="filter0_d_71_39573" x="22.7834" y="17.4802" width="187.323" height="66.4696" filterUnits="userSpaceOnUse" color-interpolation-filters="sRGB">
<feFlood flood-opacity="0" result="BackgroundImageFix"/>
<feColorMatrix in="SourceAlpha" type="matrix" values="0 0 0 0 0 0 0 0 0 0 0 0 0 0 0 0 0 0 127 0" result="hardAlpha"/>
<feOffset dy="7.55336"/>
<feGaussianBlur stdDeviation="7.55336"/>
<feComposite in2="hardAlpha" operator="out"/>
<feColorMatrix type="matrix" values="0 0 0 0 0 0 0 0 0 0 0 0 0 0 0 0 0 0 0.1 0"/>
<feBlend mode="normal" in2="BackgroundImageFix" result="effect1_dropShadow_71_39573"/>
<feBlend mode="normal" in="SourceGraphic" in2="effect1_dropShadow_71_39573" result="shape"/>
</filter>
<filter id="filter1_d_71_39573" x="0.653637" y="0.0088253" width="232.369" height="82.4535" filterUnits="userSpaceOnUse" color-interpolation-filters="sRGB">
<feFlood flood-opacity="0" result="BackgroundImageFix"/>
<feColorMatrix in="SourceAlpha" type="matrix" values="0 0 0 0 0 0 0 0 0 0 0 0 0 0 0 0 0 0 127 0" result="hardAlpha"/>
<feOffset dy="9.36971"/>
<feGaussianBlur stdDeviation="9.36971"/>
<feComposite in2="hardAlpha" operator="out"/>
<feColorMatrix type="matrix" values="0 0 0 0 0 0 0 0 0 0 0 0 0 0 0 0 0 0 0.1 0"/>
<feBlend mode="normal" in2="BackgroundImageFix" result="effect1_dropShadow_71_39573"/>
<feBlend mode="normal" in="SourceGraphic" in2="effect1_dropShadow_71_39573" result="shape"/>
</filter>
</defs>
</svg>
