<svg width="200" height="80" viewBox="0 0 200 80" fill="none" xmlns="http://www.w3.org/2000/svg">
<g filter="url(#filter0_d_71_40209)">
<rect x="22" y="16.9999" width="156" height="35" rx="11.1403" fill="white"/>
<path d="M72.4649 34.6952V28.4566H74.7732C75.2723 28.4566 75.6852 28.5398 76.012 28.7061C76.3388 28.8725 76.5824 29.1013 76.7428 29.3924C76.9032 29.6835 76.9834 30.0103 76.9834 30.3727C76.9834 30.7173 76.9062 31.0352 76.7517 31.3264C76.5972 31.6115 76.3566 31.8433 76.0298 32.0215C75.703 32.1938 75.2842 32.28 74.7732 32.28H73.6057V34.6952H72.4649ZM73.6057 31.3531H74.7019C75.1 31.3531 75.3852 31.2669 75.5575 31.0946C75.7357 30.9164 75.8248 30.6758 75.8248 30.3727C75.8248 30.0638 75.7357 29.8232 75.5575 29.6508C75.3852 29.4726 75.1 29.3835 74.7019 29.3835H73.6057V31.3531ZM79.0972 34.8021C78.7169 34.8021 78.405 34.7427 78.1614 34.6239C77.9178 34.4991 77.7366 34.3357 77.6177 34.1337C77.4989 33.9317 77.4395 33.7089 77.4395 33.4653C77.4395 33.0553 77.5999 32.7226 77.9208 32.4671C78.2416 32.2116 78.7229 32.0839 79.3645 32.0839H80.4875V31.9769C80.4875 31.6739 80.4013 31.4511 80.229 31.3085C80.0567 31.1659 79.8428 31.0946 79.5874 31.0946C79.3556 31.0946 79.1536 31.1511 78.9813 31.264C78.809 31.3709 78.7021 31.5313 78.6605 31.7452H77.5464C77.5762 31.4244 77.6831 31.1451 77.8673 30.9075C78.0574 30.6698 78.301 30.4886 78.5981 30.3638C78.8952 30.2331 79.2279 30.1678 79.5963 30.1678C80.2261 30.1678 80.7222 30.3252 81.0846 30.6401C81.447 30.955 81.6283 31.4006 81.6283 31.9769V34.6952H80.6568L80.5499 33.9822C80.4192 34.2199 80.235 34.4159 79.9973 34.5704C79.7656 34.7249 79.4656 34.8021 79.0972 34.8021ZM79.3556 33.9109C79.6824 33.9109 79.9349 33.804 80.1132 33.5901C80.2974 33.3762 80.4132 33.1118 80.4608 32.7969H79.4893C79.1863 32.7969 78.9694 32.8533 78.8387 32.9662C78.708 33.0732 78.6427 33.2068 78.6427 33.3673C78.6427 33.5396 78.708 33.6733 78.8387 33.7683C78.9694 33.8634 79.1417 33.9109 79.3556 33.9109ZM83.1215 36.6559L84.1464 34.4011H83.879L82.159 30.2747H83.3978L84.6366 33.3851L85.9289 30.2747H87.1409L84.3336 36.6559H83.1215ZM87.8867 34.6952V30.2747H88.8938L88.9918 30.8718C89.1344 30.6579 89.3216 30.4886 89.5533 30.3638C89.7909 30.2331 90.0643 30.1678 90.3732 30.1678C91.0565 30.1678 91.5407 30.4322 91.8259 30.961C91.9863 30.7173 92.2002 30.5242 92.4676 30.3817C92.7409 30.2391 93.038 30.1678 93.3588 30.1678C93.9352 30.1678 94.3778 30.3401 94.6868 30.6847C94.9957 31.0293 95.1502 31.5343 95.1502 32.1998V34.6952H94.0094V32.3067C94.0094 31.9264 93.9352 31.6353 93.7866 31.4333C93.644 31.2313 93.4212 31.1303 93.1182 31.1303C92.8092 31.1303 92.5597 31.2432 92.3696 31.4689C92.1854 31.6947 92.0933 32.0096 92.0933 32.4137V34.6952H90.9525V32.3067C90.9525 31.9264 90.8782 31.6353 90.7297 31.4333C90.5812 31.2313 90.3524 31.1303 90.0435 31.1303C89.7404 31.1303 89.4939 31.2432 89.3037 31.4689C89.1196 31.6947 89.0275 32.0096 89.0275 32.4137V34.6952H87.8867ZM98.3811 34.8021C97.9355 34.8021 97.5404 34.7071 97.1958 34.5169C96.8512 34.3268 96.5808 34.0594 96.3847 33.7148C96.1887 33.3702 96.0906 32.9722 96.0906 32.5206C96.0906 32.0631 96.1857 31.6561 96.3758 31.2996C96.5719 30.9431 96.8393 30.6668 97.1779 30.4708C97.5225 30.2688 97.9266 30.1678 98.39 30.1678C98.8237 30.1678 99.207 30.2628 99.5397 30.453C99.8724 30.6431 100.131 30.9045 100.315 31.2372C100.505 31.564 100.6 31.9294 100.6 32.3334C100.6 32.3988 100.597 32.4671 100.591 32.5384C100.591 32.6097 100.588 32.684 100.582 32.7612H97.2225C97.2463 33.1058 97.3651 33.3762 97.579 33.5722C97.7988 33.7683 98.0632 33.8663 98.3722 33.8663C98.6039 33.8663 98.797 33.8158 98.9515 33.7148C99.1119 33.6079 99.2307 33.4712 99.308 33.3049H100.467C100.383 33.5841 100.244 33.8396 100.048 34.0713C99.8576 34.2971 99.6199 34.4754 99.3347 34.6061C99.0555 34.7368 98.7376 34.8021 98.3811 34.8021ZM98.39 31.0946C98.1108 31.0946 97.8642 31.1748 97.6503 31.3353C97.4364 31.4897 97.2997 31.7274 97.2403 32.0482H99.4417C99.4238 31.7571 99.3169 31.5254 99.1208 31.3531C98.9247 31.1808 98.6811 31.0946 98.39 31.0946ZM101.56 34.6952V30.2747H102.567L102.656 31.0233C102.793 30.7619 102.989 30.554 103.244 30.3995C103.506 30.245 103.812 30.1678 104.162 30.1678C104.709 30.1678 105.134 30.3401 105.437 30.6847C105.74 31.0293 105.891 31.5343 105.891 32.1998V34.6952H104.75V32.3067C104.75 31.9264 104.673 31.6353 104.519 31.4333C104.364 31.2313 104.123 31.1303 103.797 31.1303C103.476 31.1303 103.211 31.2432 103.004 31.4689C102.801 31.6947 102.7 32.0096 102.7 32.4137V34.6952H101.56ZM108.952 34.6952C108.488 34.6952 108.117 34.5823 107.838 34.3565C107.558 34.1307 107.419 33.7297 107.419 33.1534V31.2283H106.661V30.2747H107.419L107.552 29.0894H108.559V30.2747H109.754V31.2283H108.559V33.1623C108.559 33.3762 108.604 33.5247 108.693 33.6079C108.788 33.6851 108.949 33.7238 109.174 33.7238H109.727V34.6952H108.952ZM115.709 34.8021C115.079 34.8021 114.538 34.6685 114.087 34.4011C113.635 34.1278 113.287 33.7505 113.044 33.2692C112.8 32.782 112.678 32.2206 112.678 31.5848C112.678 30.9491 112.8 30.3876 113.044 29.9004C113.287 29.4132 113.635 29.0329 114.087 28.7596C114.538 28.4863 115.079 28.3497 115.709 28.3497C116.457 28.3497 117.069 28.5368 117.545 28.9111C118.026 29.2795 118.326 29.7994 118.445 30.4708H117.188C117.111 30.1321 116.944 29.8677 116.689 29.6776C116.439 29.4815 116.107 29.3835 115.691 29.3835C115.114 29.3835 114.663 29.5795 114.336 29.9717C114.009 30.3638 113.846 30.9015 113.846 31.5848C113.846 32.2681 114.009 32.8058 114.336 33.1979C114.663 33.5841 115.114 33.7772 115.691 33.7772C116.107 33.7772 116.439 33.6881 116.689 33.5099C116.944 33.3257 117.111 33.0732 117.188 32.7523H118.445C118.326 33.394 118.026 33.8961 117.545 34.2585C117.069 34.6209 116.457 34.8021 115.709 34.8021ZM121.549 34.8021C121.121 34.8021 120.735 34.7041 120.39 34.508C120.052 34.312 119.781 34.0416 119.579 33.697C119.383 33.3465 119.285 32.9424 119.285 32.4849C119.285 32.0275 119.386 31.6264 119.588 31.2818C119.79 30.9312 120.061 30.6579 120.399 30.4619C120.744 30.2658 121.13 30.1678 121.558 30.1678C121.98 30.1678 122.36 30.2658 122.699 30.4619C123.043 30.6579 123.314 30.9312 123.51 31.2818C123.712 31.6264 123.813 32.0275 123.813 32.4849C123.813 32.9424 123.712 33.3465 123.51 33.697C123.314 34.0416 123.043 34.312 122.699 34.508C122.354 34.7041 121.971 34.8021 121.549 34.8021ZM121.549 33.8129C121.846 33.8129 122.104 33.703 122.324 33.4831C122.544 33.2573 122.654 32.9246 122.654 32.4849C122.654 32.0453 122.544 31.7155 122.324 31.4957C122.104 31.2699 121.849 31.157 121.558 31.157C121.255 31.157 120.993 31.2699 120.774 31.4957C120.56 31.7155 120.453 32.0453 120.453 32.4849C120.453 32.9246 120.56 33.2573 120.774 33.4831C120.993 33.703 121.252 33.8129 121.549 33.8129ZM124.833 34.6952V30.2747H125.84L125.929 31.0233C126.065 30.7619 126.262 30.554 126.517 30.3995C126.778 30.245 127.084 30.1678 127.435 30.1678C127.982 30.1678 128.406 30.3401 128.709 30.6847C129.012 31.0293 129.164 31.5343 129.164 32.1998V34.6952H128.023V32.3067C128.023 31.9264 127.946 31.6353 127.791 31.4333C127.637 31.2313 127.396 31.1303 127.07 31.1303C126.749 31.1303 126.484 31.2432 126.276 31.4689C126.074 31.6947 125.973 32.0096 125.973 32.4137V34.6952H124.833ZM130.46 34.6952V31.2283H129.854V30.2747H130.46V29.7578C130.46 29.2231 130.593 28.8428 130.861 28.617C131.134 28.3912 131.502 28.2784 131.966 28.2784H132.456V29.2498H132.144C131.948 29.2498 131.808 29.2884 131.725 29.3657C131.642 29.4429 131.601 29.5736 131.601 29.7578V30.2747H134.452V34.6952H133.312V31.2283H131.601V34.6952H130.46ZM133.891 29.6419C133.683 29.6419 133.511 29.5795 133.374 29.4548C133.243 29.33 133.178 29.1726 133.178 28.9824C133.178 28.7923 133.243 28.6378 133.374 28.519C133.511 28.3942 133.683 28.3318 133.891 28.3318C134.099 28.3318 134.268 28.3942 134.399 28.519C134.536 28.6378 134.604 28.7923 134.604 28.9824C134.604 29.1726 134.536 29.33 134.399 29.4548C134.268 29.5795 134.099 29.6419 133.891 29.6419ZM135.66 34.6952V30.2747H136.676L136.783 31.1035C136.943 30.8184 137.16 30.5926 137.433 30.4262C137.712 30.2539 138.039 30.1678 138.413 30.1678V31.3709H138.093C137.843 31.3709 137.62 31.4095 137.424 31.4868C137.228 31.564 137.074 31.6977 136.961 31.8878C136.854 32.078 136.8 32.3424 136.8 32.681V34.6952H135.66ZM139.193 34.6952V30.2747H140.2L140.298 30.8718C140.441 30.6579 140.628 30.4886 140.86 30.3638C141.097 30.2331 141.371 30.1678 141.68 30.1678C142.363 30.1678 142.847 30.4322 143.132 30.961C143.293 30.7173 143.507 30.5242 143.774 30.3817C144.047 30.2391 144.344 30.1678 144.665 30.1678C145.242 30.1678 145.684 30.3401 145.993 30.6847C146.302 31.0293 146.457 31.5343 146.457 32.1998V34.6952H145.316V32.3067C145.316 31.9264 145.242 31.6353 145.093 31.4333C144.95 31.2313 144.728 31.1303 144.425 31.1303C144.116 31.1303 143.866 31.2432 143.676 31.4689C143.492 31.6947 143.4 32.0096 143.4 32.4137V34.6952H142.259V32.3067C142.259 31.9264 142.185 31.6353 142.036 31.4333C141.888 31.2313 141.659 31.1303 141.35 31.1303C141.047 31.1303 140.8 31.2432 140.61 31.4689C140.426 31.6947 140.334 32.0096 140.334 32.4137V34.6952H139.193ZM149.688 34.8021C149.242 34.8021 148.847 34.7071 148.502 34.5169C148.158 34.3268 147.887 34.0594 147.691 33.7148C147.495 33.3702 147.397 32.9722 147.397 32.5206C147.397 32.0631 147.492 31.6561 147.682 31.2996C147.878 30.9431 148.146 30.6668 148.484 30.4708C148.829 30.2688 149.233 30.1678 149.696 30.1678C150.13 30.1678 150.513 30.2628 150.846 30.453C151.179 30.6431 151.437 30.9045 151.622 31.2372C151.812 31.564 151.907 31.9294 151.907 32.3334C151.907 32.3988 151.904 32.4671 151.898 32.5384C151.898 32.6097 151.895 32.684 151.889 32.7612H148.529C148.553 33.1058 148.672 33.3762 148.885 33.5722C149.105 33.7683 149.37 33.8663 149.679 33.8663C149.91 33.8663 150.103 33.8158 150.258 33.7148C150.418 33.6079 150.537 33.4712 150.614 33.3049H151.773C151.69 33.5841 151.55 33.8396 151.354 34.0713C151.164 34.2971 150.926 34.4754 150.641 34.6061C150.362 34.7368 150.044 34.8021 149.688 34.8021ZM149.696 31.0946C149.417 31.0946 149.171 31.1748 148.957 31.3353C148.743 31.4897 148.606 31.7274 148.547 32.0482H150.748C150.73 31.7571 150.623 31.5254 150.427 31.3531C150.231 31.1808 149.988 31.0946 149.696 31.0946ZM154.898 34.8021C154.482 34.8021 154.111 34.7011 153.784 34.4991C153.457 34.2971 153.199 34.0208 153.009 33.6703C152.819 33.3197 152.724 32.9216 152.724 32.476C152.724 32.0304 152.819 31.6353 153.009 31.2907C153.199 30.9402 153.457 30.6668 153.784 30.4708C154.111 30.2688 154.482 30.1678 154.898 30.1678C155.231 30.1678 155.522 30.2301 155.772 30.3549C156.021 30.4797 156.223 30.655 156.378 30.8807V28.2784H157.518V34.6952H156.502L156.378 34.0624C156.235 34.2585 156.045 34.4308 155.807 34.5793C155.575 34.7279 155.272 34.8021 154.898 34.8021ZM155.139 33.804C155.507 33.804 155.807 33.6822 156.039 33.4386C156.277 33.189 156.395 32.8711 156.395 32.4849C156.395 32.0987 156.277 31.7838 156.039 31.5402C155.807 31.2907 155.507 31.1659 155.139 31.1659C154.776 31.1659 154.476 31.2877 154.239 31.5313C154.001 31.7749 153.882 32.0898 153.882 32.476C153.882 32.8622 154.001 33.1801 154.239 33.4296C154.476 33.6792 154.776 33.804 155.139 33.804Z" fill="#262626"/>
<path d="M72.2986 43.5782V39.4192H73.6651C73.9899 39.4192 74.2573 39.4727 74.4672 39.5796C74.6771 39.6866 74.8316 39.8311 74.9306 40.0133C75.0336 40.1955 75.0851 40.4015 75.0851 40.6313C75.0851 40.857 75.0356 41.061 74.9366 41.2432C74.8376 41.4254 74.6831 41.572 74.4732 41.6829C74.2632 41.7899 73.9939 41.8433 73.6651 41.8433H72.7976V43.5782H72.2986ZM72.7976 41.4215H73.6532C73.9859 41.4215 74.2216 41.3522 74.3603 41.2135C74.5029 41.0709 74.5742 40.8768 74.5742 40.6313C74.5742 40.3817 74.5029 40.1876 74.3603 40.049C74.2216 39.9064 73.9859 39.8351 73.6532 39.8351H72.7976V41.4215ZM76.5507 43.6495C76.3051 43.6495 76.1011 43.608 75.9387 43.5248C75.7763 43.4416 75.6555 43.3307 75.5763 43.192C75.4971 43.0534 75.4574 42.9029 75.4574 42.7405C75.4574 42.4395 75.5723 42.2077 75.8021 42.0453C76.0318 41.8829 76.3447 41.8017 76.7408 41.8017H77.537V41.7661C77.537 41.5086 77.4696 41.3145 77.335 41.1838C77.2003 41.0491 77.0201 40.9818 76.7943 40.9818C76.6002 40.9818 76.4319 41.0313 76.2893 41.1303C76.1506 41.2254 76.0635 41.366 76.0278 41.5522H75.5169C75.5367 41.3383 75.608 41.1581 75.7308 41.0115C75.8575 40.865 76.014 40.754 76.2001 40.6788C76.3863 40.5996 76.5844 40.56 76.7943 40.56C77.2062 40.56 77.5152 40.6709 77.7212 40.8927C77.9311 41.1105 78.0361 41.4017 78.0361 41.7661V43.5782H77.5904L77.5607 43.0495C77.4776 43.2158 77.3548 43.3584 77.1924 43.4772C77.0339 43.5921 76.82 43.6495 76.5507 43.6495ZM76.6279 43.2277C76.8181 43.2277 76.9805 43.1782 77.1151 43.0792C77.2538 42.9801 77.3587 42.8514 77.43 42.693C77.5013 42.5345 77.537 42.3682 77.537 42.1939V42.1879H76.7824C76.4893 42.1879 76.2813 42.2394 76.1585 42.3424C76.0397 42.4414 75.9803 42.5662 75.9803 42.7167C75.9803 42.8712 76.0358 42.996 76.1467 43.091C76.2615 43.1821 76.422 43.2277 76.6279 43.2277ZM79.0186 44.8854L79.7494 43.2931H79.5771L78.4066 40.6313H78.9473L79.9217 42.9247L80.9555 40.6313H81.4724L79.5414 44.8854H79.0186ZM81.9992 43.5782V40.6313H82.4508L82.4864 41.059C82.5815 40.9006 82.7083 40.7778 82.8667 40.6907C83.0251 40.6035 83.2034 40.56 83.4014 40.56C83.6351 40.56 83.8352 40.6075 84.0015 40.7026C84.1718 40.7976 84.3026 40.9422 84.3937 41.1363C84.4966 40.958 84.6373 40.8174 84.8155 40.7144C84.9977 40.6115 85.1938 40.56 85.4037 40.56C85.7563 40.56 86.0375 40.6669 86.2474 40.8808C86.4573 41.0907 86.5623 41.4155 86.5623 41.8552V43.5782H86.0692V41.9087C86.0692 41.6037 86.0078 41.3739 85.885 41.2195C85.7622 41.065 85.5859 40.9877 85.3562 40.9877C85.1185 40.9877 84.9205 41.0808 84.762 41.267C84.6076 41.4492 84.5303 41.7106 84.5303 42.0513V43.5782H84.0312V41.9087C84.0312 41.6037 83.9698 41.3739 83.847 41.2195C83.7243 41.065 83.548 40.9877 83.3183 40.9877C83.0846 40.9877 82.8885 41.0808 82.73 41.267C82.5756 41.4492 82.4983 41.7106 82.4983 42.0513V43.5782H81.9992ZM88.6391 43.6495C88.3578 43.6495 88.1083 43.5862 87.8904 43.4594C87.6726 43.3287 87.5003 43.1485 87.3735 42.9187C87.2507 42.689 87.1893 42.4177 87.1893 42.1048C87.1893 41.7958 87.2507 41.5264 87.3735 41.2967C87.4963 41.063 87.6666 40.8828 87.8845 40.756C88.1063 40.6253 88.3618 40.56 88.6509 40.56C88.9361 40.56 89.1817 40.6253 89.3877 40.756C89.5976 40.8828 89.758 41.0511 89.869 41.2611C89.9799 41.471 90.0353 41.6968 90.0353 41.9384C90.0353 41.982 90.0333 42.0255 90.0294 42.0691C90.0294 42.1127 90.0294 42.1622 90.0294 42.2176H87.6825C87.6944 42.4434 87.7459 42.6316 87.837 42.7821C87.932 42.9286 88.0489 43.0396 88.1875 43.1148C88.3301 43.1901 88.4806 43.2277 88.6391 43.2277C88.845 43.2277 89.0173 43.1802 89.156 43.0851C89.2946 42.99 89.3956 42.8613 89.459 42.6989H89.9521C89.8729 42.9722 89.7204 43.2 89.4946 43.3822C89.2728 43.5604 88.9876 43.6495 88.6391 43.6495ZM88.6391 40.9818C88.4014 40.9818 88.1895 41.0551 88.0033 41.2016C87.8211 41.3442 87.7161 41.5542 87.6884 41.8314H89.5422C89.5303 41.5661 89.4392 41.3581 89.2689 41.2076C89.0985 41.0571 88.8886 40.9818 88.6391 40.9818ZM90.6968 43.5782V40.6313H91.1484L91.1781 41.1601C91.2731 40.9739 91.4098 40.8273 91.588 40.7204C91.7663 40.6134 91.9683 40.56 92.1941 40.56C92.5426 40.56 92.8199 40.6669 93.0259 40.8808C93.2358 41.0907 93.3408 41.4155 93.3408 41.8552V43.5782H92.8417V41.9087C92.8417 41.2947 92.5882 40.9877 92.0812 40.9877C91.8277 40.9877 91.6158 41.0808 91.4454 41.267C91.2791 41.4492 91.1959 41.7106 91.1959 42.0513V43.5782H90.6968ZM95.2615 43.5782C94.9921 43.5782 94.7802 43.5129 94.6257 43.3822C94.4713 43.2515 94.394 43.0158 94.394 42.6751V41.0531H93.883V40.6313H94.394L94.4594 39.9242H94.8931V40.6313H95.7606V41.0531H94.8931V42.6751C94.8931 42.8613 94.9307 42.9881 95.006 43.0554C95.0813 43.1188 95.2139 43.1505 95.4041 43.1505H95.713V43.5782H95.2615ZM99.0959 43.6495C98.7434 43.6495 98.4503 43.5604 98.2166 43.3822C97.9829 43.2039 97.8462 42.9623 97.8066 42.6573H98.3176C98.3493 42.8118 98.4305 42.9465 98.5612 43.0613C98.6959 43.1722 98.8761 43.2277 99.1019 43.2277C99.3118 43.2277 99.4663 43.1841 99.5653 43.097C99.6643 43.0059 99.7138 42.8989 99.7138 42.7761C99.7138 42.5979 99.6485 42.4791 99.5178 42.4197C99.391 42.3602 99.2108 42.3068 98.9771 42.2592C98.8187 42.2275 98.6602 42.182 98.5018 42.1226C98.3433 42.0632 98.2106 41.98 98.1037 41.873C97.9968 41.7621 97.9433 41.6175 97.9433 41.4393C97.9433 41.1818 98.0383 40.9719 98.2285 40.8095C98.4226 40.6431 98.684 40.56 99.0128 40.56C99.3257 40.56 99.5812 40.6392 99.7792 40.7976C99.9812 40.9521 100.098 41.1739 100.13 41.4631H99.6366C99.6168 41.3126 99.5514 41.1957 99.4405 41.1125C99.3336 41.0254 99.189 40.9818 99.0068 40.9818C98.8286 40.9818 98.6899 41.0194 98.5909 41.0947C98.4958 41.17 98.4483 41.269 98.4483 41.3918C98.4483 41.5106 98.5097 41.6037 98.6325 41.671C98.7592 41.7384 98.9296 41.7958 99.1435 41.8433C99.3257 41.8829 99.498 41.9324 99.6604 41.9919C99.8267 42.0473 99.9614 42.1325 100.064 42.2473C100.171 42.3583 100.225 42.5207 100.225 42.7346C100.229 42.9999 100.128 43.2198 99.9218 43.3941C99.7198 43.5644 99.4445 43.6495 99.0959 43.6495ZM102.013 43.6495C101.665 43.6495 101.387 43.5446 101.181 43.3346C100.975 43.1208 100.872 42.794 100.872 42.3543V40.6313H101.372V42.3008C101.372 42.9148 101.623 43.2218 102.126 43.2218C102.384 43.2218 102.595 43.1307 102.762 42.9484C102.932 42.7623 103.017 42.4989 103.017 42.1582V40.6313H103.516V43.5782H103.065L103.029 43.0495C102.938 43.2356 102.801 43.3822 102.619 43.4891C102.441 43.5961 102.239 43.6495 102.013 43.6495ZM105.693 43.6495C105.411 43.6495 105.158 43.5862 104.932 43.4594C104.71 43.3287 104.534 43.1485 104.403 42.9187C104.277 42.685 104.213 42.4137 104.213 42.1048C104.213 41.7958 104.277 41.5264 104.403 41.2967C104.534 41.063 104.71 40.8828 104.932 40.756C105.158 40.6253 105.411 40.56 105.693 40.56C106.041 40.56 106.334 40.6511 106.572 40.8333C106.814 41.0155 106.966 41.2591 107.029 41.5641H106.518C106.479 41.3819 106.382 41.2413 106.227 41.1422C106.073 41.0392 105.893 40.9877 105.687 40.9877C105.52 40.9877 105.364 41.0293 105.217 41.1125C105.071 41.1957 104.952 41.3205 104.861 41.4868C104.77 41.6532 104.724 41.8592 104.724 42.1048C104.724 42.3503 104.77 42.5563 104.861 42.7227C104.952 42.889 105.071 43.0158 105.217 43.1029C105.364 43.1861 105.52 43.2277 105.687 43.2277C105.893 43.2277 106.073 43.1782 106.227 43.0792C106.382 42.9762 106.479 42.8316 106.518 42.6454H107.029C106.97 42.9425 106.819 43.1841 106.578 43.3703C106.336 43.5565 106.041 43.6495 105.693 43.6495ZM109.081 43.6495C108.8 43.6495 108.546 43.5862 108.321 43.4594C108.099 43.3287 107.923 43.1485 107.792 42.9187C107.665 42.685 107.602 42.4137 107.602 42.1048C107.602 41.7958 107.665 41.5264 107.792 41.2967C107.923 41.063 108.099 40.8828 108.321 40.756C108.546 40.6253 108.8 40.56 109.081 40.56C109.43 40.56 109.723 40.6511 109.96 40.8333C110.202 41.0155 110.355 41.2591 110.418 41.5641H109.907C109.867 41.3819 109.77 41.2413 109.616 41.1422C109.461 41.0392 109.281 40.9877 109.075 40.9877C108.909 40.9877 108.752 41.0293 108.606 41.1125C108.459 41.1957 108.34 41.3205 108.249 41.4868C108.158 41.6532 108.113 41.8592 108.113 42.1048C108.113 42.3503 108.158 42.5563 108.249 42.7227C108.34 42.889 108.459 43.0158 108.606 43.1029C108.752 43.1861 108.909 43.2277 109.075 43.2277C109.281 43.2277 109.461 43.1782 109.616 43.0792C109.77 42.9762 109.867 42.8316 109.907 42.6454H110.418C110.359 42.9425 110.208 43.1841 109.966 43.3703C109.725 43.5565 109.43 43.6495 109.081 43.6495ZM112.44 43.6495C112.159 43.6495 111.909 43.5862 111.691 43.4594C111.473 43.3287 111.301 43.1485 111.174 42.9187C111.052 42.689 110.99 42.4177 110.99 42.1048C110.99 41.7958 111.052 41.5264 111.174 41.2967C111.297 41.063 111.467 40.8828 111.685 40.756C111.907 40.6253 112.163 40.56 112.452 40.56C112.737 40.56 112.983 40.6253 113.189 40.756C113.398 40.8828 113.559 41.0511 113.67 41.2611C113.781 41.471 113.836 41.6968 113.836 41.9384C113.836 41.982 113.834 42.0255 113.83 42.0691C113.83 42.1127 113.83 42.1622 113.83 42.2176H111.483C111.495 42.4434 111.547 42.6316 111.638 42.7821C111.733 42.9286 111.85 43.0396 111.988 43.1148C112.131 43.1901 112.281 43.2277 112.44 43.2277C112.646 43.2277 112.818 43.1802 112.957 43.0851C113.095 42.99 113.196 42.8613 113.26 42.6989H113.753C113.674 42.9722 113.521 43.2 113.295 43.3822C113.074 43.5604 112.788 43.6495 112.44 43.6495ZM112.44 40.9818C112.202 40.9818 111.99 41.0551 111.804 41.2016C111.622 41.3442 111.517 41.5542 111.489 41.8314H113.343C113.331 41.5661 113.24 41.3581 113.07 41.2076C112.899 41.0571 112.689 40.9818 112.44 40.9818ZM115.627 43.6495C115.274 43.6495 114.981 43.5604 114.747 43.3822C114.514 43.2039 114.377 42.9623 114.337 42.6573H114.848C114.88 42.8118 114.961 42.9465 115.092 43.0613C115.227 43.1722 115.407 43.2277 115.633 43.2277C115.842 43.2277 115.997 43.1841 116.096 43.097C116.195 43.0059 116.244 42.8989 116.244 42.7761C116.244 42.5979 116.179 42.4791 116.048 42.4197C115.922 42.3602 115.741 42.3068 115.508 42.2592C115.349 42.2275 115.191 42.182 115.032 42.1226C114.874 42.0632 114.741 41.98 114.634 41.873C114.527 41.7621 114.474 41.6175 114.474 41.4393C114.474 41.1818 114.569 40.9719 114.759 40.8095C114.953 40.6431 115.215 40.56 115.543 40.56C115.856 40.56 116.112 40.6392 116.31 40.7976C116.512 40.9521 116.629 41.1739 116.66 41.4631H116.167C116.147 41.3126 116.082 41.1957 115.971 41.1125C115.864 41.0254 115.72 40.9818 115.537 40.9818C115.359 40.9818 115.221 41.0194 115.122 41.0947C115.026 41.17 114.979 41.269 114.979 41.3918C114.979 41.5106 115.04 41.6037 115.163 41.671C115.29 41.7384 115.46 41.7958 115.674 41.8433C115.856 41.8829 116.029 41.9324 116.191 41.9919C116.357 42.0473 116.492 42.1325 116.595 42.2473C116.702 42.3583 116.755 42.5207 116.755 42.7346C116.759 42.9999 116.658 43.2198 116.452 43.3941C116.25 43.5644 115.975 43.6495 115.627 43.6495ZM118.597 43.6495C118.245 43.6495 117.952 43.5604 117.718 43.3822C117.484 43.2039 117.348 42.9623 117.308 42.6573H117.819C117.851 42.8118 117.932 42.9465 118.063 43.0613C118.197 43.1722 118.377 43.2277 118.603 43.2277C118.813 43.2277 118.968 43.1841 119.067 43.097C119.166 43.0059 119.215 42.8989 119.215 42.7761C119.215 42.5979 119.15 42.4791 119.019 42.4197C118.892 42.3602 118.712 42.3068 118.478 42.2592C118.32 42.2275 118.162 42.182 118.003 42.1226C117.845 42.0632 117.712 41.98 117.605 41.873C117.498 41.7621 117.445 41.6175 117.445 41.4393C117.445 41.1818 117.54 40.9719 117.73 40.8095C117.924 40.6431 118.185 40.56 118.514 40.56C118.827 40.56 119.083 40.6392 119.281 40.7976C119.483 40.9521 119.599 41.1739 119.631 41.4631H119.138C119.118 41.3126 119.053 41.1957 118.942 41.1125C118.835 41.0254 118.69 40.9818 118.508 40.9818C118.33 40.9818 118.191 41.0194 118.092 41.0947C117.997 41.17 117.95 41.269 117.95 41.3918C117.95 41.5106 118.011 41.6037 118.134 41.671C118.261 41.7384 118.431 41.7958 118.645 41.8433C118.827 41.8829 118.999 41.9324 119.162 41.9919C119.328 42.0473 119.463 42.1325 119.566 42.2473C119.673 42.3583 119.726 42.5207 119.726 42.7346C119.73 42.9999 119.629 43.2198 119.423 43.3941C119.221 43.5644 118.946 43.6495 118.597 43.6495ZM120.6 43.5782V41.0531H120.154V40.6313H120.6V40.1203C120.6 39.8351 120.671 39.6271 120.813 39.4964C120.956 39.3657 121.164 39.3004 121.437 39.3004H121.734V39.7281H121.515C121.364 39.7281 121.257 39.7598 121.194 39.8232C121.13 39.8826 121.099 39.9856 121.099 40.1322V40.6313H121.824V41.0531H121.099V43.5782H120.6ZM123.493 43.6495C123.145 43.6495 122.867 43.5446 122.661 43.3346C122.455 43.1208 122.352 42.794 122.352 42.3543V40.6313H122.851V42.3008C122.851 42.9148 123.103 43.2218 123.606 43.2218C123.864 43.2218 124.075 43.1307 124.242 42.9484C124.412 42.7623 124.497 42.4989 124.497 42.1582V40.6313H124.996V43.5782H124.545L124.509 43.0495C124.418 43.2356 124.281 43.3822 124.099 43.4891C123.921 43.5961 123.719 43.6495 123.493 43.6495ZM125.818 43.5782V39.3004H126.317V43.5782H125.818Z" fill="#B4B4B4"/>
<path fill-rule="evenodd" clip-rule="evenodd" d="M53.4999 41.9999C57.642 41.9999 60.9999 38.642 60.9999 34.4999C60.9999 30.3577 57.642 26.9999 53.4999 26.9999C49.3577 26.9999 45.9999 30.3577 45.9999 34.4999C45.9999 38.642 49.3577 41.9999 53.4999 41.9999ZM52.0453 36.8006C52.1877 36.9353 52.3724 37.0017 52.5571 36.9998C52.7418 36.9989 52.9255 36.9306 53.066 36.7941L56.7917 33.1777C57.0717 32.9056 57.0688 32.4683 56.7859 32.1998C56.5022 31.9314 56.0452 31.9332 55.7653 32.2054L52.5465 35.3291L51.2286 34.0818C50.9448 33.8134 50.4888 33.8161 50.2079 34.0883C49.928 34.3604 49.9309 34.7977 50.2147 35.0662L52.0453 36.8006Z" fill="#D80369"/>
</g>
<defs>
<filter id="filter0_d_71_40209" x="0" y="0.499878" width="200" height="79" filterUnits="userSpaceOnUse" color-interpolation-filters="sRGB">
<feFlood flood-opacity="0" result="BackgroundImageFix"/>
<feColorMatrix in="SourceAlpha" type="matrix" values="0 0 0 0 0 0 0 0 0 0 0 0 0 0 0 0 0 0 127 0" result="hardAlpha"/>
<feOffset dy="5.5"/>
<feGaussianBlur stdDeviation="11"/>
<feComposite in2="hardAlpha" operator="out"/>
<feColorMatrix type="matrix" values="0 0 0 0 0 0 0 0 0 0 0 0 0 0 0 0 0 0 0.15 0"/>
<feBlend mode="normal" in2="BackgroundImageFix" result="effect1_dropShadow_71_40209"/>
<feBlend mode="normal" in="SourceGraphic" in2="effect1_dropShadow_71_40209" result="shape"/>
</filter>
</defs>
</svg>
