<svg width="200" height="80" viewBox="0 0 200 80" fill="none" xmlns="http://www.w3.org/2000/svg">
<g filter="url(#filter0_d_71_40841)">
<rect x="22" y="16.5317" width="156" height="35" rx="11.1403" fill="white"/>
<path d="M72.4649 34.2271V27.9885H74.7732C75.2723 27.9885 75.6852 28.0716 76.012 28.238C76.3388 28.4044 76.5824 28.6331 76.7428 28.9243C76.9032 29.2154 76.9834 29.5422 76.9834 29.9046C76.9834 30.2492 76.9062 30.5671 76.7517 30.8582C76.5972 31.1434 76.3566 31.3751 76.0298 31.5534C75.703 31.7257 75.2842 31.8118 74.7732 31.8118H73.6057V34.2271H72.4649ZM73.6057 30.885H74.7019C75.1 30.885 75.3852 30.7988 75.5575 30.6265C75.7357 30.4482 75.8248 30.2076 75.8248 29.9046C75.8248 29.5956 75.7357 29.355 75.5575 29.1827C75.3852 29.0045 75.1 28.9153 74.7019 28.9153H73.6057V30.885ZM79.0972 34.334C78.7169 34.334 78.405 34.2746 78.1614 34.1558C77.9178 34.031 77.7366 33.8676 77.6177 33.6656C77.4989 33.4636 77.4395 33.2408 77.4395 32.9972C77.4395 32.5872 77.5999 32.2545 77.9208 31.999C78.2416 31.7435 78.7229 31.6158 79.3645 31.6158H80.4875V31.5088C80.4875 31.2058 80.4013 30.983 80.229 30.8404C80.0567 30.6978 79.8428 30.6265 79.5874 30.6265C79.3556 30.6265 79.1536 30.6829 78.9813 30.7958C78.809 30.9028 78.7021 31.0632 78.6605 31.2771H77.5464C77.5762 30.9562 77.6831 30.677 77.8673 30.4393C78.0574 30.2017 78.301 30.0205 78.5981 29.8957C78.8952 29.765 79.2279 29.6996 79.5963 29.6996C80.2261 29.6996 80.7222 29.8571 81.0846 30.172C81.447 30.4869 81.6283 30.9325 81.6283 31.5088V34.2271H80.6568L80.5499 33.5141C80.4192 33.7517 80.235 33.9478 79.9973 34.1023C79.7656 34.2568 79.4656 34.334 79.0972 34.334ZM79.3556 33.4428C79.6824 33.4428 79.9349 33.3358 80.1132 33.1219C80.2974 32.908 80.4132 32.6436 80.4608 32.3287H79.4893C79.1863 32.3287 78.9694 32.3852 78.8387 32.4981C78.708 32.605 78.6427 32.7387 78.6427 32.8991C78.6427 33.0714 78.708 33.2051 78.8387 33.3002C78.9694 33.3952 79.1417 33.4428 79.3556 33.4428ZM83.1215 36.1877L84.1464 33.9329H83.879L82.159 29.8066H83.3978L84.6366 32.9169L85.9289 29.8066H87.1409L84.3336 36.1877H83.1215ZM87.8867 34.2271V29.8066H88.8938L88.9918 30.4037C89.1344 30.1898 89.3216 30.0205 89.5533 29.8957C89.7909 29.765 90.0643 29.6996 90.3732 29.6996C91.0565 29.6996 91.5407 29.964 91.8259 30.4928C91.9863 30.2492 92.2002 30.0561 92.4676 29.9135C92.7409 29.7709 93.038 29.6996 93.3588 29.6996C93.9352 29.6996 94.3778 29.8719 94.6868 30.2165C94.9957 30.5611 95.1502 31.0662 95.1502 31.7316V34.2271H94.0094V31.8386C94.0094 31.4583 93.9352 31.1672 93.7866 30.9652C93.644 30.7631 93.4212 30.6621 93.1182 30.6621C92.8092 30.6621 92.5597 30.775 92.3696 31.0008C92.1854 31.2266 92.0933 31.5415 92.0933 31.9455V34.2271H90.9525V31.8386C90.9525 31.4583 90.8782 31.1672 90.7297 30.9652C90.5812 30.7631 90.3524 30.6621 90.0435 30.6621C89.7404 30.6621 89.4939 30.775 89.3037 31.0008C89.1196 31.2266 89.0275 31.5415 89.0275 31.9455V34.2271H87.8867ZM98.3811 34.334C97.9355 34.334 97.5404 34.2389 97.1958 34.0488C96.8512 33.8587 96.5808 33.5913 96.3847 33.2467C96.1887 32.9021 96.0906 32.504 96.0906 32.0525C96.0906 31.595 96.1857 31.188 96.3758 30.8315C96.5719 30.475 96.8393 30.1987 97.1779 30.0026C97.5225 29.8006 97.9266 29.6996 98.39 29.6996C98.8237 29.6996 99.207 29.7947 99.5397 29.9848C99.8724 30.1749 100.131 30.4364 100.315 30.7691C100.505 31.0959 100.6 31.4613 100.6 31.8653C100.6 31.9307 100.597 31.999 100.591 32.0703C100.591 32.1416 100.588 32.2158 100.582 32.2931H97.2225C97.2463 32.6377 97.3651 32.908 97.579 33.1041C97.7988 33.3002 98.0632 33.3982 98.3722 33.3982C98.6039 33.3982 98.797 33.3477 98.9515 33.2467C99.1119 33.1398 99.2307 33.0031 99.308 32.8367H100.467C100.383 33.116 100.244 33.3715 100.048 33.6032C99.8576 33.829 99.6199 34.0072 99.3347 34.1379C99.0555 34.2686 98.7376 34.334 98.3811 34.334ZM98.39 30.6265C98.1108 30.6265 97.8642 30.7067 97.6503 30.8671C97.4364 31.0216 97.2997 31.2593 97.2403 31.5801H99.4417C99.4238 31.289 99.3169 31.0573 99.1208 30.885C98.9247 30.7126 98.6811 30.6265 98.39 30.6265ZM101.56 34.2271V29.8066H102.567L102.656 30.5552C102.793 30.2938 102.989 30.0858 103.244 29.9313C103.506 29.7769 103.812 29.6996 104.162 29.6996C104.709 29.6996 105.134 29.8719 105.437 30.2165C105.74 30.5611 105.891 31.0662 105.891 31.7316V34.2271H104.75V31.8386C104.75 31.4583 104.673 31.1672 104.519 30.9652C104.364 30.7631 104.123 30.6621 103.797 30.6621C103.476 30.6621 103.211 30.775 103.004 31.0008C102.801 31.2266 102.7 31.5415 102.7 31.9455V34.2271H101.56ZM108.952 34.2271C108.488 34.2271 108.117 34.1142 107.838 33.8884C107.558 33.6626 107.419 33.2616 107.419 32.6852V30.7602H106.661V29.8066H107.419L107.552 28.6212H108.559V29.8066H109.754V30.7602H108.559V32.6941C108.559 32.908 108.604 33.0566 108.693 33.1398C108.788 33.217 108.949 33.2556 109.174 33.2556H109.727V34.2271H108.952ZM115.709 34.334C115.079 34.334 114.538 34.2003 114.087 33.9329C113.635 33.6596 113.287 33.2824 113.044 32.8011C112.8 32.3139 112.678 31.7524 112.678 31.1167C112.678 30.4809 112.8 29.9195 113.044 29.4323C113.287 28.945 113.635 28.5648 114.087 28.2915C114.538 28.0182 115.079 27.8815 115.709 27.8815C116.457 27.8815 117.069 28.0687 117.545 28.443C118.026 28.8114 118.326 29.3312 118.445 30.0026H117.188C117.111 29.664 116.944 29.3996 116.689 29.2094C116.439 29.0134 116.107 28.9153 115.691 28.9153C115.114 28.9153 114.663 29.1114 114.336 29.5035C114.009 29.8957 113.846 30.4334 113.846 31.1167C113.846 31.7999 114.009 32.3377 114.336 32.7298C114.663 33.116 115.114 33.3091 115.691 33.3091C116.107 33.3091 116.439 33.22 116.689 33.0417C116.944 32.8575 117.111 32.605 117.188 32.2842H118.445C118.326 32.9259 118.026 33.4279 117.545 33.7903C117.069 34.1528 116.457 34.334 115.709 34.334ZM121.549 34.334C121.121 34.334 120.735 34.236 120.39 34.0399C120.052 33.8438 119.781 33.5735 119.579 33.2289C119.383 32.8783 119.285 32.4743 119.285 32.0168C119.285 31.5593 119.386 31.1583 119.588 30.8137C119.79 30.4631 120.061 30.1898 120.399 29.9937C120.744 29.7977 121.13 29.6996 121.558 29.6996C121.98 29.6996 122.36 29.7977 122.699 29.9937C123.043 30.1898 123.314 30.4631 123.51 30.8137C123.712 31.1583 123.813 31.5593 123.813 32.0168C123.813 32.4743 123.712 32.8783 123.51 33.2289C123.314 33.5735 123.043 33.8438 122.699 34.0399C122.354 34.236 121.971 34.334 121.549 34.334ZM121.549 33.3447C121.846 33.3447 122.104 33.2348 122.324 33.015C122.544 32.7892 122.654 32.4565 122.654 32.0168C122.654 31.5771 122.544 31.2474 122.324 31.0275C122.104 30.8018 121.849 30.6889 121.558 30.6889C121.255 30.6889 120.993 30.8018 120.774 31.0275C120.56 31.2474 120.453 31.5771 120.453 32.0168C120.453 32.4565 120.56 32.7892 120.774 33.015C120.993 33.2348 121.252 33.3447 121.549 33.3447ZM124.833 34.2271V29.8066H125.84L125.929 30.5552C126.065 30.2938 126.262 30.0858 126.517 29.9313C126.778 29.7769 127.084 29.6996 127.435 29.6996C127.982 29.6996 128.406 29.8719 128.709 30.2165C129.012 30.5611 129.164 31.0662 129.164 31.7316V34.2271H128.023V31.8386C128.023 31.4583 127.946 31.1672 127.791 30.9652C127.637 30.7631 127.396 30.6621 127.07 30.6621C126.749 30.6621 126.484 30.775 126.276 31.0008C126.074 31.2266 125.973 31.5415 125.973 31.9455V34.2271H124.833ZM130.46 34.2271V30.7602H129.854V29.8066H130.46V29.2897C130.46 28.7549 130.593 28.3747 130.861 28.1489C131.134 27.9231 131.502 27.8102 131.966 27.8102H132.456V28.7817H132.144C131.948 28.7817 131.808 28.8203 131.725 28.8975C131.642 28.9748 131.601 29.1055 131.601 29.2897V29.8066H134.452V34.2271H133.312V30.7602H131.601V34.2271H130.46ZM133.891 29.1738C133.683 29.1738 133.511 29.1114 133.374 28.9866C133.243 28.8619 133.178 28.7044 133.178 28.5143C133.178 28.3242 133.243 28.1697 133.374 28.0508C133.511 27.9261 133.683 27.8637 133.891 27.8637C134.099 27.8637 134.268 27.9261 134.399 28.0508C134.536 28.1697 134.604 28.3242 134.604 28.5143C134.604 28.7044 134.536 28.8619 134.399 28.9866C134.268 29.1114 134.099 29.1738 133.891 29.1738ZM135.66 34.2271V29.8066H136.676L136.783 30.6354C136.943 30.3502 137.16 30.1244 137.433 29.9581C137.712 29.7858 138.039 29.6996 138.413 29.6996V30.9028H138.093C137.843 30.9028 137.62 30.9414 137.424 31.0186C137.228 31.0959 137.074 31.2296 136.961 31.4197C136.854 31.6098 136.8 31.8742 136.8 32.2129V34.2271H135.66ZM139.193 34.2271V29.8066H140.2L140.298 30.4037C140.441 30.1898 140.628 30.0205 140.86 29.8957C141.097 29.765 141.371 29.6996 141.68 29.6996C142.363 29.6996 142.847 29.964 143.132 30.4928C143.293 30.2492 143.507 30.0561 143.774 29.9135C144.047 29.7709 144.344 29.6996 144.665 29.6996C145.242 29.6996 145.684 29.8719 145.993 30.2165C146.302 30.5611 146.457 31.0662 146.457 31.7316V34.2271H145.316V31.8386C145.316 31.4583 145.242 31.1672 145.093 30.9652C144.95 30.7631 144.728 30.6621 144.425 30.6621C144.116 30.6621 143.866 30.775 143.676 31.0008C143.492 31.2266 143.4 31.5415 143.4 31.9455V34.2271H142.259V31.8386C142.259 31.4583 142.185 31.1672 142.036 30.9652C141.888 30.7631 141.659 30.6621 141.35 30.6621C141.047 30.6621 140.8 30.775 140.61 31.0008C140.426 31.2266 140.334 31.5415 140.334 31.9455V34.2271H139.193ZM149.688 34.334C149.242 34.334 148.847 34.2389 148.502 34.0488C148.158 33.8587 147.887 33.5913 147.691 33.2467C147.495 32.9021 147.397 32.504 147.397 32.0525C147.397 31.595 147.492 31.188 147.682 30.8315C147.878 30.475 148.146 30.1987 148.484 30.0026C148.829 29.8006 149.233 29.6996 149.696 29.6996C150.13 29.6996 150.513 29.7947 150.846 29.9848C151.179 30.1749 151.437 30.4364 151.622 30.7691C151.812 31.0959 151.907 31.4613 151.907 31.8653C151.907 31.9307 151.904 31.999 151.898 32.0703C151.898 32.1416 151.895 32.2158 151.889 32.2931H148.529C148.553 32.6377 148.672 32.908 148.885 33.1041C149.105 33.3002 149.37 33.3982 149.679 33.3982C149.91 33.3982 150.103 33.3477 150.258 33.2467C150.418 33.1398 150.537 33.0031 150.614 32.8367H151.773C151.69 33.116 151.55 33.3715 151.354 33.6032C151.164 33.829 150.926 34.0072 150.641 34.1379C150.362 34.2686 150.044 34.334 149.688 34.334ZM149.696 30.6265C149.417 30.6265 149.171 30.7067 148.957 30.8671C148.743 31.0216 148.606 31.2593 148.547 31.5801H150.748C150.73 31.289 150.623 31.0573 150.427 30.885C150.231 30.7126 149.988 30.6265 149.696 30.6265ZM154.898 34.334C154.482 34.334 154.111 34.233 153.784 34.031C153.457 33.829 153.199 33.5527 153.009 33.2021C152.819 32.8516 152.724 32.4535 152.724 32.0079C152.724 31.5623 152.819 31.1672 153.009 30.8226C153.199 30.472 153.457 30.1987 153.784 30.0026C154.111 29.8006 154.482 29.6996 154.898 29.6996C155.231 29.6996 155.522 29.762 155.772 29.8868C156.021 30.0115 156.223 30.1868 156.378 30.4126V27.8102H157.518V34.2271H156.502L156.378 33.5943C156.235 33.7903 156.045 33.9627 155.807 34.1112C155.575 34.2597 155.272 34.334 154.898 34.334ZM155.139 33.3358C155.507 33.3358 155.807 33.214 156.039 32.9704C156.277 32.7209 156.395 32.403 156.395 32.0168C156.395 31.6306 156.277 31.3157 156.039 31.0721C155.807 30.8226 155.507 30.6978 155.139 30.6978C154.776 30.6978 154.476 30.8196 154.239 31.0632C154.001 31.3068 153.882 31.6217 153.882 32.0079C153.882 32.3941 154.001 32.712 154.239 32.9615C154.476 33.2111 154.776 33.3358 155.139 33.3358Z" fill="#262626"/>
<path d="M72.2986 43.1101V38.951H73.6651C73.9899 38.951 74.2573 39.0045 74.4672 39.1115C74.6771 39.2184 74.8316 39.363 74.9306 39.5452C75.0336 39.7274 75.0851 39.9334 75.0851 40.1631C75.0851 40.3889 75.0356 40.5929 74.9366 40.7751C74.8376 40.9573 74.6831 41.1039 74.4732 41.2148C74.2632 41.3217 73.9939 41.3752 73.6651 41.3752H72.7976V43.1101H72.2986ZM72.7976 40.9533H73.6532C73.9859 40.9533 74.2216 40.884 74.3603 40.7454C74.5029 40.6028 74.5742 40.4087 74.5742 40.1631C74.5742 39.9136 74.5029 39.7195 74.3603 39.5808C74.2216 39.4383 73.9859 39.367 73.6532 39.367H72.7976V40.9533ZM76.5507 43.1814C76.3051 43.1814 76.1011 43.1398 75.9387 43.0566C75.7763 42.9735 75.6555 42.8625 75.5763 42.7239C75.4971 42.5853 75.4574 42.4348 75.4574 42.2724C75.4574 41.9713 75.5723 41.7396 75.8021 41.5772C76.0318 41.4148 76.3447 41.3336 76.7408 41.3336H77.537V41.2979C77.537 41.0405 77.4696 40.8464 77.335 40.7157C77.2003 40.581 77.0201 40.5137 76.7943 40.5137C76.6002 40.5137 76.4319 40.5632 76.2893 40.6622C76.1506 40.7573 76.0635 40.8979 76.0278 41.0841H75.5169C75.5367 40.8702 75.608 40.6899 75.7308 40.5434C75.8575 40.3968 76.014 40.2859 76.2001 40.2107C76.3863 40.1314 76.5844 40.0918 76.7943 40.0918C77.2062 40.0918 77.5152 40.2027 77.7212 40.4245C77.9311 40.6424 78.0361 40.9335 78.0361 41.2979V43.1101H77.5904L77.5607 42.5813C77.4776 42.7477 77.3548 42.8903 77.1924 43.0091C77.0339 43.124 76.82 43.1814 76.5507 43.1814ZM76.6279 42.7596C76.8181 42.7596 76.9805 42.71 77.1151 42.611C77.2538 42.512 77.3587 42.3833 77.43 42.2248C77.5013 42.0664 77.537 41.9 77.537 41.7257V41.7198H76.7824C76.4893 41.7198 76.2813 41.7713 76.1585 41.8743C76.0397 41.9733 75.9803 42.0981 75.9803 42.2486C75.9803 42.4031 76.0358 42.5278 76.1467 42.6229C76.2615 42.714 76.422 42.7596 76.6279 42.7596ZM79.0186 44.4172L79.7494 42.8249H79.5771L78.4066 40.1631H78.9473L79.9217 42.4565L80.9555 40.1631H81.4724L79.5414 44.4172H79.0186ZM81.9992 43.1101V40.1631H82.4508L82.4864 40.5909C82.5815 40.4325 82.7083 40.3097 82.8667 40.2225C83.0251 40.1354 83.2034 40.0918 83.4014 40.0918C83.6351 40.0918 83.8352 40.1394 84.0015 40.2344C84.1718 40.3295 84.3026 40.4741 84.3937 40.6681C84.4966 40.4899 84.6373 40.3493 84.8155 40.2463C84.9977 40.1433 85.1938 40.0918 85.4037 40.0918C85.7563 40.0918 86.0375 40.1988 86.2474 40.4127C86.4573 40.6226 86.5623 40.9474 86.5623 41.3871V43.1101H86.0692V41.4405C86.0692 41.1355 86.0078 40.9058 85.885 40.7513C85.7622 40.5968 85.5859 40.5196 85.3562 40.5196C85.1185 40.5196 84.9205 40.6127 84.762 40.7989C84.6076 40.9811 84.5303 41.2425 84.5303 41.5831V43.1101H84.0312V41.4405C84.0312 41.1355 83.9698 40.9058 83.847 40.7513C83.7243 40.5968 83.548 40.5196 83.3183 40.5196C83.0846 40.5196 82.8885 40.6127 82.73 40.7989C82.5756 40.9811 82.4983 41.2425 82.4983 41.5831V43.1101H81.9992ZM88.6391 43.1814C88.3578 43.1814 88.1083 43.118 87.8904 42.9913C87.6726 42.8606 87.5003 42.6803 87.3735 42.4506C87.2507 42.2209 87.1893 41.9495 87.1893 41.6366C87.1893 41.3277 87.2507 41.0583 87.3735 40.8286C87.4963 40.5949 87.6666 40.4146 87.8845 40.2879C88.1063 40.1572 88.3618 40.0918 88.6509 40.0918C88.9361 40.0918 89.1817 40.1572 89.3877 40.2879C89.5976 40.4146 89.758 40.583 89.869 40.7929C89.9799 41.0029 90.0353 41.2286 90.0353 41.4703C90.0353 41.5138 90.0333 41.5574 90.0294 41.601C90.0294 41.6445 90.0294 41.694 90.0294 41.7495H87.6825C87.6944 41.9753 87.7459 42.1634 87.837 42.3139C87.932 42.4605 88.0489 42.5714 88.1875 42.6467C88.3301 42.7219 88.4806 42.7596 88.6391 42.7596C88.845 42.7596 89.0173 42.712 89.156 42.617C89.2946 42.5219 89.3956 42.3932 89.459 42.2308H89.9521C89.8729 42.5041 89.7204 42.7318 89.4946 42.914C89.2728 43.0923 88.9876 43.1814 88.6391 43.1814ZM88.6391 40.5137C88.4014 40.5137 88.1895 40.5869 88.0033 40.7335C87.8211 40.8761 87.7161 41.086 87.6884 41.3633H89.5422C89.5303 41.0979 89.4392 40.89 89.2689 40.7394C89.0985 40.5889 88.8886 40.5137 88.6391 40.5137ZM90.6968 43.1101V40.1631H91.1484L91.1781 40.6919C91.2731 40.5057 91.4098 40.3592 91.588 40.2522C91.7663 40.1453 91.9683 40.0918 92.1941 40.0918C92.5426 40.0918 92.8199 40.1988 93.0259 40.4127C93.2358 40.6226 93.3408 40.9474 93.3408 41.3871V43.1101H92.8417V41.4405C92.8417 40.8266 92.5882 40.5196 92.0812 40.5196C91.8277 40.5196 91.6158 40.6127 91.4454 40.7989C91.2791 40.9811 91.1959 41.2425 91.1959 41.5831V43.1101H90.6968ZM95.2615 43.1101C94.9921 43.1101 94.7802 43.0448 94.6257 42.914C94.4713 42.7833 94.394 42.5476 94.394 42.207V40.585H93.883V40.1631H94.394L94.4594 39.4561H94.8931V40.1631H95.7606V40.585H94.8931V42.207C94.8931 42.3932 94.9307 42.5199 95.006 42.5873C95.0813 42.6506 95.2139 42.6823 95.4041 42.6823H95.713V43.1101H95.2615ZM99.0959 43.1814C98.7434 43.1814 98.4503 43.0923 98.2166 42.914C97.9829 42.7358 97.8462 42.4942 97.8066 42.1892H98.3176C98.3493 42.3437 98.4305 42.4783 98.5612 42.5932C98.6959 42.7041 98.8761 42.7596 99.1019 42.7596C99.3118 42.7596 99.4663 42.716 99.5653 42.6288C99.6643 42.5377 99.7138 42.4308 99.7138 42.308C99.7138 42.1298 99.6485 42.0109 99.5178 41.9515C99.391 41.8921 99.2108 41.8386 98.9771 41.7911C98.8187 41.7594 98.6602 41.7139 98.5018 41.6544C98.3433 41.595 98.2106 41.5118 98.1037 41.4049C97.9968 41.294 97.9433 41.1494 97.9433 40.9712C97.9433 40.7137 98.0383 40.5038 98.2285 40.3414C98.4226 40.175 98.684 40.0918 99.0128 40.0918C99.3257 40.0918 99.5812 40.171 99.7792 40.3295C99.9812 40.484 100.098 40.7058 100.13 40.9949H99.6366C99.6168 40.8444 99.5514 40.7276 99.4405 40.6444C99.3336 40.5572 99.189 40.5137 99.0068 40.5137C98.8286 40.5137 98.6899 40.5513 98.5909 40.6266C98.4958 40.7018 98.4483 40.8008 98.4483 40.9236C98.4483 41.0425 98.5097 41.1355 98.6325 41.2029C98.7592 41.2702 98.9296 41.3277 99.1435 41.3752C99.3257 41.4148 99.498 41.4643 99.6604 41.5237C99.8267 41.5792 99.9614 41.6643 100.064 41.7792C100.171 41.8901 100.225 42.0525 100.225 42.2664C100.229 42.5318 100.128 42.7516 99.9218 42.9259C99.7198 43.0962 99.4445 43.1814 99.0959 43.1814ZM102.013 43.1814C101.665 43.1814 101.387 43.0764 101.181 42.8665C100.975 42.6526 100.872 42.3258 100.872 41.8862V40.1631H101.372V41.8327C101.372 42.4466 101.623 42.7536 102.126 42.7536C102.384 42.7536 102.595 42.6625 102.762 42.4803C102.932 42.2941 103.017 42.0307 103.017 41.6901V40.1631H103.516V43.1101H103.065L103.029 42.5813C102.938 42.7675 102.801 42.914 102.619 43.021C102.441 43.1279 102.239 43.1814 102.013 43.1814ZM105.693 43.1814C105.411 43.1814 105.158 43.118 104.932 42.9913C104.71 42.8606 104.534 42.6803 104.403 42.4506C104.277 42.2169 104.213 41.9456 104.213 41.6366C104.213 41.3277 104.277 41.0583 104.403 40.8286C104.534 40.5949 104.71 40.4146 104.932 40.2879C105.158 40.1572 105.411 40.0918 105.693 40.0918C106.041 40.0918 106.334 40.1829 106.572 40.3651C106.814 40.5473 106.966 40.7909 107.029 41.0959H106.518C106.479 40.9137 106.382 40.7731 106.227 40.6741C106.073 40.5711 105.893 40.5196 105.687 40.5196C105.52 40.5196 105.364 40.5612 105.217 40.6444C105.071 40.7276 104.952 40.8523 104.861 41.0187C104.77 41.1851 104.724 41.391 104.724 41.6366C104.724 41.8822 104.77 42.0882 104.861 42.2545C104.952 42.4209 105.071 42.5476 105.217 42.6348C105.364 42.718 105.52 42.7596 105.687 42.7596C105.893 42.7596 106.073 42.71 106.227 42.611C106.382 42.508 106.479 42.3635 106.518 42.1773H107.029C106.97 42.4744 106.819 42.716 106.578 42.9022C106.336 43.0883 106.041 43.1814 105.693 43.1814ZM109.081 43.1814C108.8 43.1814 108.546 43.118 108.321 42.9913C108.099 42.8606 107.923 42.6803 107.792 42.4506C107.665 42.2169 107.602 41.9456 107.602 41.6366C107.602 41.3277 107.665 41.0583 107.792 40.8286C107.923 40.5949 108.099 40.4146 108.321 40.2879C108.546 40.1572 108.8 40.0918 109.081 40.0918C109.43 40.0918 109.723 40.1829 109.96 40.3651C110.202 40.5473 110.355 40.7909 110.418 41.0959H109.907C109.867 40.9137 109.77 40.7731 109.616 40.6741C109.461 40.5711 109.281 40.5196 109.075 40.5196C108.909 40.5196 108.752 40.5612 108.606 40.6444C108.459 40.7276 108.34 40.8523 108.249 41.0187C108.158 41.1851 108.113 41.391 108.113 41.6366C108.113 41.8822 108.158 42.0882 108.249 42.2545C108.34 42.4209 108.459 42.5476 108.606 42.6348C108.752 42.718 108.909 42.7596 109.075 42.7596C109.281 42.7596 109.461 42.71 109.616 42.611C109.77 42.508 109.867 42.3635 109.907 42.1773H110.418C110.359 42.4744 110.208 42.716 109.966 42.9022C109.725 43.0883 109.43 43.1814 109.081 43.1814ZM112.44 43.1814C112.159 43.1814 111.909 43.118 111.691 42.9913C111.473 42.8606 111.301 42.6803 111.174 42.4506C111.052 42.2209 110.99 41.9495 110.99 41.6366C110.99 41.3277 111.052 41.0583 111.174 40.8286C111.297 40.5949 111.467 40.4146 111.685 40.2879C111.907 40.1572 112.163 40.0918 112.452 40.0918C112.737 40.0918 112.983 40.1572 113.189 40.2879C113.398 40.4146 113.559 40.583 113.67 40.7929C113.781 41.0029 113.836 41.2286 113.836 41.4703C113.836 41.5138 113.834 41.5574 113.83 41.601C113.83 41.6445 113.83 41.694 113.83 41.7495H111.483C111.495 41.9753 111.547 42.1634 111.638 42.3139C111.733 42.4605 111.85 42.5714 111.988 42.6467C112.131 42.7219 112.281 42.7596 112.44 42.7596C112.646 42.7596 112.818 42.712 112.957 42.617C113.095 42.5219 113.196 42.3932 113.26 42.2308H113.753C113.674 42.5041 113.521 42.7318 113.295 42.914C113.074 43.0923 112.788 43.1814 112.44 43.1814ZM112.44 40.5137C112.202 40.5137 111.99 40.5869 111.804 40.7335C111.622 40.8761 111.517 41.086 111.489 41.3633H113.343C113.331 41.0979 113.24 40.89 113.07 40.7394C112.899 40.5889 112.689 40.5137 112.44 40.5137ZM115.627 43.1814C115.274 43.1814 114.981 43.0923 114.747 42.914C114.514 42.7358 114.377 42.4942 114.337 42.1892H114.848C114.88 42.3437 114.961 42.4783 115.092 42.5932C115.227 42.7041 115.407 42.7596 115.633 42.7596C115.842 42.7596 115.997 42.716 116.096 42.6288C116.195 42.5377 116.244 42.4308 116.244 42.308C116.244 42.1298 116.179 42.0109 116.048 41.9515C115.922 41.8921 115.741 41.8386 115.508 41.7911C115.349 41.7594 115.191 41.7139 115.032 41.6544C114.874 41.595 114.741 41.5118 114.634 41.4049C114.527 41.294 114.474 41.1494 114.474 40.9712C114.474 40.7137 114.569 40.5038 114.759 40.3414C114.953 40.175 115.215 40.0918 115.543 40.0918C115.856 40.0918 116.112 40.171 116.31 40.3295C116.512 40.484 116.629 40.7058 116.66 40.9949H116.167C116.147 40.8444 116.082 40.7276 115.971 40.6444C115.864 40.5572 115.72 40.5137 115.537 40.5137C115.359 40.5137 115.221 40.5513 115.122 40.6266C115.026 40.7018 114.979 40.8008 114.979 40.9236C114.979 41.0425 115.04 41.1355 115.163 41.2029C115.29 41.2702 115.46 41.3277 115.674 41.3752C115.856 41.4148 116.029 41.4643 116.191 41.5237C116.357 41.5792 116.492 41.6643 116.595 41.7792C116.702 41.8901 116.755 42.0525 116.755 42.2664C116.759 42.5318 116.658 42.7516 116.452 42.9259C116.25 43.0962 115.975 43.1814 115.627 43.1814ZM118.597 43.1814C118.245 43.1814 117.952 43.0923 117.718 42.914C117.484 42.7358 117.348 42.4942 117.308 42.1892H117.819C117.851 42.3437 117.932 42.4783 118.063 42.5932C118.197 42.7041 118.377 42.7596 118.603 42.7596C118.813 42.7596 118.968 42.716 119.067 42.6288C119.166 42.5377 119.215 42.4308 119.215 42.308C119.215 42.1298 119.15 42.0109 119.019 41.9515C118.892 41.8921 118.712 41.8386 118.478 41.7911C118.32 41.7594 118.162 41.7139 118.003 41.6544C117.845 41.595 117.712 41.5118 117.605 41.4049C117.498 41.294 117.445 41.1494 117.445 40.9712C117.445 40.7137 117.54 40.5038 117.73 40.3414C117.924 40.175 118.185 40.0918 118.514 40.0918C118.827 40.0918 119.083 40.171 119.281 40.3295C119.483 40.484 119.599 40.7058 119.631 40.9949H119.138C119.118 40.8444 119.053 40.7276 118.942 40.6444C118.835 40.5572 118.69 40.5137 118.508 40.5137C118.33 40.5137 118.191 40.5513 118.092 40.6266C117.997 40.7018 117.95 40.8008 117.95 40.9236C117.95 41.0425 118.011 41.1355 118.134 41.2029C118.261 41.2702 118.431 41.3277 118.645 41.3752C118.827 41.4148 118.999 41.4643 119.162 41.5237C119.328 41.5792 119.463 41.6643 119.566 41.7792C119.673 41.8901 119.726 42.0525 119.726 42.2664C119.73 42.5318 119.629 42.7516 119.423 42.9259C119.221 43.0962 118.946 43.1814 118.597 43.1814ZM120.6 43.1101V40.585H120.154V40.1631H120.6V39.6521C120.6 39.367 120.671 39.159 120.813 39.0283C120.956 38.8976 121.164 38.8322 121.437 38.8322H121.734V39.26H121.515C121.364 39.26 121.257 39.2917 121.194 39.3551C121.13 39.4145 121.099 39.5175 121.099 39.664V40.1631H121.824V40.585H121.099V43.1101H120.6ZM123.493 43.1814C123.145 43.1814 122.867 43.0764 122.661 42.8665C122.455 42.6526 122.352 42.3258 122.352 41.8862V40.1631H122.851V41.8327C122.851 42.4466 123.103 42.7536 123.606 42.7536C123.864 42.7536 124.075 42.6625 124.242 42.4803C124.412 42.2941 124.497 42.0307 124.497 41.6901V40.1631H124.996V43.1101H124.545L124.509 42.5813C124.418 42.7675 124.281 42.914 124.099 43.021C123.921 43.1279 123.719 43.1814 123.493 43.1814ZM125.818 43.1101V38.8322H126.317V43.1101H125.818Z" fill="#B4B4B4"/>
<path fill-rule="evenodd" clip-rule="evenodd" d="M53.4999 41.5317C57.642 41.5317 60.9999 38.1739 60.9999 34.0317C60.9999 29.8896 57.642 26.5317 53.4999 26.5317C49.3577 26.5317 45.9999 29.8896 45.9999 34.0317C45.9999 38.1739 49.3577 41.5317 53.4999 41.5317ZM52.0453 36.3324C52.1877 36.4671 52.3724 36.5335 52.5571 36.5317C52.7418 36.5308 52.9255 36.4625 53.066 36.326L56.7917 32.7096C57.0717 32.4375 57.0688 32.0002 56.7859 31.7317C56.5022 31.4632 56.0452 31.4651 55.7653 31.7372L52.5465 34.861L51.2286 33.6137C50.9448 33.3452 50.4888 33.348 50.2079 33.6202C49.928 33.8923 49.9309 34.3296 50.2147 34.5981L52.0453 36.3324Z" fill="#D80369"/>
</g>
<defs>
<filter id="filter0_d_71_40841" x="0" y="0.0317383" width="200" height="79" filterUnits="userSpaceOnUse" color-interpolation-filters="sRGB">
<feFlood flood-opacity="0" result="BackgroundImageFix"/>
<feColorMatrix in="SourceAlpha" type="matrix" values="0 0 0 0 0 0 0 0 0 0 0 0 0 0 0 0 0 0 127 0" result="hardAlpha"/>
<feOffset dy="5.5"/>
<feGaussianBlur stdDeviation="11"/>
<feComposite in2="hardAlpha" operator="out"/>
<feColorMatrix type="matrix" values="0 0 0 0 0 0 0 0 0 0 0 0 0 0 0 0 0 0 0.15 0"/>
<feBlend mode="normal" in2="BackgroundImageFix" result="effect1_dropShadow_71_40841"/>
<feBlend mode="normal" in="SourceGraphic" in2="effect1_dropShadow_71_40841" result="shape"/>
</filter>
</defs>
</svg>
