<svg width="200" height="114" viewBox="0 0 200 114" fill="none" xmlns="http://www.w3.org/2000/svg">
<g opacity="0.2">
<g filter="url(#filter0_d_71_40199)">
<rect x="20.1284" y="54.7841" width="156" height="35" rx="11.1403" transform="rotate(-15 20.1284 54.7841)" fill="white"/>
<path d="M73.4537 58.8151L71.839 52.7891L74.0686 52.1917C74.5507 52.0625 74.9711 52.036 75.3298 52.1121C75.6885 52.1882 75.983 52.3461 76.2133 52.5858C76.4436 52.8255 76.6057 53.1204 76.6995 53.4705C76.7887 53.8034 76.7963 54.1304 76.7225 54.4516C76.6471 54.7671 76.4746 55.0532 76.2051 55.3099C75.934 55.5609 75.5517 55.7525 75.0582 55.8848L73.9305 56.187L74.5556 58.5199L73.4537 58.8151ZM73.6906 55.2917L74.7494 55.008C75.1339 54.9049 75.3871 54.7479 75.509 54.5369C75.635 54.3186 75.6588 54.0631 75.5804 53.7704C75.5004 53.4719 75.352 53.2626 75.1353 53.1423C74.9227 53.0147 74.6242 53.0024 74.2396 53.1055L73.1808 53.3892L73.6906 55.2917ZM79.8876 57.2019C79.5203 57.3003 79.2036 57.3237 78.9376 57.2719C78.67 57.2145 78.4527 57.1035 78.2856 56.9392C78.1185 56.7748 78.0035 56.575 77.9404 56.3396C77.8343 55.9437 77.9031 55.5807 78.1469 55.2509C78.3907 54.9211 78.8225 54.6732 79.4423 54.5071L80.527 54.2164L80.4993 54.1131C80.4209 53.8204 80.28 53.6275 80.0767 53.5344C79.8734 53.4412 79.6483 53.4277 79.4015 53.4939C79.1777 53.5538 78.9972 53.6606 78.86 53.8143C78.7212 53.9622 78.6594 54.1448 78.6746 54.3622L77.5985 54.6505C77.5442 54.3329 77.5752 54.0355 77.6916 53.7583C77.8138 53.4795 78.0022 53.2414 78.2568 53.044C78.5099 52.8408 78.8144 52.6916 79.1702 52.5963C79.7786 52.4333 80.2985 52.4569 80.7301 52.6673C81.1617 52.8777 81.4521 53.2612 81.6012 53.8179L82.3048 56.4435L81.3664 56.6949L81.0786 56.0339C81.0139 56.2973 80.8867 56.5344 80.6971 56.7451C80.5133 56.9543 80.2434 57.1066 79.8876 57.2019ZM79.9066 56.2741C80.2222 56.1896 80.4385 56.0209 80.5553 55.7682C80.6778 55.5139 80.7213 55.2285 80.6857 54.912L79.7474 55.1635C79.4547 55.2419 79.2598 55.3525 79.1628 55.4954C79.0642 55.6326 79.0357 55.7786 79.0772 55.9336C79.1218 56.1 79.2195 56.2122 79.3704 56.2702C79.5213 56.3282 79.7 56.3295 79.9066 56.2741ZM84.2546 57.9509L84.661 55.5077L84.4027 55.5769L81.6733 52.0363L82.8699 51.7157L84.8715 54.3994L85.3147 51.0606L86.4855 50.7469L85.4254 57.6372L84.2546 57.9509ZM88.35 54.8237L87.2058 50.5538L88.1786 50.2932L88.4279 50.8446C88.5102 50.6011 88.6472 50.3891 88.8387 50.2086C89.0345 50.0208 89.2815 49.8869 89.58 49.807C90.24 49.6301 90.7761 49.7602 91.1885 50.1972C91.2804 49.9203 91.437 49.6785 91.6583 49.4715C91.8854 49.263 92.1539 49.1173 92.4638 49.0342C93.0205 48.8851 93.4927 48.9369 93.8803 49.1899C94.2679 49.4428 94.5479 49.8906 94.7201 50.5334L95.366 52.9438L94.2641 53.239L93.6459 50.9319C93.5474 50.5646 93.4004 50.3026 93.2046 50.1459C93.0146 49.9877 92.7732 49.9478 92.4805 50.0263C92.1821 50.1062 91.9703 50.2798 91.8451 50.5471C91.7256 50.8129 91.7181 51.1409 91.8227 51.5312L92.4132 53.735L91.3113 54.0302L90.6931 51.7231C90.5947 51.3558 90.4476 51.0938 90.2519 50.9371C90.0561 50.7804 89.809 50.7421 89.5106 50.8221C89.2179 50.9005 89.0089 51.0733 88.8837 51.3406C88.7642 51.6064 88.7568 51.9344 88.8613 52.3246L89.4519 54.5284L88.35 54.8237ZM98.5144 52.2109C98.084 52.3262 97.6778 52.3366 97.2957 52.2422C96.9136 52.1477 96.5833 51.9594 96.3047 51.6773C96.0261 51.3952 95.8284 51.036 95.7115 50.5999C95.5931 50.158 95.5796 49.7402 95.671 49.3467C95.7681 48.9516 95.9549 48.6155 96.2312 48.3385C96.5118 48.0542 96.8759 47.852 97.3236 47.7321C97.7425 47.6198 98.1373 47.6125 98.5079 47.71C98.8785 47.8075 99.1958 47.9932 99.4598 48.2669C99.7281 48.5333 99.9145 48.8617 100.019 49.2519C100.036 49.315 100.051 49.3818 100.063 49.4522C100.082 49.5211 100.098 49.5936 100.113 49.6697L96.8671 50.5394C96.9793 50.8661 97.164 51.0964 97.4214 51.2305C97.6844 51.363 97.9652 51.3892 98.2636 51.3093C98.4875 51.2493 98.6609 51.1505 98.784 51.013C98.9113 50.8682 98.9907 50.7054 99.0222 50.5247L100.141 50.2249C100.133 50.5161 100.065 50.799 99.9351 51.0736C99.8099 51.3409 99.6265 51.5746 99.3848 51.7747C99.1489 51.9732 98.8588 52.1186 98.5144 52.2109ZM97.5635 48.6274C97.2937 48.6996 97.0763 48.8409 96.9113 49.0513C96.7446 49.2558 96.6741 49.5208 96.6998 49.8461L98.8261 49.2763C98.7335 48.9997 98.5703 48.8036 98.3363 48.6879C98.1023 48.5722 97.8447 48.552 97.5635 48.6274ZM101.557 51.2849L100.413 47.015L101.386 46.7543L101.666 47.4544C101.73 47.1665 101.865 46.9149 102.072 46.6996C102.285 46.4827 102.56 46.3289 102.899 46.2382C103.427 46.0967 103.882 46.1532 104.264 46.4076C104.646 46.662 104.923 47.1106 105.095 47.7534L105.741 50.1638L104.639 50.4591L104.021 48.152C103.922 47.7847 103.772 47.5235 103.571 47.3683C103.369 47.2132 103.111 47.1779 102.795 47.2625C102.485 47.3455 102.259 47.523 102.117 47.7949C101.98 48.0652 101.964 48.3956 102.068 48.7858L102.659 50.9896L101.557 51.2849ZM108.697 49.3717C108.249 49.4917 107.861 49.4787 107.533 49.3329C107.205 49.1871 106.966 48.8359 106.817 48.2792L106.319 46.4197L105.587 46.6158L105.341 45.6947L106.072 45.4986L105.895 44.3191L106.867 44.0584L107.174 45.2034L108.328 44.8943L108.575 45.8154L107.421 46.1245L107.922 47.9925C107.977 48.1991 108.058 48.3311 108.166 48.3884C108.278 48.4384 108.443 48.4342 108.661 48.3757L109.195 48.2327L109.446 49.171L108.697 49.3717ZM115.252 47.7262C114.643 47.8892 114.086 47.9 113.581 47.7586C113.074 47.6115 112.641 47.337 112.281 46.9352C111.919 46.5276 111.656 46.0168 111.492 45.4027C111.327 44.7886 111.3 44.2148 111.409 43.6811C111.518 43.1475 111.755 42.6902 112.121 42.3093C112.486 41.9285 112.973 41.6565 113.582 41.4935C114.305 41.2998 114.944 41.3222 115.5 41.5607C116.06 41.792 116.485 42.2165 116.773 42.8342L115.56 43.1595C115.397 42.8523 115.168 42.64 114.872 42.5225C114.58 42.3977 114.234 42.3891 113.832 42.4967C113.275 42.6459 112.89 42.9522 112.676 43.4155C112.461 43.8789 112.443 44.4406 112.62 45.1005C112.797 45.7605 113.093 46.2376 113.511 46.5318C113.926 46.8203 114.412 46.8899 114.969 46.7408C115.371 46.6331 115.669 46.4609 115.864 46.2242C116.063 45.9801 116.158 45.6932 116.15 45.3633L117.364 45.038C117.415 45.6886 117.255 46.2512 116.884 46.7259C116.519 47.199 115.975 47.5324 115.252 47.7262ZM120.893 46.2146C120.48 46.3253 120.081 46.3306 119.698 46.2304C119.32 46.1286 118.989 45.9375 118.704 45.6569C118.424 45.369 118.225 45.0042 118.106 44.5622C117.988 44.1203 117.982 43.7068 118.088 43.3217C118.192 42.9308 118.383 42.5968 118.659 42.3198C118.941 42.0412 119.289 41.8465 119.702 41.7358C120.109 41.6266 120.502 41.6229 120.88 41.7246C121.264 41.8248 121.595 42.0189 121.876 42.3067C122.16 42.5873 122.361 42.9486 122.48 43.3905C122.598 43.8324 122.605 44.2488 122.501 44.6397C122.4 45.0233 122.209 45.3544 121.927 45.6329C121.645 45.9115 121.3 46.1054 120.893 46.2146ZM120.637 45.259C120.924 45.1821 121.145 45.0091 121.3 44.7398C121.454 44.4649 121.474 44.115 121.361 43.6903C121.247 43.2656 121.055 42.9756 120.786 42.8201C120.515 42.6589 120.239 42.616 119.958 42.6914C119.665 42.7698 119.442 42.9465 119.288 43.2215C119.138 43.4892 119.12 43.8354 119.234 44.2601C119.348 44.6848 119.537 44.9785 119.802 45.1412C120.072 45.2966 120.35 45.3359 120.637 45.259ZM124.037 45.2614L122.893 40.9915L123.866 40.7309L124.145 41.4309C124.21 41.1431 124.345 40.8914 124.552 40.6761C124.765 40.4592 125.04 40.3054 125.379 40.2147C125.907 40.0732 126.362 40.1297 126.744 40.3841C127.126 40.6386 127.403 41.0872 127.575 41.73L128.221 44.1404L127.119 44.4356L126.501 42.1285C126.402 41.7612 126.252 41.5 126.051 41.3448C125.849 41.1897 125.591 41.1544 125.275 41.239C124.965 41.322 124.739 41.4995 124.597 41.7714C124.46 42.0418 124.444 42.3721 124.548 42.7624L125.139 44.9662L124.037 45.2614ZM129.472 43.805L128.575 40.4562L127.99 40.6131L127.743 39.692L128.328 39.5351L128.194 39.0358C128.056 38.5193 128.087 38.1174 128.287 37.8301C128.492 37.5413 128.819 37.3369 129.266 37.217L129.74 37.0901L129.991 38.0284L129.69 38.1092C129.501 38.1599 129.376 38.2334 129.315 38.3295C129.255 38.4256 129.249 38.5627 129.296 38.7406L129.43 39.2399L132.185 38.5017L133.329 42.7716L132.227 43.0668L131.33 39.7181L129.677 40.161L130.574 43.5097L129.472 43.805ZM131.479 38.0358C131.278 38.0897 131.095 38.074 130.931 37.9889C130.773 37.9022 130.669 37.767 130.619 37.5833C130.57 37.3997 130.593 37.2336 130.689 37.085C130.789 36.9291 130.939 36.8242 131.14 36.7704C131.341 36.7166 131.52 36.733 131.679 36.8197C131.842 36.8991 131.948 37.0306 131.997 37.2143C132.046 37.3979 132.021 37.5677 131.921 37.7236C131.827 37.8779 131.68 37.982 131.479 38.0358ZM134.495 42.4592L133.351 38.1893L134.332 37.9263L134.65 38.6993C134.731 38.3823 134.882 38.1081 135.103 37.8766C135.328 37.6379 135.622 37.4701 135.983 37.3732L136.295 38.5354L135.985 38.6184C135.744 38.683 135.539 38.778 135.369 38.9034C135.2 39.0287 135.085 39.1978 135.025 39.4107C134.971 39.622 134.988 39.8912 135.076 40.2184L135.597 42.1639L134.495 42.4592ZM137.908 41.5446L136.764 37.2748L137.737 37.0141L137.986 37.5655C138.068 37.322 138.205 37.11 138.397 36.9295C138.593 36.7417 138.84 36.6079 139.138 36.5279C139.798 36.351 140.334 36.4811 140.747 36.9181C140.839 36.6412 140.995 36.3994 141.217 36.1924C141.444 35.984 141.712 35.8382 142.022 35.7552C142.579 35.606 143.051 35.6579 143.439 35.9108C143.826 36.1637 144.106 36.6115 144.278 37.2543L144.924 39.6647L143.822 39.9599L143.204 37.6528C143.106 37.2855 142.959 37.0235 142.763 36.8669C142.573 36.7086 142.331 36.6687 142.039 36.7472C141.74 36.8271 141.529 37.0008 141.403 37.2681C141.284 37.5338 141.276 37.8618 141.381 38.2521L141.971 40.4559L140.87 40.7511L140.251 38.444C140.153 38.0767 140.006 37.8147 139.81 37.658C139.614 37.5014 139.367 37.463 139.069 37.543C138.776 37.6214 138.567 37.7943 138.442 38.0615C138.322 38.3273 138.315 38.6553 138.42 39.0456L139.01 41.2494L137.908 41.5446ZM148.073 38.9318C147.642 39.0471 147.236 39.0575 146.854 38.9631C146.472 38.8686 146.142 38.6803 145.863 38.3982C145.584 38.1161 145.387 37.7569 145.27 37.3208C145.151 36.8789 145.138 36.4611 145.229 36.0676C145.326 35.6725 145.513 35.3364 145.789 35.0594C146.07 34.7751 146.434 34.5729 146.882 34.453C147.301 34.3407 147.696 34.3334 148.066 34.4309C148.437 34.5284 148.754 34.7141 149.018 34.9878C149.286 35.2542 149.473 35.5826 149.577 35.9728C149.594 36.036 149.609 36.1027 149.622 36.1731C149.64 36.242 149.657 36.3145 149.671 36.3907L146.425 37.2603C146.537 37.587 146.722 37.8173 146.98 37.9514C147.243 38.0839 147.523 38.1101 147.822 38.0302C148.046 37.9702 148.219 37.8714 148.342 37.7339C148.469 37.5891 148.549 37.4263 148.58 37.2456L149.7 36.9458C149.692 37.237 149.623 37.5199 149.493 37.7945C149.368 38.0618 149.185 38.2955 148.943 38.4956C148.707 38.6941 148.417 38.8395 148.073 38.9318ZM147.122 35.3483C146.852 35.4206 146.635 35.5619 146.469 35.7722C146.303 35.9767 146.232 36.2417 146.258 36.567L148.384 35.9972C148.292 35.7206 148.129 35.5245 147.895 35.4088C147.661 35.2931 147.403 35.2729 147.122 35.3483ZM153.106 37.5832C152.704 37.6908 152.319 37.6893 151.951 37.5788C151.583 37.4682 151.262 37.2683 150.988 36.9789C150.713 36.6895 150.519 36.3296 150.403 35.8991C150.288 35.4687 150.277 35.0625 150.372 34.6804C150.465 34.2926 150.644 33.9617 150.909 33.6877C151.172 33.408 151.505 33.2143 151.906 33.1067C152.228 33.0206 152.525 33.0055 152.798 33.0614C153.072 33.1174 153.312 33.2344 153.52 33.4125L152.846 30.8988L153.948 30.6035L155.609 36.8017L154.628 37.0647L154.343 36.4857C154.256 36.712 154.117 36.9277 153.926 37.1327C153.741 37.3361 153.467 37.4863 153.106 37.5832ZM153.08 36.5567C153.436 36.4614 153.694 36.2661 153.855 35.9708C154.02 35.6682 154.052 35.3304 153.952 34.9574C153.852 34.5844 153.656 34.311 153.363 34.1372C153.075 33.9561 152.753 33.9132 152.397 34.0086C152.047 34.1024 151.789 34.2977 151.622 34.5945C151.456 34.8913 151.422 35.2262 151.522 35.5993C151.622 35.9723 151.819 36.2486 152.113 36.4281C152.408 36.6077 152.73 36.6505 153.08 36.5567Z" fill="#262626"/>
<path d="M75.5921 67.4386L74.5156 63.4212L75.8356 63.0675C76.1494 62.9835 76.4214 62.9659 76.6519 63.0149C76.8824 63.0639 77.069 63.1635 77.2118 63.3139C77.3584 63.4633 77.4615 63.6489 77.521 63.8708C77.5794 64.0889 77.5844 64.2987 77.5359 64.5004C77.4874 64.702 77.3761 64.8835 77.202 65.045C77.0269 65.2026 76.7806 65.324 76.463 65.4091L75.6251 65.6336L76.0742 67.3094L75.5921 67.4386ZM75.5159 65.2261L76.3424 65.0047C76.6638 64.9186 76.8735 64.7906 76.9715 64.6208C77.0723 64.4462 77.091 64.2403 77.0274 64.003C76.9628 63.762 76.8437 63.593 76.6701 63.496C76.4993 63.3941 76.2532 63.3862 75.9318 63.4724L75.1054 63.6938L75.5159 65.2261ZM79.7178 66.4069C79.4806 66.4705 79.2727 66.4831 79.0944 66.4448C78.916 66.4065 78.7706 66.3306 78.6582 66.2172C78.5458 66.1038 78.4685 65.9687 78.4265 65.8118C78.3486 65.521 78.3996 65.2675 78.5794 65.0511C78.7593 64.8348 79.0406 64.6754 79.4232 64.5729L80.1922 64.3668L80.183 64.3324C80.1163 64.0837 80.0011 63.9136 79.8371 63.8222C79.6722 63.727 79.4807 63.7086 79.2626 63.767C79.0751 63.8173 78.9253 63.9087 78.8132 64.0412C78.7039 64.1689 78.6561 64.3273 78.6699 64.5164L78.1763 64.6486C78.1401 64.4369 78.1623 64.2443 78.243 64.071C78.3275 63.8966 78.4499 63.749 78.6103 63.6281C78.7696 63.5034 78.9506 63.4139 79.1534 63.3596C79.5513 63.2529 79.8785 63.2801 80.1348 63.4411C80.394 63.5971 80.5707 63.8512 80.6651 64.2032L81.1341 65.9536L80.7036 66.0689L80.5381 65.5658C80.5008 65.7481 80.4191 65.9176 80.293 66.0744C80.1697 66.2264 79.9779 66.3372 79.7178 66.4069ZM79.6832 65.9795C79.8668 65.9302 80.0109 65.8404 80.1154 65.7099C80.2236 65.5783 80.2917 65.4268 80.3196 65.2553C80.3474 65.0838 80.3388 64.9139 80.2937 64.7456L80.2922 64.7398L79.5633 64.9351C79.2802 65.011 79.0926 65.1146 79.0007 65.2458C78.9115 65.3722 78.8864 65.5081 78.9254 65.6535C78.9654 65.8027 79.0512 65.9089 79.183 65.972C79.3175 66.0303 79.4842 66.0328 79.6832 65.9795ZM82.4214 66.9619L82.7152 65.2347L82.5488 65.2793L80.7293 63.0111L81.2515 62.8712L82.7863 64.8343L83.1913 62.3514L83.6906 62.2176L82.9265 66.8266L82.4214 66.9619ZM84.9622 64.9279L84.1995 62.0813L84.6356 61.9644L84.7808 62.3684C84.8316 62.1908 84.9223 62.0393 85.0528 61.9142C85.1832 61.789 85.3441 61.7008 85.5354 61.6495C85.7612 61.589 85.9667 61.5832 86.152 61.6319C86.3411 61.6797 86.5048 61.7855 86.643 61.9494C86.6964 61.7506 86.7958 61.5783 86.9413 61.4327C87.0907 61.2861 87.2667 61.1856 87.4695 61.1313C87.81 61.04 88.1093 61.0705 88.3675 61.2228C88.6246 61.3713 88.8101 61.6578 88.9239 62.0825L89.3698 63.7468L88.8935 63.8745L88.4613 62.2618C88.3824 61.9672 88.2636 61.7612 88.1051 61.6437C87.9465 61.5263 87.7562 61.4973 87.5343 61.5568C87.3047 61.6183 87.1375 61.7595 87.0327 61.9803C86.9306 62.1963 86.9237 62.4688 87.0118 62.7978L87.407 64.2728L86.925 64.4019L86.4929 62.7893C86.4139 62.4947 86.2951 62.2886 86.1366 62.1712C85.978 62.0538 85.7877 62.0248 85.5658 62.0842C85.3401 62.1447 85.1748 62.2854 85.0699 62.5062C84.9679 62.7222 84.9609 62.9947 85.0491 63.3237L85.4443 64.7987L84.9622 64.9279ZM91.3942 63.2782C91.1226 63.351 90.8651 63.3544 90.6219 63.2883C90.3776 63.2185 90.1646 63.089 89.9827 62.8999C89.8046 62.7097 89.6751 62.4635 89.5941 62.1613C89.5141 61.8628 89.5037 61.5868 89.5629 61.3331C89.621 61.0756 89.7389 60.8574 89.9165 60.6786C90.0969 60.4949 90.3268 60.3657 90.6061 60.2908C90.8815 60.217 91.1357 60.2166 91.3685 60.2895C91.6041 60.3576 91.8026 60.4787 91.964 60.6528C92.1255 60.8269 92.2375 61.0306 92.3 61.264C92.3113 61.3061 92.3207 61.3487 92.3281 61.3918C92.3394 61.4339 92.3522 61.4817 92.3666 61.5353L90.0996 62.1427C90.1696 62.3577 90.268 62.5261 90.395 62.6479C90.5247 62.7649 90.6663 62.8418 90.8197 62.8786C90.9769 62.9144 91.132 62.9117 91.2851 62.8707C91.484 62.8174 91.6381 62.7269 91.7474 62.5992C91.8568 62.4715 91.921 62.321 91.9402 62.1478L92.4165 62.0201C92.4107 62.3046 92.3224 62.5641 92.1515 62.7985C91.9833 63.0281 91.7309 63.188 91.3942 63.2782ZM90.7038 60.7014C90.4742 60.7629 90.2885 60.8885 90.1466 61.0783C90.0075 61.2632 89.9605 61.4931 90.0054 61.7681L91.796 61.2883C91.7159 61.0351 91.574 60.8578 91.3706 60.7565C91.1671 60.6552 90.9448 60.6368 90.7038 60.7014ZM93.3634 62.6768L92.6007 59.8302L93.0369 59.7133L93.2024 60.2164C93.2461 60.012 93.3401 59.835 93.4846 59.6856C93.6291 59.5362 93.8104 59.4322 94.0285 59.3738C94.3652 59.2836 94.6607 59.3151 94.915 59.4684C95.1721 59.6169 95.3576 59.9034 95.4714 60.3281L95.9173 61.9924L95.4352 62.1216L95.0031 60.5089C94.8442 59.9159 94.5199 59.685 94.0302 59.8162C93.7853 59.8818 93.6047 60.0266 93.4884 60.2505C93.3748 60.4696 93.3621 60.7436 93.4503 61.0726L93.8455 62.5476L93.3634 62.6768ZM97.7726 61.4953C97.5124 61.5651 97.2908 61.5568 97.1077 61.4705C96.9247 61.3842 96.7891 61.1766 96.7009 60.8475L96.2811 59.2808L95.7875 59.413L95.6784 59.0055L96.1719 58.8733L96.052 58.1734L96.471 58.0612L96.654 58.7441L97.4919 58.5196L97.6011 58.9271L96.7632 59.1516L97.183 60.7183C97.2312 60.8982 97.3003 61.0109 97.3904 61.0564C97.4795 61.0982 97.6159 61.0944 97.7996 61.0452L98.098 60.9653L98.2087 61.3785L97.7726 61.4953ZM101.495 60.5718C101.154 60.663 100.848 60.6528 100.576 60.5411C100.304 60.4294 100.11 60.2314 99.9926 59.9471L100.486 59.8148C100.557 59.9558 100.67 60.0649 100.826 60.142C100.985 60.2143 101.173 60.2212 101.391 60.1628C101.594 60.1084 101.732 60.0264 101.805 59.9166C101.877 59.8029 101.897 59.6868 101.866 59.5682C101.819 59.396 101.726 59.2982 101.584 59.2746C101.446 59.25 101.258 59.245 101.02 59.2596C100.859 59.27 100.694 59.267 100.526 59.2506C100.357 59.2342 100.208 59.1882 100.077 59.1126C99.9446 59.0332 99.8555 58.9073 99.8094 58.7352C99.7427 58.4865 99.7802 58.2591 99.9218 58.053C100.066 57.8421 100.297 57.6941 100.615 57.609C100.917 57.528 101.184 57.5384 101.417 57.6402C101.652 57.7371 101.822 57.9211 101.927 58.1922L101.451 58.3199C101.393 58.1796 101.3 58.0836 101.171 58.032C101.045 57.9755 100.894 57.9708 100.718 58.018C100.546 58.0641 100.422 58.1364 100.346 58.2347C100.273 58.332 100.253 58.4399 100.285 58.5586C100.316 58.6733 100.399 58.7474 100.535 58.7806C100.675 58.8129 100.854 58.8242 101.073 58.8148C101.259 58.8059 101.439 58.8091 101.611 58.8245C101.786 58.835 101.938 58.8824 102.067 58.9667C102.199 59.0462 102.293 59.1892 102.348 59.3958C102.421 59.6511 102.38 59.8896 102.226 60.1112C102.075 60.3281 101.831 60.4816 101.495 60.5718ZM104.313 59.8167C103.976 59.9069 103.681 59.8773 103.428 59.7278C103.173 59.5746 102.989 59.2856 102.876 58.8609L102.43 57.1965L102.912 57.0674L103.344 58.68C103.503 59.2731 103.825 59.5045 104.311 59.3743C104.56 59.3077 104.741 59.1648 104.854 58.9458C104.971 58.7219 104.985 58.4454 104.897 58.1163L104.501 56.6414L104.983 56.5122L105.746 59.3588L105.31 59.4757L105.139 58.9741C105.099 59.1775 105.005 59.3545 104.857 59.5049C104.712 59.6544 104.531 59.7583 104.313 59.8167ZM107.867 58.8644C107.595 58.9372 107.334 58.9416 107.083 58.8776C106.835 58.8088 106.618 58.6803 106.432 58.4922C106.249 58.2993 106.118 58.0536 106.038 57.7552C105.958 57.4568 105.949 57.1802 106.012 56.9255C106.078 56.6659 106.202 56.4462 106.383 56.2664C106.567 56.0817 106.795 55.9529 107.067 55.8801C107.404 55.7899 107.71 55.802 107.987 55.9165C108.268 56.03 108.478 56.2258 108.618 56.504L108.125 56.6363C108.039 56.4705 107.909 56.3598 107.734 56.3042C107.558 56.2447 107.371 56.2416 107.172 56.2949C107.011 56.3379 106.871 56.4186 106.751 56.5369C106.631 56.6552 106.548 56.8064 106.503 56.9907C106.459 57.175 106.468 57.3857 106.531 57.6229C106.595 57.8602 106.692 58.0473 106.823 58.1844C106.954 58.3215 107.102 58.4132 107.266 58.4595C107.429 58.5019 107.591 58.5016 107.752 58.4585C107.951 58.4052 108.112 58.3107 108.236 58.1751C108.358 58.0356 108.414 57.8709 108.405 57.6808L108.898 57.5485C108.918 57.8509 108.835 58.1232 108.65 58.3656C108.464 58.6079 108.203 58.7742 107.867 58.8644ZM111.14 57.9874C110.868 58.0602 110.607 58.0646 110.356 58.0006C110.108 57.9318 109.891 57.8033 109.705 57.6152C109.522 57.4223 109.391 57.1766 109.311 56.8782C109.231 56.5797 109.222 56.3032 109.285 56.0485C109.351 55.7889 109.475 55.5692 109.656 55.3893C109.84 55.2046 110.068 55.0759 110.34 55.0031C110.677 54.9129 110.983 54.925 111.26 55.0395C111.541 55.153 111.751 55.3488 111.891 55.627L111.398 55.7593C111.312 55.5935 111.182 55.4828 111.007 55.4271C110.831 55.3676 110.644 55.3646 110.445 55.4179C110.284 55.4609 110.144 55.5416 110.024 55.6599C109.904 55.7781 109.821 55.9294 109.777 56.1137C109.732 56.298 109.741 56.5087 109.804 56.7459C109.868 56.9831 109.965 57.1703 110.096 57.3074C110.227 57.4445 110.375 57.5362 110.539 57.5825C110.702 57.6249 110.864 57.6245 111.025 57.5815C111.224 57.5282 111.385 57.4337 111.509 57.2981C111.631 57.1586 111.688 56.9938 111.678 56.8038L112.171 56.6715C112.191 56.9739 112.108 57.2462 111.923 57.4886C111.737 57.7309 111.476 57.8972 111.14 57.9874ZM114.384 57.1181C114.112 57.1909 113.855 57.1943 113.612 57.1282C113.368 57.0583 113.154 56.9288 112.973 56.7397C112.794 56.5496 112.665 56.3034 112.584 56.0012C112.504 55.7027 112.494 55.4267 112.553 55.173C112.611 54.9155 112.729 54.6973 112.906 54.5185C113.087 54.3348 113.317 54.2056 113.596 54.1307C113.871 54.0569 114.126 54.0565 114.358 54.1294C114.594 54.1975 114.792 54.3186 114.954 54.4927C115.115 54.6668 115.227 54.8705 115.29 55.1039C115.301 55.146 115.311 55.1886 115.318 55.2317C115.329 55.2738 115.342 55.3216 115.356 55.3751L113.09 55.9826C113.159 56.1976 113.258 56.366 113.385 56.4878C113.515 56.6048 113.656 56.6816 113.81 56.7185C113.967 56.7542 114.122 56.7516 114.275 56.7106C114.474 56.6573 114.628 56.5668 114.737 56.4391C114.847 56.3114 114.911 56.1609 114.93 55.9876L115.406 55.86C115.401 56.1445 115.312 56.404 115.141 56.6384C114.973 56.868 114.721 57.0279 114.384 57.1181ZM113.694 54.5413C113.464 54.6028 113.278 54.7284 113.136 54.9181C112.997 55.103 112.95 55.333 112.995 55.608L114.786 55.1282C114.706 54.8749 114.564 54.6976 114.36 54.5963C114.157 54.495 113.935 54.4767 113.694 54.5413ZM117.462 56.2933C117.122 56.3846 116.815 56.3744 116.544 56.2627C116.272 56.151 116.077 55.953 115.96 55.6686L116.454 55.5364C116.524 55.6774 116.637 55.7864 116.793 55.8636C116.952 55.9358 117.141 55.9428 117.359 55.8843C117.562 55.83 117.699 55.7479 117.773 55.6381C117.845 55.5245 117.865 55.4084 117.833 55.2898C117.787 55.1176 117.693 55.0197 117.551 54.9962C117.414 54.9716 117.226 54.9666 116.988 54.9812C116.826 54.9915 116.661 54.9886 116.493 54.9722C116.325 54.9558 116.175 54.9098 116.044 54.8342C115.912 54.7547 115.823 54.6289 115.777 54.4567C115.71 54.208 115.748 53.9807 115.889 53.7746C116.034 53.5637 116.265 53.4156 116.582 53.3306C116.884 53.2496 117.152 53.26 117.384 53.3617C117.619 53.4587 117.789 53.6427 117.895 53.9138L117.419 54.0414C117.36 53.9012 117.267 53.8052 117.138 53.7536C117.013 53.6971 116.862 53.6924 116.686 53.7396C116.513 53.7857 116.389 53.8579 116.313 53.9563C116.241 54.0535 116.22 54.1615 116.252 54.2801C116.283 54.3949 116.366 54.4689 116.502 54.5022C116.642 54.5344 116.822 54.5458 117.041 54.5364C117.227 54.5275 117.406 54.5307 117.578 54.546C117.753 54.5566 117.906 54.604 118.035 54.6883C118.167 54.7677 118.26 54.9107 118.316 55.1173C118.388 55.3727 118.348 55.6111 118.194 55.8328C118.043 56.0496 117.799 56.2031 117.462 56.2933ZM120.332 55.5244C119.991 55.6157 119.685 55.6055 119.413 55.4938C119.141 55.3821 118.947 55.1841 118.83 54.8997L119.323 54.7675C119.394 54.9085 119.507 55.0176 119.663 55.0947C119.822 55.167 120.01 55.1739 120.228 55.1154C120.431 55.0611 120.569 54.979 120.642 54.8692C120.714 54.7556 120.734 54.6395 120.703 54.5209C120.656 54.3487 120.562 54.2508 120.421 54.2273C120.283 54.2027 120.095 54.1977 119.857 54.2123C119.696 54.2227 119.531 54.2197 119.363 54.2033C119.194 54.1869 119.044 54.1409 118.913 54.0653C118.781 53.9858 118.692 53.86 118.646 53.6878C118.58 53.4392 118.617 53.2118 118.759 53.0057C118.903 52.7948 119.134 52.6468 119.452 52.5617C119.754 52.4807 120.021 52.4911 120.254 52.5929C120.489 52.6898 120.659 52.8738 120.764 53.1449L120.288 53.2725C120.23 53.1323 120.137 53.0363 120.008 52.9847C119.882 52.9282 119.731 52.9235 119.555 52.9707C119.383 53.0168 119.259 53.089 119.183 53.1874C119.11 53.2847 119.09 53.3926 119.122 53.5112C119.153 53.626 119.236 53.7 119.372 53.7333C119.512 53.7655 119.691 53.7769 119.91 53.7675C120.096 53.7586 120.276 53.7618 120.448 53.7772C120.623 53.7877 120.775 53.8351 120.904 53.9194C121.036 53.9988 121.13 54.1418 121.185 54.3485C121.258 54.6038 121.217 54.8423 121.063 55.0639C120.912 55.2807 120.668 55.4342 120.332 55.5244ZM122.247 54.9373L121.594 52.4982L121.163 52.6136L121.054 52.2061L121.485 52.0908L121.352 51.5972C121.279 51.3217 121.294 51.1024 121.397 50.9393C121.501 50.7761 121.685 50.6591 121.949 50.5884L122.236 50.5115L122.347 50.9247L122.135 50.9816C121.989 51.0206 121.894 51.0789 121.849 51.1565C121.803 51.2303 121.8 51.338 121.837 51.4795L121.967 51.9616L122.667 51.774L122.776 52.1815L122.076 52.3691L122.729 54.8082L122.247 54.9373ZM125.061 54.2573C124.724 54.3475 124.429 54.3179 124.176 54.1684C123.921 54.0151 123.737 53.7261 123.624 53.3014L123.178 51.6371L123.66 51.5079L124.092 53.1206C124.251 53.7137 124.573 53.9451 125.059 53.8149C125.308 53.7482 125.489 53.6054 125.602 53.3863C125.719 53.1624 125.733 52.886 125.645 52.5569L125.249 51.082L125.732 50.9528L126.494 53.7994L126.058 53.9163L125.887 53.4147C125.847 53.6181 125.753 53.795 125.605 53.9455C125.46 54.0949 125.279 54.1989 125.061 54.2573ZM127.288 53.5868L126.181 49.4546L126.663 49.3255L127.77 53.4576L127.288 53.5868Z" fill="#B4B4B4"/>
<path fill-rule="evenodd" clip-rule="evenodd" d="M57.0255 70.7794C61.0265 69.7074 63.4008 65.5948 62.3288 61.5938C61.2567 57.5929 57.1442 55.2185 53.1432 56.2905C49.1422 57.3626 46.7678 61.4751 47.8399 65.4761C48.9119 69.4771 53.0245 71.8515 57.0255 70.7794ZM54.2748 66.1338C54.4472 66.227 54.6428 66.2434 54.8207 66.1938C54.9989 66.1451 55.1587 66.0316 55.259 65.8634L57.9218 61.4059C58.1218 61.0706 58.0058 60.6489 57.6631 60.4628C57.3195 60.277 56.8786 60.397 56.6787 60.7323L54.3781 64.5827L52.7822 63.719C52.4386 63.5332 51.9989 63.6539 51.798 63.9895C51.5981 64.3248 51.714 64.7464 52.0576 64.9323L54.2748 66.1338Z" fill="#D80369"/>
</g>
</g>
<defs>
<filter id="filter0_d_71_40199" x="0.629395" y="0.409302" width="198.741" height="113.181" filterUnits="userSpaceOnUse" color-interpolation-filters="sRGB">
<feFlood flood-opacity="0" result="BackgroundImageFix"/>
<feColorMatrix in="SourceAlpha" type="matrix" values="0 0 0 0 0 0 0 0 0 0 0 0 0 0 0 0 0 0 127 0" result="hardAlpha"/>
<feOffset dy="5.5"/>
<feGaussianBlur stdDeviation="11"/>
<feComposite in2="hardAlpha" operator="out"/>
<feColorMatrix type="matrix" values="0 0 0 0 0 0 0 0 0 0 0 0 0 0 0 0 0 0 0.2 0"/>
<feBlend mode="normal" in2="BackgroundImageFix" result="effect1_dropShadow_71_40199"/>
<feBlend mode="normal" in="SourceGraphic" in2="effect1_dropShadow_71_40199" result="shape"/>
</filter>
</defs>
</svg>
