<svg width="200" height="105" viewBox="0 0 200 105" fill="none" xmlns="http://www.w3.org/2000/svg">
<g opacity="0.2">
<g filter="url(#filter0_d_71_40831)">
<rect x="26.8469" y="14.8" width="156" height="35" rx="11.1403" transform="rotate(11.1332 26.8469 14.8)" fill="white"/>
<path d="M72.9453 41.9066L74.1499 35.7854L76.4148 36.2311C76.9045 36.3275 77.2936 36.4889 77.5821 36.7152C77.8706 36.9415 78.0655 37.213 78.1666 37.5296C78.2678 37.8463 78.2834 38.1824 78.2134 38.538C78.1469 38.8761 78.0097 39.1731 77.802 39.4289C77.5953 39.6789 77.3145 39.8598 76.9594 39.9716C76.6055 40.0776 76.1779 40.0812 75.6765 39.9825L74.531 39.7571L74.0646 42.1269L72.9453 41.9066ZM74.71 38.8477L75.7855 39.0593C76.1761 39.1362 76.4726 39.1068 76.6749 38.971C76.8842 38.8305 77.0181 38.6116 77.0767 38.3143C77.1363 38.0111 77.0953 37.7578 76.9537 37.5543C76.8191 37.3462 76.5564 37.2037 76.1659 37.1268L75.0903 36.9151L74.71 38.8477ZM79.4321 43.2922C79.059 43.2188 78.7644 43.1002 78.5484 42.9366C78.3334 42.7671 78.1872 42.5718 78.1096 42.3507C78.032 42.1295 78.0167 41.8994 78.0638 41.6604C78.1429 41.2582 78.3646 40.9627 78.7287 40.7739C79.0929 40.5852 79.5897 40.5528 80.2193 40.6767L81.3211 40.8935L81.3418 40.7886C81.4003 40.4913 81.3588 40.256 81.2173 40.0829C81.0757 39.9097 80.8796 39.7984 80.629 39.7491C80.4016 39.7044 80.1925 39.7207 80.0016 39.7982C79.8119 39.8699 79.676 40.0066 79.5939 40.2085L78.5008 39.9934C78.5919 39.6843 78.7508 39.431 78.9774 39.2333C79.2098 39.0369 79.4839 38.9061 79.7994 38.841C80.1162 38.7701 80.4552 38.7703 80.8167 38.8414C81.4346 38.963 81.891 39.2133 82.1858 39.5922C82.4806 39.9712 82.5724 40.4434 82.4611 41.0089L81.9362 43.676L80.9831 43.4884L81.0158 42.7682C80.8417 42.9761 80.6231 43.1329 80.3601 43.2386C80.1029 43.3455 79.7936 43.3633 79.4321 43.2922ZM79.8578 42.4676C80.1784 42.5307 80.4469 42.4745 80.663 42.2991C80.8851 42.1248 81.0498 41.8877 81.1572 41.5879L80.2041 41.4004C79.9068 41.3419 79.6831 41.3554 79.533 41.4409C79.3841 41.5206 79.2942 41.6391 79.2632 41.7965C79.2299 41.9656 79.2683 42.1094 79.3782 42.2279C79.4881 42.3464 79.6479 42.4263 79.8578 42.4676ZM83.0228 45.8881L84.4638 43.8736L84.2014 43.822L83.3105 39.4411L84.526 39.6804L85.1409 42.9714L87.0094 40.1691L88.1987 40.4031L84.212 46.1221L83.0228 45.8881ZM88.0769 44.8844L88.9304 40.5471L89.9186 40.7416L89.8995 41.3464C90.0807 41.1641 90.297 41.0341 90.5485 40.9564C90.8069 40.874 91.0877 40.8627 91.3908 40.9223C92.0612 41.0542 92.4853 41.4072 92.663 41.9811C92.8675 41.773 93.1146 41.6249 93.4045 41.5366C93.7002 41.4495 94.0054 41.4369 94.3202 41.4988C94.8857 41.6101 95.2868 41.8646 95.5234 42.2624C95.76 42.6602 95.814 43.1855 95.6855 43.8385L95.2037 46.2869L94.0844 46.0667L94.5456 43.7231C94.619 43.35 94.6023 43.05 94.4956 42.8231C94.3947 42.5974 94.1956 42.4553 93.8983 42.3968C93.5951 42.3371 93.3285 42.3997 93.0983 42.5845C92.874 42.7705 92.7229 43.0617 92.6449 43.4581L92.2043 45.6967L91.085 45.4764L91.5462 43.1329C91.6196 42.7598 91.603 42.4598 91.4962 42.2329C91.3895 42.006 91.1846 41.8627 90.8814 41.8031C90.5841 41.7445 90.3204 41.8077 90.0902 41.9925C89.8659 42.1785 89.7147 42.4697 89.6367 42.8661L89.1962 45.1047L88.0769 44.8844ZM98.3531 47.0157C97.9159 46.9297 97.5466 46.7601 97.2452 46.507C96.9438 46.2539 96.7301 45.9394 96.6043 45.5634C96.4785 45.1874 96.4591 44.7779 96.5463 44.3349C96.6347 43.886 96.8065 43.505 97.0619 43.1919C97.3231 42.88 97.6388 42.6605 98.009 42.5336C98.3861 42.4019 98.802 42.3808 99.2567 42.4703C99.6823 42.554 100.04 42.7213 100.33 42.9721C100.619 43.2229 100.823 43.5293 100.939 43.8913C101.063 44.2487 101.085 44.6256 101.007 45.022C100.995 45.0861 100.978 45.1526 100.959 45.2214C100.945 45.2913 100.928 45.3636 100.907 45.4383L97.6104 44.7895C97.5672 45.1322 97.6316 45.4204 97.8036 45.6541C97.9814 45.8889 98.2219 46.0362 98.5251 46.0958C98.7524 46.1406 98.9517 46.1283 99.1227 46.059C99.3008 45.9851 99.4438 45.8739 99.5517 45.7256L100.688 45.9493C100.553 46.2073 100.367 46.431 100.129 46.6205C99.8993 46.8053 99.6317 46.9343 99.3267 47.0075C99.0274 47.0818 98.7029 47.0846 98.3531 47.0157ZM99.0778 43.3797C98.8038 43.3258 98.5464 43.3569 98.3055 43.473C98.0658 43.5833 97.8858 43.7901 97.7656 44.0934L99.9255 44.5184C99.9642 44.2294 99.904 43.9813 99.7449 43.7744C99.5858 43.5675 99.3634 43.4359 99.0778 43.3797ZM101.493 47.5246L102.346 43.1873L103.334 43.3817L103.277 44.1335C103.462 43.9034 103.694 43.7372 103.975 43.6349C104.261 43.5338 104.576 43.5171 104.92 43.5848C105.457 43.6904 105.84 43.9415 106.071 44.3381C106.302 44.7347 106.353 45.2595 106.224 45.9124L105.742 48.3609L104.623 48.1406L105.084 45.7971C105.158 45.424 105.138 45.1234 105.026 44.8954C104.913 44.6673 104.696 44.5218 104.376 44.4587C104.061 44.3967 103.78 44.4564 103.532 44.6378C103.29 44.8203 103.13 45.1098 103.052 45.5062L102.612 47.7448L101.493 47.5246ZM108.745 48.9519C108.291 48.8624 107.948 48.6799 107.718 48.4044C107.487 48.129 107.428 47.7085 107.539 47.1431L107.911 45.2542L107.167 45.108L107.352 44.1723L108.095 44.3186L108.455 43.1814L109.443 43.3758L109.214 44.5388L110.386 44.7694L110.202 45.7051L109.03 45.4745L108.657 47.3721C108.615 47.5819 108.63 47.7363 108.702 47.8351C108.78 47.9293 108.93 47.9981 109.151 48.0417L109.694 48.1484L109.506 49.1016L108.745 48.9519ZM115.355 50.3615C114.737 50.2399 114.232 50.0043 113.841 49.6548C113.45 49.2995 113.182 48.8622 113.036 48.3429C112.891 47.8178 112.88 47.2434 113.003 46.6196C113.125 45.9959 113.353 45.4685 113.686 45.0375C114.02 44.6065 114.434 44.3005 114.93 44.1195C115.426 43.9385 115.983 43.9089 116.6 44.0305C117.335 44.175 117.899 44.4768 118.293 44.9359C118.695 45.3902 118.889 45.9583 118.876 46.64L117.643 46.3973C117.632 46.0501 117.52 45.7586 117.306 45.5227C117.099 45.2821 116.791 45.1217 116.383 45.0414C115.818 44.9301 115.337 45.0353 114.941 45.357C114.544 45.6786 114.28 46.1747 114.148 46.8451C114.016 47.5155 114.073 48.0746 114.318 48.5225C114.564 48.9645 114.97 49.2412 115.535 49.3525C115.943 49.4328 116.287 49.4096 116.566 49.2829C116.852 49.1515 117.064 48.9358 117.202 48.6359L118.435 48.8786C118.194 49.4852 117.803 49.9199 117.261 50.1826C116.725 50.4464 116.089 50.5061 115.355 50.3615ZM121.085 51.4892C120.665 51.4066 120.305 51.2359 120.005 50.9769C119.71 50.7192 119.497 50.4017 119.366 50.0246C119.241 49.6428 119.223 49.2274 119.311 48.7785C119.4 48.3297 119.576 47.9556 119.841 47.6565C120.107 47.3516 120.425 47.1356 120.795 47.0086C121.171 46.8828 121.569 46.8612 121.989 46.9438C122.402 47.0252 122.757 47.1948 123.051 47.4526C123.351 47.7115 123.564 48.0319 123.688 48.4137C123.82 48.7908 123.842 49.2039 123.753 49.6527C123.665 50.1016 123.488 50.4785 123.222 50.7835C122.963 51.0838 122.646 51.2968 122.27 51.4226C121.894 51.5485 121.499 51.5707 121.085 51.4892ZM121.276 50.5186C121.567 50.5759 121.842 50.518 122.1 50.3447C122.36 50.1657 122.532 49.8604 122.617 49.429C122.702 48.9976 122.657 48.6529 122.484 48.3947C122.312 48.1307 122.083 47.9706 121.798 47.9144C121.5 47.8559 121.222 47.9162 120.963 48.0953C120.71 48.2697 120.542 48.5726 120.457 49.004C120.372 49.4354 120.413 49.7825 120.579 50.0453C120.752 50.3035 120.984 50.4612 121.276 50.5186ZM124.327 52.0183L125.181 47.681L126.169 47.8755L126.112 48.6273C126.297 48.3971 126.529 48.231 126.81 48.1287C127.096 48.0276 127.411 48.0109 127.755 48.0786C128.291 48.1842 128.675 48.4352 128.906 48.8319C129.137 49.2285 129.188 49.7533 129.059 50.4062L128.577 52.8547L127.458 52.6344L127.919 50.2909C127.993 49.9178 127.973 49.6172 127.86 49.3892C127.748 49.1611 127.531 49.0156 127.211 48.9525C126.896 48.8905 126.615 48.9502 126.367 49.1316C126.125 49.3141 125.965 49.6036 125.887 50L125.447 52.2386L124.327 52.0183ZM129.849 53.1049L130.518 49.7033L129.924 49.5863L130.108 48.6506L130.702 48.7676L130.802 48.2604C130.905 47.7357 131.11 47.3885 131.416 47.2186C131.728 47.0498 132.111 47.0102 132.566 47.0997L133.047 47.1943L132.859 48.1475L132.553 48.0872C132.361 48.0494 132.216 48.0603 132.12 48.12C132.023 48.1797 131.957 48.3 131.921 48.4807L131.822 48.9879L134.62 49.5386L133.766 53.8759L132.647 53.6556L133.316 50.254L131.637 49.9235L130.968 53.3252L129.849 53.1049ZM134.191 48.8093C133.987 48.7691 133.83 48.6746 133.72 48.5258C133.616 48.3782 133.582 48.2111 133.619 48.0245C133.656 47.838 133.75 47.699 133.901 47.6077C134.059 47.5116 134.24 47.4837 134.444 47.5238C134.648 47.564 134.802 47.6579 134.906 47.8056C135.018 47.9485 135.055 48.1133 135.018 48.2999C134.981 48.4864 134.884 48.6277 134.726 48.7237C134.573 48.8209 134.395 48.8494 134.191 48.8093ZM134.951 54.1089L135.804 49.7716L136.801 49.9678L136.746 50.8017C136.959 50.5529 137.215 50.3732 137.515 50.2628C137.822 50.1476 138.16 50.1262 138.527 50.1985L138.295 51.379L137.98 51.317C137.735 51.2688 137.509 51.2637 137.302 51.3016C137.094 51.3396 136.917 51.4409 136.769 51.6057C136.628 51.7716 136.524 52.0207 136.459 52.3529L136.07 54.3292L134.951 54.1089ZM138.418 54.7912L139.271 50.4539L140.259 50.6484L140.24 51.2532C140.422 51.0709 140.638 50.9409 140.889 50.8632C141.148 50.7808 141.429 50.7695 141.732 50.8291C142.402 50.9611 142.826 51.314 143.004 51.8879C143.208 51.6799 143.456 51.5317 143.745 51.4434C144.041 51.3563 144.346 51.3437 144.661 51.4056C145.227 51.5169 145.628 51.7714 145.864 52.1692C146.101 52.567 146.155 53.0924 146.026 53.7453L145.545 56.1938L144.425 55.9735L144.886 53.6299C144.96 53.2568 144.943 52.9568 144.837 52.73C144.736 52.5042 144.537 52.3621 144.239 52.3036C143.936 52.2439 143.669 52.3065 143.439 52.4913C143.215 52.6773 143.064 52.9685 142.986 53.3649L142.545 55.6035L141.426 55.3832L141.887 53.0397C141.961 52.6666 141.944 52.3666 141.837 52.1397C141.73 51.9128 141.525 51.7695 141.222 51.7099C140.925 51.6514 140.661 51.7145 140.431 51.8993C140.207 52.0853 140.056 52.3765 139.978 52.7729L139.537 55.0115L138.418 54.7912ZM148.694 56.9226C148.257 56.8365 147.888 56.6669 147.586 56.4138C147.285 56.1608 147.071 55.8462 146.945 55.4702C146.819 55.0943 146.8 54.6847 146.887 54.2417C146.976 53.7928 147.147 53.4118 147.403 53.0987C147.664 52.7868 147.98 52.5674 148.35 52.4404C148.727 52.3087 149.143 52.2876 149.598 52.3771C150.023 52.4609 150.381 52.6281 150.671 52.8789C150.96 53.1297 151.163 53.4361 151.28 53.7982C151.403 54.1555 151.426 54.5324 151.348 54.9288C151.336 54.9929 151.319 55.0594 151.3 55.1282C151.286 55.1982 151.269 55.2705 151.248 55.3451L147.951 54.6963C147.908 55.039 147.973 55.3272 148.145 55.5609C148.322 55.7958 148.563 55.943 148.866 56.0027C149.093 56.0474 149.293 56.0351 149.464 55.9659C149.642 55.8919 149.785 55.7808 149.893 55.6324L151.029 55.8562C150.894 56.1141 150.708 56.3378 150.47 56.5273C150.24 56.7121 149.973 56.8411 149.668 56.9143C149.368 56.9886 149.044 56.9914 148.694 56.9226ZM149.419 53.2865C149.145 53.2326 148.887 53.2637 148.646 53.3798C148.407 53.4901 148.227 53.6969 148.107 54.0002L150.266 54.4253C150.305 54.1362 150.245 53.8882 150.086 53.6812C149.927 53.4743 149.704 53.3428 149.419 53.2865ZM153.807 57.9287C153.399 57.8484 153.054 57.6776 152.772 57.4162C152.49 57.1549 152.29 56.834 152.171 56.4533C152.052 56.0726 152.036 55.6637 152.122 55.2265C152.208 54.7892 152.378 54.4199 152.631 54.1185C152.885 53.8113 153.191 53.593 153.55 53.4637C153.91 53.3286 154.293 53.3012 154.701 53.3815C155.028 53.4458 155.302 53.5632 155.522 53.7338C155.743 53.9044 155.907 54.1154 156.015 54.3667L156.518 51.8133L157.637 52.0336L156.398 58.3297L155.401 58.1335L155.401 57.4885C155.223 57.6534 155.003 57.7857 154.742 57.8856C154.486 57.9866 154.174 58.001 153.807 57.9287ZM154.235 56.9957C154.597 57.0669 154.915 57.0053 155.189 56.811C155.471 56.6121 155.649 56.3231 155.723 55.9442C155.798 55.5653 155.742 55.2334 155.556 54.9484C155.377 54.6589 155.106 54.4785 154.745 54.4074C154.389 54.3374 154.071 54.399 153.791 54.5921C153.511 54.7852 153.333 55.0712 153.259 55.4502C153.184 55.8291 153.24 56.1639 153.425 56.4547C153.61 56.7454 153.88 56.9258 154.235 56.9957Z" fill="#262626"/>
<path d="M71.0669 50.5904L71.87 46.5096L73.2108 46.7734C73.5295 46.8362 73.7815 46.9403 73.9668 47.0857C74.1522 47.2312 74.2758 47.4029 74.3378 47.6008C74.4037 47.7994 74.4144 48.0115 74.37 48.2369C74.3265 48.4584 74.2385 48.649 74.1061 48.8087C73.9738 48.9683 73.7939 49.0823 73.5665 49.1506C73.3399 49.215 73.0653 49.2154 72.7427 49.152L71.8916 48.9845L71.5566 50.6867L71.0669 50.5904ZM71.973 48.5706L72.8125 48.7358C73.139 48.8 73.3836 48.7775 73.5464 48.6682C73.7138 48.5559 73.8213 48.3792 73.8687 48.1382C73.9169 47.8934 73.8844 47.6892 73.7713 47.5256C73.6628 47.3589 73.4453 47.2435 73.1188 47.1792L72.2793 47.014L71.973 48.5706ZM75.2252 51.4814C74.9843 51.434 74.7921 51.3538 74.6489 51.2408C74.5056 51.1278 74.4084 50.9957 74.3575 50.8443C74.3065 50.693 74.2967 50.5377 74.3281 50.3783C74.3862 50.083 74.5437 49.8778 74.8004 49.7628C75.0572 49.6478 75.3799 49.6286 75.7686 49.705L76.5497 49.8588L76.5566 49.8238C76.6063 49.5712 76.5777 49.3677 76.4708 49.2135C76.3647 49.0553 76.2009 48.9545 75.9794 48.9109C75.7889 48.8734 75.6142 48.8895 75.4551 48.9591C75.3008 49.0256 75.1881 49.1468 75.1172 49.3225L74.6158 49.2239C74.6766 49.0178 74.7813 48.8548 74.9301 48.7347C75.0828 48.6153 75.2577 48.5367 75.4549 48.4988C75.6529 48.4571 75.8548 48.4564 76.0608 48.497C76.465 48.5765 76.7467 48.745 76.906 49.0024C77.0699 49.2567 77.1167 49.5626 77.0463 49.9202L76.6964 51.6982L76.2592 51.6122L76.3321 51.0876C76.2184 51.2348 76.0704 51.351 75.8881 51.4362C75.7105 51.5183 75.4895 51.5334 75.2252 51.4814ZM75.3825 51.0824C75.569 51.1191 75.7379 51.1019 75.8892 51.0307C76.0443 50.9603 76.1722 50.8543 76.2727 50.7126C76.3733 50.5709 76.4404 50.4145 76.474 50.2435L76.4752 50.2377L75.7348 50.092C75.4472 50.0354 75.2332 50.0458 75.0929 50.1231C74.9571 50.1973 74.8747 50.3083 74.8457 50.456C74.8159 50.6075 74.8462 50.7407 74.9366 50.8554C75.0318 50.9669 75.1804 51.0426 75.3825 51.0824ZM77.4081 53.1705L78.4326 51.7492L78.2635 51.716L77.629 48.8783L78.1595 48.9827L78.6728 51.4211L80.13 49.3704L80.6372 49.4702L77.9211 53.2714L77.4081 53.1705ZM80.585 52.4635L81.154 49.572L81.5971 49.6591L81.5495 50.0858C81.6733 49.9487 81.8214 49.8527 81.9937 49.7978C82.166 49.7428 82.3493 49.7345 82.5436 49.7727C82.7729 49.8179 82.96 49.9031 83.1049 50.0285C83.2536 50.1547 83.354 50.3218 83.4059 50.5298C83.5414 50.3748 83.7065 50.264 83.9013 50.1974C84.0999 50.1315 84.3022 50.1188 84.5082 50.1594C84.8541 50.2274 85.1094 50.3867 85.2741 50.6371C85.4395 50.8836 85.4798 51.2226 85.3949 51.654L85.0622 53.3446L84.5783 53.2494L84.9007 51.6112C84.9596 51.3119 84.9437 51.0747 84.8531 50.8994C84.7624 50.7241 84.6044 50.6143 84.379 50.5699C84.1458 50.524 83.9335 50.5771 83.7421 50.7292C83.5553 50.8782 83.4291 51.1197 83.3633 51.454L83.0684 52.9522L82.5788 52.8558L82.9011 51.2177C82.96 50.9184 82.9441 50.6812 82.8535 50.5059C82.7628 50.3306 82.6048 50.2208 82.3794 50.1764C82.1501 50.1313 81.9397 50.1848 81.7483 50.3368C81.5616 50.4858 81.4353 50.7274 81.3695 51.0616L81.0747 52.5599L80.585 52.4635ZM87.0861 53.8155C86.8102 53.7612 86.5776 53.6509 86.3883 53.4844C86.1998 53.3141 86.0655 53.104 85.9855 52.8541C85.9094 52.605 85.9015 52.3269 85.9619 52.0199C86.0216 51.7167 86.1338 51.4643 86.2987 51.2626C86.4643 51.057 86.6662 50.9131 86.9044 50.8308C87.1473 50.7453 87.4106 50.7306 87.6943 50.7864C87.9742 50.8415 88.2025 50.953 88.3794 51.121C88.5609 51.2859 88.6858 51.4821 88.754 51.7095C88.8223 51.9369 88.8331 52.1691 88.7865 52.4062C88.7781 52.4489 88.7677 52.4913 88.7554 52.5333C88.747 52.576 88.7374 52.6246 88.7267 52.679L86.424 52.2259C86.3921 52.4497 86.4063 52.6442 86.4666 52.8095C86.5316 52.9717 86.6248 53.1031 86.7463 53.2037C86.8717 53.305 87.0121 53.371 87.1676 53.4016C87.3697 53.4414 87.5479 53.428 87.7023 53.3615C87.8567 53.295 87.9806 53.1882 88.0742 53.0411L88.558 53.1363C88.4275 53.3892 88.2339 53.5832 87.9772 53.7184C87.7251 53.8505 87.4281 53.8828 87.0861 53.8155ZM87.6012 51.198C87.368 51.1521 87.146 51.1831 86.935 51.2909C86.7287 51.3957 86.5852 51.5814 86.5044 51.8481L88.3233 52.206C88.3629 51.9433 88.3136 51.7217 88.1756 51.5411C88.0375 51.3606 87.8461 51.2462 87.6012 51.198ZM89.1189 54.1429L89.6879 51.2514L90.131 51.3386L90.058 51.8632C90.1873 51.6988 90.3496 51.5814 90.5452 51.5109C90.7407 51.4404 90.9493 51.4269 91.1708 51.4705C91.5128 51.5378 91.7642 51.6963 91.925 51.946C92.0904 52.1925 92.1307 52.5314 92.0458 52.9628L91.7131 54.6534L91.2234 54.5571L91.5458 52.9189C91.6643 52.3165 91.4749 51.9664 90.9774 51.8685C90.7287 51.8195 90.5028 51.8699 90.2997 52.0197C90.1013 52.1664 89.9692 52.4068 89.9034 52.741L89.6086 54.2393L89.1189 54.1429ZM93.5977 55.0243C93.3334 54.9723 93.1381 54.8673 93.0117 54.7092C92.8854 54.5511 92.8551 54.3049 92.9209 53.9707L93.2341 52.3792L92.7327 52.2805L92.8142 51.8666L93.3156 51.9653L93.5162 51.2842L93.9418 51.3679L93.8053 52.0616L94.6564 52.2291L94.5749 52.6431L93.7238 52.4756L93.4106 54.0671C93.3746 54.2497 93.3871 54.3814 93.4479 54.462C93.5095 54.5387 93.6336 54.5954 93.8202 54.6321L94.1233 54.6918L94.0407 55.1115L93.5977 55.0243ZM97.3462 55.8347C97.0003 55.7666 96.7299 55.6225 96.535 55.4025C96.3401 55.1825 96.2527 54.9191 96.2727 54.6121L96.7741 54.7108C96.7753 54.8685 96.829 55.0163 96.9351 55.1543C97.0458 55.2891 97.2119 55.3783 97.4335 55.4219C97.6395 55.4624 97.7994 55.4495 97.9134 55.3831C98.0282 55.3129 98.0974 55.2175 98.1211 55.097C98.1555 54.9221 98.1144 54.7929 97.9976 54.7094C97.8847 54.6266 97.7182 54.5393 97.498 54.4476C97.3487 54.3859 97.202 54.3106 97.0581 54.2217C96.9141 54.1328 96.7999 54.0256 96.7157 53.9C96.6321 53.7705 96.6076 53.6183 96.642 53.4434C96.6917 53.1908 96.8255 53.0032 97.0434 52.8806C97.266 52.7548 97.5386 52.7237 97.8611 52.7872C98.1682 52.8476 98.4035 52.9746 98.5673 53.1683C98.7357 53.3589 98.8075 53.5991 98.7827 53.889L98.2989 53.7937C98.3085 53.6422 98.2669 53.515 98.1742 53.4119C98.0861 53.3058 97.9526 53.2351 97.7739 53.1999C97.599 53.1655 97.4557 53.1757 97.344 53.2304C97.2362 53.2859 97.1704 53.3738 97.1467 53.4943C97.1238 53.6109 97.166 53.7141 97.2735 53.8039C97.3849 53.8944 97.5409 53.9837 97.7416 54.0716C97.9127 54.1457 98.0722 54.2275 98.2201 54.3172C98.3726 54.4037 98.4883 54.5133 98.5672 54.6459C98.6507 54.7753 98.6718 54.945 98.6305 55.1549C98.5831 55.416 98.4416 55.6122 98.2058 55.7435C97.9747 55.8716 97.6882 55.902 97.3462 55.8347ZM100.209 56.398C99.8666 56.3307 99.6148 56.1741 99.4532 55.9284C99.2924 55.6787 99.2545 55.3382 99.3394 54.9068L99.6721 53.2162L100.162 53.3126L99.8394 54.9507C99.7208 55.5531 99.9083 55.9029 100.402 56C100.655 56.0497 100.88 56.0013 101.078 55.8546C101.282 55.7048 101.416 55.4628 101.482 55.1286L101.777 53.6304L102.266 53.7267L101.697 56.6183L101.254 56.5311L101.321 56.0053C101.196 56.1704 101.034 56.2878 100.834 56.3576C100.639 56.4281 100.43 56.4416 100.209 56.398ZM103.819 57.1084C103.543 57.0541 103.306 56.943 103.109 56.775C102.917 56.6039 102.779 56.3931 102.695 56.1424C102.616 55.8886 102.606 55.6102 102.665 55.307C102.725 55.0039 102.839 54.7518 103.008 54.5509C103.181 54.3468 103.389 54.204 103.631 54.1225C103.878 54.0378 104.139 54.0227 104.415 54.077C104.757 54.1443 105.027 54.2903 105.225 54.5149C105.427 54.7404 105.53 55.0088 105.533 55.3203L105.032 55.2217C105.028 55.0352 104.96 54.8785 104.828 54.7515C104.696 54.6207 104.529 54.5353 104.327 54.4956C104.164 54.4634 104.002 54.474 103.842 54.5274C103.682 54.5807 103.542 54.6802 103.42 54.8258C103.299 54.9714 103.214 55.1647 103.167 55.4057C103.119 55.6467 103.124 55.8575 103.182 56.0384C103.239 56.2192 103.331 56.3665 103.458 56.4803C103.586 56.5902 103.731 56.6612 103.894 56.6934C104.096 56.7331 104.283 56.7194 104.454 56.652C104.625 56.5808 104.748 56.4577 104.823 56.2827L105.324 56.3813C105.209 56.6613 105.014 56.8694 104.741 57.0054C104.468 57.1414 104.161 57.1757 103.819 57.1084ZM107.143 57.7627C106.868 57.7084 106.631 57.5973 106.434 57.4293C106.242 57.2582 106.103 57.0474 106.02 56.7967C105.94 56.5429 105.93 56.2645 105.99 55.9613C106.05 55.6582 106.164 55.4061 106.333 55.2052C106.506 55.0011 106.714 54.8583 106.956 54.7768C107.203 54.6921 107.464 54.677 107.74 54.7313C108.082 54.7986 108.352 54.9446 108.55 55.1692C108.752 55.3947 108.855 55.6631 108.858 55.9746L108.356 55.876C108.353 55.6895 108.285 55.5328 108.152 55.4058C108.021 55.275 107.854 55.1896 107.652 55.1499C107.488 55.1177 107.327 55.1283 107.167 55.1816C107.007 55.235 106.866 55.3344 106.745 55.4801C106.623 55.6257 106.539 55.819 106.491 56.06C106.444 56.3009 106.449 56.5118 106.506 56.6927C106.564 56.8735 106.656 57.0208 106.783 57.1346C106.91 57.2445 107.056 57.3155 107.219 57.3477C107.421 57.3874 107.608 57.3736 107.778 57.3063C107.95 57.2351 108.073 57.112 108.148 56.937L108.649 57.0356C108.533 57.3156 108.339 57.5236 108.066 57.6597C107.793 57.7957 107.485 57.83 107.143 57.7627ZM110.439 58.4113C110.163 58.357 109.93 58.2466 109.741 58.0802C109.553 57.9098 109.418 57.6997 109.338 57.4498C109.262 57.2007 109.254 56.9226 109.315 56.6156C109.375 56.3125 109.487 56.06 109.652 55.8583C109.817 55.6527 110.019 55.5088 110.257 55.4265C110.5 55.3411 110.764 55.3263 111.047 55.3821C111.327 55.4372 111.555 55.5487 111.732 55.7168C111.914 55.8817 112.039 56.0778 112.107 56.3052C112.175 56.5326 112.186 56.7648 112.139 57.0019C112.131 57.0447 112.121 57.087 112.108 57.129C112.1 57.1718 112.09 57.2204 112.08 57.2748L109.777 56.8216C109.745 57.0454 109.759 57.24 109.82 57.4053C109.885 57.5674 109.978 57.6988 110.099 57.7994C110.225 57.9008 110.365 57.9668 110.52 57.9974C110.723 58.0371 110.901 58.0238 111.055 57.9573C111.21 57.8907 111.334 57.7839 111.427 57.6368L111.911 57.7321C111.78 57.9849 111.587 58.179 111.33 58.3141C111.078 58.4462 110.781 58.4786 110.439 58.4113ZM110.954 55.7937C110.721 55.7478 110.499 55.7788 110.288 55.8867C110.082 55.9914 109.938 56.1771 109.857 56.4438L111.676 56.8018C111.716 56.5391 111.667 56.3174 111.529 56.1369C111.39 55.9563 111.199 55.8419 110.954 55.7937ZM113.566 59.0266C113.22 58.9585 112.949 58.8145 112.755 58.5944C112.56 58.3744 112.472 58.111 112.492 57.8041L112.994 57.9027C112.995 58.0604 113.049 58.2082 113.155 58.3462C113.265 58.481 113.431 58.5702 113.653 58.6138C113.859 58.6544 114.019 58.6414 114.133 58.575C114.248 58.5048 114.317 58.4094 114.341 58.2889C114.375 58.114 114.334 57.9848 114.217 57.9013C114.104 57.8185 113.938 57.7312 113.718 57.6395C113.568 57.5778 113.422 57.5025 113.278 57.4136C113.134 57.3247 113.019 57.2175 112.935 57.0919C112.852 56.9624 112.827 56.8103 112.862 56.6354C112.911 56.3827 113.045 56.1951 113.263 56.0725C113.486 55.9467 113.758 55.9156 114.081 55.9791C114.388 56.0395 114.623 56.1666 114.787 56.3603C114.955 56.5508 115.027 56.791 115.002 57.0809L114.518 56.9857C114.528 56.8341 114.486 56.7069 114.394 56.6038C114.306 56.4977 114.172 56.427 113.993 56.3918C113.818 56.3574 113.675 56.3676 113.564 56.4223C113.456 56.4778 113.39 56.5658 113.366 56.6862C113.343 56.8028 113.386 56.906 113.493 56.9958C113.604 57.0863 113.76 57.1756 113.961 57.2635C114.132 57.3376 114.292 57.4194 114.44 57.5091C114.592 57.5956 114.708 57.7052 114.787 57.8378C114.87 57.9672 114.891 58.1369 114.85 58.3468C114.803 58.6079 114.661 58.8041 114.425 58.9354C114.194 59.0635 113.908 59.0939 113.566 59.0266ZM116.481 59.6002C116.135 59.5321 115.864 59.3881 115.669 59.1681C115.475 58.9481 115.387 58.6846 115.407 58.3777L115.908 58.4764C115.91 58.634 115.963 58.7819 116.069 58.9198C116.18 59.0546 116.346 59.1438 116.568 59.1874C116.774 59.228 116.934 59.2151 117.048 59.1487C117.163 59.0784 117.232 58.983 117.255 58.8626C117.29 58.6877 117.249 58.5584 117.132 58.4749C117.019 58.3921 116.853 58.3049 116.632 58.2131C116.483 58.1514 116.336 58.0761 116.192 57.9872C116.048 57.8984 115.934 57.7911 115.85 57.6655C115.767 57.5361 115.742 57.3839 115.776 57.209C115.826 56.9564 115.96 56.7687 116.178 56.6461C116.4 56.5204 116.673 56.4892 116.996 56.5527C117.303 56.6131 117.538 56.7402 117.702 56.9339C117.87 57.1245 117.942 57.3647 117.917 57.6545L117.433 57.5593C117.443 57.4078 117.401 57.2805 117.309 57.1775C117.22 57.0713 117.087 57.0006 116.908 56.9655C116.733 56.931 116.59 56.9412 116.478 56.9959C116.371 57.0514 116.305 57.1394 116.281 57.2599C116.258 57.3765 116.3 57.4797 116.408 57.5694C116.519 57.66 116.675 57.7492 116.876 57.8372C117.047 57.9112 117.207 57.9931 117.354 58.0827C117.507 58.1692 117.623 58.2788 117.702 58.4114C117.785 58.5409 117.806 58.7105 117.765 58.9204C117.718 59.1816 117.576 59.3778 117.34 59.509C117.109 59.6371 116.823 59.6675 116.481 59.6002ZM118.459 59.9169L118.947 57.4393L118.509 57.3532L118.591 56.9393L119.028 57.0253L119.127 56.524C119.182 56.2442 119.292 56.0539 119.457 55.9532C119.622 55.8525 119.839 55.8285 120.107 55.8813L120.398 55.9386L120.316 56.3584L120.1 56.3159C119.952 56.2868 119.841 56.2973 119.767 56.3472C119.693 56.3933 119.642 56.4882 119.614 56.632L119.518 57.1217L120.229 57.2617L120.147 57.6756L119.436 57.5356L118.949 60.0132L118.459 59.9169ZM121.284 60.5456C120.942 60.4782 120.69 60.3217 120.529 60.076C120.368 59.8263 120.33 59.4858 120.415 59.0544L120.748 57.3638L121.237 57.4602L120.915 59.0983C120.797 59.7007 120.984 60.0505 121.478 60.1476C121.73 60.1973 121.956 60.1489 122.154 60.0022C122.357 59.8524 122.492 59.6104 122.557 59.2762L122.852 57.778L123.342 57.8743L122.773 60.7658L122.33 60.6787L122.397 60.1529C122.272 60.318 122.109 60.4354 121.91 60.5052C121.714 60.5757 121.506 60.5891 121.284 60.5456ZM123.579 60.9245L124.405 56.7271L124.895 56.8235L124.069 61.0208L123.579 60.9245Z" fill="#B4B4B4"/>
<path fill-rule="evenodd" clip-rule="evenodd" d="M52.9267 45.412C56.9909 46.2118 60.934 43.5655 61.7338 39.5013C62.5336 35.4371 59.8873 31.4941 55.8231 30.6943C51.7589 29.8945 47.8159 32.5408 47.016 36.6049C46.2162 40.6691 48.8625 44.6122 52.9267 45.412ZM52.5035 40.0297C52.6171 40.1893 52.7855 40.2901 52.9671 40.324C53.1485 40.3588 53.342 40.3273 53.5062 40.2204L57.8601 37.3915C58.1873 37.1785 58.2689 36.7489 58.0432 36.4309C57.8166 36.1127 57.3679 36.0263 57.0407 36.2392L53.2793 38.6827L52.2271 37.2044C52.0005 36.8862 51.5525 36.8009 51.2244 37.0136C50.8972 37.2266 50.8156 37.6562 51.0422 37.9744L52.5035 40.0297Z" fill="#D80369"/>
</g>
</g>
<defs>
<filter id="filter0_d_71_40831" x="0.0280762" y="0.239502" width="199.944" height="104.585" filterUnits="userSpaceOnUse" color-interpolation-filters="sRGB">
<feFlood flood-opacity="0" result="BackgroundImageFix"/>
<feColorMatrix in="SourceAlpha" type="matrix" values="0 0 0 0 0 0 0 0 0 0 0 0 0 0 0 0 0 0 127 0" result="hardAlpha"/>
<feOffset dy="5.5"/>
<feGaussianBlur stdDeviation="11"/>
<feComposite in2="hardAlpha" operator="out"/>
<feColorMatrix type="matrix" values="0 0 0 0 0 0 0 0 0 0 0 0 0 0 0 0 0 0 0.2 0"/>
<feBlend mode="normal" in2="BackgroundImageFix" result="effect1_dropShadow_71_40831"/>
<feBlend mode="normal" in="SourceGraphic" in2="effect1_dropShadow_71_40831" result="shape"/>
</filter>
</defs>
</svg>
