<svg width="200" height="80" viewBox="0 0 200 80" fill="none" xmlns="http://www.w3.org/2000/svg">
<g filter="url(#filter0_d_71_41464)">
<rect x="22" y="16.5317" width="156" height="35" rx="11.1403" fill="white"/>
<path d="M67.4649 34.2271V27.9885H69.9693C70.6169 27.9885 71.11 28.14 71.4487 28.443C71.7933 28.7401 71.9656 29.1233 71.9656 29.5927C71.9656 29.9848 71.8587 30.2997 71.6448 30.5374C71.4368 30.7691 71.1813 30.9265 70.8783 31.0097C71.2348 31.081 71.5289 31.2593 71.7606 31.5445C71.9924 31.8237 72.1082 32.1505 72.1082 32.5248C72.1082 33.018 71.93 33.4249 71.5735 33.7458C71.217 34.0666 70.712 34.2271 70.0584 34.2271H67.4649ZM68.6057 30.6087H69.7999C70.1208 30.6087 70.3673 30.5344 70.5397 30.3859C70.712 30.2373 70.7981 30.0264 70.7981 29.7531C70.7981 29.4917 70.712 29.2867 70.5397 29.1381C70.3733 28.9837 70.1208 28.9064 69.7821 28.9064H68.6057V30.6087ZM68.6057 33.3002H69.8801C70.2188 33.3002 70.4802 33.2229 70.6644 33.0685C70.8546 32.908 70.9496 32.6852 70.9496 32.4C70.9496 32.1089 70.8516 31.8802 70.6555 31.7138C70.4594 31.5474 70.195 31.4642 69.8623 31.4642H68.6057V33.3002ZM73.0873 34.2271V27.9885H74.2281V34.2271H73.0873ZM78.3604 34.334C77.7366 34.334 77.19 34.1973 76.7206 33.924C76.2572 33.6507 75.8917 33.2734 75.6244 32.7922C75.363 32.305 75.2322 31.7435 75.2322 31.1078C75.2322 30.472 75.363 29.9135 75.6244 29.4323C75.8917 28.945 76.2572 28.5648 76.7206 28.2915C77.19 28.0182 77.7366 27.8815 78.3604 27.8815C78.9784 27.8815 79.522 28.0182 79.9914 28.2915C80.4608 28.5648 80.8262 28.945 81.0876 29.4323C81.349 29.9135 81.4797 30.472 81.4797 31.1078C81.4797 31.7435 81.349 32.305 81.0876 32.7922C80.8262 33.2734 80.4608 33.6507 79.9914 33.924C79.522 34.1973 78.9784 34.334 78.3604 34.334ZM78.3604 33.3091C78.9546 33.3091 79.4269 33.113 79.7775 32.7209C80.134 32.3287 80.3122 31.791 80.3122 31.1078C80.3122 30.4245 80.134 29.8868 79.7775 29.4946C79.4269 29.1025 78.9546 28.9064 78.3604 28.9064C77.7663 28.9064 77.291 29.1025 76.9345 29.4946C76.578 29.8868 76.3997 30.4245 76.3997 31.1078C76.3997 31.791 76.578 32.3287 76.9345 32.7209C77.291 33.113 77.7663 33.3091 78.3604 33.3091ZM83.7134 34.2271V28.9064H81.8953V27.9885H86.6812V28.9064H84.8541V34.2271H83.7134ZM87.5262 34.2271V27.9885H89.8167C90.3158 27.9885 90.7257 28.0746 91.0466 28.2469C91.3734 28.4133 91.617 28.642 91.7774 28.9332C91.9378 29.2184 92.018 29.5362 92.018 29.8868C92.018 30.267 91.917 30.6146 91.715 30.9295C91.5189 31.2444 91.21 31.4732 90.7881 31.6158L92.0804 34.2271H90.7703L89.6117 31.7673H88.667V34.2271H87.5262ZM88.667 30.9295H89.7454C90.1256 30.9295 90.4049 30.8374 90.5831 30.6532C90.7614 30.469 90.8505 30.2254 90.8505 29.9224C90.8505 29.6254 90.7614 29.3877 90.5831 29.2094C90.4108 29.0312 90.1286 28.9421 89.7365 28.9421H88.667V30.9295ZM92.6779 34.2271L94.9595 27.9885H96.2428L98.5244 34.2271H97.3123L96.8132 32.7833H94.3802L93.8722 34.2271H92.6779ZM94.6921 31.892H96.5013L95.5922 29.2986L94.6921 31.892ZM99.328 34.2271V27.9885H100.469L103.401 32.3822V27.9885H104.542V34.2271H103.401L100.469 29.8422V34.2271H99.328ZM105.448 34.2271L107.4 31.0721L105.421 27.9885H106.731L108.131 30.1631L109.414 27.9885H110.697L108.746 31.1256L110.742 34.2271H109.432L108.015 32.0257L106.731 34.2271H105.448ZM113.75 34.2271V27.9885H114.89V33.3358H117.653V34.2271H113.75ZM120.155 34.334C119.775 34.334 119.463 34.2746 119.22 34.1558C118.976 34.031 118.795 33.8676 118.676 33.6656C118.557 33.4636 118.498 33.2408 118.498 32.9972C118.498 32.5872 118.658 32.2545 118.979 31.999C119.3 31.7435 119.781 31.6158 120.423 31.6158H121.546V31.5088C121.546 31.2058 121.46 30.983 121.287 30.8404C121.115 30.6978 120.901 30.6265 120.646 30.6265C120.414 30.6265 120.212 30.6829 120.04 30.7958C119.867 30.9028 119.76 31.0632 119.719 31.2771H118.605C118.634 30.9562 118.741 30.677 118.926 30.4393C119.116 30.2017 119.359 30.0205 119.656 29.8957C119.953 29.765 120.286 29.6996 120.655 29.6996C121.284 29.6996 121.78 29.8571 122.143 30.172C122.505 30.4869 122.687 30.9325 122.687 31.5088V34.2271H121.715L121.608 33.5141C121.477 33.7517 121.293 33.9478 121.056 34.1023C120.824 34.2568 120.524 34.334 120.155 34.334ZM120.414 33.4428C120.741 33.4428 120.993 33.3358 121.171 33.1219C121.356 32.908 121.472 32.6436 121.519 32.3287H120.548C120.245 32.3287 120.028 32.3852 119.897 32.4981C119.766 32.605 119.701 32.7387 119.701 32.8991C119.701 33.0714 119.766 33.2051 119.897 33.3002C120.028 33.3952 120.2 33.4428 120.414 33.4428ZM125.433 34.334C124.88 34.334 124.453 34.1617 124.15 33.8171C123.852 33.4725 123.704 32.9675 123.704 32.302V29.8066H124.836V32.1951C124.836 32.5753 124.913 32.8664 125.067 33.0685C125.222 33.2705 125.466 33.3715 125.798 33.3715C126.113 33.3715 126.372 33.2586 126.574 33.0328C126.782 32.807 126.886 32.4921 126.886 32.0881V29.8066H128.026V34.2271H127.019L126.93 33.4784C126.793 33.7398 126.594 33.9478 126.333 34.1023C126.078 34.2568 125.777 34.334 125.433 34.334ZM129.197 34.2271V29.8066H130.204L130.294 30.5552C130.43 30.2938 130.626 30.0858 130.882 29.9313C131.143 29.7769 131.449 29.6996 131.8 29.6996C132.346 29.6996 132.771 29.8719 133.074 30.2165C133.377 30.5611 133.529 31.0662 133.529 31.7316V34.2271H132.388V31.8386C132.388 31.4583 132.311 31.1672 132.156 30.9652C132.002 30.7631 131.761 30.6621 131.434 30.6621C131.114 30.6621 130.849 30.775 130.641 31.0008C130.439 31.2266 130.338 31.5415 130.338 31.9455V34.2271H129.197ZM136.785 34.334C136.334 34.334 135.936 34.236 135.591 34.0399C135.246 33.8438 134.973 33.5705 134.771 33.22C134.575 32.8694 134.477 32.4684 134.477 32.0168C134.477 31.5653 134.575 31.1642 134.771 30.8137C134.973 30.4631 135.246 30.1898 135.591 29.9937C135.936 29.7977 136.334 29.6996 136.785 29.6996C137.35 29.6996 137.825 29.8482 138.211 30.1452C138.597 30.4364 138.844 30.8404 138.951 31.3573H137.748C137.688 31.1434 137.57 30.977 137.391 30.8582C137.219 30.7334 137.014 30.6711 136.776 30.6711C136.461 30.6711 136.194 30.7899 135.974 31.0275C135.754 31.2652 135.645 31.595 135.645 32.0168C135.645 32.4387 135.754 32.7684 135.974 33.0061C136.194 33.2437 136.461 33.3626 136.776 33.3626C137.014 33.3626 137.219 33.3031 137.391 33.1843C137.57 33.0655 137.688 32.8962 137.748 32.6763H138.951C138.844 33.1754 138.597 33.5765 138.211 33.8795C137.825 34.1825 137.35 34.334 136.785 34.334ZM139.963 34.2271V27.8102H141.104V30.4839C141.253 30.2403 141.452 30.0502 141.701 29.9135C141.957 29.7709 142.248 29.6996 142.575 29.6996C143.121 29.6996 143.543 29.8719 143.84 30.2165C144.143 30.5611 144.295 31.0662 144.295 31.7316V34.2271H143.163V31.8386C143.163 31.4583 143.086 31.1672 142.931 30.9652C142.783 30.7631 142.545 30.6621 142.218 30.6621C141.897 30.6621 141.63 30.775 141.416 31.0008C141.208 31.2266 141.104 31.5415 141.104 31.9455V34.2271H139.963ZM147.534 34.334C147.088 34.334 146.693 34.2389 146.348 34.0488C146.004 33.8587 145.733 33.5913 145.537 33.2467C145.341 32.9021 145.243 32.504 145.243 32.0525C145.243 31.595 145.338 31.188 145.528 30.8315C145.724 30.475 145.992 30.1987 146.33 30.0026C146.675 29.8006 147.079 29.6996 147.542 29.6996C147.976 29.6996 148.359 29.7947 148.692 29.9848C149.025 30.1749 149.283 30.4364 149.468 30.7691C149.658 31.0959 149.753 31.4613 149.753 31.8653C149.753 31.9307 149.75 31.999 149.744 32.0703C149.744 32.1416 149.741 32.2158 149.735 32.2931H146.375C146.399 32.6377 146.518 32.908 146.731 33.1041C146.951 33.3002 147.216 33.3982 147.525 33.3982C147.756 33.3982 147.949 33.3477 148.104 33.2467C148.264 33.1398 148.383 33.0031 148.46 32.8367H149.619C149.536 33.116 149.396 33.3715 149.2 33.6032C149.01 33.829 148.772 34.0072 148.487 34.1379C148.208 34.2686 147.89 34.334 147.534 34.334ZM147.542 30.6265C147.263 30.6265 147.017 30.7067 146.803 30.8671C146.589 31.0216 146.452 31.2593 146.393 31.5801H148.594C148.576 31.289 148.469 31.0573 148.273 30.885C148.077 30.7126 147.834 30.6265 147.542 30.6265ZM152.744 34.334C152.328 34.334 151.957 34.233 151.63 34.031C151.303 33.829 151.045 33.5527 150.855 33.2021C150.665 32.8516 150.57 32.4535 150.57 32.0079C150.57 31.5623 150.665 31.1672 150.855 30.8226C151.045 30.472 151.303 30.1987 151.63 30.0026C151.957 29.8006 152.328 29.6996 152.744 29.6996C153.077 29.6996 153.368 29.762 153.618 29.8868C153.867 30.0115 154.069 30.1868 154.224 30.4126V27.8102H155.364V34.2271H154.348L154.224 33.5943C154.081 33.7903 153.891 33.9627 153.653 34.1112C153.422 34.2597 153.118 34.334 152.744 34.334ZM152.985 33.3358C153.353 33.3358 153.653 33.214 153.885 32.9704C154.123 32.7209 154.241 32.403 154.241 32.0168C154.241 31.6306 154.123 31.3157 153.885 31.0721C153.653 30.8226 153.353 30.6978 152.985 30.6978C152.622 30.6978 152.322 30.8196 152.085 31.0632C151.847 31.3068 151.728 31.6217 151.728 32.0079C151.728 32.3941 151.847 32.712 152.085 32.9615C152.322 33.2111 152.622 33.3358 152.985 33.3358Z" fill="#262626"/>
<path d="M67.2986 43.1101V38.951H68.7602C69.0533 38.951 69.2949 38.9986 69.485 39.0936C69.6791 39.1847 69.8237 39.3115 69.9188 39.4739C70.0138 39.6323 70.0614 39.8106 70.0614 40.0086C70.0614 40.278 69.9881 40.4899 69.8415 40.6444C69.6989 40.7989 69.5266 40.9058 69.3246 40.9652C69.4791 40.9929 69.6197 41.0543 69.7465 41.1494C69.8732 41.2445 69.9722 41.3633 70.0435 41.5059C70.1188 41.6485 70.1564 41.805 70.1564 41.9753C70.1564 42.1852 70.1049 42.3773 70.0019 42.5516C69.899 42.7219 69.7465 42.8586 69.5444 42.9616C69.3424 43.0606 69.0969 43.1101 68.8077 43.1101H67.2986ZM67.7976 40.7692H68.7245C68.9899 40.7692 69.1939 40.7078 69.3365 40.585C69.4791 40.4582 69.5504 40.2839 69.5504 40.0621C69.5504 39.8522 69.4791 39.6838 69.3365 39.5571C69.1979 39.4303 68.9879 39.367 68.7067 39.367H67.7976V40.7692ZM67.7976 42.6942H68.7542C69.0394 42.6942 69.2593 42.6288 69.4137 42.4981C69.5682 42.3635 69.6455 42.1773 69.6455 41.9396C69.6455 41.7059 69.5643 41.5198 69.4019 41.3811C69.2395 41.2385 69.0196 41.1672 68.7423 41.1672H67.7976V42.6942ZM70.8074 43.1101V42.7596C71.0886 42.5377 71.354 42.3139 71.6036 42.0882C71.8571 41.8584 72.0809 41.6327 72.2749 41.4108C72.473 41.189 72.6275 40.9712 72.7384 40.7573C72.8533 40.5434 72.9107 40.3374 72.9107 40.1394C72.9107 39.9928 72.8849 39.8561 72.8334 39.7294C72.7859 39.6026 72.7067 39.5016 72.5958 39.4264C72.4849 39.3472 72.3344 39.3075 72.1442 39.3075C71.962 39.3075 71.8095 39.3491 71.6867 39.4323C71.5639 39.5115 71.4709 39.6185 71.4075 39.7532C71.3481 39.8878 71.3184 40.0324 71.3184 40.1869H70.8371C70.8371 39.9136 70.8945 39.6799 71.0094 39.4858C71.1243 39.2877 71.2807 39.1372 71.4788 39.0342C71.6768 38.9312 71.9006 38.8798 72.1502 38.8798C72.5185 38.8798 72.8196 38.9847 73.0533 39.1947C73.2909 39.4006 73.4098 39.7096 73.4098 40.1215C73.4098 40.3671 73.3484 40.6107 73.2256 40.8523C73.1028 41.09 72.9463 41.3217 72.7562 41.5475C72.5661 41.7693 72.3621 41.9773 72.1442 42.1713C71.9303 42.3654 71.7303 42.5397 71.5441 42.6942H73.5524V43.1101H70.8074ZM76.0389 43.1814C75.6309 43.1814 75.2784 43.0923 74.9813 42.914C74.6882 42.7318 74.4604 42.4803 74.298 42.1595C74.1356 41.8347 74.0544 41.4584 74.0544 41.0306C74.0544 40.6068 74.1356 40.2344 74.298 39.9136C74.4604 39.5888 74.6882 39.3353 74.9813 39.1531C75.2784 38.9709 75.6309 38.8798 76.0389 38.8798C76.5142 38.8798 76.9004 38.9946 77.1975 39.2244C77.4985 39.4501 77.6906 39.767 77.7738 40.175H77.2213C77.1579 39.9175 77.0272 39.7116 76.8291 39.5571C76.635 39.3986 76.3716 39.3194 76.0389 39.3194C75.7418 39.3194 75.4824 39.3887 75.2606 39.5274C75.0387 39.6621 74.8664 39.8581 74.7436 40.1156C74.6248 40.3691 74.5654 40.6741 74.5654 41.0306C74.5654 41.3871 74.6248 41.694 74.7436 41.9515C74.8664 42.205 75.0387 42.4011 75.2606 42.5397C75.4824 42.6744 75.7418 42.7417 76.0389 42.7417C76.3716 42.7417 76.635 42.6665 76.8291 42.516C77.0272 42.3615 77.1579 42.1575 77.2213 41.904H77.7738C77.6906 42.304 77.4985 42.617 77.1975 42.8427C76.9004 43.0685 76.5142 43.1814 76.0389 43.1814ZM80.0635 43.1101V38.951H81.4301C81.7549 38.951 82.0222 39.0045 82.2322 39.1115C82.4421 39.2184 82.5966 39.363 82.6956 39.5452C82.7986 39.7274 82.8501 39.9334 82.8501 40.1631C82.8501 40.3889 82.8006 40.5929 82.7016 40.7751C82.6025 40.9573 82.448 41.1039 82.2381 41.2148C82.0282 41.3217 81.7588 41.3752 81.4301 41.3752H80.5626V43.1101H80.0635ZM80.5626 40.9533H81.4182C81.7509 40.9533 81.9866 40.884 82.1252 40.7454C82.2678 40.6028 82.3391 40.4087 82.3391 40.1631C82.3391 39.9136 82.2678 39.7195 82.1252 39.5808C81.9866 39.4383 81.7509 39.367 81.4182 39.367H80.5626V40.9533ZM83.4746 43.1101V40.1631H83.9261L83.9677 40.7276C84.0588 40.5335 84.1974 40.379 84.3836 40.2641C84.5698 40.1493 84.7995 40.0918 85.0728 40.0918V40.6147H84.9362C84.7619 40.6147 84.6015 40.6464 84.4549 40.7097C84.3083 40.7692 84.1915 40.8721 84.1044 41.0187C84.0172 41.1653 83.9736 41.3673 83.9736 41.6247V43.1101H83.4746ZM86.8655 43.1814C86.5883 43.1814 86.3387 43.118 86.1169 42.9913C85.8951 42.8645 85.7188 42.6863 85.5881 42.4565C85.4614 42.2228 85.398 41.9495 85.398 41.6366C85.398 41.3237 85.4633 41.0524 85.594 40.8226C85.7248 40.5889 85.901 40.4087 86.1228 40.2819C86.3486 40.1552 86.6001 40.0918 86.8774 40.0918C87.1547 40.0918 87.4042 40.1552 87.626 40.2819C87.8479 40.4087 88.0221 40.5889 88.1489 40.8226C88.2796 41.0524 88.345 41.3237 88.345 41.6366C88.345 41.9495 88.2796 42.2228 88.1489 42.4565C88.0182 42.6863 87.8399 42.8645 87.6142 42.9913C87.3923 43.118 87.1428 43.1814 86.8655 43.1814ZM86.8655 42.7536C87.0359 42.7536 87.1943 42.712 87.3409 42.6288C87.4874 42.5457 87.6062 42.4209 87.6973 42.2545C87.7884 42.0882 87.834 41.8822 87.834 41.6366C87.834 41.391 87.7884 41.1851 87.6973 41.0187C87.6102 40.8523 87.4934 40.7276 87.3468 40.6444C87.2002 40.5612 87.0438 40.5196 86.8774 40.5196C86.7071 40.5196 86.5487 40.5612 86.4021 40.6444C86.2555 40.7276 86.1367 40.8523 86.0456 41.0187C85.9545 41.1851 85.9089 41.391 85.9089 41.6366C85.9089 41.8822 85.9545 42.0882 86.0456 42.2545C86.1367 42.4209 86.2536 42.5457 86.3962 42.6288C86.5427 42.712 86.6992 42.7536 86.8655 42.7536ZM90.3758 43.1814C90.0826 43.1814 89.8252 43.1141 89.6034 42.9794C89.3855 42.8447 89.2152 42.6605 89.0924 42.4268C88.9736 42.1931 88.9141 41.9277 88.9141 41.6307C88.9141 41.3336 88.9755 41.0702 89.0983 40.8405C89.2211 40.6068 89.3914 40.4245 89.6093 40.2938C89.8272 40.1592 90.0846 40.0918 90.3817 40.0918C90.6233 40.0918 90.8372 40.1413 91.0234 40.2404C91.2096 40.3394 91.3541 40.478 91.4571 40.6563V38.8322H91.9562V43.1101H91.5046L91.4571 42.6229C91.362 42.7655 91.2254 42.8942 91.0471 43.0091C90.8689 43.124 90.6451 43.1814 90.3758 43.1814ZM90.4292 42.7477C90.6273 42.7477 90.8016 42.7021 90.9521 42.611C91.1066 42.516 91.2254 42.3852 91.3086 42.2189C91.3957 42.0525 91.4393 41.8584 91.4393 41.6366C91.4393 41.4148 91.3957 41.2207 91.3086 41.0543C91.2254 40.888 91.1066 40.7592 90.9521 40.6681C90.8016 40.5731 90.6273 40.5256 90.4292 40.5256C90.2351 40.5256 90.0609 40.5731 89.9064 40.6681C89.7559 40.7592 89.637 40.888 89.5499 41.0543C89.4667 41.2207 89.4251 41.4148 89.4251 41.6366C89.4251 41.8584 89.4667 42.0525 89.5499 42.2189C89.637 42.3852 89.7559 42.516 89.9064 42.611C90.0609 42.7021 90.2351 42.7477 90.4292 42.7477ZM93.8452 43.1814C93.4966 43.1814 93.2193 43.0764 93.0134 42.8665C92.8074 42.6526 92.7044 42.3258 92.7044 41.8862V40.1631H93.2035V41.8327C93.2035 42.4466 93.455 42.7536 93.9581 42.7536C94.2155 42.7536 94.4274 42.6625 94.5938 42.4803C94.7641 42.2941 94.8493 42.0307 94.8493 41.6901V40.1631H95.3484V43.1101H94.8968L94.8612 42.5813C94.7701 42.7675 94.6334 42.914 94.4512 43.021C94.273 43.1279 94.071 43.1814 93.8452 43.1814ZM97.5246 43.1814C97.2433 43.1814 96.9898 43.118 96.764 42.9913C96.5422 42.8606 96.366 42.6803 96.2352 42.4506C96.1085 42.2169 96.0451 41.9456 96.0451 41.6366C96.0451 41.3277 96.1085 41.0583 96.2352 40.8286C96.366 40.5949 96.5422 40.4146 96.764 40.2879C96.9898 40.1572 97.2433 40.0918 97.5246 40.0918C97.8731 40.0918 98.1662 40.1829 98.4039 40.3651C98.6455 40.5473 98.798 40.7909 98.8614 41.0959H98.3504C98.3108 40.9137 98.2138 40.7731 98.0593 40.6741C97.9048 40.5711 97.7246 40.5196 97.5186 40.5196C97.3523 40.5196 97.1958 40.5612 97.0492 40.6444C96.9027 40.7276 96.7838 40.8523 96.6927 41.0187C96.6016 41.1851 96.5561 41.391 96.5561 41.6366C96.5561 41.8822 96.6016 42.0882 96.6927 42.2545C96.7838 42.4209 96.9027 42.5476 97.0492 42.6348C97.1958 42.718 97.3523 42.7596 97.5186 42.7596C97.7246 42.7596 97.9048 42.71 98.0593 42.611C98.2138 42.508 98.3108 42.3635 98.3504 42.1773H98.8614C98.802 42.4744 98.6515 42.716 98.4098 42.9022C98.1682 43.0883 97.8731 43.1814 97.5246 43.1814ZM100.642 43.1101C100.372 43.1101 100.16 43.0448 100.006 42.914C99.8515 42.7833 99.7743 42.5476 99.7743 42.207V40.585H99.2633V40.1631H99.7743L99.8396 39.4561H100.273V40.1631H101.141V40.585H100.273V42.207C100.273 42.3932 100.311 42.5199 100.386 42.5873C100.461 42.6506 100.594 42.6823 100.784 42.6823H101.093V43.1101H100.642ZM102.904 43.1814C102.551 43.1814 102.258 43.0923 102.024 42.914C101.791 42.7358 101.654 42.4942 101.614 42.1892H102.125C102.157 42.3437 102.238 42.4783 102.369 42.5932C102.504 42.7041 102.684 42.7596 102.91 42.7596C103.12 42.7596 103.274 42.716 103.373 42.6288C103.472 42.5377 103.522 42.4308 103.522 42.308C103.522 42.1298 103.456 42.0109 103.326 41.9515C103.199 41.8921 103.019 41.8386 102.785 41.7911C102.626 41.7594 102.468 41.7139 102.31 41.6544C102.151 41.595 102.018 41.5118 101.912 41.4049C101.805 41.294 101.751 41.1494 101.751 40.9712C101.751 40.7137 101.846 40.5038 102.036 40.3414C102.23 40.175 102.492 40.0918 102.821 40.0918C103.133 40.0918 103.389 40.171 103.587 40.3295C103.789 40.484 103.906 40.7058 103.938 40.9949H103.444C103.425 40.8444 103.359 40.7276 103.248 40.6444C103.141 40.5572 102.997 40.5137 102.815 40.5137C102.636 40.5137 102.498 40.5513 102.399 40.6266C102.304 40.7018 102.256 40.8008 102.256 40.9236C102.256 41.0425 102.318 41.1355 102.44 41.2029C102.567 41.2702 102.737 41.3277 102.951 41.3752C103.133 41.4148 103.306 41.4643 103.468 41.5237C103.635 41.5792 103.769 41.6643 103.872 41.7792C103.979 41.8901 104.033 42.0525 104.033 42.2664C104.037 42.5318 103.936 42.7516 103.73 42.9259C103.528 43.0962 103.252 43.1814 102.904 43.1814Z" fill="#B4B4B4"/>
<path fill-rule="evenodd" clip-rule="evenodd" d="M48.5 41.5317C52.6421 41.5317 56 38.1739 56 34.0317C56 29.8896 52.6421 26.5317 48.5 26.5317C44.3579 26.5317 41 29.8896 41 34.0317C41 38.1739 44.3579 41.5317 48.5 41.5317ZM47.0454 36.3324C47.1878 36.4671 47.3725 36.5335 47.5572 36.5317C47.7419 36.5308 47.9256 36.4625 48.0661 36.326L51.7918 32.7096C52.0718 32.4375 52.0689 32.0002 51.7861 31.7317C51.5023 31.4632 51.0453 31.4651 50.7654 31.7372L47.5466 34.861L46.2287 33.6137C45.9449 33.3452 45.4889 33.348 45.208 33.6202C44.9281 33.8923 44.931 34.3296 45.2148 34.5981L47.0454 36.3324Z" fill="#FFA800"/>
</g>
<defs>
<filter id="filter0_d_71_41464" x="0" y="0.0317383" width="200" height="79" filterUnits="userSpaceOnUse" color-interpolation-filters="sRGB">
<feFlood flood-opacity="0" result="BackgroundImageFix"/>
<feColorMatrix in="SourceAlpha" type="matrix" values="0 0 0 0 0 0 0 0 0 0 0 0 0 0 0 0 0 0 127 0" result="hardAlpha"/>
<feOffset dy="5.5"/>
<feGaussianBlur stdDeviation="11"/>
<feComposite in2="hardAlpha" operator="out"/>
<feColorMatrix type="matrix" values="0 0 0 0 0 0 0 0 0 0 0 0 0 0 0 0 0 0 0.15 0"/>
<feBlend mode="normal" in2="BackgroundImageFix" result="effect1_dropShadow_71_41464"/>
<feBlend mode="normal" in="SourceGraphic" in2="effect1_dropShadow_71_41464" result="shape"/>
</filter>
</defs>
</svg>
