<svg width="202" height="103" viewBox="0 0 202 103" fill="none" xmlns="http://www.w3.org/2000/svg">
<g opacity="0.2">
<g filter="url(#filter0_d_71_41454)">
<rect x="27.3618" y="14.9243" width="156" height="35" rx="11.1403" transform="rotate(10.2555 27.3618 14.9243)" fill="white"/>
<path d="M68.9499 40.4313L70.0607 34.2924L72.525 34.7382C73.1623 34.8535 73.6206 35.0904 73.8999 35.4489C74.1861 35.8026 74.2874 36.2104 74.2038 36.6722C74.134 37.0581 73.9727 37.3489 73.7199 37.5447C73.474 37.7357 73.1946 37.8452 72.8816 37.8731C73.2197 38.0067 73.4774 38.2345 73.6546 38.5564C73.8329 38.8724 73.8888 39.2146 73.8221 39.5829C73.7343 40.0682 73.4865 40.4369 73.0785 40.6892C72.6706 40.9414 72.1451 41.0094 71.502 40.893L68.9499 40.4313ZM70.7167 37.0738L71.8919 37.2864C72.2076 37.3436 72.4634 37.3144 72.6594 37.1989C72.8554 37.0834 72.9778 36.8912 73.0264 36.6222C73.073 36.365 73.0247 36.1479 72.8816 35.9711C72.7454 35.7895 72.5106 35.6685 72.1774 35.6082L71.0198 35.3988L70.7167 37.0738ZM70.2375 39.7223L71.4916 39.9492C71.8249 40.0095 72.0959 39.9801 72.3046 39.8608C72.5203 39.7368 72.6535 39.5345 72.7042 39.2539C72.7561 38.9674 72.7003 38.7248 72.537 38.5262C72.3737 38.3276 72.1283 38.1987 71.8009 38.1395L70.5644 37.9157L70.2375 39.7223ZM74.4825 41.4323L75.5932 35.2934L76.7158 35.4965L75.6051 41.6354L74.4825 41.4323ZM79.6524 42.4763C79.0385 42.3653 78.5249 42.1335 78.1117 41.781C77.7043 41.4295 77.4119 40.9932 77.2345 40.472C77.064 39.9461 77.0353 39.3703 77.1485 38.7447C77.2617 38.1191 77.4898 37.5928 77.8327 37.1658C78.1825 36.734 78.6098 36.4248 79.1145 36.2384C79.625 36.053 80.1873 36.0159 80.8011 36.1269C81.4092 36.237 81.9198 36.4682 82.333 36.8207C82.7463 37.1732 83.0381 37.6125 83.2086 38.1384C83.3802 38.6586 83.4094 39.2314 83.2962 39.857C83.183 40.4826 82.9544 41.0118 82.6104 41.4447C82.2675 41.8717 81.8408 42.1779 81.3302 42.3633C80.8197 42.5487 80.2604 42.5864 79.6524 42.4763ZM79.8348 41.4678C80.4195 41.5736 80.9192 41.4647 81.334 41.1413C81.7546 40.8189 82.0257 40.3215 82.1474 39.6491C82.269 38.9768 82.1893 38.4159 81.9084 37.9666C81.6332 37.5183 81.2033 37.2413 80.6187 37.1355C80.034 37.0297 79.5314 37.138 79.1108 37.4604C78.6902 37.7828 78.419 38.2802 78.2974 38.9526C78.1757 39.6249 78.2554 40.1858 78.5364 40.6351C78.8174 41.0845 79.2502 41.362 79.8348 41.4678ZM84.9388 43.3241L85.8861 38.0885L84.097 37.7648L84.2605 36.8615L88.9699 37.7136L88.8065 38.6169L87.0086 38.2916L86.0614 43.5272L84.9388 43.3241ZM88.6907 44.003L89.8014 37.864L92.0553 38.2718C92.5464 38.3607 92.9345 38.5185 93.2195 38.7451C93.5115 38.967 93.7105 39.2355 93.8165 39.5505C93.9236 39.8597 93.9459 40.1868 93.8835 40.5317C93.8158 40.9059 93.6545 41.23 93.3997 41.5039C93.1507 41.7788 92.8059 41.9489 92.3654 42.0141L93.1722 44.8138L91.883 44.5805L91.1808 41.9538L90.2512 41.7856L89.8133 44.2061L88.6907 44.003ZM90.4004 40.9612L91.4615 41.1532C91.8357 41.2209 92.1269 41.18 92.3351 41.0305C92.5433 40.881 92.6743 40.6571 92.7283 40.359C92.7812 40.0666 92.7358 39.8169 92.5921 39.6098C92.4543 39.4037 92.1925 39.2657 91.8066 39.1959L90.7542 39.0055L90.4004 40.9612ZM93.7601 44.9202L97.1159 39.1874L98.3788 39.4159L99.5132 45.961L98.3205 45.7453L98.0864 44.2357L95.6922 43.8025L94.9353 45.1328L93.7601 44.9202ZM96.1579 42.981L97.9381 43.3032L97.5054 40.5893L96.1579 42.981ZM100.304 46.1041L101.415 39.9652L102.537 40.1683L104.64 45.0139L105.423 40.6903L106.545 40.8934L105.434 47.0324L104.312 46.8293L102.207 41.9924L101.427 46.3072L100.304 46.1041ZM106.326 47.1937L108.809 44.4367L107.411 41.0501L108.7 41.2833L109.69 43.6723L111.34 41.7609L112.602 41.9894L110.123 44.7289L111.536 48.1362L110.246 47.903L109.244 45.4845L107.589 47.4222L106.326 47.1937ZM114.495 48.6717L115.606 42.5328L116.728 42.7359L115.776 47.9978L118.495 48.4897L118.336 49.3667L114.495 48.6717ZM120.78 49.9174C120.405 49.8497 120.109 49.7357 119.891 49.5754C119.673 49.4093 119.524 49.2162 119.443 48.9963C119.362 48.7764 119.343 48.5465 119.386 48.3068C119.459 47.9034 119.677 47.6046 120.038 47.4103C120.399 47.216 120.895 47.176 121.527 47.2902L122.632 47.4902L122.651 47.3849C122.705 47.0867 122.66 46.8522 122.515 46.6812C122.371 46.5102 122.173 46.4019 121.922 46.3564C121.694 46.3152 121.485 46.3348 121.296 46.4152C121.107 46.4897 120.973 46.6286 120.894 46.8316L119.798 46.6333C119.884 46.3229 120.039 46.0671 120.263 45.866C120.492 45.666 120.764 45.5311 121.079 45.4612C121.394 45.3855 121.733 45.3804 122.096 45.446C122.716 45.5581 123.176 45.8014 123.476 46.1757C123.777 46.5501 123.876 47.0209 123.773 47.588L123.289 50.2628L122.333 50.0899L122.355 49.3692C122.184 49.5798 121.968 49.74 121.707 49.8497C121.451 49.9604 121.142 49.983 120.78 49.9174ZM121.193 49.0865C121.514 49.1446 121.782 49.0844 121.995 48.9056C122.215 48.7279 122.376 48.4884 122.478 48.187L121.523 48.014C121.224 47.9601 121.001 47.977 120.852 48.0648C120.705 48.1468 120.616 48.2667 120.588 48.4246C120.557 48.5941 120.598 48.7373 120.709 48.8541C120.821 48.9709 120.982 49.0484 121.193 49.0865ZM125.973 50.857C125.429 50.7586 125.039 50.5129 124.802 50.1199C124.571 49.7279 124.515 49.2045 124.633 48.5497L125.077 46.0941L126.191 46.2956L125.766 48.6459C125.698 49.0201 125.722 49.3204 125.838 49.5466C125.955 49.7729 126.176 49.9157 126.504 49.9749C126.814 50.031 127.088 49.9659 127.327 49.7797C127.572 49.5946 127.73 49.3032 127.802 48.9056L128.208 46.6606L129.331 46.8637L128.544 51.2135L127.553 51.0342L127.598 50.2817C127.417 50.5146 127.185 50.6838 126.9 50.7893C126.621 50.8958 126.312 50.9184 125.973 50.857ZM129.696 51.422L130.483 47.0721L131.474 47.2514L131.429 48.004C131.61 47.7711 131.84 47.6013 132.118 47.4948C132.403 47.3893 132.718 47.3678 133.063 47.4302C133.601 47.5275 133.988 47.7727 134.225 48.1658C134.462 48.5588 134.521 49.0828 134.403 49.7376L133.958 52.1932L132.836 51.9901L133.261 49.6397C133.329 49.2655 133.305 48.9653 133.189 48.739C133.072 48.5127 132.854 48.3705 132.532 48.3123C132.216 48.2552 131.936 48.3192 131.691 48.5044C131.452 48.6906 131.297 48.9824 131.225 49.38L130.819 51.6251L129.696 51.422ZM137.144 52.8782C136.699 52.7978 136.325 52.6304 136.021 52.3762C135.717 52.1219 135.497 51.8043 135.36 51.4233C135.23 51.0435 135.205 50.6314 135.285 50.187C135.365 49.7427 135.533 49.3655 135.789 49.0555C136.05 48.7465 136.367 48.5262 136.741 48.3946C137.115 48.263 137.525 48.2374 137.969 48.3178C138.524 48.4183 138.966 48.6491 139.293 49.0102C139.621 49.3654 139.792 49.8069 139.805 50.3346L138.621 50.1204C138.601 49.8993 138.513 49.7145 138.359 49.5658C138.212 49.4124 138.021 49.3145 137.787 49.2722C137.477 49.2161 137.193 49.2854 136.934 49.4802C136.676 49.6749 136.509 49.9798 136.434 50.3949C136.359 50.81 136.408 51.1541 136.582 51.4271C136.756 51.7001 136.998 51.8646 137.308 51.9207C137.542 51.963 137.754 51.941 137.945 51.8548C138.141 51.7696 138.288 51.6241 138.386 51.4183L139.57 51.6326C139.376 52.1046 139.062 52.4554 138.628 52.6848C138.194 52.9142 137.699 52.9787 137.144 52.8782ZM140.29 53.3388L141.433 47.0245L142.555 47.2276L142.079 49.8585C142.269 49.6453 142.498 49.4936 142.768 49.4036C143.045 49.3087 143.344 49.2904 143.666 49.3486C144.204 49.4459 144.588 49.6906 144.819 50.0826C145.056 50.4756 145.115 50.9995 144.997 51.6544L144.552 54.1099L143.439 53.9084L143.864 51.5581C143.932 51.1839 143.907 50.8837 143.791 50.6574C143.681 50.4322 143.465 50.2904 143.144 50.2323C142.828 50.1751 142.545 50.2386 142.294 50.4227C142.049 50.6079 141.891 50.8992 141.819 51.2968L141.413 53.5419L140.29 53.3388ZM147.72 54.7918C147.282 54.7124 146.91 54.5485 146.605 54.3001C146.299 54.0517 146.081 53.7404 145.949 53.3664C145.818 52.9924 145.792 52.5832 145.873 52.1389C145.954 51.6887 146.12 51.3051 146.371 50.9882C146.627 50.6723 146.939 50.448 147.308 50.3154C147.683 50.178 148.098 50.1505 148.554 50.233C148.981 50.3102 149.341 50.472 149.635 50.7183C149.928 50.9647 150.136 51.2679 150.258 51.6281C150.387 51.9836 150.415 52.36 150.344 52.7576C150.332 52.8219 150.317 52.8886 150.298 52.9577C150.286 53.0279 150.269 53.1004 150.25 53.1754L146.944 52.5772C146.906 52.9205 146.974 53.2077 147.15 53.4387C147.331 53.6708 147.574 53.8143 147.878 53.8694C148.106 53.9106 148.305 53.8953 148.475 53.8234C148.652 53.7467 148.793 53.6334 148.899 53.4835L150.039 53.6897C149.907 53.9497 149.725 54.1763 149.49 54.3694C149.263 54.5577 148.998 54.6908 148.694 54.7686C148.396 54.8475 148.071 54.8552 147.72 54.7918ZM148.389 51.1451C148.114 51.0954 147.857 51.1304 147.618 51.2502C147.38 51.3641 147.204 51.5736 147.088 51.8788L149.254 52.2707C149.289 51.981 149.225 51.734 149.062 51.5295C148.9 51.3251 148.676 51.1969 148.389 51.1451ZM152.848 55.7195C152.438 55.6454 152.091 55.4799 151.805 55.2229C151.52 54.966 151.315 54.6481 151.19 54.2693C151.065 53.8905 151.043 53.4819 151.122 53.0434C151.201 52.6049 151.365 52.233 151.614 51.9277C151.863 51.6166 152.166 51.3937 152.523 51.259C152.88 51.1184 153.264 51.0851 153.673 51.1591C154 51.2184 154.276 51.3316 154.499 51.4988C154.722 51.666 154.89 51.8744 155.002 52.1241L155.465 49.5633L156.588 49.7664L155.445 56.0807L154.445 55.8998L154.435 55.255C154.26 55.4225 154.042 55.5582 153.782 55.6621C153.527 55.767 153.216 55.7861 152.848 55.7195ZM153.262 54.7801C153.625 54.8457 153.942 54.7792 154.213 54.5808C154.491 54.3775 154.665 54.0859 154.734 53.7059C154.802 53.3258 154.741 52.9948 154.551 52.7128C154.367 52.426 154.094 52.2498 153.732 52.1842C153.375 52.1197 153.058 52.1861 152.781 52.3835C152.504 52.5809 152.331 52.8696 152.262 53.2496C152.193 53.6297 152.254 53.9636 152.443 54.2515C152.633 54.5394 152.906 54.7155 153.262 54.7801Z" fill="#262626"/>
<path d="M67.2048 49.1427L67.9452 45.0501L69.3835 45.3103C69.6719 45.3625 69.9012 45.4523 70.0714 45.5797C70.2461 45.7039 70.3658 45.8544 70.4305 46.0311C70.4958 46.2039 70.5109 46.3878 70.4756 46.5827C70.4276 46.8477 70.3178 47.0432 70.1461 47.1691C69.9783 47.2957 69.7897 47.3703 69.5803 47.3928C69.7274 47.4476 69.8548 47.533 69.9626 47.6492C70.0704 47.7653 70.1467 47.8998 70.1915 48.0528C70.2402 48.2066 70.2493 48.3672 70.219 48.5348C70.1816 48.7414 70.0968 48.9213 69.9644 49.0744C69.8327 49.2237 69.6583 49.331 69.4412 49.3964C69.2248 49.4579 68.9743 49.4629 68.6898 49.4114L67.2048 49.1427ZM68.1126 46.928L69.0247 47.093C69.2859 47.1403 69.4975 47.1162 69.6597 47.0207C69.8226 46.9214 69.9238 46.7626 69.9633 46.5443C70.0006 46.3377 69.9605 46.1594 69.8427 46.0093C69.7289 45.8599 69.5336 45.7601 69.2568 45.7101L68.3623 45.5482L68.1126 46.928ZM67.7699 48.8223L68.7112 48.9926C68.9919 49.0434 69.2198 49.0182 69.3951 48.9171C69.5711 48.8121 69.6802 48.6426 69.7225 48.4088C69.7642 48.1788 69.7174 47.9812 69.5823 47.8158C69.4479 47.6466 69.2442 47.5373 68.9714 47.4879L68.0418 47.3197L67.7699 48.8223ZM70.6575 49.7674L70.7199 49.4225C71.0362 49.2543 71.3372 49.0813 71.6229 48.9036C71.9133 48.7226 72.1737 48.5403 72.4042 48.3566C72.6385 48.1736 72.8293 47.9867 72.9766 47.796C73.1277 47.6059 73.2209 47.4135 73.2561 47.2186C73.2822 47.0744 73.2812 46.9353 73.2531 46.8014C73.2289 46.6682 73.1689 46.5547 73.0732 46.4609C72.9782 46.3632 72.8371 46.2975 72.65 46.2636C72.4707 46.2312 72.3132 46.2449 72.1776 46.3049C72.0427 46.361 71.932 46.4497 71.8457 46.5709C71.7633 46.6929 71.7083 46.8299 71.6808 46.9819L71.2072 46.8962C71.2559 46.6272 71.354 46.4075 71.5016 46.237C71.6499 46.0625 71.8306 45.9423 72.0439 45.8762C72.2571 45.8101 72.4865 45.7993 72.732 45.8437C73.0945 45.9093 73.372 46.0662 73.5646 46.3144C73.7618 46.5594 73.8238 46.8845 73.7504 47.2899C73.7067 47.5316 73.6029 47.7603 73.4391 47.9762C73.2759 48.1882 73.0807 48.3884 72.8534 48.5767C72.6268 48.7612 72.3891 48.9295 72.1401 49.0817C71.8951 49.2346 71.6672 49.3705 71.4566 49.4893L73.4327 49.8469L73.3587 50.2561L70.6575 49.7674ZM75.7928 50.769C75.3913 50.6963 75.0603 50.5459 74.7997 50.3176C74.5437 50.0861 74.3643 49.7981 74.2616 49.4534C74.1597 49.1049 74.1468 48.7202 74.2229 48.2992C74.2984 47.8822 74.4446 47.5302 74.6615 47.2434C74.8791 46.9527 75.1484 46.7438 75.4693 46.6167C75.794 46.4903 76.1571 46.4634 76.5586 46.5361C77.0263 46.6207 77.3859 46.8025 77.6373 47.0814C77.8934 47.3572 78.026 47.7032 78.0352 48.1195L77.4915 48.0211C77.475 47.7565 77.383 47.5305 77.2156 47.3433C77.0528 47.1528 76.8077 47.0279 76.4803 46.9687C76.188 46.9158 75.9204 46.9378 75.6774 47.0348C75.4352 47.1278 75.2307 47.29 75.064 47.5215C74.902 47.7498 74.7892 48.0394 74.7257 48.3902C74.6623 48.741 74.6661 49.0536 74.7372 49.3281C74.8129 49.5995 74.9475 49.8231 75.1411 49.999C75.3354 50.171 75.5787 50.2834 75.871 50.3363C76.1984 50.3956 76.471 50.3684 76.6888 50.2549C76.9112 50.1381 77.0762 49.9606 77.1837 49.7225L77.7274 49.8208C77.5743 50.1997 77.3296 50.4734 76.9931 50.642C76.6606 50.8113 76.2605 50.8536 75.7928 50.769ZM79.7658 51.4154L80.5063 47.3227L81.851 47.566C82.1706 47.6239 82.4242 47.7241 82.6117 47.8667C82.7992 48.0093 82.9255 48.1791 82.9905 48.376C83.0594 48.5737 83.0734 48.7855 83.0325 49.0116C82.9923 49.2337 82.9073 49.4257 82.7774 49.5873C82.6475 49.749 82.4694 49.8657 82.2431 49.9375C82.0175 50.0053 81.7429 50.01 81.4194 49.9515L80.5658 49.797L80.2569 51.5042L79.7658 51.4154ZM80.6409 49.3819L81.4828 49.5342C81.8102 49.5935 82.0545 49.5672 82.2156 49.4555C82.3813 49.3405 82.486 49.1623 82.5297 48.9206C82.5741 48.675 82.5385 48.4714 82.4229 48.3095C82.3119 48.1445 82.0926 48.0324 81.7652 47.9732L80.9233 47.8209L80.6409 49.3819ZM83.1223 52.0227L83.647 49.1227L84.0913 49.2031L84.0318 49.766C84.156 49.5912 84.3199 49.4639 84.5235 49.384C84.7272 49.3041 84.9635 49.2885 85.2324 49.3371L85.1393 49.8516L85.0049 49.8273C84.8334 49.7963 84.6699 49.7989 84.5144 49.8352C84.3596 49.8675 84.2262 49.9481 84.1144 50.0768C84.0026 50.2055 83.9237 50.3965 83.8779 50.6499L83.6134 52.1115L83.1223 52.0227ZM86.4464 52.6965C86.1736 52.6472 85.9393 52.5404 85.7436 52.3762C85.5479 52.2119 85.4062 52.0052 85.3185 51.7558C85.2353 51.5033 85.2216 51.2231 85.2773 50.9151C85.3331 50.6072 85.4457 50.3519 85.6152 50.1491C85.7854 49.9424 85.991 49.7964 86.2318 49.7112C86.4766 49.6266 86.7353 49.6091 87.0082 49.6584C87.281 49.7078 87.5153 49.8146 87.711 49.9788C87.9067 50.143 88.0461 50.3514 88.1292 50.6039C88.217 50.8533 88.233 51.1319 88.1773 51.4398C88.1215 51.7477 88.0086 52.005 87.8383 52.2117C87.6688 52.4145 87.4617 52.5582 87.2169 52.6427C86.9761 52.728 86.7193 52.7459 86.4464 52.6965ZM86.5226 52.2756C86.6902 52.3059 86.8535 52.2932 87.0125 52.2374C87.1716 52.1817 87.3107 52.08 87.43 51.9326C87.5492 51.7851 87.6307 51.5905 87.6744 51.3488C87.7182 51.1072 87.71 50.8964 87.65 50.7165C87.5939 50.5373 87.5011 50.3937 87.3717 50.2857C87.2423 50.1778 87.0957 50.109 86.932 50.0794C86.7644 50.0491 86.6011 50.0618 86.4421 50.1175C86.2831 50.1733 86.1439 50.2749 86.0246 50.4224C85.9054 50.5699 85.8239 50.7645 85.7802 51.0061C85.7364 51.2478 85.7446 51.4586 85.8046 51.6385C85.8646 51.8184 85.9574 51.962 86.0829 52.0692C86.2123 52.1772 86.3589 52.246 86.5226 52.2756ZM89.9006 53.3215C89.6121 53.2693 89.3708 53.1572 89.1765 52.9852C88.9861 52.8139 88.8513 52.6023 88.772 52.3505C88.6967 52.0994 88.6855 51.8276 88.7384 51.5353C88.7913 51.243 88.8986 50.9947 89.0603 50.7905C89.2228 50.5824 89.4228 50.4334 89.6605 50.3436C89.8988 50.2499 90.1642 50.2294 90.4565 50.2823C90.6942 50.3253 90.8959 50.4121 91.0615 50.5427C91.227 50.6733 91.3446 50.8355 91.4142 51.0292L91.739 49.2343L92.2301 49.3232L91.4685 53.5327L91.0241 53.4523L91.0641 52.9644C90.9452 53.0878 90.7878 53.1902 90.5919 53.2715C90.3961 53.3528 90.1656 53.3694 89.9006 53.3215ZM90.0304 52.9042C90.2253 52.9395 90.4049 52.9257 90.5692 52.8628C90.7382 52.7968 90.8784 52.6893 90.9899 52.5404C91.1052 52.3922 91.1826 52.209 91.2221 51.9907C91.2616 51.7725 91.2533 51.5737 91.1972 51.3945C91.1449 51.216 91.0509 51.0681 90.9151 50.951C90.784 50.8306 90.6209 50.7528 90.426 50.7176C90.235 50.683 90.0551 50.6988 89.8861 50.7648C89.7218 50.8277 89.582 50.9332 89.4666 51.0814C89.3551 51.2303 89.2796 51.4139 89.2401 51.6321C89.2007 51.8504 89.207 52.0488 89.2593 52.2273C89.3154 52.4065 89.4091 52.5563 89.5402 52.6766C89.676 52.7938 89.8394 52.8697 90.0304 52.9042ZM93.3146 53.9392C92.9716 53.8771 92.7174 53.7245 92.5521 53.4812C92.3875 53.2341 92.3443 52.8942 92.4226 52.4615L92.7294 50.766L93.2205 50.8549L92.9233 52.4978C92.8139 53.1019 93.0068 53.4488 93.5018 53.5383C93.7552 53.5842 93.9799 53.5322 94.1761 53.3826C94.3768 53.2297 94.5075 52.9857 94.5681 52.6505L94.84 51.1479L95.3311 51.2367L94.8064 54.1366L94.3621 54.0563L94.4212 53.5296C94.2984 53.6965 94.1378 53.8164 93.9395 53.8892C93.745 53.9627 93.5367 53.9794 93.3146 53.9392ZM96.9352 54.5942C96.6584 54.5442 96.4202 54.4367 96.2206 54.2718C96.0256 54.1036 95.8843 53.8949 95.7966 53.6456C95.7134 53.393 95.6994 53.1148 95.7544 52.8107C95.8094 52.5067 95.9197 52.253 96.0853 52.0494C96.2556 51.8428 96.4611 51.6968 96.7019 51.6116C96.9474 51.5231 97.2085 51.5039 97.4852 51.554C97.8282 51.6161 98.1004 51.7579 98.3019 51.9795C98.5072 52.2018 98.6139 52.4687 98.6219 52.7801L98.1191 52.6891C98.1126 52.5028 98.0421 52.3471 97.9077 52.2222C97.7741 52.0933 97.6059 52.0106 97.4032 51.9739C97.2395 51.9443 97.0781 51.9574 96.9191 52.0131C96.7601 52.0689 96.6209 52.1705 96.5017 52.318C96.3824 52.4655 96.3009 52.66 96.2572 52.9017C96.2135 53.1434 96.2216 53.3542 96.2817 53.5341C96.3417 53.714 96.436 53.8599 96.5647 53.9717C96.6942 54.0797 96.8407 54.1485 97.0044 54.1781C97.2071 54.2147 97.3933 54.1981 97.5629 54.1282C97.7332 54.0543 97.8545 53.9293 97.9266 53.7532L98.4294 53.8442C98.3181 54.1259 98.1269 54.3369 97.856 54.4771C97.5851 54.6172 97.2782 54.6563 96.9352 54.5942ZM100.015 55.0791C99.7502 55.0311 99.5533 54.9291 99.4245 54.7729C99.2958 54.6168 99.2617 54.3711 99.3224 54.0359L99.6112 52.4398L99.1084 52.3488L99.1835 51.9337L99.6863 52.0247L99.8765 51.3406L100.303 51.4178L100.177 52.1136L101.031 52.268L100.956 52.6831L100.102 52.5287L99.8135 54.1248C99.7804 54.308 99.7948 54.4394 99.8569 54.5191C99.9197 54.5948 100.045 54.6496 100.232 54.6835L100.536 54.7385L100.46 55.1595L100.015 55.0791ZM102.228 55.5519C101.882 55.4892 101.609 55.3493 101.411 55.1323C101.212 54.9153 101.121 54.6532 101.136 54.346L101.639 54.437C101.643 54.5946 101.699 54.7416 101.807 54.8779C101.92 55.011 102.087 55.0977 102.309 55.1379C102.516 55.1753 102.676 55.1599 102.789 55.0918C102.902 55.0198 102.97 54.9233 102.992 54.8025C103.024 54.6271 102.981 54.4985 102.862 54.4168C102.748 54.3358 102.581 54.2511 102.359 54.1627C102.209 54.1033 102.061 54.0303 101.916 53.9436C101.77 53.8569 101.655 53.7514 101.568 53.6272C101.483 53.499 101.456 53.3472 101.488 53.1718C101.534 52.9184 101.664 52.7288 101.88 52.6028C102.101 52.4737 102.373 52.4384 102.697 52.4969C103.005 52.5526 103.242 52.6761 103.409 52.8672C103.58 53.0552 103.655 53.2943 103.635 53.5845L103.15 53.4967C103.157 53.345 103.114 53.2184 103.019 53.1168C102.929 53.012 102.795 52.9434 102.616 52.911C102.44 52.8792 102.297 52.8916 102.186 52.948C102.079 53.0051 102.015 53.0941 101.993 53.2149C101.972 53.3319 102.016 53.4344 102.125 53.5225C102.237 53.6114 102.395 53.6982 102.597 53.783C102.769 53.8545 102.93 53.9339 103.079 54.0212C103.233 54.1054 103.35 54.2132 103.431 54.3446C103.517 54.4728 103.54 54.6421 103.502 54.8526C103.459 55.1144 103.32 55.3127 103.087 55.4476C102.857 55.5792 102.571 55.614 102.228 55.5519Z" fill="#B4B4B4"/>
<path fill-rule="evenodd" clip-rule="evenodd" d="M48.9875 44.2429C53.0635 44.9803 56.9655 42.2739 57.703 38.198C58.4404 34.122 55.734 30.22 51.6581 29.4825C47.5821 28.745 43.6801 31.4514 42.9426 35.5274C42.2052 39.6034 44.9115 43.5054 48.9875 44.2429ZM48.4818 38.8676C48.598 39.0255 48.7679 39.1238 48.95 39.1548C49.1319 39.1868 49.3248 39.1524 49.4873 39.043L53.7974 36.1477C54.1213 35.9298 54.1964 35.499 53.9658 35.1844C53.7344 34.8697 53.2844 34.7902 52.9605 35.0082L49.237 37.5089L48.1622 36.0469C47.9308 35.7322 47.4816 35.6538 47.1567 35.8716C46.8328 36.0895 46.7578 36.5204 46.9892 36.835L48.4818 38.8676Z" fill="#FFA800"/>
</g>
</g>
<defs>
<filter id="filter0_d_71_41454" x="0.93396" y="0.227783" width="200.132" height="102.608" filterUnits="userSpaceOnUse" color-interpolation-filters="sRGB">
<feFlood flood-opacity="0" result="BackgroundImageFix"/>
<feColorMatrix in="SourceAlpha" type="matrix" values="0 0 0 0 0 0 0 0 0 0 0 0 0 0 0 0 0 0 127 0" result="hardAlpha"/>
<feOffset dy="5.5"/>
<feGaussianBlur stdDeviation="11"/>
<feComposite in2="hardAlpha" operator="out"/>
<feColorMatrix type="matrix" values="0 0 0 0 0 0 0 0 0 0 0 0 0 0 0 0 0 0 0.2 0"/>
<feBlend mode="normal" in2="BackgroundImageFix" result="effect1_dropShadow_71_41454"/>
<feBlend mode="normal" in="SourceGraphic" in2="effect1_dropShadow_71_41454" result="shape"/>
</filter>
</defs>
</svg>
