<svg width="154" height="151" viewBox="0 0 154 151" fill="none" xmlns="http://www.w3.org/2000/svg">
<circle cx="77" cy="74" r="77" fill="#FFFBF3"/>
<circle cx="77.0001" cy="74" r="59.8889" fill="#FFF0D3"/>
<path d="M94.0779 80.2135C93.3282 80.94 92.9837 81.9908 93.1545 83.0212L95.7278 97.2624C95.9449 98.4694 95.4354 99.6909 94.4252 100.388C93.4353 101.112 92.1183 101.199 91.0386 100.62L78.2187 93.9336C77.7729 93.6963 77.2779 93.5689 76.7714 93.5545H75.987C75.7149 93.595 75.4486 93.6818 75.2055 93.815L62.3826 100.533C61.7487 100.852 61.0309 100.964 60.3275 100.852C58.6139 100.527 57.4706 98.8949 57.7514 97.1726L60.3275 82.9315C60.4983 81.8923 60.1538 80.8358 59.4041 80.0977L48.9519 69.9668C48.0778 69.1187 47.7739 67.8451 48.1733 66.696C48.5612 65.5497 49.5511 64.7132 50.7466 64.5251L65.1324 62.4381C66.2266 62.3252 67.1876 61.6595 67.6796 60.6753L74.0187 47.6788C74.1692 47.3894 74.3631 47.1231 74.5976 46.8973L74.8581 46.6947C74.9942 46.5442 75.1505 46.4197 75.3241 46.3184L75.6396 46.2026L76.1317 46H77.3503C78.4387 46.1129 79.3968 46.7642 79.8975 47.7367L86.3205 60.6753C86.7836 61.6219 87.6838 62.2789 88.723 62.4381L103.109 64.5251C104.325 64.6988 105.341 65.5382 105.743 66.696C106.122 67.8567 105.795 69.1303 104.903 69.9668L94.0779 80.2135Z" fill="url(#paint0_linear_71_41449)"/>
<defs>
<linearGradient id="paint0_linear_71_41449" x1="98" y1="52" x2="53.5" y2="103.5" gradientUnits="userSpaceOnUse">
<stop stop-color="#FFA800"/>
<stop offset="1" stop-color="#FFC805"/>
</linearGradient>
</defs>
</svg>
